<svg xmlns="http://www.w3.org/2000/svg" xmlns:xlink="http://www.w3.org/1999/xlink" viewBox="0 0 323.72 431.6"><defs><style>.cls-1{fill:url(#linear-gradient);}.cls-2{fill:#a44743;}.cls-3{fill:#c96865;}.cls-4{fill:#e27f7c;}.cls-5{clip-path:url(#clip-path);}.cls-6{fill:url(#linear-gradient-4);}.cls-7{fill:url(#linear-gradient-5);}.cls-8{fill:url(#linear-gradient-6);}.cls-9{fill:url(#linear-gradient-7);}.cls-10{fill:#5d291b;}.cls-11{fill:none;stroke:#5d291b;stroke-linecap:round;stroke-linejoin:round;stroke-width:2.81px;}</style><linearGradient id="linear-gradient" x1="131.94" x2="131.94" y2="219.88" gradientUnits="userSpaceOnUse"><stop offset="0" stop-color="#e38699"/><stop offset="1" stop-color="#ce586a"/></linearGradient><clipPath id="clip-path" transform="translate(10.69 13.45)"><path class="cls-1" d="M75.23,11.57C60.67,16.91,47,23.69,35.19,34.82,19.5,49.62,8.84,70.11,7.63,91.64c-1.19,21.15,6.45,42.76,1.1,63.26-2.2,8.45-6.54,16.27-8.2,24.84-3.29,17,9.23,30.49,24.34,35.71,28,9.67,53.76,1.37,81.31-4.63,29.64-6.44,58.23-17.11,85.79-29.66,24.71-11.26,49.65-24.85,65.29-47,5.17-7.34,9.19-17.29,4.6-25-3.36-5.66-10.15-8-15.86-11.29-20.51-11.74-28.59-36.63-42.16-56a106.83,106.83,0,0,0-43-35.56C140.56-3,114.55-.93,93.67,5.48,87.42,7.4,81.25,9.36,75.23,11.57Z"/></clipPath><linearGradient id="linear-gradient-4" x1="101.27" y1="-13.45" x2="101.27" y2="61.02" gradientUnits="userSpaceOnUse"><stop offset="0" stop-color="#edb1bd"/><stop offset="1" stop-color="#e38699"/></linearGradient><linearGradient id="linear-gradient-5" x1="205.17" y1="22.19" x2="205.17" y2="81.61" xlink:href="#linear-gradient-4"/><linearGradient id="linear-gradient-6" x1="19.27" y1="56.42" x2="19.27" y2="147.8" xlink:href="#linear-gradient-4"/><linearGradient id="linear-gradient-7" x1="80.9" y1="59.97" x2="80.9" y2="93.28" xlink:href="#linear-gradient-4"/></defs><g id="Layer_2" data-name="Layer 2"><g id="Layer_1-2" data-name="Layer 1"><path class="cls-2" d="M122.2,320.76c-1.22,14.71-4.08,30.62,3.35,43.38,2.42,4.16,6,7.82,10.59,9.38s10.12.63,13.29-3c4.74-5.41,2.64-13.67,1-20.67-4.45-19.17-3.21-39.15-1.55-58.76s3.72-39.42.83-58.88-11.38-38.92-27.09-50.77c-20.23-15.27-40.16,4.89-30.08,25.85,11.2,23.31,23.08,43.76,27.62,69.75A172.16,172.16,0,0,1,122.2,320.76Z" transform="translate(10.69 13.45)"/><path class="cls-2" d="M200.64,260.16c13.73,10.85,31,20.51,35.07,37.54,1.8,7.52,1.47,17,8.17,20.88,4.62,2.67,10.87.95,14.54-2.92s5.16-9.36,5.5-14.69c1.39-21.44-13.25-40.48-28.78-55.32S201.79,217,193.39,197.22c-4.92-11.58-6.35-24.75-13.48-35.11-8.22-12-20.52-7.49-25.07,4.93-3.31,9.06,1,21.24,3.54,30A126.14,126.14,0,0,0,200.64,260.16Z" transform="translate(10.69 13.45)"/><path class="cls-2" d="M254.31,188.73c8.25,1.65,17,1.3,24.75,4.48s14.43,11.85,11.37,19.68c-2.77,7.08-11.58,9.47-19.18,9.72-30.93,1-61.41-19.37-72.24-48.36-2.16-5.77-3.59-12.18-1.73-18.06,1.69-5.34,8.05-11.58,14-8.54,5.06,2.59,6.63,12.76,9.57,17.44C228.27,177,240.49,186,254.31,188.73Z" transform="translate(10.69 13.45)"/><path class="cls-2" d="M52.8,271c-3.55,3.94-8,7.77-8.66,13-.94,7.26,6.43,13.61,13.75,13.76s14-4.29,19-9.58A55.35,55.35,0,0,0,91.1,240.87c-1.45-8-22.15-49.12-29.46-27.85-3.07,8.94,4.18,19.84,3.46,29.47A48.36,48.36,0,0,1,52.8,271Z" transform="translate(10.69 13.45)"/><path class="cls-3" d="M75.4,250.28c.53,16-4.7,32.78-16.78,43.26-4.25,3.68-9.23,6.53-13,10.68s-6.23,10.28-4,15.43c3.18,7.33,13.32,8.28,21.06,6.28,23-5.93,39.79-27.81,44-51.21S104.15,227,92.56,206.23c-5.4-9.67-23.85-21.46-26.8-3.5-1.12,6.8,2.24,13.87,4.3,20.13A98.09,98.09,0,0,1,75.4,250.28Z" transform="translate(10.69 13.45)"/><path class="cls-3" d="M170.12,241c12,20.7,25,41.19,31.9,64.08s7.12,49.1-5.64,69.33c-2.22,3.53-5.22,7.08-9.33,7.7s-8.14-2-10.38-5.45-3-7.67-3.55-11.77c-2.58-19.81-.78-40.09-4.51-59.71-7.4-39-35.68-71.26-44.5-109.92-1.26-5.5-2.1-11.26-.89-16.77,1.54-7,9.68-16.88,18-12.48,5.84,3.11,3.63,10.79,4.18,16.3C147.42,202.94,160,223.43,170.12,241Z" transform="translate(10.69 13.45)"/><path class="cls-3" d="M215.52,244.25c9.27,7.35,19.71,13.11,29.11,20.29s18,16.19,21.6,27.46c4.48,14.06.71,30,6.5,43.57,2.84,6.64,9.3,12.81,16.4,11.51,4.5-.83,8-4.54,9.86-8.73s2.19-8.85,2.43-13.41c1.43-26.88-1.58-56.13-19.53-76.17-14.55-16.25-36.51-23.72-53.06-37.91a83.12,83.12,0,0,1-26-41.25c-1.46-5.47-3.08-12-8.36-14-4.64-1.78-10,1.16-12.66,5.37C164.85,188,195,228,215.52,244.25Z" transform="translate(10.69 13.45)"/><path class="cls-4" d="M91.65,281.67c-2.26,21.78-11.18,42.27-15.85,63.67S71.46,391.16,85.43,408c3.54,4.27,8,8,13.36,9.49s11.62.4,15.38-3.68c6.23-6.77,3.23-17.52,0-26.12-5.23-13.78-10.31-28.16-9.21-42.86,1.14-15.11,9.15-27.37,13.7-41.4,4.13-12.72,4.82-27.44,4.3-40.71a146.45,146.45,0,0,0-12.66-54c-5.39-12-19.73-40-36.42-23.15-8.88,9-1.66,17.26,3,26.11C88.08,233.06,94.16,257.5,91.65,281.67Z" transform="translate(10.69 13.45)"/><path class="cls-4" d="M160.2,155.36a112,112,0,0,0,27.34,82.93c11.55,13.05,25.94,23.1,38.47,35.13,10,9.58,16.66,24.55,22.19,37.2A139.17,139.17,0,0,1,259.76,363c.23,9.34.79,47.09-12.42,45.71-7.22-.76-13.36-6.07-16.88-12.42s-4.81-13.68-5.73-20.89c-3.43-26.73-3-55.4-17.42-78.16-8.61-13.59-21.69-23.59-33.14-34.89-13.92-13.74-25.74-29.85-33-48s-9.7-38.48-5.26-57.52c1.39-5.93,3.65-12,8.45-15.8s12.7-4.05,16.38.81" transform="translate(10.69 13.45)"/><path class="cls-4" d="M229.42,228.46c17,9.28,38.26,13.79,48.94,30,3.05,4.63,5,9.93,8.15,14.48s8.11,8.47,13.64,8.2c5-.25,9.36-4,11.34-8.57s1.86-9.84.76-14.7c-3.24-14.33-14.39-25.68-26.82-33.5S259.05,211.49,246,204.69c-11.44-6-22.69-13.75-29.72-24.84-3.95-6.24-7.56-28.44-16.12-29.2-7.57-.67-11.9,12.79-12.58,18.26-1.37,11.08,5.59,22.85,11.56,31.71A87,87,0,0,0,229.42,228.46Z" transform="translate(10.69 13.45)"/><path class="cls-1" d="M75.23,11.57C60.67,16.91,47,23.69,35.19,34.82,19.5,49.62,8.84,70.11,7.63,91.64c-1.19,21.15,6.45,42.76,1.1,63.26-2.2,8.45-6.54,16.27-8.2,24.84-3.29,17,9.23,30.49,24.34,35.71,28,9.67,53.76,1.37,81.31-4.63,29.64-6.44,58.23-17.11,85.79-29.66,24.71-11.26,49.65-24.85,65.29-47,5.17-7.34,9.19-17.29,4.6-25-3.36-5.66-10.15-8-15.86-11.29-20.51-11.74-28.59-36.63-42.16-56a106.83,106.83,0,0,0-43-35.56C140.56-3,114.55-.93,93.67,5.48,87.42,7.4,81.25,9.36,75.23,11.57Z" transform="translate(10.69 13.45)"/><g class="cls-5"><path class="cls-1" d="M75.23,11.57C60.67,16.91,47,23.69,35.19,34.82,19.5,49.62,8.84,70.11,7.63,91.64c-1.19,21.15,6.45,42.76,1.1,63.26-2.2,8.45-6.54,16.27-8.2,24.84-3.29,17,9.23,30.49,24.34,35.71,28,9.67,53.76,1.37,81.31-4.63,29.64-6.44,58.23-17.11,85.79-29.66,24.71-11.26,49.65-24.85,65.29-47,5.17-7.34,9.19-17.29,4.6-25-3.36-5.66-10.15-8-15.86-11.29-20.51-11.74-28.59-36.63-42.16-56a106.83,106.83,0,0,0-43-35.56C140.56-3,114.55-.93,93.67,5.48,87.42,7.4,81.25,9.36,75.23,11.57Z" transform="translate(10.69 13.45)"/><path class="cls-6" d="M34.55,41.47c2.8,6.61,11,9.37,18.15,8.67s13.75-4,20.59-6.16,14.72-3.15,20.89.53c5.08,3,8.07,8.63,12.78,12.2,10.06,7.65,24.67,3.95,35.72-2.18,7.78-4.32,15.11-9.81,20.18-17.12s7.66-16.66,5.57-25.32C166.06,2.26,157.92-5.48,148.59-9.4s-19.73-4.46-29.83-3.84A163.83,163.83,0,0,0,63.52.71C51.07,6.26,27.91,25.83,34.55,41.47Z" transform="translate(10.69 13.45)"/><path class="cls-7" d="M180.58,41.06c-.59,4.1,1.4,8.07,2.43,12.08,1.34,5.21,1.07,10.8,3,15.81,3.23,8.31,12.63,13.47,21.5,12.55s16.72-7.39,20.15-15.62c6.1-14.67-1.3-32.74-14.22-41.27C202.28,17.22,182.49,27.9,180.58,41.06Z" transform="translate(10.69 13.45)"/><path class="cls-8" d="M-10.69,81.16C-5,74.46.79,67.67,8.09,62.77s16.45-7.74,25-5.66S49,67.1,48.55,75.88c-.36,7.29-5.67,13.91-4.95,21.17.54,5.56,4.55,10.26,5.44,15.77.84,5.21-1.24,10.55-4.47,14.73s-7.52,7.38-11.75,10.53-8.82,6.55-13.95,8.37-11.13,2-15.77-.83c-5.15-3.15-7.63-9.23-9.26-15A100.23,100.23,0,0,1-8.92,90.06" transform="translate(10.69 13.45)"/><path class="cls-9" d="M87.56,90.9C96.23,86.68,104.16,71,95,63.09c-4.24-3.64-10.65-3.88-15.84-1.83-7.78,3.08-18,11.65-16.28,20.95.91,5,5.11,9,10,10.38S83,93.11,87.56,90.9Z" transform="translate(10.69 13.45)"/></g><path class="cls-10" d="M142.83,103.32l26-5.36s-4.26-6-14.86-3.73S142.83,103.32,142.83,103.32Z" transform="translate(10.69 13.45)"/><path class="cls-10" d="M97.42,117.19,73.54,137.38S71,129.15,80.86,121,97.42,117.19,97.42,117.19Z" transform="translate(10.69 13.45)"/><path class="cls-11" d="M156.07,144.07c-.31,1.2-3.62,12.87-15.5,17.46-13.26,5.12-24.59-3.47-25.14-3.9" transform="translate(10.69 13.45)"/><path class="cls-10" d="M110.92,135.12c-.36,1.53-6.51-.55-10,3-3.24,3.29-1.51,8.66-3,9-1.31.29-4.27-3.67-3.93-7.78a9.65,9.65,0,0,1,8.35-8.35C106.88,130.48,111.23,133.77,110.92,135.12Z" transform="translate(10.69 13.45)"/><path class="cls-10" d="M159.45,123c-1.18,1.05-5-4.19-9.91-3.3-4.54.83-6.21,6.22-7.63,5.64-1.24-.51-1.38-5.45,1.26-8.62a9.64,9.64,0,0,1,11.63-2C158.81,116.87,160.47,122.07,159.45,123Z" transform="translate(10.69 13.45)"/></g></g></svg>