<svg xmlns="http://www.w3.org/2000/svg" xmlns:xlink="http://www.w3.org/1999/xlink" viewBox="0 0 499.15 341.1"><defs><style>.cls-1{fill:none;}.cls-2{fill:#3d795f;}.cls-3{fill:#2a5742;}.cls-4{fill:url(#linear-gradient);}.cls-5{fill:url(#linear-gradient-2);}.cls-6{opacity:0.1;}.cls-7{fill:url(#linear-gradient-3);}.cls-8{fill:url(#linear-gradient-4);}.cls-9{fill:url(#linear-gradient-5);}.cls-10{fill:#5d291b;}.cls-11{clip-path:url(#clip-path);}.cls-12{fill:#fdfdfd;}</style><linearGradient id="linear-gradient" x1="289.05" y1="86.89" x2="237.26" y2="238.24" gradientUnits="userSpaceOnUse"><stop offset="0" stop-color="#a4d69a"/><stop offset="1" stop-color="#6cbe9a"/></linearGradient><linearGradient id="linear-gradient-2" x1="216.96" y1="130.99" x2="290.74" y2="130.99" gradientUnits="userSpaceOnUse"><stop offset="0" stop-color="#3d795f"/><stop offset="1" stop-color="#5ea17b"/></linearGradient><linearGradient id="linear-gradient-3" x1="162.82" y1="148.91" x2="208.65" y2="148.91" xlink:href="#linear-gradient-2"/><linearGradient id="linear-gradient-4" x1="295.12" y1="98.7" x2="295.12" y2="251.49" xlink:href="#linear-gradient-2"/><linearGradient id="linear-gradient-5" x1="107.91" y1="170.95" x2="152.38" y2="170.95" xlink:href="#linear-gradient-2"/><clipPath id="clip-path"><path class="cls-1" d="M405.83,196.18a25.46,25.46,0,0,0-8-7,35.93,35.93,0,0,0-6-3c-8.55-3.28-16.48-2-23.9-.76-2.85.47-10.35,1.87-12.63,5.18a22,22,0,0,0-2.22,4.45,15.16,15.16,0,0,0-.32,9.39q.18,2.92.34,5.84c4.36-1.46,9-2.81,14-4a159.68,159.68,0,0,1,41.7-4.11A21.7,21.7,0,0,0,405.83,196.18Z"/></clipPath></defs><g id="Layer_2" data-name="Layer 2"><g id="Layer_1-2" data-name="Layer 1"><path class="cls-2" d="M101.46,75.22a26.87,26.87,0,0,0-8.22,4c-5.47,4.15-8.41,11-9,17.88s1,13.71,3.11,20.24c3.73,11.46,10,23,20.73,28.45,15,7.55,33.09.8,47.58-7.65q3.3-1.92,6.52-3.95C139.87,116.93,120.63,95.81,101.46,75.22Z"/><path class="cls-3" d="M101.46,75.22c19.17,20.59,38.41,41.71,60.73,59,5.84-3.67,11.53-7.57,17.16-11.55-22.67-16-45.17-32.33-66-50.64C109.42,73.19,105.32,74,101.46,75.22Z"/><path class="cls-3" d="M145.37,40.23c-.53.29-1,.63-1.51,1,22.2,20.31,46,38.44,70.72,56.48l1.79-1.19q4.9-3.21,10-6.2C203,74.54,182,55.71,161.11,37,155.57,37.16,150.12,37.55,145.37,40.23Z"/><path class="cls-2" d="M177.79,35c-5.25,1.88-11,1.8-16.68,2C182,55.71,203,74.54,226.36,90.28c13.49-7.92,27.9-14.46,43-17.62-27-14.44-53.78-29.51-78.19-47.48C187.34,29.43,183.16,33.11,177.79,35Z"/><path class="cls-3" d="M199.65,15c-2.87,3.37-5.58,6.93-8.48,10.15,24.41,18,51.23,33,78.19,47.48a95,95,0,0,1,15.07-2c6.69-.33,14,0,20.37-2.2C269.32,51.77,233.52,34.7,199.65,15Z"/><path class="cls-2" d="M312.76,63.62c7.08-7.07,4.43-14.86-1.45-21.7-12.9-15-33.24-26.18-51-34.2-16-7.23-35.77-11.92-50.46-2.24A49.4,49.4,0,0,0,199.65,15C233.52,34.7,269.32,51.77,304.8,68.5A20.42,20.42,0,0,0,312.76,63.62Z"/><path class="cls-2" d="M122.09,68.09A29.83,29.83,0,0,1,113.33,72c20.85,18.31,43.35,34.61,66,50.64,11.74-8.32,23.23-17,35.23-25-24.72-18-48.52-36.17-70.72-56.48C134.45,47.69,131.63,61.45,122.09,68.09Z"/><path class="cls-2" d="M118.79,289.65a27.12,27.12,0,0,1-8.8-2.47c-6.14-3.09-10.28-9.32-12.09-15.95s-1.53-13.66-.62-20.47c1.6-11.94,5.63-24.44,15.23-31.73,13.36-10.15,32.4-6.79,48.18-1.12,2.39.86,4.77,1.78,7.13,2.71C149,241.66,133.91,265.92,118.79,289.65Z"/><path class="cls-3" d="M118.79,289.65c15.12-23.73,30.21-48,49-69,6.41,2.54,12.7,5.35,19,8.25-19.39,19.87-38.56,40-55.74,61.77C127,290.21,122.82,290.17,118.79,289.65Z"/><path class="cls-3" d="M168.32,316.1c-.57-.2-1.11-.44-1.65-.68,18.14-24,38.26-46.15,59.29-68.38.66.29,1.32.58,2,.85q5.4,2.27,10.94,4.28c-20.13,19.73-37.37,42.05-54.5,64.24C178.91,317.26,173.49,317.87,168.32,316.1Z"/><path class="cls-2" d="M201.15,315.32c-5.5-.9-11.16.22-16.76,1.09,17.13-22.19,34.37-44.51,54.5-64.24,14.71,5.35,30.06,9.16,45.49,9.54-23.9,19.09-47.54,38.77-68.29,60.87C211.56,319.1,206.78,316.24,201.15,315.32Z"/><path class="cls-3" d="M226.27,331c-3.42-2.79-6.73-5.8-10.18-8.44,20.75-22.1,44.39-41.78,68.29-60.87a96.38,96.38,0,0,0,15.17-.81c6.64-.9,13.78-2.54,20.43-1.54C288.13,282.25,256,305.53,226.27,331Z"/><path class="cls-2" d="M328.69,262.72c8.25,5.67,7.06,13.81,2.52,21.6-10,17.09-27.94,31.78-44,42.9-14.46,10-33,18.21-49.21,11.35A49.24,49.24,0,0,1,226.27,331C256,305.53,288.13,282.25,320,259.36A20.46,20.46,0,0,1,328.69,262.72Z"/><path class="cls-2" d="M140.38,292.91a30.3,30.3,0,0,0-9.33-2.27c17.18-21.78,36.35-41.9,55.74-61.77,13.05,6,25.93,12.53,39.17,18.17-21,22.23-41.15,44.38-59.29,68.38C156.24,310.73,151,297.72,140.38,292.91Z"/><path class="cls-2" d="M67.71,149.68q.42-5.46,1-10.9a17.46,17.46,0,0,1-1.6-.72c-11.18-5.82-17.12-19-24.17-28.71A44.77,44.77,0,0,0,40,105.71c-4.54-5-10.51-8.93-16.81-7.33-5.8,1.48-9.19,7-11.41,12.79C23.88,130.9,45,144.61,67.71,149.68Z"/><path class="cls-3" d="M67.71,149.68c-22.68-5.07-43.83-18.78-56-38.51-.52,1.37-1,2.75-1.39,4.1q-2,6.66-3.63,13.42c16,16.19,37.92,24.8,60.53,27.81Q67.45,153.08,67.71,149.68Z"/><path class="cls-2" d="M66.54,172.56q.19-8,.7-16.06c-22.61-3-44.49-11.62-60.53-27.81A244,244,0,0,0,.14,177.26C22.27,178.68,44.59,176.73,66.54,172.56Z"/><path class="cls-3" d="M454.67,258.35c-2.36,2.37-4.85,4.75-7.47,6.93-12.62-12.42-29.74-21.1-40.51-34.47C427.59,227.28,440.84,244.59,454.67,258.35Z"/><path class="cls-2" d="M372.49,187.15c3.64-2.9,11.79-.3,16.09-.19a133.3,133.3,0,0,0,19.15-1c26.49-3.11,52.26-12.08,79.15-11.71,4.1.05,8.81.67,11,4.11,1.74,2.67,1.33,6.15.7,9.27a95.54,95.54,0,0,1-6.31,19.57c-18.56-3.41-36.7-10.22-56.39-11.5l-1.16,4.16c16.94,8.41,35.35,11.57,52.83,16.82a148.31,148.31,0,0,1-12.1,18.25C456.75,227,441.37,209.58,419,213.36l-1.16,4.15c15.81,10.32,34.93,15.73,52.16,24.17-4.85,5.76-10,11.28-15.26,16.57l-.1.1c-13.83-13.76-27.08-31.07-48-27.54,10.77,13.37,27.89,22.05,40.51,34.47-6.23,5.16-13.23,9.2-21.14,9.26-10.93.1-20.33-7.43-28-15.2-9.94-10.08-18.88-21.47-24.05-34.65C371.07,217.21,364.48,193.55,372.49,187.15Z"/><path class="cls-3" d="M419,213.36c22.34-3.78,37.72,13.6,56.45,21.55q-2.66,3.43-5.45,6.77c-17.23-8.44-36.35-13.85-52.16-24.17Z"/><path class="cls-3" d="M434.75,199.84l1.16-4.16c19.69,1.28,37.83,8.09,56.39,11.5-1.42,3.22-3,6.39-4.72,9.48C470.1,211.41,451.69,208.25,434.75,199.84Z"/><path class="cls-2" d="M4.13,230.22C24,219.41,45.34,210.06,67.24,204c-.6-8.14-.85-16.34-.8-24.55A561.22,561.22,0,0,1,.15,194a243.14,243.14,0,0,0,3.36,32.86C3.71,228,3.92,229.1,4.13,230.22Z"/><path class="cls-3" d="M67.24,204c-21.9,6-43.28,15.37-63.11,26.18,1.09,5.53,2.57,11,5.35,15.89l.23.38c17.91-12.9,37.8-22.87,58.68-30.64Q67.69,210,67.24,204Z"/><path class="cls-2" d="M9.71,246.49C13.07,252.18,18.48,257,25,258.12c7,1.26,13.7-1.73,19.42-6.23a53.15,53.15,0,0,0,6.89-6.59c6-6.75,11.16-14.55,18.5-19.55-.54-3.28-1-6.58-1.4-9.9C47.51,223.62,27.62,233.59,9.71,246.49Z"/><path class="cls-3" d="M66.54,172.56c-22,4.17-44.27,6.12-66.4,4.7-.2,5.58-.18,11.16,0,16.75a561.22,561.22,0,0,0,66.29-14.52C66.45,177.18,66.49,174.87,66.54,172.56Z"/><path class="cls-4" d="M450.51,157.56A120.67,120.67,0,0,0,436,121.08c-14.7-25.35-36.11-48-61.43-62.91q-5.94-3.49-12.15-6.47c-38-18.22-82.88-21.81-123.17-9.42-51.14,15.73-91.36,54.28-135,85.17-9.57,6.77-23.66,16.09-35.54,11.33-2.82,28.94-3.56,58.55,1.12,87a33.26,33.26,0,0,1,3.11-1.87c27.1-14.14,50.32,14.29,71.25,26.74,25.67,15.27,53.11,27.77,82,35.69,39.67,10.88,82.21,12.89,121.94,2.26A185.85,185.85,0,0,0,402.7,264c17.22-11.44,24.56-17.24,28.42-21.6a90.93,90.93,0,0,0,18.69-33.33C456.63,186.83,452.8,168.11,450.51,157.56Z"/><path class="cls-5" d="M236.8,79.94c-9,12-14.06,27.36-11.49,42.09,1.27,7.23,4.32,14.19,4.4,21.53s-2.83,14.38-5.84,21.09-6.22,13.54-6.82,20.87,2,15.43,8.32,19.21c6.88,4.12,16.16,1.85,22.28-3.33,9.3-7.87,12.55-20.94,12.41-33.13s-3.11-24.17-3.89-36.33,1-25.26,8.94-34.49c6.52-7.57,40.82-30.56,17.75-40.61C265.73,49.38,245.86,67.83,236.8,79.94Z"/><path class="cls-6" d="M450.51,157.56c-2.25,14.63-8.35,40.11-27.55,63.56-31.25,38.17-76.25,45.4-99.07,49.07-15.43,2.48-88.18,14.17-153.71-24.07-25.84-15.08-52.1-38.83-81.48-30.56a51.4,51.4,0,0,0-18.91,10.19A34.4,34.4,0,0,1,85,220.19c8.58-.9,15.15,1.91,21.3,4.63,4.06,1.8,6.32,3.28,25,16.67,11.46,8.21,11.28,8.13,13,9.26a208.88,208.88,0,0,0,26.86,14.81c10,4.71,30.23,14.23,55,20.75,20.17,5.31,67.26,16.89,121.94,2.26A185.85,185.85,0,0,0,402.7,264c17.22-11.44,24.56-17.24,28.42-21.6a91.15,91.15,0,0,0,18.69-33.33A93,93,0,0,0,450.51,157.56Z"/><path class="cls-7" d="M166.52,135c2,8.52,8.12,16.05,8,24.79-.1,6.92-4.1,13.07-7.36,19.17s-5.92,13.4-3.25,19.78c3.71,8.88,16.66,10.84,24.66,5.49s11.51-15.5,12-25.11S199.27,160,199,150.34c-.45-14.69,4.05-26.63,8.32-40.32,2.52-8.08,2.32-17.85-7.77-19.23C178.73,87.94,162.51,117.82,166.52,135Z"/><path class="cls-3" d="M207.86,284.53c2.48,2.24,5.09,4.48,7.83,6.52,11.94-13.08,28.57-22.65,38.61-36.58C233.24,252.06,220.94,270.05,207.86,284.53Z"/><path class="cls-2" d="M286.13,209.05c-3.79-2.71-11.79.33-16.08.67a134.92,134.92,0,0,1-19.18,0c-26.62-1.7-52.83-9.27-79.67-7.48-4.08.28-8.75,1.15-10.79,4.7-1.59,2.75-1,6.21-.2,9.29a96.06,96.06,0,0,0,7.34,19.21c18.36-4.4,36.11-12.16,55.7-14.49l1.38,4.09c-16.47,9.3-34.69,13.44-51.86,19.62a149.16,149.16,0,0,0,13.06,17.57c18.28-8.93,32.71-27.11,55.22-24.53l1.38,4.09c-15.24,11.14-34,17.57-50.8,26.92,5.15,5.49,10.59,10.72,16.12,15.72l.11.1c13.08-14.48,25.38-32.47,46.44-30.06-10,13.93-26.67,23.5-38.61,36.58,6.49,4.82,13.7,8.48,21.61,8.12,10.91-.49,19.9-8.51,27.15-16.68,9.39-10.58,17.71-22.43,22.17-35.87C289.15,239,294.46,215,286.13,209.05Z"/><path class="cls-3" d="M241.05,237.7c-22.51-2.58-36.94,15.6-55.22,24.53q2.82,3.3,5.8,6.48c16.76-9.35,35.56-15.78,50.8-26.92Z"/><path class="cls-3" d="M224.63,225,223.25,221c-19.59,2.33-37.34,10.09-55.7,14.49,1.59,3.14,3.34,6.22,5.22,9.22C189.94,238.48,208.16,234.34,224.63,225Z"/><path class="cls-8" d="M285.66,207c2.83,16.61,8.17,34.11,21.48,44.46,3-13-2.86-26.15-7.19-38.77a175.23,175.23,0,0,1-9.34-60.25,177.81,177.81,0,0,1,3.31-30.78c1.37-6.93,6.07-16.19,5.48-23-12,5.38-14,27.79-15.31,38.52A240.93,240.93,0,0,0,285.66,207Z"/><path class="cls-9" d="M107.91,171.8a47.39,47.39,0,0,0,13.24,32.48c1.65,1.7,3.62,3.36,6,3.48,2.56.14,4.93-1.65,6.18-3.9a17.8,17.8,0,0,0,1.77-7.43c.62-8.39.15-17.51,5-24.39,3-4.31,7.91-7.21,10.44-11.84,7.45-13.65-9.1-28.82-22.63-25.65C114,137.81,107.87,159.77,107.91,171.8Z"/><path class="cls-6" d="M9.71,246.49C13.07,252.18,18.48,257,25,258.12c7,1.26,13.7-1.73,19.42-6.23a53.15,53.15,0,0,0,6.89-6.59c6-6.75,11.16-14.55,18.5-19.55-.54-3.28-1-6.58-1.4-9.9C47.51,223.62,27.62,233.59,9.71,246.49Z"/><path class="cls-10" d="M412.9,163.49c-.16.92-1.28,6.52-5.47,7.13-3.24.48-6.42-2.26-7.14-5.47-.87-3.94,2.37-6.83,2.54-7,2.41-2.08,6.57-2.92,8.81-.86C413.63,159.16,413.09,162.4,412.9,163.49Z"/><path class="cls-10" d="M392.14,146.56l37.22,7.05S427,143.45,411.8,140.7,392.14,146.56,392.14,146.56Z"/><path class="cls-10" d="M362.12,146.05,319.59,159s1.44-12.15,18.85-17.28S362.12,146.05,362.12,146.05Z"/><path class="cls-10" d="M345.21,168.73c.19,1.06,1.51,7.55,6.33,8.25,3.72.54,7.36-2.64,8.16-6.36,1-4.57-2.76-7.91-3-8.08-2.77-2.39-7.56-3.37-10.12-1C344.34,163.7,345,167.46,345.21,168.73Z"/><path class="cls-10" d="M405.18,195.31a23.18,23.18,0,0,0-3-3.06c-.59-.5-1.38-1.06-2.95-2.17a20,20,0,0,0-4-2.39s-.68-.28-1.47-.51a57.57,57.57,0,0,0-29-.71,49.18,49.18,0,0,0-8.52,3.26l-.93,1.1c-.23.27-.46.53-.68.8a17.91,17.91,0,0,0-1.62,3.42,14.62,14.62,0,0,0-.68,2.53,15.46,15.46,0,0,0,.36,6.86q.18,2.92.34,5.84c4.36-1.46,9-2.81,14-4a159.68,159.68,0,0,1,41.7-4.11A21.62,21.62,0,0,0,405.18,195.31Z"/><g class="cls-11"><path class="cls-12" d="M344.57,190.14a147.45,147.45,0,0,1,55.81-7.2,18,18,0,0,1,3.41,4.83c-3-.08-5.78-.1-8.49-.08l-3.93,5c-1.47-1.59-2.93-3.19-4.39-4.78l-4,5.1-6.38-4.15-3.4,5.57-7.42-3.82-2.89,5.89-6.81-3.74L353.35,199l-6.12-4c-1.41.58-2.1.94-2.1.94Z"/><path class="cls-12" d="M409.81,203.52a204.37,204.37,0,0,1-22.12,4.78,204.94,204.94,0,0,1-40.32,2.33,17.63,17.63,0,0,1-3.92-4.78c3.44,0,6.72,0,9.87,0l4.61-5.06,5.07,4.73,4.7-5.16,7.38,4.07,4-5.62,8.59,3.73,3.41-5.94,7.88,3.66c.33-.63,2.68-5.23,3-5.86l.21-.41a7.78,7.78,0,0,1,3.65,2.23,7.41,7.41,0,0,1,1.45,2.34c.17.31.33.64.5,1,.25.53.46,1,.65,1.53Z"/></g></g></g></svg>