<svg id="Layer_1" data-name="Layer 1" xmlns="http://www.w3.org/2000/svg" xmlns:xlink="http://www.w3.org/1999/xlink" viewBox="0 0 1125 1626"><defs><style>.cls-1{fill:none;}.cls-2{clip-path:url(#clip-path);}.cls-3{fill:url(#linear-gradient);}.cls-4{fill:url(#linear-gradient-2);}.cls-5{fill:url(#linear-gradient-3);}.cls-6{fill:url(#linear-gradient-4);}.cls-7{fill:#121e44;}.cls-8{fill:#d1d5db;}.cls-9{fill:#b40f15;}.cls-10{fill:#02102b;}.cls-11{fill:#a50d14;}.cls-12{fill:url(#linear-gradient-5);}</style><clipPath id="clip-path"><rect class="cls-1" y="19" width="1125" height="1617"/></clipPath><linearGradient id="linear-gradient" x1="562.5" y1="1757.02" x2="562.5" y2="1041.33" gradientUnits="userSpaceOnUse"><stop offset="0" stop-color="#4835a8"/><stop offset="1" stop-color="#9365a5"/></linearGradient><linearGradient id="linear-gradient-2" x1="852" y1="1012.6" x2="852" y2="1123.35" gradientUnits="userSpaceOnUse"><stop offset="0" stop-color="#f5c271"/><stop offset="1" stop-color="#a56fa1"/></linearGradient><linearGradient id="linear-gradient-3" x1="51" y1="910.31" x2="818.8" y2="910.31" gradientUnits="userSpaceOnUse"><stop offset="0" stop-color="#0f1d38"/><stop offset="0.03" stop-color="#0b1628"/><stop offset="1" stop-color="#0f1d38"/></linearGradient><linearGradient id="linear-gradient-4" x1="564.67" y1="1047.98" x2="262.62" y2="1041.66" gradientUnits="userSpaceOnUse"><stop offset="0" stop-color="#25336d"/><stop offset="1" stop-color="#0f1d38"/></linearGradient><linearGradient id="linear-gradient-5" x1="521.94" y1="924.05" x2="-201.05" y2="924.05" xlink:href="#linear-gradient-4"/></defs><g class="cls-2"><rect class="cls-3" y="1011" width="1125" height="786"/><path class="cls-4" d="M1125,1023.09v17.29c-24.06.63-40.19-1-48.53,2.3-3.55,1.42-6.71,4.14-3.4,6.09,5.19,3,22.85,2.15,51.93,1.62v37.76c-72.13.56-155.48-11.12-165-4.11-2.34,1.72,1,3.68,2.91,4.84,13.19,7.83,61.5,6.9,162.1,9.32v26.71c-46.16-.09-135.82-.16-273,.08-155.07.28-229.4-7.16-228.59-13.55.24-1.9,10.17-3.36,30.82-6.18,79.55-10.87,138.46-8.6,145.11-16.07,2.82-3.16-5.19-6.42-6.31-6.87-20.58-8.36-71,.75-149.48-1.87-16.2-.54-47.67-2.06-64.55-4.42v-7.45c30.48-6.37,118.21-14.44,211.07-14.3,98,.14,180.71,9.38,200.49-1.61,5.41-3,3.4-5.31,3.4-5.31-2-2.11-8.29-3.28-12.13-3.9-29.17-4.72-87.4-6.18-108.23-6.71-24.31-.62-26.78-.7-34-.78-30.34-.35-36.61.49-56.6,0-22.87-.56-54.17-2.63-54.22-4.87s30.47-3.9,35.6-4.18c33.57-1.86,44.38.36,77.65.31,42.32-.06,41.76-3.67,101.44-4.84,24.13-.47,39.72-.18,40.5-1.51,1.57-2.65-51.15-7.7-51.15-7.7l-8.62-2.18H1125v.37c-16.18.56-42.63,1.31-80.76,1.81C974.15,1014.12,1048.8,1022.08,1125,1023.09Z"/><path class="cls-5" d="M51,795.23s288.25-62.72,406.63,55.64S450.71,923.78,616.35,944s75.25,88.76,202.45,98H51Z"/><path class="cls-6" d="M543,1014.88c-7.46,1.4-16.65,6.92-25.34,14.44-16.93,14.63-32,36.8-28.66,50.68,5,21,14,17,14,27s3,11-121,6c-35.06-1.41-62.61-13.14-84.08-29.23C243.43,1042.94,228,974,228,974s128.8-8,206.9,12.5S512,992,543,1000,565,1010.76,543,1014.88Z"/><path class="cls-7" d="M489,1080c5,21,14,17,14,27s3,11-121,6c-35.06-1.41-62.61-13.14-84.08-29.23L277,1052l60-27s129.32,22.64,180.66,4.32C500.73,1044,485.7,1066.12,489,1080Z"/><polygon class="cls-8" points="369 1008 365 965 287 965 282.16 1008 369 1008"/><polygon class="cls-8" points="297 965 359.05 965 351 840 305.93 840 297 965"/><polygon class="cls-9" points="369 972 365 962 287 962 282.16 972 369 972"/><rect class="cls-10" x="308" y="823" width="41" height="10"/><rect class="cls-8" x="306" y="786" width="45" height="38"/><rect class="cls-10" x="327" y="744" width="4" height="18" rx="1.92"/><path class="cls-10" d="M332.57,757h-7.21a3.12,3.12,0,0,0-2.28,1l-21.21,22.78a3.11,3.11,0,0,0,2.28,5.23h48.06a3.11,3.11,0,0,0,2.35-5.15l-19.63-22.77A3.09,3.09,0,0,0,332.57,757Z"/><polygon class="cls-10" points="357 835 354.33 843 302.23 843 299 835 357 835"/><rect class="cls-11" x="299" y="827.56" width="58" height="7.44"/><path class="cls-12" d="M-203,664.55s175.62,4,239,54.4,182.12,55.28,216.27,250.41c0,0,104.07,35.78,130.08,91.07s73.18,71.54,113.83,91.06L536.87,1171A652.76,652.76,0,0,0,413,1171c-44.12,4.18-56.83,9.89-95,12-53,2.93-57.8-6.47-134-12-29.49-2.14-76-1.76-169-1-41.69.34-46.86.69-87,1-55.75.43-101.13.24-131,0Z"/></g></svg>