<svg xmlns="http://www.w3.org/2000/svg" viewBox="0 0 3303 782.91"><defs><style>.cls-1,.cls-2{fill:#1a294c;}.cls-2{opacity:0.5;}</style></defs><g id="Layer_2" data-name="Layer 2"><g id="Layer_1-2" data-name="Layer 1"><path class="cls-1" d="M1269.93,212.53l-.06.07h0Z"/><path class="cls-1" d="M1128.91,180Z"/><path class="cls-1" d="M1161.17,259.45c.23-.46.19-.43,0,0Z"/><path class="cls-2" d="M3023.75,235.48c2.61-7.76,5-15.6,7.17-23.44,14.74,2.11,31.54-2.29,40.27-14.25,3.67-5-4.25-9.83-8.2-5.57l0,.05,0,0-.34.36c-.61.65-1.22,1.3-1.88,1.91a28.46,28.46,0,0,1-7.18,4.73c-.61.28-1.23.54-1.86.79a54.65,54.65,0,0,0,10.24-14c3-5.69-5.66-10.76-8.64-5-3.9,7.48-9.25,13.94-16.9,17.75-.71.35-1.43.66-2.16.95l.3-1.14c3.58-14.07,6-28.38,8.57-42.65,15-2.29,30.54-11.93,35.09-26.33,1.94-6.15-7.71-8.79-9.65-2.66,0,.11-.14.38-.21.56-.22.45-.81,1.65-1,2a28.72,28.72,0,0,1-5.05,6.55c-.57.55-1.16,1.08-1.78,1.59a53.23,53.23,0,0,0,5.16-16.12c1-6.3-8.65-9-9.64-2.66-1.29,8.23-4.2,16.09-10.07,22.13,1.23-6,2.58-12.06,4.15-18,1.9-7.2,4.09-14.34,6.59-21.37,12.73,1.75,26.46-.69,36.75-6.21a41.4,41.4,0,0,0,14-11.7c3.69-5.08-4.45-9.94-8.32-5.41,0,0,0,0,0,0l-.07.08h0a.3.3,0,0,0-.08.08l-.05.06,0,0a2.91,2.91,0,0,0-.25.25c-.86.88-1.68,1.79-2.6,2.63a38.35,38.35,0,0,1-10.17,6.54,44.69,44.69,0,0,1-8.4,2.76,64.78,64.78,0,0,0,18-22.09c2.94-5.71-5.69-10.77-8.64-5-5.08,9.88-12.21,18.36-22.24,23.43-.88.45-1.78.84-2.69,1.21,2.28-5.3,4.74-10.52,7.47-15.61a146.68,146.68,0,0,1,8.82-14.5l1.47-2c.31-.43.51-.69.61-.81l0,0c.29-.37.59-.72.89-1.07,4.2-4.84-2.84-11.94-7.08-7.08-9.68,11.13-16.83,25-22.47,39.17a6.17,6.17,0,0,1-.63-.85,26.67,26.67,0,0,1-2.68-6.51,45.63,45.63,0,0,1-1.43-13.17,63,63,0,0,1,2.07-15.27c1.71-6.22-7.94-8.87-9.64-2.66A73.07,73.07,0,0,0,3036.87,69a57.12,57.12,0,0,0,2.27,14.46A29.09,29.09,0,0,1,3031,67a45.5,45.5,0,0,1-.43-10c.06-.92.15-1.84.25-2.76,0-.22.07-.54.1-.7,1.2-6.29-8.44-9-9.64-2.66-2.32,12.2-.15,26.24,7.59,36.14a38,38,0,0,0,17.95,12.31c-1,2.93-1.95,5.84-2.85,8.71a303,303,0,0,0-8.24,34.47,21,21,0,0,1-2.56-3.21,35.32,35.32,0,0,1-4.11-9.22,47.4,47.4,0,0,1-2.05-10.79c-.35-6.4-10.36-6.44-10,0a56.71,56.71,0,0,0,5.85,22.39c-4.74-4.22-7.66-10.66-8.54-17.08s-10.51-3.65-9.64,2.66a35.24,35.24,0,0,0,1.12,5.23,4.27,4.27,0,0,0-5.17,2.34,27.74,27.74,0,0,1-14.16,13.31,57.43,57.43,0,0,0,13.16-19.66c2.46-5.95-7.21-8.54-9.64-2.66.06-.15.11-.27.16-.37l-.15.28c-.44.87-.84,1.76-1.3,2.62a55.45,55.45,0,0,1-4.67,7.46,30,30,0,0,1-10.41,9.1c1.26-9.06,2.32-18.14,2.79-27.3.29-5.78.4-11.58.31-17.37a41.47,41.47,0,0,0,17.16-3.31c8.27-3.67,14.73-10.52,18.8-18.53a49.24,49.24,0,0,0,5.09-15c.89-6.29-8.74-9-9.65-2.66-1.33,9.41-6.35,19.43-14.31,24.82a24.76,24.76,0,0,1-4.35,2.34,55.07,55.07,0,0,0,8.67-17.7,72,72,0,0,0,3.07-16.59c.37-6.43-9.63-6.41-10,0a62.05,62.05,0,0,1-3,14.83A46.59,46.59,0,0,1,2982.86,80a27.9,27.9,0,0,1-4.56,5.38,11.35,11.35,0,0,1-2.17,1.48,205.28,205.28,0,0,0-2.84-22.23c-1.41-7.62-3.18-15.36-6.27-22.5-2.54-5.89-11.15-.81-8.63,5.05a2.39,2.39,0,0,0-.13-.28l.13.36c.41,1.19.85,2.37,1.23,3.57a130.35,130.35,0,0,1,3.45,13.47,178.27,178.27,0,0,1,3,21.35c-.76-.61-1.51-1.24-2.23-1.92-8.51-7.93-12.91-18.54-14.71-29.88-1-6.34-10.65-3.65-9.65,2.66A64.21,64.21,0,0,0,2950,83a44.35,44.35,0,0,1-11.05-8.57,35.81,35.81,0,0,1-5.41-7.56c-.18-.33-.79-1.61-.94-1.9a6.37,6.37,0,0,1-.23-.61c-2-6.09-11.65-3.48-9.65,2.66,4.79,14.69,19.66,25,33.63,29.6a76.45,76.45,0,0,0,10.42,2.66c.09,5.06,0,10.13-.17,15.17-.35,8.93-1.3,17.79-2.48,26.63-3.73-7.16-4.3-16.18-3-23.78,1.1-6.3-8.53-9-9.64-2.66a54.47,54.47,0,0,0-.22,18.88,32.5,32.5,0,0,1-2.15-3.57,28.38,28.38,0,0,1-2.62-7.82,7.09,7.09,0,0,1-.2-2.37c.11-6.44-9.89-6.44-10,0-.28,15.4,12.27,28.77,25.74,35.56-1.84,12.14-3.78,24.27-4.92,36.51q-.37,4.15-.69,8.31c-.7-.56-1.39-1.13-2-1.75-6.39-6-9.6-14-11-22.51-1-6.34-10.68-3.65-9.65,2.65a52,52,0,0,0,5.63,16.61c-.86-.66-1.69-1.35-2.47-2.08a28.31,28.31,0,0,1-5.38-6.71c-.31-.53-.59-1.08-.86-1.63v0a2,2,0,0,0-.1-.21.54.54,0,0,0-.05-.11,2.13,2.13,0,0,1-.12-.31,5,5,0,0,0-5.7-3.39c-1.72-2-4.89-2.84-7-.92.31-.66.6-1.33.87-2,2.44-5.86-7-8.46-9.55-2.87a5,5,0,0,0,.25-.64c-.12.2-.86,1.84-1.08,2.26a37.67,37.67,0,0,1-3.09,5,23.62,23.62,0,0,1-4.57,4.74c.73-5.56,1.33-11.14,1.61-16.75q.27-5.35.22-10.71l.67,0c14.77-.78,26.35-12.71,28.42-27.17.91-6.29-8.73-9-9.64-2.66a25.61,25.61,0,0,1-6.78,14.23,52.2,52.2,0,0,0,4.71-18.91c.38-6.42-9.62-6.4-10,0a40.39,40.39,0,0,1-1.78,9.18,32.85,32.85,0,0,1-3.66,8.34,18.88,18.88,0,0,1-2.61,3.29c-.41-4.55-1-9.07-1.86-13.56a76.09,76.09,0,0,0-4.56-16.17c-2.54-5.89-11.16-.8-8.64,5a7.61,7.61,0,0,0-.38-.82c0,.11.95,2.55,1.12,3.09a91.43,91.43,0,0,1,2.4,9.38c.77,3.74,1.33,7.52,1.75,11.32-5.07-5.32-7.65-12.1-8.83-19.35-1-6.33-10.68-3.64-9.64,2.66a48.13,48.13,0,0,0,4.2,13.43c-.17-.15-.35-.29-.51-.44a26,26,0,0,1-4.88-6c-.38-.65-.72-1.33-1-2l-.05-.14c-1.74-5.29-9.26-4-9.87.45-2.6-2-7-1.74-7.81,2.38a28.42,28.42,0,0,1-10.18,16.89,57.48,57.48,0,0,0,7.48-22.66c.75-6.37-9.25-6.32-10,0,.24-2-.35,1.85-.54,2.75a54.43,54.43,0,0,1-2.51,8.49,29.63,29.63,0,0,1-7.56,11.6c-1.23-9.08-2.67-18.13-4.7-27.09-1.27-5.63-2.75-11.23-4.4-16.77a41.72,41.72,0,0,0,16.14-8.21c6.7-5.69,10.9-14,12.6-22.52a49.1,49.1,0,0,0,.86-15.76c-.84-6.29-10.85-6.37-10,0,1.24,9.31-.82,20.16-6.84,27.51a24.83,24.83,0,0,1-3.81,3.73,56.94,56.94,0,0,0,3.34-15,70.68,70.68,0,0,0-1.28-21.17c-1.38-6.29-11-3.63-9.64,2.66a61,61,0,0,1,1.12,15.47,44.33,44.33,0,0,1-2.39,13.21,28,28,0,0,1-2.82,5.73,20.25,20.25,0,0,1-1.48,1.6,204.83,204.83,0,0,0-8.93-21c-3.35-6.76-7.07-13.57-11.84-19.46-4-4.94-10.91,1.94-7.2,6.89.05.07.1.15.18.25.72,1,1.45,2.06,2.15,3.11a128.23,128.23,0,0,1,6.78,11.69,182.18,182.18,0,0,1,8.83,20.15c-1-.43-2-.88-2.95-1.39-10.16-5.36-17.16-14.26-21.9-24.58-2.68-5.84-11.31-.76-8.63,5a62.81,62.81,0,0,0,17.27,22.74,44.25,44.25,0,0,1-12.5-5,36.61,36.61,0,0,1-7.45-5.83c-.67-.69-1.29-1.41-1.91-2.14l-.09-.14c-3.56-5.33-12.22-.33-8.64,5,8.65,13,25.85,18.88,40.69,19.49a74.65,74.65,0,0,0,10.45-.27q2.2,7.29,4,14.7c2.06,8.67,3.53,17.43,4.77,26.22-5.51-5.87-8.5-14.36-9.26-22-.63-6.34-10.64-6.41-10,0a54.82,54.82,0,0,0,4.88,18.26c-.83-.69-1.63-1.42-2.38-2.18a30.06,30.06,0,0,1-5.14-7.21,6.27,6.27,0,0,1-1-2.49c-1.63-6.23-11.27-3.59-9.64,2.65,3.84,14.73,19.45,24.56,34.39,27.39,1.44,11.74,2.81,23.5,4.91,35.16.57,3.15,1.18,6.29,1.81,9.43-.8-.33-1.59-.69-2.37-1.09-7.79-4.07-13-10.82-16.72-18.69-2.72-5.82-11.34-.75-8.64,5.05a52.05,52.05,0,0,0,9.95,14.53c-.81-.32-1.6-.66-2.35-1a28.5,28.5,0,0,1-7.21-4.94c-.68-.65-1.31-1.34-1.94-2l-.07-.09-.05-.08c-3.58-5.31-12.25-.31-8.64,5.05,8.36,12.42,25.62,17.18,40.68,15.55q3.45,15,7.93,29.66l-5.22.67-.52-1c-2.3-4.86-8.72-2.11-9.14,2.32-46.68,6.32-92.53,14.72-135.38,26.23-229.59,61.64-344.38,70.66-530.5,41.62C2103,312.31,2036.7,306,1965.07,302.46c9.2-10,14.51-22.12,11.52-36.15q11-10.68,22.23-21.12c10.77-10,23.08-19.15,32.76-30.24a78.63,78.63,0,0,0,17.35-32.4c5.09-20.38,1.71-42.06-5.87-61.36-4.62-11.79-10.33-23.63-17.93-33.83-3.22-4.32-8.65-6.53-13.68-3.58-4.26,2.49-6.83,9.32-3.58,13.68a132.94,132.94,0,0,1,13.83,24.16,103.22,103.22,0,0,1,4.23,10.76,117.65,117.65,0,0,1,3.67,13.19c1.73,8.07,2.48,18.29,1.14,26.36a58.05,58.05,0,0,1-11.47,26.69c-8.7,11.13-21,19.83-31.3,29.38q-3.46,3.19-6.91,6.43a67.19,67.19,0,0,0-7.29-35.33c-3.2-6.4-7.18-12.35-11-18.38-1.94-3-3.85-6.11-5.61-9.26-.86-1.53-1.69-3.08-2.47-4.66-.37-.74-.7-1.5-1.07-2.25-.12-.25-.21-.42-.28-.56s-.1-.28-.18-.5a65.55,65.55,0,0,1-3.15-10.72c-.1-.49-.27-2.06-.3-2.21,0,.05,0,.26,0,.71-.07-.72-.15-1.44-.21-2.17a66,66,0,0,1,.16-10.89c1.3-13.36,7.51-26.75,14.87-38.34a176.36,176.36,0,0,1,27.13-32.42q5.37-5.18,11.08-10c1.11-.92,2.24-1.81,3.35-2.72.31-.26.45-.39.48-.42a1.53,1.53,0,0,0-.21.15c3.69-3.28,5.39-8.25,2.67-12.92-2.49-4.25-9.34-6.84-13.69-3.58a204.64,204.64,0,0,0-38.83,38.73c-13.09,17-24,37.15-26.53,58.5q-.42-3.72-.8-7.43c-1.48-14.72-2.6-29.58-2.72-44.39-.11-12.86-20.11-12.89-20,0a468.37,468.37,0,0,0,13,107.33c.87,3.5,1.8,7,2.8,10.5-.43-.89-.85-1.78-1.29-2.66-3.81-7.77-8.18-15.23-11.5-23.24a177.4,177.4,0,0,1-7.84-23.78c-6.8-26.55-7.44-55.52-3.34-81.93,2.22-14.33,5.35-29,10.77-42.56,2-5-2.19-11-7-12.3-5.7-1.57-10.28,1.95-12.3,7-4.3,10.72-7,22.24-9.2,33.54A243.49,243.49,0,0,0,1878.3,136a191.77,191.77,0,0,0,13.15,47.52C1898,199,1907,213.07,1912,229.15c6.67,21.28,7.5,42.37.17,62.54-1.91-4.83-4.06-9.54-6.31-14.08a132.8,132.8,0,0,0-17.07-26.27,278.45,278.45,0,0,1-23.73-108.92,340,340,0,0,1,16.11-109.11c1.59-5,3.29-10,5.16-15,.54-1.41,1.1-2.81,1.65-4.21.16-.39.24-.61.27-.69a5.29,5.29,0,0,0-.22.51c1.65-4.71.72-9.93-4-12.68-4.24-2.48-11.51-1.39-13.68,3.58C1861.59,24.91,1856,46.55,1851.83,68c-9.12,47.4-9.54,96.7,2,143.74q1.7,6.9,3.76,13.71c-.26-.14-.52-.3-.79-.44a105.83,105.83,0,0,0-20.65-8.32,112.47,112.47,0,0,0-12.26-2.52c-.21-5.24-.23-10.54-.14-15.65.48-25.83,3.16-51.49-3.17-76.91-2.24-9-5.78-20.71-13-27.25-9.54-8.6-23.73,5.5-14.14,14.14a8.43,8.43,0,0,1,.64.69c.38.58.79,1.15,1.15,1.75a46,46,0,0,1,2.52,4.88h0c0,.1,1,2.5,1.26,3.2.61,1.75,1.16,3.53,1.65,5.32,6.58,23.69,3.67,48.5,3.15,73.4q-.12,5.45,0,11c-1.35-.65-2.7-1.33-4-2.06a48.22,48.22,0,0,1-12.52-9.39c-1.79-1.76-3.5-3.62-5.12-5.54-.4-.48-.8-1-1.19-1.46-.09-.1-.15-.19-.22-.27s-.11-.16-.23-.31c-.83-1.14-1.65-2.29-2.43-3.46a105.51,105.51,0,0,1-8.18-14.7c-.19-.41-.9-2-1-2.3-.41-1-.81-2-1.2-3q-1.54-4-2.85-8.16-2.31-7.26-4-14.71c-1.1-5-2-10-2.72-15a.5.5,0,0,0,0-.12h0c0-.2,0-.36-.06-.49v0a1.11,1.11,0,0,1,0-.17s0,.09,0,.14a.59.59,0,0,0,0-.14h0a.78.78,0,0,1,0-.14.06.06,0,0,1,0,0,.15.15,0,0,0,0-.07v0a.15.15,0,0,0,0-.07v0c0-.1,0-.21,0-.31-.12-1.08-.25-2.16-.37-3.24q-.29-2.77-.51-5.55c-.3-3.87-.55-7.76-.52-11.64.1-12.87-19.89-12.89-20,0-.09,11.45,1.44,23.07,3.44,34.31,3.72,20.9,10.75,42.24,23.52,59.42,7.4,9.94,16.46,18.62,27.48,24.47a79.47,79.47,0,0,0,14.27,5.91c1.51,11.57,4.4,22.9,9.62,33.35,8.44,16.87,23.48,28.29,40.53,35.56l0,0c-142.8-1-294,9.4-412.91,35.43-69.28,15.18-145.12,32.74-226,45.53q-5.7.91-11.44,1.78c.38-.64.75-1.29,1.1-1.95,3-5.69-5.63-10.75-8.64-5.05a32.47,32.47,0,0,1-6.82,9.11l-1.39.2c4.87-12.58,9-25.52,12.59-38.46,14.74,2.11,31.54-2.29,40.27-14.25,3.67-5-4.25-9.83-8.2-5.57l0,0s0,0,0,0l-.34.36c-.61.65-1.22,1.3-1.88,1.91a28.46,28.46,0,0,1-7.18,4.73c-.61.28-1.23.54-1.86.79a54.65,54.65,0,0,0,10.24-14c3-5.69-5.66-10.76-8.64-5-3.9,7.48-9.25,13.94-16.9,17.75-.71.35-1.43.66-2.16.95l.3-1.14c3.58-14.07,6-28.38,8.57-42.65,15-2.29,30.54-11.93,35.09-26.33,1.94-6.15-7.71-8.79-9.65-2.66,0,.11-.14.38-.21.56-.22.45-.81,1.65-1,2a28.72,28.72,0,0,1-5,6.55c-.57.55-1.16,1.08-1.78,1.59a53.23,53.23,0,0,0,5.16-16.12c1-6.3-8.65-9-9.64-2.66-1.29,8.23-4.2,16.09-10.07,22.13,1.23-6,2.58-12.06,4.15-18,1.9-7.2,4.09-14.34,6.59-21.37,12.73,1.75,26.46-.69,36.75-6.21a41.4,41.4,0,0,0,14-11.7c3.69-5.08-4.45-9.94-8.32-5.41,0,0,0,0,0,0l-.14.14a.3.3,0,0,0-.08.08l0,.06,0,0-.25.25c-.86.88-1.68,1.79-2.6,2.63a38.35,38.35,0,0,1-10.17,6.54,44.69,44.69,0,0,1-8.4,2.76,64.78,64.78,0,0,0,18-22.09c2.94-5.71-5.69-10.77-8.64-5-5.08,9.88-12.21,18.36-22.24,23.43-.88.45-1.78.84-2.69,1.21,2.28-5.3,4.74-10.52,7.47-15.61a146.68,146.68,0,0,1,8.82-14.5l1.47-2.05c.31-.43.51-.69.61-.81s0,0,0,0c.29-.37.59-.72.89-1.07,4.2-4.84-2.84-11.94-7.08-7.08-9.68,11.13-16.83,25-22.47,39.17a6.17,6.17,0,0,1-.63-.85,26.67,26.67,0,0,1-2.68-6.51,45.63,45.63,0,0,1-1.43-13.17,63,63,0,0,1,2.07-15.27c1.71-6.22-7.94-8.87-9.64-2.66a73.07,73.07,0,0,0-2.42,21.07,57.12,57.12,0,0,0,2.27,14.46A29.09,29.09,0,0,1,1202,201a45.5,45.5,0,0,1-.43-10c.06-.92.15-1.84.25-2.76,0-.22.07-.54.1-.7,1.2-6.29-8.44-9-9.64-2.66-2.32,12.2-.15,26.24,7.59,36.14a38,38,0,0,0,17.95,12.31c-1,2.93-1.95,5.84-2.85,8.71a303,303,0,0,0-8.24,34.47,21,21,0,0,1-2.56-3.21,35.32,35.32,0,0,1-4.11-9.22,47.4,47.4,0,0,1-2-10.79c-.35-6.4-10.36-6.44-10,0a56.71,56.71,0,0,0,5.85,22.39c-4.74-4.22-7.66-10.66-8.54-17.08s-10.51-3.65-9.64,2.66a35.24,35.24,0,0,0,1.12,5.23,4.27,4.27,0,0,0-5.17,2.34,27.74,27.74,0,0,1-14.16,13.31,57.43,57.43,0,0,0,13.16-19.66c2.46-6-7.21-8.54-9.64-2.66.06-.15.11-.27.16-.37l-.15.28c-.44.87-.84,1.76-1.3,2.62a55.45,55.45,0,0,1-4.67,7.46,30,30,0,0,1-10.41,9.1c1.26-9.06,2.32-18.14,2.79-27.3.29-5.78.4-11.58.31-17.37a41.47,41.47,0,0,0,17.16-3.31c8.27-3.67,14.73-10.52,18.8-18.53a49.24,49.24,0,0,0,5.09-15c.89-6.29-8.74-9-9.65-2.66-1.33,9.41-6.35,19.43-14.31,24.82a24.76,24.76,0,0,1-4.35,2.34,55.07,55.07,0,0,0,8.67-17.7,72,72,0,0,0,3.07-16.59c.37-6.43-9.63-6.41-10,0a62.05,62.05,0,0,1-3,14.83,46.59,46.59,0,0,1-5.36,11.51,27.9,27.9,0,0,1-4.56,5.38,11.35,11.35,0,0,1-2.17,1.48,205.28,205.28,0,0,0-2.84-22.23c-1.41-7.62-3.18-15.36-6.27-22.5-2.54-5.89-11.15-.81-8.63,5a2.39,2.39,0,0,0-.13-.28l.13.36c.41,1.19.85,2.37,1.23,3.57a130.35,130.35,0,0,1,3.45,13.47,178.27,178.27,0,0,1,3,21.35c-.76-.61-1.51-1.24-2.23-1.92-8.51-7.93-12.91-18.54-14.71-29.88-1-6.34-10.65-3.65-9.65,2.66A64.21,64.21,0,0,0,1121,217a44.35,44.35,0,0,1-11-8.57,35.81,35.81,0,0,1-5.41-7.56c-.18-.33-.79-1.61-.94-1.9a6.37,6.37,0,0,1-.23-.61c-2-6.09-11.65-3.48-9.65,2.66,4.79,14.69,19.66,25,33.63,29.6a76.45,76.45,0,0,0,10.42,2.66c.09,5.06,0,10.13-.17,15.17-.35,8.93-1.3,17.79-2.48,26.63-3.73-7.16-4.3-16.18-3-23.78,1.1-6.3-8.53-9-9.64-2.66a54.47,54.47,0,0,0-.22,18.88,32.5,32.5,0,0,1-2.15-3.57,28.38,28.38,0,0,1-2.62-7.82,7.09,7.09,0,0,1-.2-2.37c.11-6.44-9.89-6.44-10,0-.28,15.4,12.27,28.77,25.74,35.56-1.84,12.14-3.78,24.27-4.92,36.51q-.37,4.16-.69,8.31c-.7-.56-1.39-1.13-2.05-1.75-6.39-6-9.6-14-11-22.51-1-6.34-10.68-3.65-9.65,2.65a52,52,0,0,0,5.63,16.61c-.86-.66-1.69-1.35-2.47-2.08a28.31,28.31,0,0,1-5.38-6.71c-.31-.53-.59-1.08-.86-1.63,0,0,0,0,0,0a2,2,0,0,0-.1-.21.54.54,0,0,0,0-.11,2.13,2.13,0,0,1-.12-.31,5,5,0,0,0-5.7-3.39c-1.72-2-4.89-2.84-7-.92.31-.66.6-1.33.87-2,2.44-5.86-7-8.46-9.55-2.87a5,5,0,0,0,.25-.64c-.12.2-.86,1.84-1.08,2.26a37.67,37.67,0,0,1-3.09,5,23.62,23.62,0,0,1-4.57,4.74c.73-5.56,1.33-11.14,1.61-16.75q.27-5.36.22-10.71l.67,0c14.77-.78,26.35-12.71,28.42-27.17.91-6.29-8.73-9-9.64-2.66a25.61,25.61,0,0,1-6.78,14.23,52.2,52.2,0,0,0,4.71-18.91c.38-6.42-9.62-6.4-10,0a40.39,40.39,0,0,1-1.78,9.18,32.85,32.85,0,0,1-3.66,8.34,18.88,18.88,0,0,1-2.61,3.29c-.41-4.55-1-9.07-1.86-13.56a76.09,76.09,0,0,0-4.56-16.17c-2.54-5.89-11.16-.8-8.64,5a7.61,7.61,0,0,0-.38-.82c0,.11,1,2.55,1.12,3.09a91.43,91.43,0,0,1,2.4,9.38c.77,3.74,1.33,7.52,1.75,11.32-5.07-5.32-7.65-12.1-8.83-19.35-1-6.33-10.68-3.64-9.64,2.66a48.13,48.13,0,0,0,4.2,13.43c-.17-.15-.35-.29-.51-.44a26,26,0,0,1-4.88-6c-.38-.65-.72-1.33-1-2l0-.14c-1.74-5.29-9.26-4-9.87.45-2.6-2-7-1.74-7.81,2.38a28.42,28.42,0,0,1-10.18,16.89,57.48,57.48,0,0,0,7.48-22.66c.75-6.37-9.25-6.32-10,0,.24-2-.35,1.85-.54,2.75a54.43,54.43,0,0,1-2.51,8.49,29.63,29.63,0,0,1-7.56,11.6c-1.23-9.08-2.67-18.13-4.7-27.09-1.27-5.63-2.75-11.23-4.4-16.77a41.72,41.72,0,0,0,16.14-8.21c6.7-5.69,10.9-14,12.6-22.52a49.1,49.1,0,0,0,.86-15.76c-.84-6.29-10.85-6.37-10,0,1.24,9.31-.82,20.16-6.84,27.51a24.83,24.83,0,0,1-3.81,3.73,56.94,56.94,0,0,0,3.34-15,70.68,70.68,0,0,0-1.28-21.17c-1.38-6.29-11-3.63-9.64,2.66a61,61,0,0,1,1.12,15.47,44.33,44.33,0,0,1-2.39,13.21,28,28,0,0,1-2.82,5.73,20.25,20.25,0,0,1-1.48,1.6,204.83,204.83,0,0,0-8.93-21c-3.35-6.76-7.07-13.57-11.84-19.46-4-4.94-10.91,1.94-7.2,6.89,0,.07.1.15.18.25.72,1,1.45,2.06,2.15,3.11a128.23,128.23,0,0,1,6.78,11.69,182.18,182.18,0,0,1,8.83,20.15c-1-.43-2-.88-3-1.39-10.16-5.36-17.16-14.26-21.9-24.58-2.68-5.84-11.31-.76-8.63,5a62.81,62.81,0,0,0,17.27,22.74,44.25,44.25,0,0,1-12.5-5,36.61,36.61,0,0,1-7.45-5.83c-.67-.69-1.29-1.41-1.91-2.14l-.09-.14c-3.56-5.33-12.22-.33-8.64,5,8.65,13,25.85,18.88,40.69,19.49a74.65,74.65,0,0,0,10.45-.27q2.21,7.29,4,14.7c2.06,8.67,3.53,17.43,4.77,26.22-5.51-5.87-8.5-14.36-9.26-22-.63-6.34-10.64-6.41-10,0a54.82,54.82,0,0,0,4.88,18.26c-.83-.69-1.63-1.42-2.38-2.18a30.06,30.06,0,0,1-5.14-7.21,6.27,6.27,0,0,1-1-2.49c-1.63-6.23-11.27-3.59-9.64,2.65,3.84,14.73,19.45,24.56,34.39,27.39,1.44,11.74,2.81,23.5,4.91,35.16.57,3.15,1.18,6.29,1.81,9.43-.8-.33-1.59-.69-2.37-1.09C989,338,983.7,331.29,980,323.42c-2.72-5.82-11.34-.75-8.64,5.05a52.05,52.05,0,0,0,10,14.53c-.81-.32-1.6-.66-2.35-1a28.5,28.5,0,0,1-7.21-4.94c-.68-.65-1.31-1.34-1.94-2l-.07-.09,0-.08c-3.58-5.31-12.25-.31-8.64,5.05,8.36,12.42,25.62,17.18,40.68,15.55q4.47,19.38,10.66,38.3l.94,2.82c-4.24-2.93-7.17-7.08-9.41-11.83-2.75-5.81-11.38-.75-8.64,5.05a41.52,41.52,0,0,0,5.37,8.55l-5.39,0-.19-.22c-2.36-3.37-6.8-2.44-8.63.08q-18.33-.35-36.87-1.34h-.05c-92.32-5-188.23-23.06-286.06-61.9C371.92,219.12,0,246.18,0,246.18V782.91H3303V202.1C3265.07,225.61,3154.07,228.09,3023.75,235.48ZM1063.21,301.92c-.17,4-.52,8-1,12a29.07,29.07,0,0,1-.06-10.06c1.06-6.29-8.57-9-9.64-2.65a48.16,48.16,0,0,0-.64,5.82c0-.13-.06-.25-.08-.38-.19-1-.14-.06-.12-1.42.09-6.44-9.91-6.44-10,0-.16,11.1,8.45,20.88,18.16,26.07-1.26,8.27-2.57,16.54-3.35,24.88-.09,1-.17,2-.26,3.07-3.88-4-5.75-9.11-6.67-14.56-1.08-6.33-10.72-3.65-9.65,2.66a42.53,42.53,0,0,0,.93,4.17c-.17-.32-.34-.63-.5-.95l0-.07c-2-6.06-11.68-3.46-9.64,2.67,3.42,10.23,14,17,24.72,19.18q-.51,11.6-.15,23.2a27.38,27.38,0,0,1-1.09-4.37c-.56-3.24-3.37-4.12-5.82-3.35a30,30,0,0,0-.25-4.33c-.83-6.29-10.84-6.37-10,0a22.91,22.91,0,0,1-2.64,14.46l-3.22.08c2.2-6.85,1.94-15.06.63-21.06-1.38-6.28-11-3.62-9.65,2.66a31.37,31.37,0,0,1,.62,7.2,25,25,0,0,1-.92,6.88c-4.46-13.25-8.24-26.74-11.39-40.36.55-.19,1.11-.38,1.65-.59,14.41-5.48,22.3-21.05,20.28-36.12-.85-6.28-10.86-6.37-10,0,.9,6.72-.44,13.93-4.23,19.38a58,58,0,0,0-.25-23.49c-1.38-6.28-11-3.62-9.64,2.66a45.68,45.68,0,0,1,.88,10.9,35.09,35.09,0,0,1-1.56,10c-.16.47-.33.94-.51,1.4-.15-.74-.31-1.49-.45-2.23-2.25-11.87-3.69-23.86-5.16-35.84,15.45-.67,27.71-13,31-27.77,5.35,10.87,17.65,18,29.8,20.33C1063.4,295.3,1063.34,298.62,1063.21,301.92Zm57.63,73.42c-1.07-6.33-10.71-3.64-9.65,2.66a39,39,0,0,0,5.79,15l-2.69.25-.13-.12a23.31,23.31,0,0,1-4.45-5.4c-.34-.59-.64-1.2-.94-1.81a.34.34,0,0,1,0-.08c-2-6.07-11.67-3.47-9.64,2.66a26,26,0,0,0,2.8,5.81q-9.08.73-18.2,1.34c-2.22-3-7.41-3.5-8.54.54h-.2a34.83,34.83,0,0,0,.57-4.41c.38-6.43-9.62-6.4-10,0a16.79,16.79,0,0,1-.29,2.12q-.27-10.51.17-21c11.43-1.14,20.42-10.45,22-21.84.82-5.74-7.13-8.5-9.22-4.11.07-.63.12-1.25.16-1.86.37-6.43-9.63-6.41-10,0a29.8,29.8,0,0,1-1.31,6.77c0,.16-.1.32-.15.48.68-5.9,1.56-11.77,2.46-17.64,9.19,1.5,18.27-2.76,24-10,6,12,19.9,19.61,33.29,21.88-.63,13.36-.68,26.75-.08,40.11,0,.89.09,1.78.13,2.67C1123.42,385.38,1121.71,380.52,1120.84,375.34Zm58.14,7.54a29.48,29.48,0,0,1,.76-13.64c1.7-6.22-8-8.87-9.64-2.66-1.53,5.6-2.28,13.71-.59,20.61l-2.71.35a18.93,18.93,0,0,1-1.88-5.85,30.18,30.18,0,0,1-.21-6c0-.22.08-1,.11-1.37,0-.16,0-.33.06-.41,1.19-6.29-8.44-9-9.64-2.66a34.21,34.21,0,0,0-.38,10.19,4.63,4.63,0,0,0-.77,2.05,25,25,0,0,1-1.58,5.82l-4.87.56a45.35,45.35,0,0,0,3.17-14.11c.38-6.43-9.63-6.41-10,0a33.47,33.47,0,0,1-1.39,7.2,25.48,25.48,0,0,1-2.7,6.22c-.72-13.95-.72-27.95-.07-41.91,16.15-.67,28.81-13.65,31-29.44.88-6.29-8.75-9-9.65-2.66-1,6.87-4.26,13.36-9.4,17.52a55.06,55.06,0,0,0,6.21-22.73c.37-6.43-9.63-6.41-10,0a45.55,45.55,0,0,1-2.12,10.81,35.87,35.87,0,0,1-4,8.83c-.33.52-.69,1-1.06,1.51,0-.6.08-1.19.13-1.79,1-12.21,2.92-24.3,4.77-36.39,15.11,3.51,30.36-5.08,37.53-18.69,5,8.79,13.61,15.22,24.1,16.16-1.6,8.83-3.21,17.67-5.18,26.45-.79,3.51-1.64,7-2.5,10.5-2.17-6.85-1.4-15,.43-21.68,1.71-6.21-7.93-8.86-9.64-2.66a57.53,57.53,0,0,0-1.93,17,48.22,48.22,0,0,0,.67,6.34,23.2,23.2,0,0,1-3.09-8.82,35.93,35.93,0,0,1-.23-7c0-.31.13-1.53.16-2,0-.2.07-.45.09-.55,1.19-6.28-8.44-9-9.65-2.65-2.83,14.86,2.77,31.38,17.37,37.65.49.21,1,.4,1.48.59q-5.13,17.91-11.69,35.37C1180,380.24,1179.49,381.56,1179,382.88Zm701.25-94.06c-10.42-5-21.55-8.76-31.16-15.31a52.91,52.91,0,0,1-14.92-16,46.7,46.7,0,0,1-4.68-10.09,94.52,94.52,0,0,1-3.33-12.65c1.58.33,3.16.7,4.73,1.14a84.83,84.83,0,0,1,32.24,17.54,103.33,103.33,0,0,1,8.25,8.23,284.73,284.73,0,0,0,16.56,30.84C1885.32,291.27,1882.74,290,1880.23,288.82Zm66.67-21.4c-.19.29-.4.58-.59.88q-5.24,5.26-10.41,10.59a117.14,117.14,0,0,0,0-35.17,125.86,125.86,0,0,0-2.55-12.62,121,121,0,0,0,16.57,26.22c.64.77,1.24,1.5,1.81,2.26Q1949.43,263.59,1946.9,267.42Zm14.54-37c0,1-.11,2.08-.19,3.13,0,.42,0,.67,0,.83s-.09.43-.17.85c-.2,1.07-.42,2.13-.66,3.19-.87-1.2-1.77-2.54-2.82-4.23-6.68-10.83-10.51-20.71-14.29-32.83-2.78-8.87-5.07-17.85-7-26.85,4,8.39,9.26,16.23,14.17,24.11,1.94,3.1,3.82,6.25,5.5,9.5.73,1.43,1.4,2.88,2.07,4.34.1.25.2.49.29.74.35,1,.71,1.91,1,2.88a51.74,51.74,0,0,1,1.37,5.06c.18.81.27,1.66.48,2.46v0c0,.37.09.75.11,1.13A53.35,53.35,0,0,1,1961.44,230.41Zm1004.2-17.15c16.15-.67,28.81-13.65,31-29.44.88-6.29-8.75-9-9.65-2.66-1,6.87-4.26,13.36-9.4,17.52a55.06,55.06,0,0,0,6.21-22.73c.37-6.43-9.63-6.41-10,0a45.55,45.55,0,0,1-2.12,10.81,35.87,35.87,0,0,1-4,8.83c-.33.52-.69,1-1.06,1.51.05-.6.08-1.19.13-1.79,1-12.21,2.92-24.3,4.77-36.39,15.11,3.51,30.36-5.08,37.53-18.69,5,8.79,13.61,15.22,24.1,16.16-1.6,8.83-3.21,17.67-5.18,26.45-.79,3.51-1.64,7-2.5,10.5-2.17-6.85-1.4-15,.43-21.68,1.71-6.21-7.93-8.86-9.64-2.66a57.53,57.53,0,0,0-1.93,17,48.22,48.22,0,0,0,.67,6.34,23.2,23.2,0,0,1-3.09-8.82,35.93,35.93,0,0,1-.23-7c0-.31.13-1.53.16-2,0-.2.07-.45.09-.55,1.19-6.28-8.44-9-9.65-2.65-2.83,14.86,2.77,31.38,17.37,37.65.49.21,1,.4,1.48.59q-3.84,13.41-8.47,26.57l-4.25.25c.09-.38.18-.76.28-1.13,1.7-6.22-7.95-8.87-9.64-2.66a40.47,40.47,0,0,0-.94,4.41l-4.43.27c-1.44-4.27-8.48-5.36-9.49,0,0,.21-.06.42-.09.63l-5.59.36a5.48,5.48,0,0,0-7.59.51l-5.76.4Q2965,226.2,2965.64,213.26Zm-71.24,25.66c11.43-1.14,20.42-10.45,22-21.84.82-5.74-7.13-8.5-9.22-4.11.07-.63.12-1.25.16-1.86.37-6.43-9.63-6.41-10,0a29.8,29.8,0,0,1-1.31,6.77c0,.16-.1.32-.15.48.68-5.9,1.56-11.77,2.46-17.64,9.19,1.5,18.27-2.76,24-10,6,12,19.9,19.61,33.29,21.88q-.64,13.62-.45,27.27l-5.67.42c-1.56-4-7.32-3-9,.68q-23.06,1.78-46.34,4Q2894.27,241.94,2894.4,238.92Zm-53.86-19.58c.55-.19,1.11-.38,1.65-.59,14.41-5.48,22.3-21.05,20.28-36.12-.85-6.28-10.86-6.37-10,0,.9,6.72-.44,13.93-4.23,19.38a58,58,0,0,0-.25-23.49c-1.38-6.28-11-3.62-9.64,2.66a45.68,45.68,0,0,1,.88,10.9,35.09,35.09,0,0,1-1.56,10c-.16.47-.33.94-.51,1.4-.15-.74-.31-1.49-.45-2.23-2.25-11.87-3.69-23.86-5.16-35.84,15.45-.67,27.71-13,31-27.77,5.35,10.87,17.65,18,29.8,20.33,0,3.32,0,6.64-.15,9.94-.17,4-.52,8-.95,12a29.07,29.07,0,0,1-.06-10.06c1.06-6.29-8.57-9-9.64-2.65a48.16,48.16,0,0,0-.64,5.82c0-.13-.06-.25-.08-.38-.19-1-.14-.06-.12-1.42.09-6.44-9.91-6.44-10,0-.16,11.1,8.45,20.88,18.16,26.07-1.26,8.27-2.57,16.54-3.35,24.88-.09,1-.17,2.05-.26,3.07-3.88-4-5.75-9.11-6.67-14.56-1.08-6.33-10.72-3.65-9.65,2.66a42.53,42.53,0,0,0,.93,4.17c-.17-.32-.34-.63-.5-.95l0-.07c-2-6.06-11.68-3.46-9.64,2.67,3.42,10.23,14,17,24.72,19.18-.11,2.54-.18,5.07-.23,7.61l-8.23.85c-2.46-3-7.93-2.73-8.78.94l-4.5.5a44,44,0,0,0-.8-5.27c-1.38-6.28-11-3.62-9.65,2.66a24.56,24.56,0,0,1,.52,3.75l-4,.47Q2844.09,234.75,2840.54,219.34Z"/></g></g></svg>