<svg xmlns="http://www.w3.org/2000/svg" viewBox="0 0 70.94 70.95"><defs><style>.cls-1{fill:#fff;}</style></defs><g id="Layer_2" data-name="Layer 2"><g id="Layer_1-2" data-name="Layer 1"><path class="cls-1" d="M70.46,31.05a4,4,0,0,0-1.61-2.74c-.17-.11-.24-.39-.32-.62a5.33,5.33,0,0,1-.32-1.44l-2-5.39c-1.32-3.51-4.17-6.92-6.79-9.55A34.17,34.17,0,0,0,45.29,3,8.87,8.87,0,0,1,42,1.46,6.78,6.78,0,0,0,38.64.28a19.13,19.13,0,0,0-7.46.19,4.45,4.45,0,0,0-2.91,1.64c-.19.29-.76.31-1.16.46a3.73,3.73,0,0,1-1,.24l-5.33,2a35,35,0,0,0-16,15.82A26.85,26.85,0,0,0,2.86,26a6.83,6.83,0,0,1-1.41,3A7.11,7.11,0,0,0,.27,32.34,19.4,19.4,0,0,0,.52,40a3.92,3.92,0,0,0,1.55,2.6,1.23,1.23,0,0,1,.34.6,70.12,70.12,0,0,0,2.66,7.53,34.13,34.13,0,0,0,11.53,13,19.24,19.24,0,0,0,4.12,2.43l6.07,2.12.06,0a5.82,5.82,0,0,1,1.67.77A9,9,0,0,0,31,70.44a18.53,18.53,0,0,0,2.71.51h3.59c.91-.16,1.82-.28,2.72-.5a4.14,4.14,0,0,0,2.68-1.56c.2-.29.76-.32,1.16-.47a3.61,3.61,0,0,1,1-.26s5.25-2,5.25-2c3.53-1.34,7-4.21,9.58-6.87a32,32,0,0,0,6.78-10c.37-.88.65-1.77,1-2.64A7.56,7.56,0,0,0,68.11,45a4.22,4.22,0,0,1,.38-1.44c.18-.38.49-.72.69-1.1A15.88,15.88,0,0,0,70.42,40a18.66,18.66,0,0,0,.52-2.7V33.68C70.78,32.81,70.65,31.93,70.46,31.05Zm-4.94-2.94c-4,0-8,0-11.91,0a.86.86,0,0,1-.58-.43A19.27,19.27,0,0,0,43.3,18a.79.79,0,0,1-.43-.58c0-4,0-7.95,0-11.93C53.05,7.58,63,16.6,65.52,28.11ZM31.07,4.91c0-1.26.15-1.45,1.36-1.67A18.42,18.42,0,0,1,39,3.31a1,1,0,0,1,.92,1.14c0,3,0,6,0,9v5.74a18,18,0,0,0-8.66,0,13.85,13.85,0,0,1-.18-1.65Q31.06,11.22,31.07,4.91Zm-3,.53c0,.27,0,.52,0,.78,0,3.57,0,7.14,0,10.7a1.07,1.07,0,0,1-.71,1.16,18.64,18.64,0,0,0-9.25,9.29,1.12,1.12,0,0,1-1.22.76c-3.54,0-7.09,0-10.62,0H5.44C6.18,19,18.76,6.41,28.07,5.44ZM4.31,39.94c-.59,0-.84-.21-.95-.74a18,18,0,0,1,0-7.38c.09-.43.23-.78.84-.77,4.84,0,9.68,0,14.54,0a1.69,1.69,0,0,1,.41.06,18.5,18.5,0,0,0,0,8.63c-1.34.05-2.64.13-4,.14C11.54,39.92,7.93,39.89,4.31,39.94ZM28.09,65.26a.93.93,0,0,1,0,.24C17.59,63.28,7.85,54,5.46,42.87h11.6a.94.94,0,0,1,1,.64,19.07,19.07,0,0,0,9.44,9.44,1.1,1.1,0,0,1,.56.72C28.11,57.53,28.1,61.4,28.09,65.26Zm10.53,2.46a19.07,19.07,0,0,1-6.57,0,1,1,0,0,1-1-1.14q0-6.57,0-13.14a9.65,9.65,0,0,1,.31-1.55,18,18,0,0,0,8.44,0c0,.53.08,1,.08,1.48,0,4.31,0,8.6,0,12.9C39.91,67.44,39.86,67.5,38.62,67.72Zm3.81-17.56a3.23,3.23,0,0,0-3.84-1.11,12,12,0,0,1-6.22,0c-1.58-.41-2.83-.23-3.83,1.15a16.4,16.4,0,0,1-7.73-7.76c1.36-1,1.51-2.29,1.11-3.85a12.07,12.07,0,0,1,0-6.23,3.32,3.32,0,0,0-1.06-3.83,16.16,16.16,0,0,1,7.66-7.71A3.15,3.15,0,0,0,32.21,22a12.61,12.61,0,0,1,6.54,0,3.23,3.23,0,0,0,3.69-1.11,16.15,16.15,0,0,1,7.7,7.69,3.24,3.24,0,0,0-1.09,3.85,12.47,12.47,0,0,1,0,6.39,3.17,3.17,0,0,0,1.13,3.67A16.28,16.28,0,0,1,42.43,50.16ZM58,56.8a30.73,30.73,0,0,1-15.1,8.82,3.23,3.23,0,0,1-.08-.49c0-3.78,0-7.57,0-11.34a1,1,0,0,1,.5-.77A19.66,19.66,0,0,0,53,43.37a.94.94,0,0,1,.68-.48c3.86,0,7.73,0,11.59,0a2.32,2.32,0,0,1,.36.07A30.52,30.52,0,0,1,58,56.8Zm9.6-17.67c-.15.77-.75.77-1.31.77-2,0-4.08,0-6.13,0h-8.4a18.2,18.2,0,0,0,0-8.8,6.21,6.21,0,0,1,.69-.05c4.71,0,9.42,0,14.13,0a.85.85,0,0,1,1,.79A18.88,18.88,0,0,1,67.63,39.13Z"/></g></g></svg>