<svg xmlns="http://www.w3.org/2000/svg" xmlns:xlink="http://www.w3.org/1999/xlink" viewBox="0 0 568.22 457.57"><defs><style>.cls-1{fill:none;}.cls-2{fill:#d23435;}.cls-3{fill:url(#linear-gradient);}.cls-4{fill:#f9e0b5;}.cls-5{fill:#f5c166;}.cls-6{fill:#ee817f;}.cls-7{opacity:0.1;}.cls-8{fill:#5d291b;}.cls-9{clip-path:url(#clip-path);}.cls-10{fill:#ff6652;}.cls-11{fill:#e1493d;}.cls-12{fill:#fdfdfd;}</style><linearGradient id="linear-gradient" x1="284.11" x2="284.11" y2="457.57" gradientUnits="userSpaceOnUse"><stop offset="0" stop-color="#ec7e7d"/><stop offset="0.48" stop-color="#e65958"/><stop offset="1" stop-color="#e54f4f"/></linearGradient><clipPath id="clip-path"><path class="cls-1" d="M271.76,207.7c2.4-19.54,6.62-31.18,7.82-34.38.18-.47.3-.8.49-1.29,1.76-4.48,11.08-28.31,23.27-28.46,4.24,0,9,2.77,10,5,.08.2.52,1.29,1.46,3.57.51,1.24.8,1.87.86,2.08.82,2.58,1.73,5.79,2.59,9.63.81,3.59,1.13,5.4,1.46,7.39,1.34,8,1.29,14.06,1.63,20.33a161,161,0,0,0,2.19,19.15,35.46,35.46,0,0,0-13.47-4.54c-21.85-2.61-38,17.24-39.72,19.39C270.61,218.32,271.2,212.24,271.76,207.7Z"/></clipPath></defs><g id="Layer_2" data-name="Layer 2"><g id="Layer_1-2" data-name="Layer 1"><path class="cls-2" d="M354.35,225s5.75-43.4,47.58-43.4c51,0,52.42,23.38,69,38.17,22.49,20,46.54,4.71,64.84-8.89,0,0,.09,28.93-33.71,40.73-29.25,10.22-52,.06-63-15.63s-31.38-15.88-37.65,3.83-47.06,13.43-47.06,13.43Z"/><path class="cls-3" d="M72.49,319.6c22.72-9.73,22.59-35.51,31.6-55.78,12.85-28.93,34.14-31,58.87-32.58,37.65-2.46,98.9,13.59,96.7-28.66-53.46-3-97,29.59-153.82,22.54-74.14-9.2-106.57-46.63-81.76-118C46.54,42.55,100.46,14.28,165.76,2.8,289.78-19,366,91.25,371,175.2c1.33,22.44-.56,35-2.77,48.52,15.33-5.14,33.09-.88,43.74,10.49,44,46.92,79.39,62.39,156.26,21.6-5.83,30.84-52.3,70.6-123.41,57.52-51.34-9.44-53.86-48.11-93.66-25.51,14.09,8.43,20.48,18.54,20.55,32.57.11,22.14-9.78,62.74,8.27,77.65,24,19.87,57.74,5,80.54.25-6.29,39.5-84.72,54.13-118.17,24.63-35.58-31.41-18.66-80.32-34-99-24.47-29.74-63.76-7.94-66.37,25-2.6,32.78,10.07,79.24-34,99.88-38.11,17.84-96.22,8.35-100.91-26.63,15,5.07,40.25,15.65,67.45,4.66,24.6-9.94,12-55.95,16.73-98.83,4-36.5,40.17-42.15,40.78-42.35-25.07-6-50.4-5.05-58.85-4.33-50.43,4.33-5.33,56.95-90.7,70.74C40.75,358.76,0,333.2,0,297.12,17.43,312.42,43.21,332.15,72.49,319.6Z"/><path class="cls-4" d="M254,322h0a43.86,43.86,0,0,0-12.12,26.88c-2.6,32.78,10.07,79.24-34,99.88-38.11,17.84-96.22,8.35-100.91-26.63,19.88,30.37,47.57,33.43,77.12,27.67s41.57-23.79,47.58-68.24S242.18,331.37,254,322Z"/><path class="cls-4" d="M444.81,313.33c-51.34-9.44-53.86-48.11-93.66-25.51C356.84,277,363,268.35,385,271s32.4,33,87.57,32.95c30.18,0,76.06-20.77,87.33-38.17a44.68,44.68,0,0,1,8.35-9.89C562.34,286.69,515.89,326.4,444.81,313.33Z"/><path class="cls-4" d="M309,324.87a1.09,1.09,0,0,0,.13.17Z"/><path class="cls-4" d="M342.34,422.92c-34.23-30.22-19.87-76.66-32.46-96.78,7.76,11.4,11.47,32,15.44,48.11,4.71,19.09,22.23,45,50.73,52.82s60.92-6,71.37-14.12c5.41-4.19,9.83-10,12.84-14.61l.25,0C454.22,437.79,375.79,452.42,342.34,422.92Z"/><path class="cls-4" d="M52.59,342.26c20.88,2.67,47.69-5.09,59.15-14.52,21.9-18,14.35-33.66,30.3-48.72,14.74-13.91,64.49-12.18,85.34-7.36,21.59,5,6.07,13.65,4.6,14-25.07-6-50.4-5.05-58.85-4.33-50.43,4.33-5.33,56.95-90.7,70.74C40.75,358.76,0,333.2,0,297.12,9.63,325,31.71,339.61,52.59,342.26Z"/><path class="cls-5" d="M445.87,419.11c.84,1.1,3.13.74,5.1-.78s2.92-3.63,2.09-4.72-3.12-.73-5.1.78S445,418,445.87,419.11Z"/><path class="cls-5" d="M423.29,428.83c.41,1.32,2.67,1.79,5,1.07s4-2.39,3.62-3.7-2.67-1.78-5-1.06S422.9,427.53,423.29,428.83Z"/><path class="cls-5" d="M391.84,433.38c-.08,1.37,1.88,2.6,4.36,2.75s4.59-.85,4.68-2.21-1.89-2.6-4.37-2.75S391.92,432,391.84,433.38Z"/><path class="cls-5" d="M356.06,425.72c-.55,1.26.88,3.08,3.16,4.08s4.6.77,5.15-.48-.89-3.09-3.17-4.07S356.6,424.47,356.06,425.72Z"/><path class="cls-5" d="M332.24,402.18c-1.11.81-.8,3.11.66,5.12s3.58,3,4.68,2.19.8-3.11-.66-5.11S333.34,401.38,332.24,402.18Z"/><path class="cls-5" d="M320.63,374.82c-1.31.43-1.74,2.71-1,5.07s2.47,4,3.76,3.54,1.73-2.71,1-5.07S321.92,374.4,320.63,374.82Z"/><path class="cls-5" d="M239.83,356.5c-1.34-.32-2.9,1.39-3.49,3.8s0,4.68,1.34,5,2.9-1.39,3.48-3.81S241.15,356.82,239.83,356.5Z"/><path class="cls-5" d="M236.53,386.87c-1.36-.11-2.66,1.81-2.88,4.29s.7,4.61,2,4.74,2.66-1.8,2.88-4.28S237.9,387,236.53,386.87Z"/><path class="cls-5" d="M230.63,416.37c-1.29-.47-3,1-3.9,3.37s-.53,4.64.74,5.12,3-1.05,3.89-3.37S231.91,416.85,230.63,416.37Z"/><path class="cls-5" d="M214.34,441.07c-.81-1.11-3.11-.83-5.12.63s-3,3.56-2.22,4.67,3.1.82,5.11-.64S215.14,442.18,214.34,441.07Z"/><path class="cls-5" d="M185,453.46c-.24-1.35-2.43-2.1-4.88-1.66s-4.27,1.88-4.05,3.22,2.44,2.1,4.89,1.66S185.22,454.81,185,453.46Z"/><path class="cls-5" d="M149.65,455.2c.29-1.34-1.46-2.86-3.89-3.38s-4.66.13-5,1.46,1.47,2.86,3.89,3.38S149.36,456.54,149.65,455.2Z"/><path class="cls-5" d="M118.08,440.94c1-.94.41-3.18-1.3-5s-3.92-2.54-4.91-1.6-.41,3.18,1.3,5S117.08,441.88,118.08,440.94Z"/><path class="cls-5" d="M223.4,274.32c.21-1.36-1.64-2.76-4.1-3.13s-4.64.42-4.86,1.77,1.65,2.76,4.1,3.13S223.19,275.67,223.4,274.32Z"/><path class="cls-5" d="M221.71,283.39c.16-1-1.73-2.09-4.2-2.46s-4.6.12-4.75,1.09,1.75,2.08,4.21,2.45S221.57,284.36,221.71,283.39Z"/><path class="cls-5" d="M190.12,271.66c0-1.37-2-2.48-4.53-2.47s-4.52,1.13-4.53,2.5,2.05,2.47,4.53,2.45S190.12,273,190.12,271.66Z"/><path class="cls-5" d="M189.84,280.88c0-1-2-1.79-4.53-1.79s-4.52.82-4.53,1.81,2.05,1.78,4.53,1.77S189.84,281.87,189.84,280.88Z"/><path class="cls-5" d="M159.57,274.75c-.48-1.29-2.77-1.61-5.11-.74s-3.84,2.64-3.37,3.92,2.78,1.6,5.11.73S160.05,276,159.57,274.75Z"/><path class="cls-5" d="M162.53,283.48c-.35-.93-2.53-1-4.86-.09s-4,2.35-3.62,3.27,2.54,1,4.87.09S162.88,284.4,162.53,283.48Z"/><path class="cls-5" d="M138.48,292.39c-1.27-.53-3.07.93-4,3.24s-.69,4.61.57,5.13,3.07-.94,4-3.25S139.74,292.9,138.48,292.39Z"/><path class="cls-5" d="M146.89,296.16c-.91-.38-2.43,1.19-3.37,3.5s-1,4.5-.06,4.87,2.43-1.21,3.37-3.5S147.81,296.53,146.89,296.16Z"/><path class="cls-5" d="M129.41,314.21c-1.17-.73-3.19.41-4.5,2.52s-1.45,4.44-.29,5.16,3.18-.42,4.49-2.53S130.57,314.93,129.41,314.21Z"/><path class="cls-5" d="M137.07,319.34c-.84-.53-2.6.77-3.92,2.89s-1.7,4.27-.87,4.79,2.59-.78,3.9-2.88S137.91,319.87,137.07,319.34Z"/><path class="cls-5" d="M113.3,332.42c-.71-1.17-3-1.06-5.15.24s-3.28,3.31-2.57,4.48,3,1.06,5.15-.25S114,333.59,113.3,332.42Z"/><path class="cls-5" d="M117.85,340.44c-.51-.84-2.67-.47-4.79.83s-3.45,3.05-2.93,3.9,2.67.46,4.78-.84S118.36,341.29,117.85,340.44Z"/><path class="cls-5" d="M85.1,343.36c-.28-1.34-2.49-2-4.92-1.51s-4.21,2-3.94,3.35,2.5,2,4.94,1.5S85.39,344.69,85.1,343.36Z"/><path class="cls-5" d="M58,346.7c.11-1.36-1.81-2.65-4.28-2.86s-4.61.7-4.74,2.06,1.81,2.66,4.29,2.87S57.85,348.07,58,346.7Z"/><path class="cls-5" d="M30.1,339.18c.72-1.16-.44-3.18-2.55-4.47s-4.45-1.42-5.17-.26.44,3.19,2.57,4.48S29.39,340.35,30.1,339.18Z"/><path class="cls-5" d="M10.87,322.76c1.07-.84.68-3.13-.87-5.06s-3.69-2.86-4.77-2-.67,3.14.89,5.09S9.81,323.62,10.87,322.76Z"/><path class="cls-5" d="M86.69,351.61c-.2-1-2.35-1.35-4.8-.83s-4.26,1.71-4.06,2.68,2.36,1.32,4.78.82S86.89,352.57,86.69,351.61Z"/><path class="cls-5" d="M555,277.68c1.16.74,3.19-.36,4.55-2.45s1.52-4.4.37-5.15-3.19.35-4.54,2.45S553.85,276.93,555,277.68Z"/><path class="cls-5" d="M533.87,290c.71,1.18,3,1.09,5.16-.19s3.32-3.28,2.61-4.45-3-1.09-5.15.18S533.17,288.86,533.87,290Z"/><path class="cls-5" d="M511.75,299.41c.54,1.27,2.84,1.5,5.14.53s3.74-2.78,3.21-4-2.84-1.5-5.13-.53S511.23,298.14,511.75,299.41Z"/><path class="cls-5" d="M487.18,305.3c.27,1.35,2.48,2,4.92,1.54s4.21-2,3.95-3.34-2.49-2-4.93-1.53S486.91,304,487.18,305.3Z"/><path class="cls-5" d="M488.77,314.19c.28,1.35,2.49,2,4.93,1.54s4.21-2,3.94-3.34-2.48-2-4.92-1.53S488.5,312.85,488.77,314.19Z"/><path class="cls-5" d="M459.62,306.1c-.07,1.38,1.9,2.59,4.39,2.72s4.57-.88,4.65-2.25-1.91-2.58-4.39-2.71S459.69,304.74,459.62,306.1Z"/><path class="cls-5" d="M458.77,314.28c-.07,1.37,1.9,2.58,4.39,2.71s4.57-.88,4.65-2.24-1.91-2.59-4.39-2.72S458.84,312.91,458.77,314.28Z"/><path class="cls-5" d="M431,299.89c-.4,1.32,1.22,3,3.6,3.69s4.66.25,5.06-1.06-1.22-3-3.6-3.68S431.37,298.59,431,299.89Z"/><path class="cls-5" d="M428.29,307.74c-.4,1.32,1.22,3,3.6,3.68s4.66.25,5.06-1.05-1.22-3-3.6-3.69S428.69,306.43,428.29,307.74Z"/><path class="cls-5" d="M407.22,286.17c-.74,1.16.39,3.18,2.49,4.51s4.42,1.48,5.15.33-.38-3.18-2.48-4.51S408,285,407.22,286.17Z"/><path class="cls-5" d="M401.47,294.13c-.74,1.16.39,3.18,2.49,4.51s4.42,1.48,5.15.34-.38-3.19-2.49-4.52S402.2,293,401.47,294.13Z"/><path class="cls-5" d="M383.6,273.79c-.28,1.34,1.49,2.84,3.92,3.34s4.66-.16,4.94-1.5-1.48-2.84-3.91-3.34S383.89,272.45,383.6,273.79Z"/><path class="cls-5" d="M380.89,281.88c-.42,1.31,1.17,3,3.54,3.75s4.65.33,5.07-1-1.17-3-3.54-3.74S381.31,280.59,380.89,281.88Z"/><path class="cls-5" d="M516,307.22c.53,1.26,2.83,1.51,5.13.54s3.74-2.79,3.21-4.05-2.84-1.5-5.13-.53S515.51,306,516,307.22Z"/><path class="cls-5" d="M538,295.71c.71,1.19,3,1.1,5.16-.18s3.31-3.28,2.61-4.45-3-1.1-5.15.19S537.26,294.54,538,295.71Z"/><path class="cls-2" d="M259.66,202.58c-53.46-3-97,29.59-153.82,22.54-21-2.61-38.71-7.5-52.68-14.79,10.85-6.73,15.5,1.14,52.32,7.39,36,6.12,62.91-14.47,102.23-25.49C236.29,184.21,259.67,193.57,259.66,202.58Z"/><path class="cls-6" d="M218.85,46.26c-4-1-8-1-12.09-1-4.57,0-8.81-9.3-3-9.3a55.72,55.72,0,0,1,14.29,1.35,6.78,6.78,0,0,1,4.75,5.66,3,3,0,0,1-4,3.33Z"/><path class="cls-6" d="M193.26,28.67c-3.3-.31-6.64-.15-9.56,1.56-2.22,1.3-4.61.22-6.17-1.65-1.12-1.34-2.75-5.07-.56-6.36a21.27,21.27,0,0,1,13.31-2.83A6.62,6.62,0,0,1,195.89,24c.6,1.87,0,4.9-2.63,4.65Z"/><path class="cls-6" d="M173.59,46.11a20,20,0,0,0-5.73,2.59c-2.2,1.32-4.61.2-6.16-1.65-1.14-1.35-2.75-5-.56-6.36a27.23,27.23,0,0,1,7.46-3.56c2.52-.6,4.91,1.15,6.1,3.28.9,1.63,1.42,5.1-1.11,5.7Z"/><path class="cls-6" d="M150.27,34.19c-3.73,2.48-7.52,4.85-11.43,7-2.25,1.25-4.58.24-6.17-1.66-1.1-1.3-2.78-5.11-.56-6.36,3.91-2.18,7.71-4.55,11.44-7,2.13-1.42,4.67-.12,6.16,1.65,1.2,1.43,2.69,5,.56,6.36Z"/><path class="cls-6" d="M142.79,63.66A44.19,44.19,0,0,0,134,70.25c-3.48,3.4-10.28-4.53-6.73-8a45,45,0,0,1,8.8-6.6c2.22-1.29,4.6-.21,6.17,1.66,1.11,1.33,2.76,5.07.55,6.36Z"/><path class="cls-6" d="M241.62,32.92a72.55,72.55,0,0,0-8.12-2.64,6.82,6.82,0,0,1-4.75-5.66,3,3,0,0,1,4-3.33,93.92,93.92,0,0,1,10.34,3.52,6.41,6.41,0,0,1,3.6,6.32c-.47,2.65-3.08,2.61-5,1.79Z"/><path class="cls-6" d="M275.6,57.61a6.28,6.28,0,0,0-1.82-2,10.92,10.92,0,0,0-2.9-1.16,6.8,6.8,0,0,1-4.75-5.66,3,3,0,0,1,4-3.34,19.63,19.63,0,0,1,11.12,7.43c1.2,1.7,2.61,4.63.56,6.36-1.87,1.56-5,.05-6.17-1.65Z"/><path class="cls-6" d="M247,62.44c-1.22-1.33-3.62-1.43-5.83-1.22-4.57.42-8.85-8.75-3-9.3a16.81,16.81,0,0,1,14.4,5.81c1.41,1.55,2.47,4.76.56,6.37S248.42,64,247,62.44Z"/><path class="cls-6" d="M107.62,58.86a74,74,0,0,0-9.24,5.67c-4.07,2.88-10.7-5.2-6.73-8a90,90,0,0,1,11-6.64c2.25-1.13,5.14,1.58,6.1,3.29,1.13,2,1.16,4.54-1.11,5.69Z"/><path class="cls-6" d="M113.35,38.63c-2.39,1-4.75,1.94-7,3.08-4.15,2-9.83-6.59-5-9,2.31-1.13,4.66-2.13,7-3.08,4.34-1.73,10,7,5,9Z"/><path class="cls-6" d="M76.83,66.73c-2.09,1.27-4.07,2.69-6.16,4S66,70.87,64.51,69c-1.15-1.37-2.74-5-.56-6.36S68,60,70.1,58.72s4.63-.18,6.17,1.65c1.15,1.37,2.73,5,.56,6.36Z"/><path class="cls-6" d="M104.11,82.61a65.83,65.83,0,0,0-7.92,3.52c-2.25,1.12-5.13-1.56-6.1-3.29-1.12-2-1.17-4.55,1.11-5.69a67.45,67.45,0,0,1,7.92-3.52c4.42-1.54,10,7.23,5,9Z"/><path class="cls-6" d="M70.67,90a22,22,0,0,0-6,5.39c-3.06,4.43-10.62-2.66-8-6.47A26.46,26.46,0,0,1,64,82c2.13-1.43,4.68-.11,6.16,1.66,1.21,1.43,2.68,4.93.56,6.35Z"/><path class="cls-6" d="M267.13,31.6a27.43,27.43,0,0,0-7.24-2.2c-4.66-.82-7.16-10.13-.79-9a36.72,36.72,0,0,1,9.47,3.08c2.18,1.06,4,3.85,3.6,6.33s-3.11,2.71-5,1.78Z"/><path class="cls-6" d="M216.56,15.48c-3.52,0-7-.41-10.55-.44-2.58,0-4.86-2.3-5.61-4.64-.65-2,.08-4.67,2.63-4.65,3.53,0,7,.41,10.56.44,2.58,0,4.85,2.29,5.6,4.63.66,2-.08,4.68-2.63,4.66Z"/><path class="cls-6" d="M166.12,18.84l-7.92,4c-2.25,1.12-5.13-1.56-6.1-3.29-1.13-2-1.17-4.55,1.11-5.69l7.92-4c2.25-1.13,5.13,1.56,6.09,3.29,1.13,2,1.17,4.55-1.1,5.69Z"/><path class="cls-2" d="M40,183.51c0,.19.11.27.44.65-.3-.3-.21-.24.29.2-.45-.36,1,.58.9.52,2.16,1.14,4,3.79,3.6,6.33s-3.13,2.79-5,1.78a16.43,16.43,0,0,1-8.91-11.81c-.44-2.41,1.83-3.91,4-3.34A7,7,0,0,1,40,183.51Z"/><path class="cls-2" d="M59,184.44a43.29,43.29,0,0,0,9.9,2.49,6.7,6.7,0,0,1,5.61,4.64c.58,1.83,0,5-2.64,4.65a53.44,53.44,0,0,1-12.09-2.78A7,7,0,0,1,55,187.77c-.19-2.21,1.68-4.17,4-3.33Z"/><path class="cls-2" d="M103.66,203.54a14.46,14.46,0,0,1-11.14-1.32c-2.14-1.17-4-3.74-3.59-6.32s3.14-2.83,5-1.78a5.91,5.91,0,0,0,4.7.44c4.5-1.31,10,7.51,5,9Z"/><path class="cls-2" d="M143.68,205.3a62.19,62.19,0,0,1-12.45,1.48c-2.57,0-4.87-2.34-5.6-4.64-.66-2.08.09-4.63,2.63-4.65a51.6,51.6,0,0,0,10.43-1.17c2.54-.54,4.88,1.11,6.09,3.29.88,1.58,1.44,5.15-1.1,5.69Z"/><path class="cls-2" d="M175.65,196.22A69.39,69.39,0,0,0,163,197.38c-2.56.5-4.86-1.07-6.1-3.28-.85-1.54-1.45-5.2,1.11-5.69a79,79,0,0,1,14.64-1.48c4.58,0,8.82,9.25,3,9.29Z"/><path class="cls-2" d="M119.36,190.51h-9.23c-2.58,0-4.87-2.32-5.61-4.64-.66-2.06.09-4.65,2.63-4.65h9.24c2.57,0,4.86,2.31,5.6,4.63.66,2.06-.09,4.66-2.63,4.66Z"/><path class="cls-2" d="M121.12,216.89h-8.36c-2.57,0-4.86-2.31-5.6-4.63-.66-2.07.09-4.66,2.63-4.66h8.36c2.57,0,4.86,2.31,5.6,4.64.66,2.06-.09,4.65-2.63,4.65Z"/><path class="cls-2" d="M84.18,187.87a15.5,15.5,0,0,1-9-3.08c-1.84-1.28-3.35-4.41-2.18-6.57,1.28-2.35,4.14-1.25,5.79-.09a5.07,5.07,0,0,0,2.42.45c2.59,0,4.85,2.27,5.61,4.63.64,2-.08,4.71-2.63,4.66Z"/><path class="cls-2" d="M46.79,170a16,16,0,0,0,2.2,3.37c1.25,1.68,2.58,4.66.56,6.36s-4.92,0-6.17-1.65A38.79,38.79,0,0,1,38.55,170c-.87-2,.24-4.66,2.63-4.66,2.75,0,4.63,2.36,5.61,4.64Z"/><path class="cls-2" d="M82.2,210.15a55.6,55.6,0,0,1-7.47-2.2A6.92,6.92,0,0,1,70,202.28a3,3,0,0,1,4-3.33,53,53,0,0,0,7.48,2.2c4.65.86,7.14,10.17.78,9Z"/><path class="cls-2" d="M50.51,202.89c.3.52,1.65,1.24.23.65a6.39,6.39,0,0,1-3.59-6.32c.47-2.65,3.07-2.59,5-1.78a11.59,11.59,0,0,1,5.51,5.05c1,1.76,1.31,4.88-1.1,5.69s-5-1.33-6.09-3.29Z"/><path class="cls-2" d="M32.08,161.52a15.13,15.13,0,0,0,1.07,4.1c.71,2.06-.12,4.66-2.63,4.66s-4.81-2.33-5.6-4.64a23.66,23.66,0,0,1-1.56-6.45c-.12-2.37,1.59-4,4-3.34a6.77,6.77,0,0,1,4.75,5.67Z"/><path class="cls-6" d="M357,239.12a47.15,47.15,0,0,0-8.36,7.48c-1.65,1.93-5-.32-6.16-1.66-1.56-1.86-2.23-4.4-.56-6.36a47.49,47.49,0,0,1,8.36-7.47c4-2.92,10.67,5.15,6.72,8Z"/><path class="cls-6" d="M317.69,256.91a30.44,30.44,0,0,1-11.21-.59,6.79,6.79,0,0,1-4.75-5.66,3,3,0,0,1,4-3.33,24.64,24.64,0,0,0,9,.29c4.56-.53,8.84,8.61,3,9.29Z"/><path class="cls-6" d="M329.13,243.72h-3.52c-2.57,0-4.86-2.31-5.61-4.64-.65-2.06.09-4.66,2.64-4.66h3.51c2.58,0,4.86,2.32,5.61,4.64.66,2.06-.09,4.66-2.63,4.66Z"/><path class="cls-6" d="M333.28,262.45a14.46,14.46,0,0,1-2.72,5.25c-1.66,1.94-5-.31-6.16-1.65-1.56-1.86-2.23-4.41-.56-6.36a5.85,5.85,0,0,0,.8-1.78c1.9-5.61,10.1.2,8.64,4.54Z"/><path class="cls-6" d="M301,277.14h-4.84c-2.57,0-4.86-2.31-5.6-4.64-.66-2.06.08-4.65,2.63-4.65H298c2.57,0,4.86,2.31,5.6,4.63.66,2.07-.08,4.66-2.63,4.66Z"/><path class="cls-6" d="M275.46,261.15a49.92,49.92,0,0,0-6.59-3.07,6.4,6.4,0,0,1-3.6-6.33c.47-2.66,3.07-2.57,5-1.78a48.29,48.29,0,0,1,6.6,3.08c2.12,1.23,4.06,3.71,3.59,6.32-.43,2.44-3.15,2.88-5,1.78Z"/><path class="cls-6" d="M252.39,245.77c-1.35-.52-2.62-1.25-4-1.76a7,7,0,0,1-4.75-5.67c-.19-2.19,1.68-4.2,4-3.33,1.35.52,2.62,1.25,4,1.76a7,7,0,0,1,4.75,5.67c.19,2.18-1.68,4.2-4,3.33Z"/><path class="cls-6" d="M275.26,241.81a16,16,0,0,1-8.47-6.1c-1.28-1.66-2.57-4.68-.56-6.37s4.89,0,6.16,1.66c.86,1.11,1,1.54,2.09,1.82a6.77,6.77,0,0,1,4.75,5.66,3,3,0,0,1-4,3.33Z"/><path class="cls-6" d="M304.94,243.27a69.49,69.49,0,0,1-9.24.45c-2.57,0-4.86-2.31-5.6-4.64-.66-2.06.09-4.66,2.63-4.66A71.05,71.05,0,0,0,302,234c4.55-.61,8.85,8.51,3,9.28Z"/><path class="cls-6" d="M353.87,222a26.08,26.08,0,0,0-4.65,4.5c-1.56,2-4,1.59-5.8.1-1.5-1.22-3.72-4.59-2.18-6.57a33.85,33.85,0,0,1,5.91-6.05c3.92-3,10.6,5,6.72,8Z"/><path class="cls-6" d="M261.75,264.94c0-.2-.09-.9,0-.68.13.38.43.74-.22,0-1.43-1.52-2.46-4.76-.56-6.36s4.74.13,6.16,1.66a11.84,11.84,0,0,1,3.28,9.9c-.37,2.52-3.18,2.76-5,1.78a6.55,6.55,0,0,1-3.6-6.33Z"/><path class="cls-6" d="M327.16,284.47c-2.55-.9-5.24-1.18-7.59.39-2.14,1.41-4.68.12-6.17-1.65-1.19-1.43-2.68-5-.56-6.37a14.93,14.93,0,0,1,13.53-1.37,6.89,6.89,0,0,1,4.75,5.67,3,3,0,0,1-4,3.33Z"/><path class="cls-6" d="M366.94,209.6a7.78,7.78,0,0,1-1.63,8c-1.67,1.93-5-.31-6.17-1.65-1.56-1.86-2.23-4.41-.56-6.37.52-.59,0-.35.12.06-.58-2.07,0-4.65,2.64-4.65s4.94,2.3,5.6,4.64Z"/><path class="cls-6" d="M259.64,235.36a8.24,8.24,0,0,1-4.41-1c-2.09-1.3-4.07-3.67-3.59-6.33.42-2.38,3.17-2.94,5-1.78-.88-.16-.89-.21,0-.15,2.57,0,4.85,2.29,5.6,4.63.66,2.05-.08,4.69-2.63,4.66Z"/><path class="cls-6" d="M289.33,257.35a19.42,19.42,0,0,1-4.51-4.49c-1.21-1.7-2.61-4.65-.56-6.36,1.87-1.57,4.95-.05,6.16,1.65a10.18,10.18,0,0,0,2.53,2.54c1.82,1.29,3.35,4.41,2.18,6.57-1.28,2.34-4.15,1.28-5.8.09Z"/><path class="cls-6" d="M233.7,242.83h-3.08c-2.58,0-4.87-2.31-5.61-4.63-.66-2.07.09-4.66,2.63-4.66h3.08c2.57,0,4.86,2.32,5.61,4.64.65,2.06-.09,4.65-2.63,4.65Z"/><path class="cls-7" d="M554.34,267.57c-5.53,3.32-7.62,5-11,7a76.55,76.55,0,0,1-13,5.95c-27.4,10.49-47,12.05-47,12.05a120.43,120.43,0,0,1-34-2c-5.27-1.13-5-1.51-28-10,0,0-33.22-12.27-49-10a29.35,29.35,0,0,0-7,2,26.35,26.35,0,0,0-5,3c-3.14,2.39-6.15,5.78-7,8a21.32,21.32,0,0,1-1.55,3.25c-.09.16-.25.43-.45.75-14.46,22.43-82.65,11.92-112-9a58.89,58.89,0,0,0-12-7c-7-3-12.64-2.08-37-4a140.06,140.06,0,0,0-35,2c-4.4.84-10.51,2.28-16,7-3.26,2.8-5,5.61-7,9-10.57,17.65-11.09,19.79-14,24a57.66,57.66,0,0,1-23,19c-10.64,4.83-20.12,4.91-31,5-7.36.06-12.86.11-20-2-7.65-2.26-12.64-5.64-22-12S8.92,308.85,7.6,307.38a64.07,64.07,0,0,1-7.26-9.81,67.71,67.71,0,0,0,37,41c18.45,7.91,35,4.67,43,3,6.33-1.33,21.89-4.6,35-17,18-17.07,11.85-32.92,29-46,8.77-6.69,17.43-7.93,32-10,29.86-4.25,62.43,2.3,63,10,.12,1.63-1.15,3.94-7,7a47.81,47.81,0,0,0-26,12c-2.72,2.53-7.09,7.25-11,16-3.74,8.35-5.26,16.51-5,52,.08,12.1.32,20-1,32-1.75,15.85-4.26,21.17-8,25-5.21,5.33-11.54,6.47-20,8-17.52,3.16-32.35-1.11-42-4A121.07,121.07,0,0,1,107,422.14a65.91,65.91,0,0,0,20.32,20.43c27.49,17.26,68.87,12.81,87-9,7.24-8.71,10.61-20,13-28,3.49-11.69,2.57-15.95,5-31,3.64-22.57,5.45-33.86,13-44,.74-1,18.4-24.07,40.86-20.3,12.14,2,19.79,10.94,22.09,13.62,5.95,6.93,6.69,12.36,14,37.68,4.57,15.72,6.85,23.59,8,26,2.38,5,12,24.45,34,35,21.8,10.43,42.26,5.71,54,3,8.58-2,22.28-5.33,34-17a57.43,57.43,0,0,0,8.17-10.28c-53.67,15.33-71.22,7.46-80.54-.25-18.05-14.91-8.16-55.51-8.27-77.65a35.7,35.7,0,0,0-3-14.74c-4.23-9.45-12-15-17.32-18.08a27.19,27.19,0,0,1,9-12,27.94,27.94,0,0,1,12-5,35.46,35.46,0,0,1,24,4c.26.16.41.25,3,2,10.45,7.08,18.42,12.6,19,13,13.17,9.09,34,12.83,35,13,18.41,3.18,33,.17,43-2a134.69,134.69,0,0,0,35-13c16.12-8.35,23.11-15.71,26-19,1.75-2,3.09-3.76,4-5C559.75,264.43,557.29,265.79,554.34,267.57Z"/><path class="cls-8" d="M333.75,123.22c-.67,1.19-3.39,6.06-8.73,7.12-4.87,1-10.92-1.45-11.54-4.88-.4-2.17,1.23-4,3.16-6.35,11-13.31,11.52-18.71,14.32-18.2C335.12,101.66,338.64,114.47,333.75,123.22Z"/><path class="cls-8" d="M306,109.44l38.16-51.56S327,53.94,311.55,75.12,306,109.44,306,109.44Z"/><path class="cls-8" d="M253.28,125.86,181.2,104.45s13.35-15.83,42.69-6.84S253.28,125.86,253.28,125.86Z"/><path class="cls-8" d="M240.38,159.81a19.32,19.32,0,0,0,20.38-3.27c4.46-4,7.85-11.32,5.38-14.95-1.49-2.18-4.52-2.16-8.63-2.51-18.57-1.55-23.64-7.53-26.89-4.37C226.35,138.86,229.38,154.75,240.38,159.81Z"/><path class="cls-8" d="M271.69,207.84a145,145,0,0,1,7.94-34.07c.12-.33.29-.78.5-1.3,2.78-7.18,12.42-30.29,25-28.52,3.72.51,6.61,3.07,8.36,4.94l1.16,2.77.84,2c.8,2.51,1.68,5.63,2.51,9.37.78,3.53,1.09,5.31,1.4,7.22a198.7,198.7,0,0,1,1.95,21.31c.29,4.55.84,11.06,2,19a32.3,32.3,0,0,0-13.7-5.63c-21.77-3.34-38.26,18.54-39.09,19.67A151.65,151.65,0,0,1,271.69,207.84Z"/><g class="cls-9"><path class="cls-10" d="M326.87,195.23a32.4,32.4,0,0,1-2.36,14.06c-7.25,17.24-30.56,27-45.17,23a22.92,22.92,0,0,1-10.24-6.17c.18-.88.06-1.57-.31-1.76s-1.07.39-1.15.47h0c1-.81-2.23,2.36-3.05,2.26s-.73-3.46,3.36-18.93L268,208c26-24.53,44.56-21.76,55.46-15A37.81,37.81,0,0,1,326.87,195.23Z"/><path class="cls-11" d="M264.61,224c-2.1-8.31,15.06-20,28.92-24.83A39.47,39.47,0,0,1,309.19,197c4,.26,11.94.93,16.15,6.58a13,13,0,0,1,2,4,53.07,53.07,0,0,1-14,12c-2.9,1.7-8.39,3.94-19.66,6.91-19.41,5.12-23.6,3.45-26,1.59A7.74,7.74,0,0,1,264.61,224Z"/><path class="cls-12" d="M334.66,146.69c-3.33,0-6.6.05-9.79.2l-1.15-12c-8-3.17-28.5-7.67-50,15.15-.27,2.42-.48,4.67-.63,6.68-3.74,1.28-6.78,2.45-9,3.38l1.15,7.39s.86-.52,2.6-1.36l8.12,4.59,3-8.15,9,4.26,3.23-7.73,9.75,4.31,3.91-7.35,8.45,4.8,4.73-6.81,6,5.76,4.63-6.68c3.46-.23,7.06-.42,10.84-.54A23.12,23.12,0,0,0,334.66,146.69Z"/></g></g></g></svg>