<svg xmlns="http://www.w3.org/2000/svg" xmlns:xlink="http://www.w3.org/1999/xlink" viewBox="0 0 226.04 365.49"><defs><style>.cls-1{fill:#ce586a;}.cls-2{fill:url(#linear-gradient);}.cls-3{fill:#ea92a2;}.cls-4{fill:#95544d;}.cls-5{fill:#d19187;}.cls-6{fill:#d7a197;}.cls-7{fill:#f9ddd9;}.cls-8{opacity:0.06;}.cls-9{fill:#5d291b;}</style><linearGradient id="linear-gradient" x1="-362.92" y1="46.65" x2="-399.83" y2="388.5" gradientTransform="matrix(-1, 0, 0, 1, -268.1, 0)" gradientUnits="userSpaceOnUse"><stop offset="0" stop-color="#fcc"/><stop offset="0.59" stop-color="#f3b0b5"/><stop offset="1" stop-color="#ea9ba3"/></linearGradient></defs><g id="Layer_2" data-name="Layer 2"><g id="Layer_1-2" data-name="Layer 1"><path class="cls-1" d="M141.26,28.07c-.5-3.59-1.57-7.31-4.19-9.81s-7.14-3.3-9.85-.89c-4.55,4-.83,12.81-5.29,17-2.78,2.59-7.58,1.73-10.27-.95S108,26.77,107.51,23s-.46-7.64-1.64-11.26C103.61,4.81,96.56-.46,89.29,0S75.52,7.25,75.93,14.53c.34,6.15,4.84,11.12,8.2,16.29S89.67,43.26,85.7,48c-3.31,3.92-9.58,4-14.16,1.71s-7.91-6.46-11.25-10.35C55.68,34,50.38,28.65,43.53,26.93s-15.45,1.74-16.84,8.66c-1.35,6.73,4.43,12.9,10.62,15.85s13.25,4.06,19,7.86,9.57,12,5.54,17.54c-3.3,4.55-10.12,4.87-15.42,3s-9.9-5.38-15.2-7.24c-4.28-1.5-9.13-1.84-13.29,0s-7.43,6-7.29,10.54c.19,6,5.79,10.37,11.39,12.42s11.76,2.72,16.91,5.73,9,9.72,6.12,15c-2.44,4.46-8.2,5.55-13.15,6.73s-10.64,4-10.87,9.1c-.22,4.59,4.39,8,8.88,9s9.22.45,13.65,1.63,8.79,5.14,8,9.65c-.4,2.18-1.91,4-2.37,6.18-.77,3.64,1.73,7.33,5,9.15s7.08,2.19,10.78,2.51c4.38.39,9.38.57,12.52-2.5,2.48-2.43,3-6.2,3-9.67-.3-16.65-11.34-32.17-9.56-48.73,1.33-12.43,9.92-23.17,20.39-30A85.71,85.71,0,0,1,111.45,70c5.72-1.87,13.9-2.2,18.17-6.52A43,43,0,0,0,141.26,28.07Z"/><path class="cls-1" d="M64.93,191.83c-3.81-.26-7.79,0-11.14,1.81s-5.9,5.52-5.43,9.3c.59,4.73,5.41,7.79,10,8.89s9.56,1,14,2.75c1.73.69,3.51,1.88,3.86,3.71.42,2.2-1.54,4.27-3.69,4.9s-4.45.25-6.69.1-4.68,0-6.4,1.43c-2.64,2.21-2.29,6.66,0,9.25s5.81,3.64,9.22,4.07,6.9.38,10.21,1.28c3.74,1,7.59,4.39,6.6,8.14-.88,3.35-4.89,4.63-8.31,5.17s-7.4,1.22-9,4.29c-1.9,3.6.94,8,4.39,10.18s7.63,3.16,10.7,5.83,4.34,8.2,1,10.55c-2.46,1.74-5.87.71-8.56-.65s-5.54-3.08-8.51-2.51c-3.37.64-5.58,4.24-5.64,7.67s1.58,6.68,3.51,9.53c4,5.87,9.52,10.85,16.23,13.12s14.61,1.5,20.17-2.89c7.88-6.22,9.26-17.43,10-27.44,1-13.54,1.83-27.23-.3-40.64C107.13,214.69,91.65,193.67,64.93,191.83Z"/><path class="cls-1" d="M39.8,306.05c2.14-2.16,3.86-5.41,2.59-8.18-2.52-5.51-13-2.77-15.2-8.43-1-2.53.59-5.43,2.77-7s4.89-2.28,7.42-3.23,5.12-2.35,6.32-4.78a6.42,6.42,0,0,0-8.59-8.62c-3,1.48-5.23,5.35-8.52,4.71C24.28,270,23,267.25,23.52,265s2.33-4.09,4.29-5.39,4.15-2.26,6-3.69a15.05,15.05,0,0,0,4-18.35c-.65-1.23-1.69-2.49-3.08-2.5s-2.59,1.43-3.07,2.85-.61,3-1.43,4.24c-1.54,2.37-4.9,2.8-6.86,4.83-2.2,2.28-2.06,5.84-2.64,9-1.26,6.88-6.38,12.32-9.43,18.61a33.36,33.36,0,0,0,1.41,30.73C18.5,315.13,32.28,313.67,39.8,306.05Z"/><path class="cls-2" d="M19.76,341.88c18.71,17.7,45.77,24.19,71.52,23.57,21.75-.52,44.15-6,60.85-20,18.08-15.08,27.62-38.8,28.79-62.31,1.89-38-17.86-76.42-49.92-97-10.12-6.48-17.61-15.29-27.48-21.92-3.43-2.3-6.89-4.86-8.81-8.5a11.68,11.68,0,0,1-1.19-3.68A8.56,8.56,0,0,1,96,144.36c2.26-2,5.58-2.36,8.58-1.91a29.29,29.29,0,0,1,3.32.71h0c1.82.48,3.63,1,5.5,1.38,12.51,2.3,23.27-6,35.51-6.47,1.3,0,2.6-.06,3.9,0q3.25.06,6.5.42a67.46,67.46,0,0,1,25,7.92c6.13,3.38,12.33,7.89,19.32,7.39,8.61-.61,14.64-8.46,19.48-15.59,1.92-2.82,3.9-6.37,2.39-9.42-1.7-3.47-6.46-3.63-10.32-3.69a59.82,59.82,0,0,1-50.31-29.86C159.64,85.91,156.76,75,149,67.66c-6.85-6.48-16.63-9.1-26.06-9.09-9.09,0-17.76,2.84-26.8,3.09A30.67,30.67,0,0,0,77.51,68C64.31,77.57,56,93.35,53.72,109.31c-3.13,21.75,3.17,43.8,11.73,64.05s19.41,39.58,26.13,60.51c5.32,16.59,8,34.59,3.54,51.46s-16.88,32.29-33.73,36.73-37.19-4.82-42-21.57c-3.58-12.52,1.46-25.65,4.92-38.21s4.77-27.69-4.29-37c-1.94-2-5.14-3.63-7.38-2-2,1.5-1.74,4.73-.35,6.83s3.57,3.55,5.16,5.5c4.26,5.25,3.44,13.11.48,19.18s-7.72,11.1-11.22,16.88C-6.64,293.65,1.05,324.17,19.76,341.88Z"/><path class="cls-3" d="M140,211.06c2.6-.2,5.24-.63,7.77,0s4.95,2.62,5.05,5.22c.09,2.32-1.73,4.38-3.88,5.27a15.39,15.39,0,0,1-6.86.69c-11.91-.78-23.88-4.19-33.43-11.34-2.15-1.61-9.72-8.26-7.46-11.55s8.41,3,10.19,4.21A45.92,45.92,0,0,0,140,211.06Z"/><path class="cls-3" d="M153.78,249.82c2.88.06,5.87-.07,8.5,1.08s4.76,4.12,3.87,6.85c-1.16,3.55-5.92,4-9.63,3.75-11.53-.9-23.22-3-33.32-8.62a43.18,43.18,0,0,1-15.13-13.8c-4-6.06.3-9.44,5.81-5.28C126,242.92,138.21,249.53,153.78,249.82Z"/><path class="cls-3" d="M149.43,305.49a69,69,0,0,1-24.85-14.11c-6.58-5.79-14.89-14.53-17.19-23.21a3.24,3.24,0,0,1,.12-2.63,2.42,2.42,0,0,1,3.29-.33,7.4,7.4,0,0,1,2.17,2.92c3.06,5.81,10.4,10.47,16,13.57,7.74,4.32,16.23,7.08,24.69,9.7a21.64,21.64,0,0,1,7,3.11c2,1.56,3.53,4.09,3.12,6.63-.45,2.8-3.13,4.84-5.93,5.37S152.15,306.34,149.43,305.49Z"/><path class="cls-3" d="M136.08,324.14a12.37,12.37,0,0,1,4.33,2.81c1.11,1.32,1.5,3.46.34,4.75a4.84,4.84,0,0,1-3.8,1.17c-8.16-.19-15.56-5.38-20.43-11.93a48.1,48.1,0,0,1-7-13c-1.84-5.56,1.34-5.57,4.37-1.69A62.94,62.94,0,0,0,136.08,324.14Z"/><path class="cls-3" d="M111.43,344.35a3.86,3.86,0,0,1-4.32,1.5,10.11,10.11,0,0,1-4.11-2.62c-2.84-2.63-10.49-10.57-2.8-12.12C105.09,330.13,113.93,339.88,111.43,344.35Z"/><path class="cls-3" d="M85.56,346.65c.71,1.19,1.25,2.94.14,3.77l-.06.05c-1,.69-2.43-.11-3.34-1C78.17,345.59,82.76,341.92,85.56,346.65Z"/><path class="cls-3" d="M114.2,186.5a4.05,4.05,0,0,1-2.94,2.61,9.21,9.21,0,0,1-4.08,0c-3-.54-15.13-3.8-10.05-7.84S110.4,183.84,114.2,186.5Z"/><path class="cls-4" d="M199.22,144a6.52,6.52,0,0,1,.44-2.78c2-5.66,6.39-8.42,11.93-9.41C210.22,138,205.13,142,199.22,144Z"/><path class="cls-5" d="M211.59,131.85c.48-.08,1-.16,1.47-.22a3.81,3.81,0,0,1,2.82.49c1.14.91,1,2.67.58,4.06a15.94,15.94,0,0,1-11.3,10.57c-2,.48-4.5.34-5.54-1.43a3.2,3.2,0,0,1-.4-1.28C205.13,142,210.22,138,211.59,131.85Z"/><path class="cls-6" d="M81.31,137.1a46.21,46.21,0,0,0,12.21,15A8.56,8.56,0,0,1,96,144.36c2.26-2,5.58-2.36,8.58-1.91a29.29,29.29,0,0,1,3.32.71c-1.5-.59-3.18-.92-4.59-1.53a46.17,46.17,0,0,1-9.49-5.6A62.82,62.82,0,0,1,77.58,116.9,35.85,35.85,0,0,0,81.31,137.1Z"/><path class="cls-7" d="M106.75,66.48A43.07,43.07,0,0,1,122,65.7c3,.39,6.38,1.64,7.16,4.54.7,2.59-1.24,5.34-3.73,6.35s-5.31.68-7.91,0a26.56,26.56,0,0,0-6.2-1.2,6.15,6.15,0,0,0-5.44,2.61c-1,1.78-.75,4.13-1.87,5.86-1.65,2.56-5.88,2.34-7.88,0-3.88-4.47-.76-12.38,3.79-14.89A27.58,27.58,0,0,1,106.75,66.48Z"/><path class="cls-7" d="M86.27,86.47c.36,2-1.1,3.81-2.08,5.59a13.26,13.26,0,0,0-1.48,8.58c.25,1.49.75,2.94.91,4.44a5.26,5.26,0,0,1-1.15,4.25c-1.5,1.54-4.19,1.36-5.92.07a9.62,9.62,0,0,1-3.16-5.49c-1.33-5.3-.54-12.45,2.46-17.16C77.83,83.66,85.25,80.86,86.27,86.47Z"/><path class="cls-7" d="M81.18,169.49a4.65,4.65,0,0,1-.94,5c-1.59,1.39-4.2.92-5.78-.49-2.52-2.25-8.22-16-4.35-17.5S80.21,166.64,81.18,169.49Z"/><path class="cls-7" d="M70,329.8a14.24,14.24,0,0,1,4.78-.16,4.14,4.14,0,0,1,3.37,3c.29,1.68-.89,3.27-2.21,4.36a18.13,18.13,0,0,1-10.25,3.72,48.05,48.05,0,0,1-11-.82c-4.44-.69-16-7.27-6.75-9.91C54.64,328.08,63,330.72,70,329.8Z"/><path class="cls-7" d="M107,288.16a23.33,23.33,0,0,1-3.4,14.3c-.85,1.37-2.43,2.81-3.87,2.08-1.12-.57-1.29-2.08-1.27-3.34.06-4.19-.09-11.2,1.63-15.05C102.6,280.44,106.53,283.4,107,288.16Z"/><path class="cls-7" d="M176.48,116.66a12,12,0,0,1,2.85,2,2.93,2.93,0,0,1,.64,3.21,2.75,2.75,0,0,1-2.95,1.19,7.19,7.19,0,0,1-3-1.57c-1.71-1.33-11.22-9.34-8.5-11.9C168,107.32,174.87,115.69,176.48,116.66Z"/><path class="cls-8" d="M140.24,192.89a67.8,67.8,0,0,0,4.38,6c23.7,28.88,26.45,61.74,26.45,61.74.35,4.77,2.79,44.19-17.64,65.28a115.4,115.4,0,0,1-32,22c-.55.26-1.79.83-3.06,1.37-9.1,3.88-31.16,11.35-55.63,2.32-30.5-11.26-42.61-45.8-42.34-48.32a27.09,27.09,0,0,1-1-2.83c-3.58-12.52,1.46-25.65,4.92-38.21s4.77-27.69-4.29-37c-1.94-2-5.14-3.63-7.38-2-2,1.5-1.74,4.73-.35,6.83s3.57,3.55,5.16,5.5c4.26,5.25,3.44,13.11.48,19.18s-7.72,11.1-11.22,16.88c-13.36,22-5.67,52.54,13,70.25s45.77,24.19,71.52,23.58c21.75-.53,44.15-6,60.85-20,18.08-15.08,27.62-38.8,28.79-62.31C182.62,248.94,166.79,214.44,140.24,192.89Z"/><path class="cls-9" d="M133.32,87.37l19.33-.31s-2.2-4.78-10.09-4.59S133.32,87.37,133.32,87.37Z"/><path class="cls-9" d="M112.17,95.94,95,110.45s-1.8-5.91,5.26-11.77S112.17,95.94,112.17,95.94Z"/><path class="cls-9" d="M121.86,108.82c-.25,1.1-4.67-.39-7.18,2.16-2.33,2.36-1.08,6.22-2.16,6.46s-3.06-2.63-2.82-5.59a6.94,6.94,0,0,1,6-6C119,105.49,122.08,107.86,121.86,108.82Z"/><path class="cls-9" d="M148.72,103.11c-.84.75-3.6-3-7.12-2.37-3.26.6-4.46,4.47-5.48,4.05s-1-3.92.91-6.19a6.92,6.92,0,0,1,8.35-1.46C148.26,98.72,149.46,102.45,148.72,103.11Z"/></g></g></svg>