<svg id="Layer_1" data-name="Layer 1" xmlns="http://www.w3.org/2000/svg" xmlns:xlink="http://www.w3.org/1999/xlink" viewBox="0 0 1125 1626"><defs><style>.cls-1{fill:url(#linear-gradient);}.cls-2,.cls-4{opacity:0.5;}.cls-2{fill:url(#linear-gradient-2);}.cls-3{fill:#fff;}.cls-4{fill:url(#linear-gradient-3);}</style><linearGradient id="linear-gradient" x1="560.16" y1="1138.67" x2="560.16" y2="76.31" gradientUnits="userSpaceOnUse"><stop offset="0" stop-color="#54c8f3"/><stop offset="1" stop-color="#37c2ec"/></linearGradient><linearGradient id="linear-gradient-2" x1="11127.67" y1="589.36" x2="11129.42" y2="746.4" gradientTransform="matrix(-0.79, 0, 0, 1, 9713.85, 0)" gradientUnits="userSpaceOnUse"><stop offset="0" stop-color="#fff"/><stop offset="1" stop-color="#fff" stop-opacity="0"/></linearGradient><linearGradient id="linear-gradient-3" x1="12079.62" y1="206.96" x2="12080.84" y2="316.7" gradientTransform="matrix(-0.79, 0, 0, 1, 9713.85, 0)" gradientUnits="userSpaceOnUse"><stop offset="0" stop-color="#fff"/><stop offset="1" stop-color="#fff" stop-opacity="0"/></linearGradient></defs><rect class="cls-1" x="-2.34" y="1.45" width="1125" height="1138.55"/><path class="cls-2" d="M824.16,712.45s6.54,68,109,57,102.31-57,102.31-57,50.23-9,50.23-54-42.5-49-68.64-39l-37,16s36-59.1-25.06-84.55S830.7,576.45,830.7,576.45,830.27,553.73,813,538c-17.84-16.22-41-15.11-50.89-14.54-47.48,2.75-92.06,44.71-105.4,93-3.83,13.84-15.36,55.59,10,82,16.61,17.31,40.26,18.87,49,19a145.32,145.32,0,0,0,43.92,8.12A147.12,147.12,0,0,0,824.16,712.45Z"/><path class="cls-3" d="M749,35.5c0,104.38-84.61,189-189,189s-189-84.62-189-189A189,189,0,0,1,376.81-11H743.27A189,189,0,0,1,749,35.5Z"/><path class="cls-4" d="M80.92,293s4.57,47.52,76.14,39.83S228.56,293,228.56,293s35.1-6.29,35.1-37.73S234,221,215.69,228L189.8,239.17s25.13-41.3-17.51-59.08-86.8,17.85-86.8,17.85-.3-15.87-12.41-26.88c-12.46-11.33-28.62-10.56-35.56-10.15-33.18,1.91-64.33,31.24-73.66,65-2.67,9.67-10.73,38.84,7,57.3C-17.54,295.29-1,296.38,5.09,296.48A101.54,101.54,0,0,0,80.92,293Z"/></svg>