<svg xmlns="http://www.w3.org/2000/svg" xmlns:xlink="http://www.w3.org/1999/xlink" viewBox="0 0 505.7 360.22"><defs><style>.cls-1{fill:none;}.cls-2{fill:#f8900a;}.cls-3{opacity:0.17;}.cls-4{fill:url(#linear-gradient);}.cls-5{opacity:0.1;}.cls-6{fill:url(#linear-gradient-2);}.cls-7{fill:#5d291b;}.cls-8{clip-path:url(#clip-path);}.cls-9{fill:#fdfdfd;}.cls-10{fill:#ff6652;}.cls-11{fill:#e1493d;}.cls-12{clip-path:url(#clip-path-2);}.cls-13{fill:url(#linear-gradient-3);}.cls-14{fill:url(#linear-gradient-4);}.cls-15{clip-path:url(#clip-path-3);}</style><linearGradient id="linear-gradient" x1="-2286.59" y1="151.46" x2="-2252.39" y2="287.03" gradientTransform="matrix(-1, 0, 0, 1, -2037.19, 0)" gradientUnits="userSpaceOnUse"><stop offset="0" stop-color="#ffbf4b"/><stop offset="1" stop-color="#e19c2d"/></linearGradient><linearGradient id="linear-gradient-2" x1="-2316.33" y1="193.29" x2="-2279.01" y2="193.29" gradientTransform="matrix(-1, 0, 0, 1, -2037.19, 0)" gradientUnits="userSpaceOnUse"><stop offset="0" stop-color="#e19c2d"/><stop offset="1" stop-color="#d28920"/></linearGradient><clipPath id="clip-path"><path class="cls-1" d="M430.26,257.71a37.19,37.19,0,0,0-7-15.13l-.46-.57c-2.58-3.2-11.56-13.51-24-12.86a23.21,23.21,0,0,0-8.37,2.09l-1.21,1.21-.88.88a32.05,32.05,0,0,0-2.7,4.12,29.27,29.27,0,0,0-1.56,3.17,33.15,33.15,0,0,0-2.41,9.19c-.67,2.62-1.35,5.23-2,7.84,0,0,18.2-6.8,51.41,7.48A30.26,30.26,0,0,0,430.26,257.71Z"/></clipPath><clipPath id="clip-path-2"><path class="cls-1" d="M449.15,186.11l-20.9,9.74H396.79l-19.92-9.74-12,4,6.28,26.16,74.35-2.35s9.35-5,9.35-12.3S449.15,186.11,449.15,186.11Z"/></clipPath><linearGradient id="linear-gradient-3" x1="-2045.39" y1="151.46" x2="-2011.19" y2="287.02" gradientTransform="matrix(-1, 0, 0, 1, -1796.48, 0)" xlink:href="#linear-gradient"/><linearGradient id="linear-gradient-4" x1="-2075.13" y1="193.28" x2="-2037.81" y2="193.28" gradientTransform="matrix(-1, 0, 0, 1, -1796.48, 0)" xlink:href="#linear-gradient-2"/><clipPath id="clip-path-3"><ellipse class="cls-1" cx="401.04" cy="229.71" rx="14.42" ry="10.55" transform="translate(73.87 556.14) rotate(-74.74)"/></clipPath></defs><g id="Layer_2" data-name="Layer 2"><g id="Layer_1-2" data-name="Layer 1"><path class="cls-2" d="M429.11,250.15A59.83,59.83,0,0,1,424,233.58c-5.58-37.05,30-30.23,48.5-28.68,4.56.38,9.18.32,13.66,1.22,14.1,2.85,22.88,19.46,18.41,36.39-3.2,12.11-8.63,25.75-17.87,37.94-10.27,13.56-27.75,13.78-37.09.63C442.77,271.5,434.52,261.66,429.11,250.15Z"/><g class="cls-3"><path d="M436.38,225.15a113.23,113.23,0,0,1,11.81,5q5.74,2.82,11.29,6T470.37,243a109.63,109.63,0,0,1,10.38,7.74,110,110,0,0,1-11.8-5q-5.74-2.82-11.29-6c-3.7-2.14-7.33-4.38-10.9-6.77A112.25,112.25,0,0,1,436.38,225.15Z"/></g><g class="cls-3"><path d="M435.39,235.6a87.73,87.73,0,0,1,8.83,7.42c2.78,2.62,5.44,5.34,8,8.15s5,5.71,7.39,8.71a87.34,87.34,0,0,1,6.57,9.45,89,89,0,0,1-8.83-7.41c-2.78-2.62-5.44-5.35-8-8.16s-5-5.71-7.39-8.71A90.86,90.86,0,0,1,435.39,235.6Z"/></g><g class="cls-3"><path d="M442.8,217.65a84,84,0,0,1,11.13,1.44q5.51,1.07,10.91,2.55T475.57,225a85,85,0,0,1,10.51,4.48,81.19,81.19,0,0,1-11.14-1.44c-3.66-.7-7.3-1.56-10.9-2.55s-7.19-2.1-10.74-3.37A87.12,87.12,0,0,1,442.8,217.65Z"/></g><path class="cls-2" d="M14.17,228.43c3.68,1.61,8.15,1.31,12.51.56a13.7,13.7,0,0,1-2.82-.85c-11.24-4.91-14.19-20.42-13.44-31.28l3.2-46.25c1-14.11,7.79-25.23,16.07-28.59-12-4.25-24.41,9.49-25.76,28.88L.75,197.15C0,208,2.94,223.52,14.17,228.43Z"/><path class="cls-4" d="M23.86,228.14a13.7,13.7,0,0,0,2.82.85c3-.5,5.86-1.22,8.43-1.67,7.59-1.33,15.15-3,22.6-5,9.91-2.69,18-8.14,26.77-13.3a16.79,16.79,0,0,1,4.2-2,6.58,6.58,0,0,1,3.12,0c.13.95.28,1.9.44,2.85,13.53,84.71,93.12,149.76,189.27,149.76q5.64,0,11.22-.3c100.43-5.32,180.1-81.68,180.1-175.13,0-96.89-85.66-175.43-191.32-175.43h-1.59c-92,.68-168.49,60.9-186,140.69q-.68,3-1.21,6c-3.07.91-5.31-2.37-7.47-4.7a55.21,55.21,0,0,0-10.87-8.68c-7.7-4.89-16.21-8.28-24.64-11.69-6.46-2.61-12.9-5.46-19.36-8.13-.24-.1-.49-.2-.73-.28-8.28,3.36-15.1,14.48-16.07,28.59l-3.2,46.25C9.67,207.72,12.62,223.23,23.86,228.14Z"/><path class="cls-5" d="M.6,197.75l.82-11.95c1.82,7.07,5.55,13.56,12.12,16.43,3.68,1.61,8.14,1.31,12.5.55,3-.49,5.87-1.21,8.43-1.66,7.6-1.33,15.15-3,22.6-5,9.91-2.68,18-8.13,26.77-13.29A18.56,18.56,0,0,1,87.53,181c-1.68-17.48,2.5-28.18,2.5-28.18l3.65-1.21c-5.66,16.89-2.52,29.22-2.52,29.22.14,1,.28,1.9.44,2.84,13.54,84.72,93.12,149.77,189.27,149.77q5.64,0,11.22-.31c96.67-5.12,174.1-76.06,179.76-164.71a161.4,161.4,0,0,1,.83,16.38c0,93.45-79.67,169.81-180.11,175.13q-5.56.3-11.21.3c-96.16,0-175.74-65.05-189.27-149.76-.16-1-.31-1.9-.44-2.84a6.34,6.34,0,0,0-3.12,0,16.44,16.44,0,0,0-4.2,2c-8.75,5.16-16.86,10.62-26.77,13.3-7.46,2-15,3.69-22.61,5-2.56.45-5.46,1.17-8.42,1.67-4.36.75-8.83,1-12.51-.56C2.79,224.11-.16,208.6.6,197.75Z"/><path class="cls-2" d="M300.07,64.89,286.5,30.64a2.11,2.11,0,0,0-3.93,0l-13.16,33a2.1,2.1,0,0,0,.67,2.46c3.56,2.7,14.45,9.23,29,1.48A2.11,2.11,0,0,0,300.07,64.89Z"/><path class="cls-2" d="M364.82,38.65,361.18,9.92a1.66,1.66,0,0,0-3-.77L341.73,31.68a1.67,1.67,0,0,0,0,2c2.18,2.75,9.2,9.85,21.79,6.79A1.67,1.67,0,0,0,364.82,38.65Z"/><path class="cls-2" d="M252.1,20.63,235.19.54a1.51,1.51,0,0,0-2.66.88l-1.45,25.27a1.5,1.5,0,0,0,1,1.51c3,1,11.85,3,19.93-5.55A1.51,1.51,0,0,0,252.1,20.63Z"/><path class="cls-2" d="M209.62,57.39l-18.85-22a1.66,1.66,0,0,0-2.92,1L186.5,64.28a1.66,1.66,0,0,0,1.14,1.66c3.33,1.1,13.09,3.16,21.92-6.31A1.68,1.68,0,0,0,209.62,57.39Z"/><path class="cls-2" d="M390.72,97.37l-1-28.93a1.67,1.67,0,0,0-2.91-1L368.36,88.33a1.67,1.67,0,0,0-.15,2c1.92,2.94,8.26,10.64,21.07,8.75A1.67,1.67,0,0,0,390.72,97.37Z"/><path class="cls-2" d="M443.82,93.23,455.9,69.91a1.51,1.51,0,0,0-1.84-2.12l-23.89,8.34a1.51,1.51,0,0,0-1,1.52c.21,3.18,1.79,12.09,12.76,16.29A1.52,1.52,0,0,0,443.82,93.23Z"/><path class="cls-2" d="M142.43,73.36l-24.26-10a1.51,1.51,0,0,0-2,2l10.35,23.1a1.49,1.49,0,0,0,1.59.88c3.15-.48,11.89-2.82,15.15-14.1A1.54,1.54,0,0,0,142.43,73.36Z"/><path class="cls-2" d="M269.06,120.58,237.43,84.14a2.77,2.77,0,0,0-4.86,1.7l-2,46.46a2.76,2.76,0,0,0,1.9,2.75c5.57,1.8,21.85,5.14,36.47-10.74A2.8,2.8,0,0,0,269.06,120.58Z"/><path class="cls-2" d="M171.15,127.67l-35.36-13.26a2.17,2.17,0,0,0-2.71,3l16,32.7a2.15,2.15,0,0,0,2.33,1.18c4.51-.84,17-4.62,21.09-21A2.19,2.19,0,0,0,171.15,127.67Z"/><path class="cls-2" d="M197.8,188.32l-36.19,10.81a2.16,2.16,0,0,0-.35,4l32.5,16.39a2.17,2.17,0,0,0,2.58-.47c3.07-3.39,10.71-13.93,4.1-29.48A2.19,2.19,0,0,0,197.8,188.32Z"/><path class="cls-2" d="M206.28,258.81l-.72,37.77a2.16,2.16,0,0,0,3.71,1.56l25.51-26a2.16,2.16,0,0,0,.33-2.6c-2.29-4-10-14.44-26.83-12.88A2.18,2.18,0,0,0,206.28,258.81Z"/><path class="cls-6" d="M278,192.45l-33-18.42a2.16,2.16,0,0,0-3.12,2.54l10.9,34.73a2.17,2.17,0,0,0,2.14,1.52c4.58-.16,17.45-2,24-17.61A2.18,2.18,0,0,0,278,192.45Z"/><path class="cls-2" d="M349.44,151.1,325.35,122a2.16,2.16,0,0,0-3.83,1.24l-2.39,36.32a2.16,2.16,0,0,0,1.44,2.19c4.32,1.51,17,4.42,28.74-7.74A2.19,2.19,0,0,0,349.44,151.1Z"/><g class="cls-3"><path d="M322.14,219.8c1.72,2.41,3.24,4.52,4.57,6.63a33,33,0,0,1,3.14,6.25,9.23,9.23,0,0,1,.52,1.59c.13.54.32,1.07.43,1.63s.16,1.12.3,1.69a3.55,3.55,0,0,1,.1.86l.07.89c.2,1.21.06,2.44.15,3.77s-.16,2.66,0,4.21a16.3,16.3,0,0,0,1.54-1.57,9.21,9.21,0,0,0,1.35-1.77,14.89,14.89,0,0,0,1.74-4.14,11.78,11.78,0,0,0,.44-2.28c.06-.77.06-1.56.07-2.35a16.36,16.36,0,0,0-1-4.62,17.08,17.08,0,0,0-5.34-7.39A15.21,15.21,0,0,0,322.14,219.8Z"/></g><path class="cls-2" d="M114.92,206.25,85.56,230a2.17,2.17,0,0,0,1.2,3.85l36.29,2.79a2.15,2.15,0,0,0,2.2-1.42c1.56-4.3,4.61-16.95-7.42-28.82A2.19,2.19,0,0,0,114.92,206.25Z"/><path class="cls-2" d="M151.28,273.6l-22.69,30.19a2.17,2.17,0,0,0,2.09,3.44l35.88-6.13a2.17,2.17,0,0,0,1.8-1.91c.46-4.56.34-17.57-14.22-26.15A2.19,2.19,0,0,0,151.28,273.6Z"/><path class="cls-2" d="M114.09,150.5l-28.48-5.23A1.66,1.66,0,0,0,84,147.89l16.49,22.51a1.64,1.64,0,0,0,1.92.57c3.28-1.24,12.17-5.78,13.07-18.7A1.67,1.67,0,0,0,114.09,150.5Z"/><path class="cls-2" d="M439,146.43l-4.23-25.91a1.51,1.51,0,0,0-2.74-.61l-14.19,21a1.5,1.5,0,0,0,.1,1.82c2.06,2.42,8.65,8.63,20,5.45A1.52,1.52,0,0,0,439,146.43Z"/><path class="cls-2" d="M469.79,188.31,487,169.77a1.45,1.45,0,0,0-1.16-2.44l-24.32,1.61a1.44,1.44,0,0,0-1.32,1.15c-.63,3-1.44,11.68,7.66,18.39A1.46,1.46,0,0,0,469.79,188.31Z"/><path class="cls-2" d="M315.52,268.41a68.5,68.5,0,0,0,5.54-19.85c5.18-44.65-37.6-37.89-60-36.8-5.5.27-11.11,0-16.5.9-17,2.85-26.89,22.6-20.76,43.3,4.39,14.8,11.55,31.56,23.27,46.73,13,16.85,34.2,17.86,45,2.33C299.88,293.7,309.46,282.14,315.52,268.41Z"/><g class="cls-3"><path d="M305.65,237.82a123.38,123.38,0,0,0-14.09,5.61q-6.84,3.16-13.42,6.81T265.22,258a120.81,120.81,0,0,0-12.24,9,125.2,125.2,0,0,0,14.09-5.6q6.84-3.17,13.41-6.82c4.39-2.43,8.7-5,12.92-7.73A123.54,123.54,0,0,0,305.65,237.82Z"/></g><g class="cls-3"><path d="M307.29,250.52a98.38,98.38,0,0,0-10.38,8.61q-4.87,4.59-9.36,9.54T279,278.91a97.12,97.12,0,0,0-7.55,11.17,95,95,0,0,0,10.38-8.61q4.89-4.58,9.36-9.54t8.58-10.24A97.2,97.2,0,0,0,307.29,250.52Z"/></g><g class="cls-3"><path d="M297.55,228.46a97.59,97.59,0,0,0-13.42,1.28q-6.61,1-13.11,2.62T258.16,236a96.26,96.26,0,0,0-12.54,5,97.58,97.58,0,0,0,13.43-1.27q6.61-1,13.11-2.62c4.32-1.05,8.61-2.25,12.86-3.64A97.5,97.5,0,0,0,297.55,228.46Z"/></g><path class="cls-7" d="M403.93,169.74s1.13-7.88-6.76-15-44.69-2.25-51.08,16.53C346.09,171.25,378.77,160,403.93,169.74Z"/><path class="cls-7" d="M432.82,169.74s-2-4.88,1.53-12,21.55-5.26,24.41,13.52C458.76,171.25,444.11,160,432.82,169.74Z"/><path class="cls-7" d="M430.26,257.71a37.19,37.19,0,0,0-7-15.13l-.46-.57c-2.58-3.2-11.56-13.51-24-12.86a23.21,23.21,0,0,0-8.37,2.09l-1.21,1.21-.88.88a32.05,32.05,0,0,0-2.7,4.12,29.27,29.27,0,0,0-1.56,3.17,33.15,33.15,0,0,0-2.41,9.19c-.67,2.62-1.35,5.23-2,7.84,0,0,18.2-6.8,51.41,7.48A30.26,30.26,0,0,0,430.26,257.71Z"/><g class="cls-8"><path class="cls-9" d="M429.12,236.68a83.6,83.6,0,0,0-48.65-7.91l-2,7.85s18.19-6.81,51.4,7.47A30.44,30.44,0,0,0,429.12,236.68Z"/><path class="cls-10" d="M379.86,250.29c-2.49,3.4-2.52,5.75-2.29,7.07,1.53,8.69,21.5,13.69,37.37,11.7A52.39,52.39,0,0,0,427.16,266a1.2,1.2,0,0,1,.89-.89,1.18,1.18,0,0,1,1,.25h0c-.74-.42,1.44,1.19,2.29,1.14s1.87-1.73,2.89-9.52l-.06,0c-17.83-12.42-37.16-11.11-50.22-7.76C382.5,249.54,381.14,249.9,379.86,250.29Z"/><path class="cls-11" d="M431.33,266.51a41.88,41.88,0,0,0-35.46-13.73c-8.8.85-18.27,4.57-18.3,4.58h0a70.09,70.09,0,0,0,49.33,11.19"/></g><g class="cls-12"><path class="cls-7" d="M374.26,195.85c0,8.4,5,15.21,11.27,15.21s11.26-6.81,11.26-15.21-5-15.21-11.26-15.21S374.26,187.45,374.26,195.85Z"/><path class="cls-9" d="M379.82,190.63c0,2.51,1.67,4.53,3.73,4.53s3.72-2,3.72-4.53-1.67-4.52-3.72-4.52S379.82,188.13,379.82,190.63Z"/><path class="cls-7" d="M428.25,195.85c0,8.4,5,15.21,11.26,15.21s11.27-6.81,11.27-15.21-5-15.21-11.27-15.21S428.25,187.45,428.25,195.85Z"/><path class="cls-9" d="M433.81,190.63c0,2.51,1.67,4.53,3.72,4.53s3.73-2,3.73-4.53-1.67-4.52-3.73-4.52S433.81,188.13,433.81,190.63Z"/></g><path class="cls-2" d="M428.63,250.14a59.74,59.74,0,0,1-5.16-16.57c-5.58-37,30-30.23,48.5-28.68,4.56.38,9.18.32,13.66,1.22,14.1,2.85,22.88,19.46,18.41,36.39-3.19,12.11-8.63,25.75-17.87,37.95-10.27,13.55-27.75,13.77-37.08.62C442.28,271.49,434,261.66,428.63,250.14Z"/><g class="cls-3"><path d="M435.9,225.15a109,109,0,0,1,11.8,5c3.83,1.87,7.59,3.89,11.29,6s7.34,4.38,10.9,6.76a110.59,110.59,0,0,1,10.38,7.75,108.26,108.26,0,0,1-11.81-5q-5.74-2.82-11.29-6c-3.69-2.13-7.33-4.38-10.89-6.76A116,116,0,0,1,435.9,225.15Z"/></g><g class="cls-3"><path d="M434.9,235.59a87.94,87.94,0,0,1,8.83,7.42q4.17,3.93,8,8.15t7.4,8.71a87.91,87.91,0,0,1,6.57,9.46,89.42,89.42,0,0,1-8.84-7.42q-4.15-3.93-8-8.16T441.48,245A88.86,88.86,0,0,1,434.9,235.59Z"/></g><g class="cls-3"><path d="M442.31,217.64a82.58,82.58,0,0,1,11.14,1.45q5.49,1,10.91,2.54T475.09,225a87.12,87.12,0,0,1,10.5,4.48A81,81,0,0,1,474.46,228q-5.5-1-10.91-2.54t-10.73-3.38A87.25,87.25,0,0,1,442.31,217.64Z"/></g><path class="cls-13" d="M23.38,228.13a13,13,0,0,0,2.81.85c3-.5,5.87-1.21,8.43-1.66q11.4-2,22.61-5c9.9-2.68,18-8.13,26.77-13.29a16.47,16.47,0,0,1,4.2-2,6.34,6.34,0,0,1,3.12,0c.13.94.27,1.89.43,2.84C105.29,294.57,184.87,359.62,281,359.62c3.77,0,7.5-.09,11.22-.3,100.44-5.32,180.1-81.68,180.1-175.13C472.34,87.3,386.68,8.76,281,8.76c-.53,0-1,0-1.59,0C187.46,9.46,111,69.67,93.49,149.46c-.45,2-.85,4-1.22,6-3.07.91-5.3-2.36-7.46-4.7a55.28,55.28,0,0,0-10.88-8.68c-7.7-4.89-16.21-8.28-24.63-11.69-6.46-2.61-12.91-5.46-19.37-8.13-.24-.1-.48-.2-.72-.28-8.28,3.36-15.11,14.48-16.08,28.59L9.94,196.86C9.19,207.71,12.14,223.22,23.38,228.13Z"/><path class="cls-5" d="M.11,197.74l.83-12c1.82,7.07,5.54,13.56,12.11,16.43,3.68,1.61,8.15,1.31,12.51.56,3-.5,5.86-1.22,8.42-1.67,7.6-1.33,15.15-3,22.61-5,9.9-2.69,18-8.14,26.77-13.3A19.43,19.43,0,0,1,87.05,181c-1.68-17.48,2.5-28.17,2.5-28.17l3.64-1.22c-5.66,16.89-2.51,29.22-2.51,29.22.13.95.28,1.9.43,2.84,13.54,84.72,93.12,149.77,189.27,149.77q5.65,0,11.22-.3c96.68-5.13,174.11-76.06,179.77-164.71q.81,8.09.82,16.37c0,93.45-79.66,169.81-180.1,175.13-3.72.21-7.46.3-11.22.3-96.15,0-175.73-65-189.27-149.76-.16-.95-.3-1.89-.44-2.84a6.46,6.46,0,0,0-3.12,0,16.79,16.79,0,0,0-4.2,2C75.09,214.75,67,220.2,57.07,222.88c-7.45,2-15,3.69-22.6,5-2.56.45-5.47,1.16-8.43,1.66-4.36.75-8.82,1.06-12.5-.56C2.31,224.11-.64,208.59.11,197.74Z"/><path class="cls-2" d="M299.59,64.88,286,30.63a2.12,2.12,0,0,0-3.93,0l-13.16,33a2.1,2.1,0,0,0,.68,2.46c3.55,2.71,14.44,9.23,29,1.48A2.13,2.13,0,0,0,299.59,64.88Z"/><path class="cls-2" d="M364.34,38.64,360.7,9.92a1.66,1.66,0,0,0-3-.77L341.25,31.67a1.65,1.65,0,0,0,0,2c2.18,2.76,9.19,9.85,21.78,6.79A1.67,1.67,0,0,0,364.34,38.64Z"/><path class="cls-2" d="M209.13,57.38l-18.84-22a1.66,1.66,0,0,0-2.92,1L186,64.28a1.64,1.64,0,0,0,1.13,1.65c3.34,1.1,13.09,3.17,21.92-6.31A1.67,1.67,0,0,0,209.13,57.38Z"/><path class="cls-2" d="M390.24,97.36l-1-28.93a1.66,1.66,0,0,0-2.9-1L367.88,88.32a1.64,1.64,0,0,0-.15,2c1.92,2.94,8.25,10.65,21.07,8.75A1.67,1.67,0,0,0,390.24,97.36Z"/><path class="cls-2" d="M443.34,93.22,455.41,69.9a1.5,1.5,0,0,0-1.83-2.11l-23.9,8.34a1.5,1.5,0,0,0-1,1.51c.21,3.18,1.8,12.09,12.77,16.29A1.52,1.52,0,0,0,443.34,93.22Z"/><path class="cls-2" d="M141.94,73.36l-24.26-10a1.51,1.51,0,0,0-2,2l10.34,23.09a1.51,1.51,0,0,0,1.6.88c3.14-.48,11.89-2.81,15.14-14.1A1.5,1.5,0,0,0,141.94,73.36Z"/><path class="cls-2" d="M268.58,120.57,237,84.13a2.77,2.77,0,0,0-4.86,1.7l-2,46.46A2.76,2.76,0,0,0,232,135c5.56,1.8,21.85,5.14,36.47-10.74A2.81,2.81,0,0,0,268.58,120.57Z"/><path class="cls-2" d="M170.67,127.66,135.3,114.4a2.17,2.17,0,0,0-2.71,3l16,32.7a2.15,2.15,0,0,0,2.34,1.18c4.5-.84,17-4.62,21.08-21A2.19,2.19,0,0,0,170.67,127.66Z"/><path class="cls-2" d="M197.32,188.32l-36.19,10.8a2.17,2.17,0,0,0-.36,4l32.5,16.38a2.16,2.16,0,0,0,2.58-.47c3.08-3.39,10.71-13.93,4.1-29.48A2.18,2.18,0,0,0,197.32,188.32Z"/><path class="cls-14" d="M277.54,192.44l-33-18.42a2.18,2.18,0,0,0-3.13,2.55l10.91,34.72a2.15,2.15,0,0,0,2.13,1.52c4.58-.15,17.46-2,24-17.6A2.19,2.19,0,0,0,277.54,192.44Z"/><path class="cls-2" d="M349,151.09,324.86,122a2.17,2.17,0,0,0-3.83,1.24l-2.39,36.32a2.16,2.16,0,0,0,1.44,2.19c4.33,1.51,17,4.42,28.74-7.74A2.18,2.18,0,0,0,349,151.09Z"/><g class="cls-3"><path d="M321.66,219.79c1.71,2.41,3.23,4.53,4.56,6.63a32.37,32.37,0,0,1,3.14,6.25,8.44,8.44,0,0,1,.52,1.59c.14.54.32,1.08.44,1.63s.16,1.12.29,1.69a3.57,3.57,0,0,1,.1.87l.07.88a35.24,35.24,0,0,1,.15,3.77c0,1.33-.15,2.67,0,4.21a15.32,15.32,0,0,0,1.55-1.57,9.86,9.86,0,0,0,1.34-1.76,14.8,14.8,0,0,0,1.75-4.15,11,11,0,0,0,.43-2.27c.06-.78.06-1.56.07-2.35a16.55,16.55,0,0,0-1-4.62,17.06,17.06,0,0,0-5.34-7.4A15.21,15.21,0,0,0,321.66,219.79Z"/></g><path class="cls-2" d="M114.44,206.24,85.07,230a2.17,2.17,0,0,0,1.2,3.85l36.29,2.79a2.16,2.16,0,0,0,2.21-1.41c1.56-4.31,4.61-17-7.42-28.83A2.19,2.19,0,0,0,114.44,206.24Z"/><path class="cls-2" d="M113.6,150.49l-28.48-5.23a1.67,1.67,0,0,0-1.64,2.62L100,170.39a1.65,1.65,0,0,0,1.92.57c3.29-1.24,12.17-5.77,13.07-18.7A1.67,1.67,0,0,0,113.6,150.49Z"/><path class="cls-2" d="M438.51,146.43l-4.24-25.92a1.5,1.5,0,0,0-2.73-.6l-14.19,21a1.52,1.52,0,0,0,.09,1.82c2.07,2.43,8.66,8.63,20,5.45A1.53,1.53,0,0,0,438.51,146.43Z"/><path class="cls-2" d="M315,268.41a68.25,68.25,0,0,0,5.54-19.86c5.19-44.64-37.6-37.89-60-36.8-5.51.27-11.11,0-16.5.9-17,2.85-26.89,22.6-20.76,43.3,4.38,14.81,11.55,31.56,23.26,46.73,13,16.86,34.2,17.86,45,2.33C299.39,293.69,309,282.13,315,268.41Z"/><g class="cls-3"><path d="M305.16,237.82a123.33,123.33,0,0,0-14.09,5.6q-6.84,3.17-13.42,6.81T264.74,258a120.83,120.83,0,0,0-12.25,8.94,120.81,120.81,0,0,0,14.09-5.6q6.84-3.17,13.42-6.82t12.91-7.73A123.43,123.43,0,0,0,305.16,237.82Z"/></g><g class="cls-3"><text/></g><g class="cls-3"><path d="M297.07,228.46a97.88,97.88,0,0,0-13.43,1.27q-6.61,1.05-13.1,2.62c-4.33,1-8.62,2.24-12.87,3.63a94.68,94.68,0,0,0-12.53,5,96.34,96.34,0,0,0,13.43-1.27q6.62-1,13.1-2.62c4.33-1,8.62-2.25,12.86-3.64A99,99,0,0,0,297.07,228.46Z"/></g><path class="cls-7" d="M404.6,153.52a86.68,86.68,0,0,1,37.53,5.41c-.55-1-6.3-10.52-18.13-12.12C408.66,144.73,404.6,153.52,404.6,153.52Z"/><path class="cls-7" d="M372.78,157a105.89,105.89,0,0,0-40.63,18.23c.3-1.29,3.65-13.93,16.48-19.56C365.28,148.35,372.78,157,372.78,157Z"/><path class="cls-7" d="M404.89,175.75l18.76.37,20.56.4a36.33,36.33,0,0,0-39.32-.77Z"/><path class="cls-7" d="M382.4,180.39l-41,14.23c1.86-2.6,9.13-12.13,22.4-15A36.87,36.87,0,0,1,382.4,180.39Z"/><g class="cls-15"><path class="cls-7" d="M378.88,230a29.18,29.18,0,0,1,8.6-9.92l.47-.34c2.65-1.86,11.67-7.71,21-4.52a18,18,0,0,1,5.88,3.39l.65,1.18.48.86a26.58,26.58,0,0,1,1.64,6.43,26.14,26.14,0,0,1-.16,7.47q-.09,3.19-.17,6.37s-12.3-9.08-40.51-5.46A24.06,24.06,0,0,1,378.88,230Z"/><path class="cls-9" d="M386.71,207.92a65.73,65.73,0,0,1,38.52,4.55l-.17,6.37s-12.3-9.08-40.51-5.47A24.5,24.5,0,0,1,386.71,207.92Z"/><path class="cls-10" d="M418.36,237.4c1.15,3.11.67,4.89.2,5.85-3,6.24-19.22,5.7-30.8.77a41.69,41.69,0,0,1-8.58-5,1,1,0,0,0-.48-.86.92.92,0,0,0-.81,0h0c.66-.15-1.34.59-2,.37s-1-1.72-.12-7.83l0,0c16.18-5.54,30.52-.36,39.67,5Q417,236.55,418.36,237.4Z"/><path class="cls-11" d="M375.91,238.54a32.92,32.92,0,0,1,29.8-2.72,62.5,62.5,0,0,1,12.85,7.43h0A55.1,55.1,0,0,1,378.82,241"/></g></g></g></svg>