<svg xmlns="http://www.w3.org/2000/svg" viewBox="0 0 58.89 66.08"><defs><style>.cls-1{fill:#fff;}</style></defs><g id="Layer_2" data-name="Layer 2"><g id="Layer_1-2" data-name="Layer 1"><path class="cls-1" d="M55.64,39.3l-10.78,10,5.77,2-.49.61C45.32,58,39.41,61.38,32.05,62.23l-.61.08V30.14h2.8c1.7,0,3.36,0,5,0a3.88,3.88,0,0,0,2-.35,1.41,1.41,0,0,0,.71-1.39,1.62,1.62,0,0,0-.41-1.25,3,3,0,0,0-2.16-.6H31.55l0-.5C30.88,19.54,31,19.35,35.23,16A8.74,8.74,0,0,0,38.52,9,9,9,0,0,0,35,1.93a9.11,9.11,0,0,0-7-1.83,8.94,8.94,0,0,0-6,3.75,8.94,8.94,0,0,0-1.51,7,9.35,9.35,0,0,0,4.41,6.05c1,.62,2.36,1.56,2.55,2.69a21.79,21.79,0,0,1,.16,4.52c0,.64,0,1.3,0,2v.56h-.55c-.85,0-1.67,0-2.46,0a30.1,30.1,0,0,0-5.07.15c-.91.12-2.32,1.13-2.42,1.72a1.28,1.28,0,0,0,.2,1.11,3,3,0,0,0,2.2.63c1.73,0,3.45,0,5.19,0h2.78V62.31l-.62-.08A25.68,25.68,0,0,1,8.78,51.86l-.47-.61,5.71-2-10.78-10L0,53.7A5.89,5.89,0,0,1,2.71,53c2.13,0,3.57,1.61,5,3.19l.27.3a28.69,28.69,0,0,0,43.21-.34c2.3-2.66,4.4-4,7.71-2.62ZM29.43,14.42h-.12a5.38,5.38,0,0,1-3.63-9.26,5.55,5.55,0,0,1,3.91-1.57A5.43,5.43,0,0,1,34.84,9a5.34,5.34,0,0,1-1.56,3.89A5.44,5.44,0,0,1,29.43,14.42Z"/></g></g></svg>