<svg id="Layer_1" data-name="Layer 1" xmlns="http://www.w3.org/2000/svg" xmlns:xlink="http://www.w3.org/1999/xlink" viewBox="0 0 1125 1626"><defs><style>.cls-1{fill:none;}.cls-2{clip-path:url(#clip-path);}.cls-3{fill:url(#linear-gradient);}.cls-4{clip-path:url(#clip-path-2);}.cls-5{fill:url(#linear-gradient-2);}.cls-6{opacity:0.25;fill:url(#linear-gradient-3);}.cls-7{fill:#f2f2f2;opacity:0.15;}.cls-8{fill:url(#linear-gradient-4);}.cls-9{fill:url(#linear-gradient-5);}.cls-10,.cls-12,.cls-18{opacity:0.5;}.cls-10{fill:url(#radial-gradient);}.cls-11{fill:#121e44;}.cls-12{fill:url(#linear-gradient-6);}.cls-13{fill:#d1d5db;}.cls-14{fill:#b40f15;}.cls-15{fill:#02102b;}.cls-16{fill:#a50d14;}.cls-17{fill:url(#linear-gradient-7);}.cls-18{fill:#ff0;}</style><clipPath id="clip-path"><rect class="cls-1" y="-1626" width="1125" height="1617"/></clipPath><linearGradient id="linear-gradient" x1="562.5" y1="112.02" x2="562.5" y2="-603.67" gradientUnits="userSpaceOnUse"><stop offset="0" stop-color="#4835a8"/><stop offset="1" stop-color="#9365a5"/></linearGradient><clipPath id="clip-path-2"><rect class="cls-1" y="19" width="1125" height="1617"/></clipPath><linearGradient id="linear-gradient-2" x1="562.38" y1="1758.03" x2="562.38" y2="1042.35" gradientUnits="userSpaceOnUse"><stop offset="0" stop-color="#4835a8"/><stop offset="1" stop-color="#6161aa"/></linearGradient><linearGradient id="linear-gradient-3" x1="10589.82" y1="-6569.94" x2="10589.82" y2="-7285.63" gradientTransform="translate(11152.2 -5517.95) rotate(180)" gradientUnits="userSpaceOnUse"><stop offset="0" stop-color="#4b1e73"/><stop offset="1" stop-color="#140037"/></linearGradient><linearGradient id="linear-gradient-4" x1="50.88" y1="911.33" x2="818.68" y2="911.33" gradientUnits="userSpaceOnUse"><stop offset="0" stop-color="#0f1d38"/><stop offset="0.03" stop-color="#0b1628"/><stop offset="1" stop-color="#0f1d38"/></linearGradient><linearGradient id="linear-gradient-5" x1="564.55" y1="1048.99" x2="262.49" y2="1042.67" gradientUnits="userSpaceOnUse"><stop offset="0" stop-color="#25336d"/><stop offset="1" stop-color="#0f1d38"/></linearGradient><radialGradient id="radial-gradient" cx="328.78" cy="806.49" r="111.5" gradientUnits="userSpaceOnUse"><stop offset="0" stop-color="#ff0" stop-opacity="0.5"/><stop offset="1" stop-color="#ff0" stop-opacity="0"/></radialGradient><linearGradient id="linear-gradient-6" x1="351.28" y1="819.12" x2="482.28" y2="819.12" xlink:href="#radial-gradient"/><linearGradient id="linear-gradient-7" x1="521.81" y1="925.06" x2="-201.18" y2="925.06" xlink:href="#linear-gradient-5"/></defs><g class="cls-2"><rect class="cls-3" y="-634" width="1125" height="786"/></g><g class="cls-4"><rect class="cls-5" x="-0.12" y="1012.01" width="1125" height="786"/><rect class="cls-6" x="-0.12" y="1012.01" width="1125" height="786"/><path class="cls-7" d="M450.88,1050.1v17.29c18.92.63,31.6-1,38.17,2.3,2.78,1.42,5.27,4.14,2.67,6.09-4.08,3-18,2.15-40.84,1.62v37.76c56.72.56,122.27-11.12,129.77-4.11,1.84,1.72-.76,3.68-2.29,4.84-10.38,7.83-48.37,6.9-127.48,9.32v26.71c36.3-.09,106.81-.16,214.7.08,121.95.28,180.41-7.16,179.77-13.55-.18-1.9-8-3.35-24.23-6.18-62.57-10.87-108.9-8.6-114.13-16.07-2.21-3.16,4.08-6.41,5-6.87,16.19-8.36,55.87.75,117.56-1.87,12.74-.54,37.5-2.06,50.77-4.42v-7.45c-24-6.36-93-14.43-166-14.3-77.09.14-142.11,9.39-157.68-1.61-4.25-3-2.67-5.31-2.67-5.31,1.54-2.11,6.52-3.28,9.54-3.9,22.94-4.72,68.74-6.18,85.12-6.71,19.12-.61,21.06-.69,26.72-.78,23.87-.35,28.79.49,44.51,0,18-.56,42.61-2.63,42.65-4.87s-24-3.9-28-4.18c-26.4-1.86-34.9.36-61.07.31-33.28-.06-32.84-3.67-79.77-4.84-19-.47-31.24-.17-31.86-1.51-1.23-2.65,40.23-7.69,40.23-7.69l6.78-2.19H450.88v.37c12.72.57,33.52,1.31,63.51,1.82C569.51,1041.13,510.8,1049.09,450.88,1050.1Z"/><path class="cls-8" d="M50.88,796.25s288.25-62.73,406.62,55.64-6.92,72.9,158.73,93.13,75.25,88.76,202.45,98H50.88Z"/><path class="cls-9" d="M542.88,1015.89c-7.46,1.4-16.65,6.92-25.34,14.44-16.93,14.63-32,36.8-28.66,50.68,5,21,14,17,14,27s3,11-121,6c-35.06-1.41-62.61-13.14-84.08-29.23C243.31,1044,227.88,975,227.88,975s128.8-8,206.9,12.5,77.1,5.5,108.1,13.5S564.88,1011.77,542.88,1015.89Z"/><circle class="cls-10" cx="328.78" cy="806.49" r="111.5"/><path class="cls-11" d="M488.88,1081c5,21,14,17,14,27s3,11-121,6c-35.06-1.41-62.61-13.14-84.08-29.23L276.88,1053l60-27s129.32,22.64,180.66,4.32C500.61,1045,485.58,1067.13,488.88,1081Z"/><polygon class="cls-12" points="351.28 813.99 482.28 857.01 482.28 781.24 351.28 798.99 351.28 813.99"/><polygon class="cls-13" points="368.88 1009.01 364.88 966.01 286.88 966.01 282.03 1009.01 368.88 1009.01"/><polygon class="cls-13" points="296.88 966.01 358.93 966.01 350.88 841.01 305.81 841.01 296.88 966.01"/><polygon class="cls-14" points="368.88 973.01 364.88 963.01 286.88 963.01 282.03 973.01 368.88 973.01"/><rect class="cls-15" x="307.88" y="824.01" width="41" height="10"/><rect class="cls-13" x="305.88" y="787.01" width="45" height="38"/><rect class="cls-15" x="326.88" y="745.01" width="4" height="18" rx="1.92"/><path class="cls-15" d="M332.45,758h-7.22a3.13,3.13,0,0,0-2.28,1l-21.2,22.78A3.11,3.11,0,0,0,304,787h48.05a3.11,3.11,0,0,0,2.36-5.14l-19.63-22.78A3.13,3.13,0,0,0,332.45,758Z"/><polygon class="cls-15" points="356.88 836.01 354.2 844.01 302.11 844.01 298.88 836.01 356.88 836.01"/><rect class="cls-16" x="298.88" y="828.57" width="58" height="7.44"/><path class="cls-17" d="M-203.12,665.56s175.61,4,239,54.4S218,775.24,252.18,970.38c0,0,104.07,35.77,130.09,91.06S455.45,1133,496.1,1152.5L536.75,1172a653.61,653.61,0,0,0-123.87,0c-44.13,4.19-56.84,9.89-95,12-53,2.93-57.81-6.46-134-12-29.5-2.14-76-1.76-169-1-41.7.34-46.87.69-87,1-55.75.43-101.13.24-131,0Z"/><rect class="cls-18" x="338.28" y="798.99" width="13" height="15"/><rect class="cls-18" x="321.28" y="798.99" width="13" height="15"/><rect class="cls-18" x="305.28" y="798.99" width="10" height="15"/></g></svg>