<svg id="Layer_1" data-name="Layer 1" xmlns="http://www.w3.org/2000/svg" xmlns:xlink="http://www.w3.org/1999/xlink" viewBox="0 0 1125 1626"><defs><style>.cls-1{fill:url(#linear-gradient);}.cls-2,.cls-3{opacity:0.5;}.cls-2{fill:url(#linear-gradient-2);}.cls-3{fill:url(#linear-gradient-3);}.cls-4{fill:#fff;}</style><linearGradient id="linear-gradient" x1="562.5" y1="1134.68" x2="562.5" y2="75.62" gradientUnits="userSpaceOnUse"><stop offset="0" stop-color="#fecc6b"/><stop offset="1" stop-color="#e1908d"/></linearGradient><linearGradient id="linear-gradient-2" x1="11168.76" y1="311.91" x2="11170.5" y2="468.95" gradientTransform="matrix(-0.79, 0, 0, 1, 9713.85, 0)" gradientUnits="userSpaceOnUse"><stop offset="0" stop-color="#ffe8c9"/><stop offset="1" stop-color="#efae7d" stop-opacity="0"/></linearGradient><linearGradient id="linear-gradient-3" x1="12125.74" y1="605.51" x2="12126.96" y2="715.25" xlink:href="#linear-gradient-2"/></defs><rect class="cls-1" y="1" width="1125" height="1135"/><path class="cls-2" d="M791.51,435s6.53,68,109,57,102.31-57,102.31-57,50.23-9,50.23-54-42.49-49-68.64-39l-37.05,16s36-59.1-25.06-84.55S798,299,798,299s-.43-22.72-17.75-38.46c-17.83-16.22-40.95-15.11-50.89-14.54-47.48,2.75-92.06,44.7-105.4,93-3.82,13.84-15.36,55.59,10,82,16.61,17.3,40.26,18.87,49,19a145.63,145.63,0,0,0,43.92,8.12A147.17,147.17,0,0,0,791.51,435Z"/><path class="cls-3" d="M44.27,691.53s4.56,47.52,76.13,39.83,71.5-39.83,71.5-39.83,35.1-6.29,35.1-37.74-29.69-34.24-48-27.25l-25.89,11.18s25.13-41.3-17.51-59.08-86.8,17.85-86.8,17.85-.3-15.88-12.4-26.88C24,558.28,7.81,559.05.87,559.45c-33.19,1.92-64.34,31.24-73.66,65-2.67,9.68-10.73,38.85,7,57.31,11.6,12.09,28.13,13.18,34.24,13.27A101.52,101.52,0,0,0-.87,700.7,102.91,102.91,0,0,0,44.27,691.53Z"/><path class="cls-4" d="M1125,726.45V992H876.13A190.15,190.15,0,0,1,852,899c0-105.49,85.51-191,191-191A190.25,190.25,0,0,1,1125,726.45Z"/><path class="cls-4" d="M871.45,820H1137v248.87a190.15,190.15,0,0,1-93,24.13c-105.49,0-191-85.51-191-191A190.25,190.25,0,0,1,871.45,820Z"/></svg>