<svg xmlns="http://www.w3.org/2000/svg" xmlns:xlink="http://www.w3.org/1999/xlink" viewBox="0 0 2370 993.08"><defs><style>.cls-1{fill:#f8c7b5;}.cls-2{fill:#fbe2ce;}.cls-3{fill:#6aaba8;}.cls-10,.cls-13,.cls-3,.cls-4{opacity:0.5;}.cls-5{fill:url(#linear-gradient);}.cls-6{fill:url(#linear-gradient-2);}.cls-7{fill:#8d9179;}.cls-8{fill:#686b58;}.cls-9{fill:#a3a889;}.cls-10{fill:url(#linear-gradient-3);}.cls-11{opacity:0.2;}.cls-12{fill:#c0e4f2;}.cls-13{fill:url(#linear-gradient-4);}</style><linearGradient id="linear-gradient" x1="439.47" y1="739.85" x2="2124.67" y2="739.85" gradientUnits="userSpaceOnUse"><stop offset="0" stop-color="#6346a7"/><stop offset="1" stop-color="#25336d"/></linearGradient><linearGradient id="linear-gradient-2" x1="1" y1="742.26" x2="2370" y2="742.26" xlink:href="#linear-gradient"/><linearGradient id="linear-gradient-3" x1="0" y1="491.71" x2="882" y2="491.71" xlink:href="#linear-gradient"/><linearGradient id="linear-gradient-4" x1="4564.21" y1="363.05" x2="5446.21" y2="363.05" gradientTransform="matrix(-1.02, 0, 0, 1, 7047.69, 0)" xlink:href="#linear-gradient"/></defs><g id="Layer_2" data-name="Layer 2"><g id="Layer_1-2" data-name="Layer 1"><path class="cls-1" d="M460.1,665.58c62.52,27.81,166,26.6,236.52,27.15,112.56.87,212.43-31.94,320.42-50.38,97-16.57,207.77-28.37,306.44-13.54,84.71,12.74,160.65,46.23,249,52.84,118.87,8.88,244.61-5.77,362.24-17.45,70.16-7,244.29-26.24,173.18,71.17-83.63,114.57-303.53,117.35-452,121.48-111.47,3.09-223.46-3.69-335.1-3-128.45.77-256,7.92-384.3.13-87.93-5.34-176-19.27-263.1-29.74-48.85-5.86-99.06-12-143.93-28.38C488,780.7,399.38,719.44,460.1,665.58Z"/><path class="cls-2" d="M2370,502.27c-103.15,12.39-211.47,47.23-282.22,74.27-112.59,43-199.13,132.82-313.85,166.29-99.16,28.94-210.22,49-312.71,32.87-55.77-8.8-100.88-26.52-151.7-48.15-58.2-24.77-117.7-15.64-179.73-6.28C914,753.85,658.54,759.75,464.92,646.38c-84.3-49.35-169.83-95-261.64-130.47A364.3,364.3,0,0,0,35.75,493.2c-7.38.71-20.26,3.81-34.75,7.43V993.08H2370Z"/><path class="cls-3" d="M600,551.14c-8.52-11.85-18.62-26.75-19.2-40.77-.24-5.93,8.14-11,13.77-5.87a65.26,65.26,0,0,1,11.57,14.84c.65-4,.82-8,1.15-12.15.41-5.2,2.59-14.25,10.3-13,10.31,1.73,11.41,14.51,10.91,21.36-.61,8.23-2.85,18-9.62,23.91,8,10.32,18.17,19.85,30.91,25.41,5.61,2.45,12.17,3.81,18.89,5l-.16-.27c-5.59-9-10.88-18.15-15.77-27.45-8.47-16.14-16.09-33.43-16-51.16,0-6.68,2-12.82,4.41-18.79-6.31-3.78-10.32-10.26-14.57-16.11-5.74-7.9-15.65-17.65-16.15-27.16-.21-4.14,4.25-7,8.67-5.07,9.86,4.23,16.12,15.89,22.15,23.63,2.23,2.87,4.67,5.76,6.75,8.75,2.12-5.55,3.63-11.23,3.39-17.33-.84-21.46-9.15-43.38-13-64.66-1.92-10.6,17.56-14.06,20.78-3.43,3.13,10.31,6.38,20.92,9.19,31.56l1.38-1.76c5.63-7.1,10.92-16.14,20-20.13,3.07-1.35,6.15.55,6,3.6-.47,9.13-7.56,17.16-12.54,24.68-3,4.49-6,8.76-10.7,11.18.69,3.47,1.33,6.93,1.84,10.38,1.21,8.29,1.35,16.89-.85,24.91-2.44,8.87-8.17,16.44-11.11,25.09-4.39,12.93-.72,26.65,4.83,39.49A109.1,109.1,0,0,1,675,508.29c1.89-2.52,5.77-2.79,8.87-2.51a5.56,5.56,0,0,1,3.4,1l1.11,1c2.19,2,4.27,5.15,3.27,8-3.28,9.36-7.18,17.77-15.08,23.24q5.25,9.81,11.15,19.34c.68,1.09,1.4,2.19,2.14,3.28.34-.53.66-1.07,1-1.6a278.36,278.36,0,0,0,14.7-29c2.79-6.42,5.36-12.74,8-19-6.58-4.33-9.55-12.87-12.43-19.83-4.42-10.71-11.33-26.14-7.87-37.26a6.08,6.08,0,0,1,10.49-1.67c7.13,9.23,8.6,22.1,13.47,32.39,1.27,2.68,3,5.46,4.65,8.3a143.78,143.78,0,0,1,11.95-19.66c4.62-6.3,9-12.65,13.06-19.11-8.1-5.77-11.93-16.77-15.34-25S722,407.46,728.41,400a4.19,4.19,0,0,1,3.85-1.08c10.07,2.35,16.51,16,20.94,23.53,1.92,3.28,4.32,6.79,6.48,10.41,2.23-4.37,4.35-8.8,6.35-13.34,4.22-9.64,8-19.43,11.62-29.29,3.46-9.51,5.33-19.6,13.53-26.71,1.12-1,3.64-.92,4.11.8,2.59,9.35-.41,17.52-3,26.45q-2,6.81-4.1,13.57c.63-.4,1.23-.81,1.79-1.22,8.57-6.27,15.44-14.1,24.07-20.24,4.67-3.33,11.27,2.5,8.86,6.92-5,9.22-14.25,16.82-22.7,23.57-5,4-11.68,10.47-19.05,11.84-7.07,19.47-15.66,38.53-27,56.22-5.75,8.95-12,17.54-16.27,27.2s-7.22,20-11.2,29.8q-5.14,12.7-11.55,24.9c10.14-2.49,20.91-4.2,28.74-9.82a32.13,32.13,0,0,0,6.08-5.85c-5.65-11.3-.52-27.86,2.26-38.4,3.63-13.74,9.08-31.38,22.83-39.39,1-.57,2.64,0,2.68,1.2.54,13.93-6.74,27.69-9.06,41.37a110,110,0,0,0-1.34,12.47,76.49,76.49,0,0,1,8.12-7.2,63.09,63.09,0,0,1,10.83-6.59,6.55,6.55,0,0,1,3.29-1.55c8.18-3.46,17-5.45,26.54-7,13.17-2.11,33.27-4,42.78,6.89,1.44,1.65,1,4.81-1.11,5.73-6.43,2.77-12.07,2.14-19.12,2.1a83.64,83.64,0,0,0-22.3,3.15c.31.14.62.29.94.42,8.69,3.48,17.82,5.62,26,10.09,2.68,1.46,2.44,4.48-.24,5.55-11.86,4.75-31.8,1.75-45.58-5.81-.41.27-.81.56-1.21.83A59.84,59.84,0,0,0,780,548c-8,11.62-14.66,22.73-28.83,29.17-12.14,5.52-29.54,5.6-39.85,13.62a.93.93,0,0,0-.15.13,174.77,174.77,0,0,0,22.33,3.61c6,.47,12,1.15,18,1.9a10.65,10.65,0,0,1,.07-1.78c.85-6.06,8.26-9.7,12.91-13.21,8.88-6.68,22.7-19.69,35.67-17.93a2.12,2.12,0,0,1,1.76,1.75c.45,8.88-9,15.8-15.25,21.61-4.46,4.17-9.19,8.83-14.27,12.89C791,604.7,807.66,616.3,827.2,619a78.47,78.47,0,0,0,28.41-1.48c-2.58-7,1-14.48,3.93-21.23,3.28-7.5,7.26-15.73,15.94-19,2.49-1,6.41,1.15,6.32,3.73-.26,7.23-4.77,12.88-7,19.65-1.16,3.47-1.44,7.36-2.15,11.06a94.39,94.39,0,0,0,14.22-8c1.94-1.33,30.08-26,31.92-14.38,1.15,7.26-8.82,13.4-13.92,17.81a111.37,111.37,0,0,1-22.78,15.62c-17.28,8.69-37.27,13-57.64,10.62-.77-.09-1.53-.22-2.29-.34.52,1.11,1,2.21,1.65,3.3,2.64,4.76,6.13,8.93,9.48,13.32,2.59,3.39,15.16,15.18,9.14,18.89-7.34,4.53-21.39-7.1-26.12-11.73-8.32-8.14-17-18.72-19.21-29.51a7.23,7.23,0,0,1-.14-1.59c-12.49-4.83-24.76-10.39-38.11-12.37-18.77-2.77-38.49,1.38-56.52-4.19-.24,1-.48,2-.74,2.9q-2.87,10.77-6.77,21.22a202.73,202.73,0,0,1-21.43,42,227.69,227.69,0,0,1-31.61,38c-10.14,9.74-25.4,26.31-40.69,29.07-9.55,1.73-21.25-6.54-15.64-15.61,4.91-8,13.89-12.3,21.35-18.27a215.37,215.37,0,0,0,18.79-17,192.7,192.7,0,0,0,50.33-87.9c.9-3.28,1.91-6.43,3.05-9.48a22.92,22.92,0,0,0-2.44-.75c-15.57-3.75-29.82-4.5-44-12.61-.57-.33-1.11-.68-1.68-1a46.71,46.71,0,0,1-13.95,4.75c-8.44,1.59-19.2,3.41-25.18-4.09a2.92,2.92,0,0,1-.34-3.29c4.71-6.35,12.45-6.13,20.38-7.22,1.4-.19,2.94-.47,4.54-.76A107.58,107.58,0,0,1,600,551.14Z"/><g class="cls-4"><path class="cls-5" d="M460.1,665.58c62.52,27.81,166,26.6,236.52,27.15,112.56.87,212.43-31.94,320.42-50.38,97-16.57,207.77-28.37,306.44-13.54,84.71,12.74,160.65,46.23,249,52.84,118.87,8.88,244.61-5.77,362.24-17.45,70.16-7,244.29-26.24,173.18,71.17-83.63,114.57-303.53,117.35-452,121.48-111.47,3.09-223.46-3.69-335.1-3-128.45.77-256,7.92-384.3.13-87.93-5.34-176-19.27-263.1-29.74-48.85-5.86-99.06-12-143.93-28.38C488,780.7,399.38,719.44,460.1,665.58Z"/><path class="cls-6" d="M2370,502.27c-103.15,12.39-211.47,47.23-282.22,74.27-112.59,43-199.13,132.82-313.85,166.29-99.16,28.94-210.22,49-312.71,32.87-55.77-8.8-100.88-26.52-151.7-48.15-58.2-24.77-117.7-15.64-179.73-6.28C914,753.85,658.54,759.75,464.92,646.38c-84.3-49.35-169.83-95-261.64-130.47A364.3,364.3,0,0,0,35.75,493.2c-7.38.71-20.26,3.81-34.75,7.43V993.08H2370Z"/></g><path class="cls-7" d="M670.86,630.6c-30.45-2.25-57.87,6.38-83.55-14.47-22.74-18.46-32.53-49.07-51.41-70.88-41.49-47.93-108.37-48-167-58.49-79.57-14.18-90-96.37-107.33-165.7-18.35-73.52-65.3-144.18-135.3-180.45C90.3,122,45.56,127.2,9.17,142.08A64.28,64.28,0,0,0,0,147V821.07q3.81.82,7.64,1.62c174.06,35.88,354,29.34,529.8,29.23,53.38,0,103.82,6.76,156.88-.52a648.62,648.62,0,0,0,132.39-33.18C842,812.64,880.64,802.6,882,784.89c.88-11.57-30.2-41.86-37.77-50.08C793.51,679.72,748.81,636.35,670.86,630.6Z"/><path class="cls-8" d="M430.29,821.61c-69.9-30.5-116.83-71.75-198.35-71.67C173,750,116.88,751.56,69.35,710.2,38.29,683.17,15.56,643.72,0,602.64V821.07q3.81.82,7.64,1.62c174.06,35.88,354,29.34,529.8,29.23,53.38,0,103.82,6.76,156.88-.52a648.62,648.62,0,0,0,132.39-33.18C842,812.64,880.64,802.6,882,784.89c.29-3.76-2.82-9.51-7.39-15.84-84.25,34.76-173.87,46.12-269.3,59C548.15,835.81,483.9,845,430.29,821.61Z"/><path class="cls-8" d="M0,336.78c6.24-21.7,12.93-43.07,19.17-63.92C32.23,229.25,46.24,185.55,72.38,148c3.55-5.09,9.84-11.65,16.52-18.45-26.87-3.1-55.2,2.51-79.73,12.54A64.28,64.28,0,0,0,0,147Z"/><path class="cls-9" d="M742.39,676.15c17.17,2.1,33.78,4.68,49.6,6.66-33.48-28.64-70.21-48.45-121.13-52.21-30.45-2.25-57.87,6.38-83.55-14.47-22.74-18.46-32.53-49.07-51.41-70.88-41.49-47.93-108.37-48-167-58.49-79.57-14.18-90-96.37-107.33-165.7-15.29-61.25-50.45-120.5-102.23-159.55,30.57,31.22,41.6,72.39,37,118-3.51,34.42-19.72,67.76-10.44,102.67,11.5,43.26,52.33,28.68,73.15,60.62,9.32,14.29,8,37.76,13.23,53.85,7.84,24.21,21.27,42,37,61.42,42.52,52.35,79.27,41.57,140.27,38.3,38.23-2,66.33,5.2,92.85,33.12,28.51,30,53.13,83.73,104.07,78.89C684.28,704.8,698.76,670.81,742.39,676.15Z"/><path class="cls-9" d="M260.88,543.38a6.74,6.74,0,0,0,1.25-4,17.6,17.6,0,0,0-.19-4.9,8.67,8.67,0,0,0-1.11-3.62c-.35-.61-.84-1.18-1.24-1.75l-2.5-3.5a34.7,34.7,0,0,0-3.49-4.57l-1.5-1.48c-.25-.24-.49-.51-.75-.74a11.9,11.9,0,0,0-3.64-2.07l1.75.74c-.45-.25-.9-.52-1.36-.75a6.41,6.41,0,0,0-3.31-.9q.77.3.09.06c-2.9-1-5.59,1.32-6.09,4-.1.24-.24.47-.32.72a6.43,6.43,0,0,0,0,3.48c0,.2.05.39.08.58a8,8,0,0,0,.14,1v0a30.8,30.8,0,0,0,2,5,23.71,23.71,0,0,0,2.11,3.48c1.95,3,4,7.18,7.36,8.78a3.69,3.69,0,0,0,.4.29,9.09,9.09,0,0,0,1.64.64,10.67,10.67,0,0,0,2.6.89,6.26,6.26,0,0,0,3.55.23A2.79,2.79,0,0,0,260.88,543.38Z"/><path class="cls-9" d="M322,719.12a9.6,9.6,0,0,0,1.9-8.89,14.47,14.47,0,0,0-2.13-4.4,27,27,0,0,0-6.95-6.81,23.36,23.36,0,0,0-14.37-4,9.32,9.32,0,0,0-4.81,1.54,5.51,5.51,0,0,0-2.17,1.56,7.42,7.42,0,0,0-1.86,3.88,6.26,6.26,0,0,0,.8,4.3,9.62,9.62,0,0,0,2.14,2.25,9.88,9.88,0,0,0,3.77,2.28l.07,0a21.51,21.51,0,0,1,2.95,1.7c.87.61,1.76,1.18,2.64,1.76,1.06.93,2,1.92,3,2.93.59.6,1.09,1.28,1.72,1.85a10.26,10.26,0,0,0,6.87,2.89l.08,0h0c1.12,1.32,3.4,1.71,4.33-.12.14-.28.25-.56.37-.84a5.45,5.45,0,0,0,1-1.1A5.37,5.37,0,0,0,322,719.12Z"/><path class="cls-9" d="M483.86,676.59a4.76,4.76,0,0,0-4-1.7,8.34,8.34,0,0,0-3.63-.77,2.3,2.3,0,0,0-1.45-.38,10,10,0,0,0-1.86-.43c-.36,0-.71-.06-1.06-.09a10,10,0,0,0-1.36-.35l-2.72-.33,2.95.4c-3.24-.46-6.49-.66-9.73-1.07l2.95.4c-1.48-.21-3-.38-4.45-.56-.68-.15-1.35-.33-2-.49a12.81,12.81,0,0,0-3.61-.36,9.82,9.82,0,0,0-2.11,0c-1.06-.14-1.17-.15-.25,0l.22,0h0l-1.36-.19a6,6,0,0,0-5.22,2.47,7.4,7.4,0,0,0-.73,6.63,7.69,7.69,0,0,0,1.06,3.89c.09.15.2.29.3.43a10.51,10.51,0,0,0,2.41,3.47,39.78,39.78,0,0,0,3.64,2.86l-.31-.23a22,22,0,0,0,5.36,3,21,21,0,0,0,3.86,1.19,23.5,23.5,0,0,0,9,.11,16.05,16.05,0,0,0,1.83-.38,11.5,11.5,0,0,0,3.2-1.45,12,12,0,0,0,4.7-3.33,5.33,5.33,0,0,0,.62-.54,9.35,9.35,0,0,0,.79-1.11c0,.06.06,0,.34-.18A8.07,8.07,0,0,0,484,682.2C484.88,680.41,485.19,678.26,483.86,676.59Z"/><path class="cls-9" d="M629.12,745.2a19.28,19.28,0,0,0-2.12-3.36,7.9,7.9,0,0,0-.56-1.22c-.12-.2-.29-.4-.44-.6a13.43,13.43,0,0,0-1.82-2.87,11.5,11.5,0,0,0-2.55-2.14,19.16,19.16,0,0,0-8.78-4.12,43.93,43.93,0,0,0-5.5-.67c-.65-.05-1.3-.08-2-.1a10,10,0,0,0-3.66.61l.32-.13c-.66.18-1.32.37-2,.58a7.75,7.75,0,0,0-5.5,6.38c-.38,2.83.93,6.3,3.67,7.64.59.29,1.18.6,1.77.92a1.84,1.84,0,0,0-.22-.17,10.53,10.53,0,0,0,3,1.42c.56.17,1.12.31,1.68.49,1.12.34,2.2.79,3.31,1.17s2.25.65,3.37,1a13.41,13.41,0,0,0,3.87.73,15.88,15.88,0,0,0,3.07.43,9.29,9.29,0,0,0,2.24-.26l.29,0,.49-.07a22.43,22.43,0,0,0,3,.51c-1.24-.15.14,0,.31.07.4.07.79.17,1.19.26a8.34,8.34,0,0,0,2.94.36,2.12,2.12,0,0,0,2.07-2.08C630.75,748.22,629.87,746.78,629.12,745.2Z"/><path class="cls-9" d="M749.42,772A3.21,3.21,0,0,0,747,770.8c.89.12.11,0,0,0-.34-.07-.67-.13-1-.18h-.24c-.1-.06-.17-.14-.26-.19a6.26,6.26,0,0,0-1.92-.66,8,8,0,0,0-1-.42,11,11,0,0,0-6-1.79c-.62,0-1.25-.09-1.87-.17l2.44.33c-1.44-.22-2.88-.37-4.31-.54-.43-.08-.87-.15-1.3-.24a9.87,9.87,0,0,0-5.86.22,5.89,5.89,0,0,0-1,.11,6.29,6.29,0,0,0-4,8.45,8.13,8.13,0,0,0,2.51,5.09,19.13,19.13,0,0,0,2.73,2,26.15,26.15,0,0,0,4.6,2.18,18.1,18.1,0,0,0,5,.78c.52,0,1,0,1.56,0a9.94,9.94,0,0,0,4.76-1.24,8.43,8.43,0,0,0,1.51-1.19,10.73,10.73,0,0,0,2.72-2.21,7.15,7.15,0,0,0,1.73-1.86,8.79,8.79,0,0,0,.7-1.55,6.34,6.34,0,0,0,.65-.89,12,12,0,0,0,.86-2.13A2.94,2.94,0,0,0,749.42,772Z"/><path class="cls-7" d="M424.57,535.33a8.7,8.7,0,0,0-.36-3.17,10.66,10.66,0,0,0-1.31-2.87c-.8-1.1-1.62-2.17-2.49-3.21a17.78,17.78,0,0,0-4-3.65,19.36,19.36,0,0,0-2.57-1.4c-1-.45-2-.85-3-1.27a11.9,11.9,0,0,0-3.21-.51c-.47-.06-.95-.11-1.42-.14a9.55,9.55,0,0,0-7.07,3.07,6.93,6.93,0,0,0-2.44,7.3,10.11,10.11,0,0,0,2.77,5.9c.25.25.5.51.73.78a11.76,11.76,0,0,0,1.1,1l-.5-.39c1.22,1,2.26,2.07,3.43,3.08a21.93,21.93,0,0,1,1.63,1.57c.25.28.49.57.74.86a6.34,6.34,0,0,0,2.2,1.72l2.5,1.06h0a4.8,4.8,0,0,0,2.23.57,5,5,0,0,0,2.59,0,6.73,6.73,0,0,0,3.64-1.16,22.82,22.82,0,0,0,2-1.53,10.13,10.13,0,0,0,2.51-4.3c.12-.87.24-1.73.35-2.6C424.62,535.82,424.59,535.57,424.57,535.33Z"/><path class="cls-7" d="M498.34,567.86l.15.12.06,0Z"/><path class="cls-7" d="M500.18,569.16c-.18-.08-.37-.13-.55-.22a14.36,14.36,0,0,0-1.14-1,6.2,6.2,0,0,0-.69-.44,10.73,10.73,0,0,0-4.14-2.15,20.32,20.32,0,0,1-2-.68,23.43,23.43,0,0,0-2.29-.87c-.44-.14-.86-.31-1.29-.46-.25-.13-.52-.24-.77-.38a9.59,9.59,0,0,0-2.28-1.06c-2.06-1.64-5.08-2.28-7.42-.77a7.51,7.51,0,0,0-2.28,2.28,6.34,6.34,0,0,0-.65,4.9c.33.81.68,1.61,1.05,2.39l.06.39a7.35,7.35,0,0,0,1.92,3.3l.48.6a16.35,16.35,0,0,0,1.22,1.28,19.39,19.39,0,0,0,4.21,3.1,18.09,18.09,0,0,0,7.06,1.71,9.69,9.69,0,0,0,7.36-2.24,5.68,5.68,0,0,0,1.33-1,8,8,0,0,0,1.5-2.2,7.77,7.77,0,0,0,.77-1.13C502.52,572.78,502.17,570.14,500.18,569.16Z"/><path class="cls-7" d="M498.55,568l1.05.81C499.17,568.48,498.85,568.24,498.55,568Z"/><path class="cls-7" d="M658.05,661.38a4.3,4.3,0,0,0-.51-1.43,10.18,10.18,0,0,0-4.58-5.49c-.4-.24-.8-.46-1.22-.67a12.77,12.77,0,0,0-5.28-1.34,16,16,0,0,0-2.59.11c-1.07.13-2.16.23-3.22.45a6.61,6.61,0,0,0-3.14,1.74c-.19.1-.38.18-.56.28a6.95,6.95,0,0,0,1.53,12.6,8.07,8.07,0,0,0,2.62,1.13c.53.12,1.06.26,1.58.42s1,.39,1.55.58a9.76,9.76,0,0,0,2.45.48,12.35,12.35,0,0,0,2.61.33,11,11,0,0,0,3.39-.59,3.37,3.37,0,0,0,.55-.12,7.29,7.29,0,0,0,4.13-3.17l.69-1.64A6.93,6.93,0,0,0,658.05,661.38Z"/><path class="cls-10" d="M670.86,630.6c-30.45-2.25-57.87,6.38-83.55-14.47-22.74-18.46-32.53-49.07-51.41-70.88-41.49-47.93-108.37-48-167-58.49-79.57-14.18-90-96.37-107.33-165.7-18.35-73.52-65.3-144.18-135.3-180.45C90.3,122,45.56,127.2,9.17,142.08A64.28,64.28,0,0,0,0,147V821.07q3.81.82,7.64,1.62c174.06,35.88,354,29.34,529.8,29.23,53.38,0,103.82,6.76,156.88-.52a648.62,648.62,0,0,0,132.39-33.18C842,812.64,880.64,802.6,882,784.89c.88-11.57-30.2-41.86-37.77-50.08C793.51,679.72,748.81,636.35,670.86,630.6Z"/><g class="cls-11"><path class="cls-12" d="M422.18,208.32a28.75,28.75,0,0,0-9.34-5.48,13.07,13.07,0,0,0-2.31-.6,23,23,0,0,0-5.76-.51,25.93,25.93,0,0,0-10.42,2.94,22.42,22.42,0,0,0-6.08,4.74,30.1,30.1,0,0,0-5.76,9.5,15.72,15.72,0,0,0-.85,2.62,25.71,25.71,0,0,0-.74,5.73,28.51,28.51,0,0,0,.74,5.68,13.59,13.59,0,0,0,4,7.27,19.64,19.64,0,0,0,1.7,1.22,21.19,21.19,0,0,0,6.13,5.36A23.82,23.82,0,0,0,411.59,249a26.74,26.74,0,0,0,12.18-7.43A23.34,23.34,0,0,0,429.1,233a10.08,10.08,0,0,0,.62-2.16,24,24,0,0,0,.52-5.61C429.8,218.91,427.12,212.51,422.18,208.32Z"/><path class="cls-12" d="M446.71,152.51a8.94,8.94,0,0,0,.27-.88,1,1,0,0,0-1.48-1.13l-.38.19a.15.15,0,0,0-.07,0,6.82,6.82,0,0,0-.49-.58c.24-1.3.49-2.59.65-3.93.47-4,.9-8.42-1.23-12a9.41,9.41,0,0,0-7-4.61c-2.78-.37-6.22.34-8.1,2.65a12.36,12.36,0,0,0-2.94,5.39c-.13.66-.18,1.35-.27,2-.28,2.06-.55,4.09-.63,6.17a76.4,76.4,0,0,0,.41,8,9.61,9.61,0,0,0,1.95,5.51,9.86,9.86,0,0,0,4.73,3.26,7.7,7.7,0,0,0,4.39.18,16.17,16.17,0,0,0,6.78-2.09,6.72,6.72,0,0,0,3.31-5.68A4,4,0,0,0,446.71,152.51Z"/><path class="cls-12" d="M383.92,124.63a12,12,0,0,0-1.75-6.12,11.37,11.37,0,0,0-.5-2,7.85,7.85,0,0,0-1.37-3.5A3.89,3.89,0,0,0,377,110.4a7.94,7.94,0,0,0-3.35-.56,7.6,7.6,0,0,0-1.84-.17,14.3,14.3,0,0,0-1.59.17,13.8,13.8,0,0,0-2.61.4,13.55,13.55,0,0,0-5.78,3.62c-.26.25-.47.55-.71.82-.07.07-.15.12-.22.18l-.26.27a21.93,21.93,0,0,0-1.95,2.54,12.82,12.82,0,0,0-1.42,3.39l-.42,3.12a8.91,8.91,0,0,0,1,4.52,6,6,0,0,0,1.51,2.59,8.8,8.8,0,0,0,3.3,3,13.93,13.93,0,0,0,5.92,1.61,10,10,0,0,0,3.21-.5,7,7,0,0,0,.89.38c2.32.63,5.46.07,7.08-1.87l.31-.42C382.77,131.6,384,127.84,383.92,124.63Z"/><path class="cls-12" d="M425.17,370.35l-1-2.48-1.63-2.11a7.8,7.8,0,0,0-3.34-2.15,7.9,7.9,0,0,0-4-.89l-.26,0c-1,.1-2,.22-2.93.4a3.62,3.62,0,0,0-.47.13,27.6,27.6,0,0,0-2.63,1.11l-.2.11-.17.1c-.37.25-1,.79-1.12.87s-.79.58-1.14.88c-.13.11-.23.26-.35.38a10,10,0,0,0-1.19,1.06,28.85,28.85,0,0,0-2.3,2.89,6,6,0,0,0-.63,1A17.72,17.72,0,0,0,400.4,375a16,16,0,0,0-.49,3.58c0,.19,0,.37,0,.56a24.82,24.82,0,0,0,.36,2.59,2,2,0,0,0,.05.24,10.46,10.46,0,0,0,4.27,5.55l2.22.94a10,10,0,0,0,1.62.22,6.22,6.22,0,0,0,2.72,1.22c.27.06,2.52.36,2.79.37h.29a7.59,7.59,0,0,0,3.87-.87,7.43,7.43,0,0,0,3.23-2.07l1.57-2a9.88,9.88,0,0,0,1.37-5.06,1.93,1.93,0,0,1,0-.24c0-.62-.09-1.19-.17-1.74a7.64,7.64,0,0,0,.53-1.12,5.16,5.16,0,0,0,.71-2.63A7.78,7.78,0,0,0,425.17,370.35Z"/><path class="cls-12" d="M377.31,298.67a8.05,8.05,0,0,0-5.83-7.66,8.83,8.83,0,0,0-2.41-.18,5.86,5.86,0,0,0-1.36-1.67s0,0-.06,0c-.17-.23-.34-.48-.52-.69l-.1-.08a8.8,8.8,0,0,0-7.11-4.06A12.29,12.29,0,0,0,348.36,288a19.64,19.64,0,0,0-4.16,7.13c-1.66,5.17.71,11.74,4.63,15.34a11.56,11.56,0,0,0,5.51,2.88l0,.15a5.6,5.6,0,0,0,2.56,6.29,5.68,5.68,0,0,0,6.75-.87,93.71,93.71,0,0,0,6.7-7.8,19.63,19.63,0,0,0,4.22-4.31l-1.27,1.65A14.33,14.33,0,0,0,377.31,298.67Z"/><path class="cls-12" d="M346.77,220.83a8.39,8.39,0,0,0-2-3.84,5.64,5.64,0,0,0-2-2,8.48,8.48,0,0,0-3.84-2l-.47-.2.15.08a4.81,4.81,0,0,0-1.85-.28h-.83l-3,.41a8.48,8.48,0,0,0-3.84,2,11.15,11.15,0,0,0-4,5.87,31.74,31.74,0,0,0-.92,4.33,22.24,22.24,0,0,0-.13,4.39c0,.95.09,1.9.14,2.86l0,.71q.07.84.21,1.68a5.06,5.06,0,0,0,.68,2.52,14.09,14.09,0,0,0,1.09,2.12,9.27,9.27,0,0,0,5.37,4.12c2.19.5,5,.52,6.91-.9.6-.45,1.19-.9,1.77-1.36a9.32,9.32,0,0,0,2.93-3.57c.41-.95.83-1.89,1.24-2.84a53.55,53.55,0,0,0,2.14-5.14,21.06,21.06,0,0,0,.56-4.13l.18-1.79C347,222.83,346.91,221.83,346.77,220.83Z"/></g><path class="cls-7" d="M1682.46,501.94c31.21-2.24,59.31,6.39,85.63-14.46,23.3-18.47,33.33-49.07,52.68-70.88,42.53-47.93,111.07-48.05,171.18-58.5,81.55-14.17,92.26-96.36,110-165.69,18.81-73.52,66.92-144.19,138.66-180.46,36.85-18.63,82.7-13.4,120,1.48a65.23,65.23,0,0,1,9.4,4.88V692.42c-2.6.55-5.22,1.09-7.83,1.61-178.39,35.89-362.75,29.35-543,29.23-54.71,0-106.4,6.76-160.78-.52a679.13,679.13,0,0,1-135.69-33.17c-15.65-5.58-55.27-15.62-56.64-33.33-.9-11.57,31-41.86,38.71-50.09C1556.76,551.07,1602.57,507.7,1682.46,501.94Z"/><path class="cls-8" d="M1929,693c71.64-30.49,119.73-71.75,203.28-71.66,60.42.06,117.92,1.61,166.64-39.75,31.83-27,55.12-66.47,71.07-107.56V692.42c-2.6.55-5.22,1.09-7.83,1.61-178.39,35.89-362.75,29.35-543,29.23-54.71,0-106.4,6.76-160.78-.52a679.13,679.13,0,0,1-135.69-33.17c-15.65-5.58-55.27-15.62-56.64-33.33-.29-3.77,2.89-9.52,7.58-15.84,86.34,34.76,178.19,46.12,276,59C1808.22,707.15,1874.07,716.34,1929,693Z"/><path class="cls-8" d="M2370,208.13c-6.39-21.7-13.25-43.07-19.65-63.92-13.38-43.62-27.74-87.31-54.53-124.87-3.64-5.09-10.09-11.65-16.93-18.45,27.54-3.1,56.57,2.5,81.71,12.54a65.23,65.23,0,0,1,9.4,4.88Z"/><path class="cls-9" d="M1609.15,547.5c-17.6,2.1-34.62,4.68-50.83,6.66,34.31-28.64,72-48.46,124.14-52.22,31.21-2.24,59.31,6.39,85.63-14.46,23.3-18.47,33.33-49.07,52.68-70.88,42.53-47.93,111.07-48.05,171.18-58.5,81.55-14.17,92.26-96.36,110-165.69,15.67-61.25,51.7-120.51,104.77-159.56-31.33,31.22-42.64,72.39-37.88,118,3.59,34.42,20.21,67.77,10.7,102.67-11.79,43.26-53.63,28.68-75,60.63-9.55,14.29-8.21,37.76-13.56,53.85-8,24.21-21.8,42-38,61.42-43.58,52.34-81.24,41.57-143.75,38.3-39.19-2.05-68,5.19-95.17,33.11-29.21,30-54.44,83.74-106.66,78.9C1668.71,576.15,1653.86,542.16,1609.15,547.5Z"/><path class="cls-9" d="M2102.63,414.72a6.58,6.58,0,0,1-1.28-4,8.43,8.43,0,0,1-.08-2.36,8,8,0,0,1,.28-2.53,8.74,8.74,0,0,1,1.13-3.63c.36-.61.86-1.17,1.28-1.74q1.27-1.75,2.56-3.5a35.17,35.17,0,0,1,3.57-4.58l1.54-1.47c.26-.25.5-.51.77-.74a12.15,12.15,0,0,1,3.73-2.07l-1.79.74c.46-.26.92-.52,1.39-.76a6.93,6.93,0,0,1,3.39-.9c-.52.21-.55.23-.09.07,3-1,5.73,1.32,6.25,4,.1.24.24.46.33.71a6.46,6.46,0,0,1,0,3.49l-.09.58a8.62,8.62,0,0,1-.15,1v0a30.2,30.2,0,0,1-2,5,24.48,24.48,0,0,1-2.16,3.47c-2,3-4.1,7.19-7.54,8.79-.14.09-.28.21-.42.28a7.91,7.91,0,0,1-1.68.64,11.06,11.06,0,0,1-2.67.9,6.62,6.62,0,0,1-3.63.23A2.87,2.87,0,0,1,2102.63,414.72Z"/><path class="cls-9" d="M2040,590.47a9.47,9.47,0,0,1-2-8.9,14.86,14.86,0,0,1,2.19-4.4,27.43,27.43,0,0,1,7.12-6.8,24.23,24.23,0,0,1,14.72-4,9.69,9.69,0,0,1,4.94,1.53,5.74,5.74,0,0,1,2.22,1.57,7.35,7.35,0,0,1,1.91,3.87,6.15,6.15,0,0,1-.82,4.31,10.21,10.21,0,0,1-2.19,2.25,10.39,10.39,0,0,1-3.86,2.27l-.08,0a21,21,0,0,0-3,1.7c-.88.61-1.8,1.17-2.7,1.76-1.08.92-2.09,1.92-3.1,2.93-.6.6-1.11,1.28-1.75,1.84a10.67,10.67,0,0,1-7.05,2.89l-.08,0h0c-1.14,1.32-3.48,1.7-4.44-.13-.14-.27-.25-.56-.38-.83a5.53,5.53,0,0,1-1-1.1A8,8,0,0,1,2040,590.47Z"/><path class="cls-9" d="M1874.11,547.94a4.87,4.87,0,0,1,4.12-1.7,8.59,8.59,0,0,1,3.72-.77,2.39,2.39,0,0,1,1.48-.39,10.51,10.51,0,0,1,1.91-.43c.37,0,.73-.06,1.09-.09a10.45,10.45,0,0,1,1.39-.34l2.79-.33-3,.39c3.32-.46,6.65-.65,10-1.06l-3,.4c1.52-.22,3-.39,4.57-.57.7-.14,1.38-.33,2.07-.49a13.1,13.1,0,0,1,3.71-.35,9.67,9.67,0,0,1,2.16,0c1.08-.15,1.19-.16.25,0l-.22,0h0l1.4-.18a6.25,6.25,0,0,1,5.34,2.46,7.25,7.25,0,0,1,.75,6.64,7.5,7.5,0,0,1-1.09,3.88c-.09.15-.2.29-.3.44a10.39,10.39,0,0,1-2.47,3.46,41.08,41.08,0,0,1-3.73,2.87l.31-.24a23.09,23.09,0,0,1-5.49,3,23.64,23.64,0,0,1-4,1.19,24.7,24.7,0,0,1-9.23.11c-.63-.11-1.26-.22-1.88-.38a12.26,12.26,0,0,1-3.27-1.46,12.13,12.13,0,0,1-4.82-3.32,6.62,6.62,0,0,1-.63-.54,8.41,8.41,0,0,1-.82-1.11c0,.06-.06,0-.35-.18a8,8,0,0,1-2.9-5.35C1873.06,551.75,1872.75,549.6,1874.11,547.94Z"/><path class="cls-9" d="M1725.24,616.55a19.51,19.51,0,0,1,2.17-3.36A6.82,6.82,0,0,1,1728,612c.12-.2.3-.4.45-.6a13.64,13.64,0,0,1,1.86-2.87,11.2,11.2,0,0,1,2.62-2.14,19.86,19.86,0,0,1,9-4.12,42.21,42.21,0,0,1,5.63-.67c.66-.05,1.33-.09,2-.11a10.7,10.7,0,0,1,3.75.62l-.32-.14c.67.18,1.34.38,2,.59a7.76,7.76,0,0,1,5.63,6.37c.39,2.84-.95,6.3-3.75,7.64-.61.3-1.22.6-1.82.92l.22-.16a10.86,10.86,0,0,1-3.11,1.42c-.57.16-1.15.31-1.72.48-1.15.35-2.26.8-3.4,1.18s-2.3.65-3.44,1a14.47,14.47,0,0,1-4,.72,17.57,17.57,0,0,1-3.15.44,10.43,10.43,0,0,1-2.3-.27,2.85,2.85,0,0,1-.29,0l-.51-.07a24.89,24.89,0,0,1-3.11.51c1.27-.15-.15,0-.32.06-.41.08-.81.17-1.21.27a8.57,8.57,0,0,1-3,.35,2.14,2.14,0,0,1-2.12-2.07C1723.57,619.57,1724.47,618.12,1725.24,616.55Z"/><path class="cls-9" d="M1602,643.36a3.34,3.34,0,0,1,2.48-1.21c-.91.11-.11,0,0,0,.35-.07.68-.13,1-.18h.25c.1-.06.17-.14.27-.2a7.08,7.08,0,0,1,2-.66c.33-.16.66-.29,1-.42a11.47,11.47,0,0,1,6.12-1.78c.65,0,1.28-.09,1.92-.18l-2.49.33c1.47-.21,2.94-.37,4.41-.53l1.33-.25a10.41,10.41,0,0,1,6,.23,4.68,4.68,0,0,1,1,.11,6.38,6.38,0,0,1,3.35,2.25,6.15,6.15,0,0,1,.81,6.2,8.09,8.09,0,0,1-2.58,5.09,19.62,19.62,0,0,1-2.79,2,26.55,26.55,0,0,1-4.72,2.18,18.59,18.59,0,0,1-5.17.78c-.53,0-1.06.06-1.6,0a10.34,10.34,0,0,1-4.87-1.25,8,8,0,0,1-1.55-1.19,11,11,0,0,1-2.79-2.2,7.29,7.29,0,0,1-1.77-1.86,8,8,0,0,1-.72-1.56,6.31,6.31,0,0,1-.66-.88,11.4,11.4,0,0,1-.89-2.13A2.89,2.89,0,0,1,1602,643.36Z"/><path class="cls-7" d="M1934.87,406.67a8.45,8.45,0,0,1,.37-3.16,10.67,10.67,0,0,1,1.35-2.88c.81-1.09,1.66-2.17,2.54-3.21a18.7,18.7,0,0,1,4.14-3.64,20.25,20.25,0,0,1,2.64-1.41c1-.44,2-.85,3-1.26a13,13,0,0,1,3.3-.52c.48-.06,1-.1,1.45-.13a9.87,9.87,0,0,1,7.24,3.06,7.52,7.52,0,0,1,2.49,3.62,7.1,7.1,0,0,1,0,3.69,9.92,9.92,0,0,1-2.83,5.89q-.39.39-.75.78a9.13,9.13,0,0,1-1.13,1l.51-.38c-1.25.94-2.32,2.07-3.51,3.07a22.62,22.62,0,0,0-1.67,1.58c-.26.28-.5.57-.76.85a6.46,6.46,0,0,1-2.25,1.73l-2.57,1.06h0a10.42,10.42,0,0,1-4.94.56,7.12,7.12,0,0,1-3.73-1.15c-.31-.2-1.76-1.28-2-1.53a10.29,10.29,0,0,1-2.57-4.31l-.36-2.59C1934.82,407.17,1934.85,406.92,1934.87,406.67Z"/><path class="cls-7" d="M1859.27,439.2l-.16.12-.06,0Z"/><path class="cls-7" d="M1857.38,440.51c.19-.09.39-.14.57-.22a14.85,14.85,0,0,1,1.16-1,7.45,7.45,0,0,1,.71-.43,11.07,11.07,0,0,1,4.24-2.15,21.43,21.43,0,0,0,2.1-.68,21.37,21.37,0,0,1,2.35-.88c.44-.13.88-.3,1.31-.46.27-.12.54-.23.79-.37a9.21,9.21,0,0,1,2.35-1.06,6.7,6.7,0,0,1,7.6-.77,7.71,7.71,0,0,1,2.34,2.28,6.2,6.2,0,0,1,.65,4.9c-.33.81-.69,1.6-1.07,2.39,0,.13,0,.26,0,.39a7.58,7.58,0,0,1-2,3.3c-.16.2-.32.4-.49.59a16.68,16.68,0,0,1-1.24,1.28,20.71,20.71,0,0,1-4.32,3.11,19.35,19.35,0,0,1-7.24,1.71,10.05,10.05,0,0,1-7.54-2.25,5.93,5.93,0,0,1-1.37-1,8.26,8.26,0,0,1-1.53-2.21,6.36,6.36,0,0,1-.79-1.13C1855,444.12,1855.35,441.48,1857.38,440.51Z"/><path class="cls-7" d="M1859.05,439.36l-1.07.81Z"/><path class="cls-7" d="M1695.59,532.73a4.1,4.1,0,0,1,.52-1.43,10.28,10.28,0,0,1,4.69-5.5q.62-.36,1.26-.66a13,13,0,0,1,5.41-1.34,15.67,15.67,0,0,1,2.65.11c1.1.13,2.22.23,3.3.45a6.87,6.87,0,0,1,3.22,1.74l.58.28a6.89,6.89,0,0,1-1.57,12.59,8.56,8.56,0,0,1-2.69,1.14,15.24,15.24,0,0,0-1.61.42c-.55.17-1.07.39-1.6.58a11.25,11.25,0,0,1-2.51.48,12.89,12.89,0,0,1-2.67.32,11.49,11.49,0,0,1-3.47-.59,5.4,5.4,0,0,1-.58-.11,7.45,7.45,0,0,1-4.22-3.17l-.71-1.65A6.69,6.69,0,0,1,1695.59,532.73Z"/><path class="cls-13" d="M1682.46,501.94c31.21-2.24,59.31,6.39,85.63-14.46,23.3-18.47,33.33-49.07,52.68-70.88,42.53-47.93,111.07-48.05,171.18-58.5,81.55-14.17,92.26-96.36,110-165.69,18.81-73.52,66.92-144.19,138.66-180.46,36.85-18.63,82.7-13.4,120,1.48a65.23,65.23,0,0,1,9.4,4.88V692.42c-2.6.55-5.22,1.09-7.83,1.61-178.39,35.89-362.75,29.35-543,29.23-54.71,0-106.4,6.76-160.78-.52a679.13,679.13,0,0,1-135.69-33.17c-15.65-5.58-55.27-15.62-56.64-33.33-.9-11.57,31-41.86,38.71-50.09C1556.76,551.07,1602.57,507.7,1682.46,501.94Z"/></g></g></svg>