<svg xmlns="http://www.w3.org/2000/svg" viewBox="0 0 70.94 70.95"><defs><style>.cls-1{fill:#fff;}</style></defs><g id="Layer_2" data-name="Layer 2"><g id="Layer_1-2" data-name="Layer 1"><path class="cls-1" d="M70.46,31.05a4,4,0,0,0-1.61-2.74c-.17-.11-.24-.4-.32-.62a5.4,5.4,0,0,1-.32-1.45l-2-5.38c-1.32-3.51-4.17-6.93-6.79-9.55A34.3,34.3,0,0,0,45.29,3,8.64,8.64,0,0,1,42,1.45,6.88,6.88,0,0,0,38.64.28a18.94,18.94,0,0,0-7.46.19,4.45,4.45,0,0,0-2.91,1.64c-.19.28-.76.31-1.16.46a3.7,3.7,0,0,1-1,.23L20.78,4.85a35,35,0,0,0-16,15.82A27,27,0,0,0,2.86,26a6.68,6.68,0,0,1-1.41,3A7.19,7.19,0,0,0,.27,32.33,19.45,19.45,0,0,0,.52,40a3.92,3.92,0,0,0,1.55,2.6,1.23,1.23,0,0,1,.34.6,70,70,0,0,0,2.66,7.52,34.16,34.16,0,0,0,11.53,13,20.1,20.1,0,0,0,4.12,2.43l6.07,2.12.06,0a5.33,5.33,0,0,1,1.67.77A9,9,0,0,0,31,70.44a18.53,18.53,0,0,0,2.71.51h3.59c.91-.16,1.82-.29,2.72-.5a4.13,4.13,0,0,0,2.68-1.57c.2-.28.76-.32,1.16-.47a3.58,3.58,0,0,1,1-.25s5.25-2,5.25-2c3.53-1.34,7-4.21,9.58-6.88a31.88,31.88,0,0,0,6.78-10c.37-.88.65-1.77,1-2.65A7.2,7.2,0,0,0,68.11,45a4.23,4.23,0,0,1,.38-1.43c.18-.39.49-.72.69-1.11A16.25,16.25,0,0,0,70.42,40a18.66,18.66,0,0,0,.52-2.7V33.68C70.78,32.8,70.65,31.93,70.46,31.05ZM65.52,28.1c-4,0-8,0-11.91,0a.84.84,0,0,1-.58-.42A19.19,19.19,0,0,0,43.3,18a.83.83,0,0,1-.43-.58c0-4,0-7.95,0-11.93C53.05,7.58,63,16.6,65.52,28.1ZM31.07,4.91c0-1.26.15-1.46,1.36-1.67A18.42,18.42,0,0,1,39,3.3a1,1,0,0,1,.92,1.15c0,3,0,6,0,9v5.74a18,18,0,0,0-8.66,0,14.08,14.08,0,0,1-.18-1.65Q31.06,11.2,31.07,4.91Zm-3,.52c0,.27,0,.53,0,.79,0,3.57,0,7.14,0,10.7a1.07,1.07,0,0,1-.71,1.16,18.64,18.64,0,0,0-9.25,9.29,1.12,1.12,0,0,1-1.22.76c-3.54,0-7.09,0-10.62,0H5.44C6.18,19,18.76,6.41,28.07,5.43ZM4.31,39.93c-.59,0-.84-.2-.95-.74a17.94,17.94,0,0,1,0-7.37c.09-.43.23-.78.84-.77,4.84,0,9.68,0,14.54,0a2.27,2.27,0,0,1,.41.05,18.55,18.55,0,0,0,0,8.64c-1.34,0-2.64.13-4,.14C11.54,39.92,7.93,39.89,4.31,39.93ZM28.09,65.26a.85.85,0,0,1,0,.23C17.59,63.28,7.85,54,5.46,42.86h11.6a.93.93,0,0,1,1,.65,19.15,19.15,0,0,0,9.44,9.44,1.08,1.08,0,0,1,.56.71C28.11,57.53,28.1,61.39,28.09,65.26Zm10.53,2.46a19.32,19.32,0,0,1-6.57,0,1,1,0,0,1-1-1.14c0-4.39,0-8.76,0-13.14a9.24,9.24,0,0,1,.31-1.55,17.84,17.84,0,0,0,8.44,0c0,.54.08,1,.08,1.49q0,6.45,0,12.9C39.91,67.44,39.87,67.49,38.62,67.72Zm3.81-17.57a3.23,3.23,0,0,0-3.84-1.1,12,12,0,0,1-6.22,0,3.17,3.17,0,0,0-3.83,1.15,16.45,16.45,0,0,1-7.73-7.76c1.36-1,1.51-2.29,1.11-3.86a12.07,12.07,0,0,1,0-6.23,3.32,3.32,0,0,0-1.06-3.83,16.18,16.18,0,0,1,7.66-7.7A3.15,3.15,0,0,0,32.21,22a12.41,12.41,0,0,1,6.54,0,3.23,3.23,0,0,0,3.69-1.11,16.13,16.13,0,0,1,7.7,7.68,3.25,3.25,0,0,0-1.09,3.86,12.47,12.47,0,0,1,0,6.39,3.17,3.17,0,0,0,1.13,3.67A16.26,16.26,0,0,1,42.43,50.15ZM58,56.8a30.76,30.76,0,0,1-15.1,8.82,3.23,3.23,0,0,1-.08-.49c0-3.78,0-7.57,0-11.35a1,1,0,0,1,.5-.77A19.64,19.64,0,0,0,53,43.37a.91.91,0,0,1,.68-.48c3.87,0,7.73,0,11.59,0a2.82,2.82,0,0,1,.36.08A30.52,30.52,0,0,1,58,56.8Zm9.6-17.67c-.15.77-.75.77-1.31.77-2,0-4.08,0-6.13,0h-8.4a18.24,18.24,0,0,0,0-8.81c.27,0,.48,0,.7,0,4.7,0,9.41,0,14.12,0,.65,0,.88.23,1,.79A18.88,18.88,0,0,1,67.63,39.13Z"/><path class="cls-1" d="M65.52,28.1c-4,0-8,0-11.91,0a.84.84,0,0,1-.58-.42A19.19,19.19,0,0,0,43.3,18a.83.83,0,0,1-.43-.58c0-4,0-7.95,0-11.93C53.05,7.58,63,16.6,65.52,28.1Z"/><path class="cls-1" d="M28.12,16.92a1.07,1.07,0,0,1-.71,1.16,18.64,18.64,0,0,0-9.25,9.29,1.12,1.12,0,0,1-1.22.76c-3.54,0-7.09,0-10.62,0H5.44C6.18,19,18.76,6.41,28.07,5.43c0,.27,0,.53,0,.79C28.1,9.79,28.09,13.36,28.12,16.92Z"/><path class="cls-1" d="M28.09,53.65c0,3.88,0,7.74,0,11.61a.85.85,0,0,1,0,.23C17.59,63.28,7.85,54,5.46,42.86h11.6a.93.93,0,0,1,1,.65,19.15,19.15,0,0,0,9.44,9.44A1.08,1.08,0,0,1,28.09,53.65Z"/><path class="cls-1" d="M65.6,42.94A31.07,31.07,0,0,1,42.93,65.62a3.23,3.23,0,0,1-.08-.49c0-3.78,0-7.57,0-11.35a1,1,0,0,1,.5-.77A19.64,19.64,0,0,0,53,43.37a.91.91,0,0,1,.68-.48c3.87,0,7.73,0,11.59,0A2.82,2.82,0,0,1,65.6,42.94Z"/></g></g></svg>