<svg id="Layer_1" data-name="Layer 1" xmlns="http://www.w3.org/2000/svg" xmlns:xlink="http://www.w3.org/1999/xlink" viewBox="0 0 1125 1626"><defs><style>.cls-1{fill:none;}.cls-2{clip-path:url(#clip-path);}.cls-3{fill:url(#linear-gradient);}.cls-4,.cls-7{opacity:0.35;}.cls-4{fill:url(#linear-gradient-2);}.cls-5{clip-path:url(#clip-path-2);}.cls-6{fill:url(#linear-gradient-3);}.cls-7{fill:url(#linear-gradient-4);}.cls-12,.cls-8{fill:#f2f2f2;}.cls-18,.cls-8{opacity:0.15;}.cls-9{fill:url(#linear-gradient-5);}.cls-10{fill:url(#linear-gradient-8);}.cls-11{fill:#121e44;}.cls-13{fill:#fff;}.cls-14{fill:#b40f15;}.cls-15{fill:#02102b;}.cls-16{fill:#a50d14;}.cls-17{fill:url(#linear-gradient-9);}.cls-18{fill:#009245;}</style><clipPath id="clip-path"><rect class="cls-1" y="-1640" width="1125" height="1617"/></clipPath><linearGradient id="linear-gradient" x1="562.76" y1="98.59" x2="562.76" y2="-617.1" gradientUnits="userSpaceOnUse"><stop offset="0" stop-color="#4835a8"/><stop offset="1" stop-color="#6161aa"/></linearGradient><linearGradient id="linear-gradient-2" x1="562.76" y1="98.59" x2="562.76" y2="-617.1" gradientUnits="userSpaceOnUse"><stop offset="0" stop-color="#54c8f3"/><stop offset="1" stop-color="#37c2ec"/></linearGradient><clipPath id="clip-path-2"><rect class="cls-1" y="19" width="1125" height="1617"/></clipPath><linearGradient id="linear-gradient-3" x1="562.48" y1="1757.23" x2="562.48" y2="1041.55" xlink:href="#linear-gradient"/><linearGradient id="linear-gradient-4" x1="562.48" y1="1757.23" x2="562.48" y2="1041.55" gradientUnits="userSpaceOnUse"><stop offset="0" stop-color="#54c8f3"/><stop offset="1" stop-color="#acecec"/></linearGradient><linearGradient id="linear-gradient-5" x1="401.43" y1="973.77" x2="449.02" y2="895.59" gradientUnits="userSpaceOnUse"><stop offset="0" stop-color="#0b1628"/><stop offset="1" stop-color="#0f1d38"/></linearGradient><linearGradient id="linear-gradient-8" x1="396.11" y1="982.27" x2="392.26" y2="1038.77" gradientUnits="userSpaceOnUse"><stop offset="0" stop-color="#25336d"/><stop offset="1" stop-color="#0f1d38"/></linearGradient><linearGradient id="linear-gradient-9" x1="182.41" y1="844.85" x2="134.44" y2="1071.22" xlink:href="#linear-gradient-8"/></defs><g class="cls-2"><rect class="cls-3" x="0.26" y="-647.43" width="1125" height="786"/><rect class="cls-4" x="0.26" y="-647.43" width="1125" height="786"/></g><g class="cls-5"><rect class="cls-6" x="-0.02" y="1011.21" width="1125" height="786"/><rect class="cls-7" x="-0.02" y="1011.21" width="1125" height="786"/><path class="cls-8" d="M883.82,1087.81c11.21-5.57,38.68.5,81.4-1.25,8.82-.36,26-1.37,35.14-2.94v-5c-16.59-4.24-64.36-9.62-114.93-9.54-53.37.1-98.39,6.26-109.17-1.07-2.94-2-1.85-3.54-1.85-3.54,1.06-1.41,4.52-2.18,6.61-2.6,15.88-3.14,47.59-4.12,58.93-4.47,13.24-.41,14.58-.46,18.5-.52,16.52-.24,19.94.33,30.82,0,12.46-.37,29.5-1.75,29.52-3.25s-16.58-2.6-19.38-2.78c-18.28-1.24-24.16.23-42.28.2-23,0-22.74-2.45-55.23-3.22-13.14-.32-21.63-.12-22.06-1-.85-1.77,27.85-5.13,27.85-5.13l4.69-1.46H612.06l6.83,1.46s41.8,3.36,40.56,5.13c-.62.89-13,.69-32.12,1-47.31.77-46.86,3.18-80.42,3.22-26.37,0-34.95-1.44-61.56-.2-4.07.18-28.25,1.31-28.22,2.78s24.85,2.88,43,3.25c15.84.33,20.81-.24,44.87,0,5.71.06,7.66.11,26.93.52,16.52.35,62.69,1.33,85.81,4.47,3,.42,8.07,1.19,9.62,2.6,0,0,1.59,1.54-2.69,3.54-15.69,7.33-81.24,1.17-159,1.07-73.62-.08-143.17,5.3-167.34,9.54v5c13.38,1.57,38.34,2.58,51.18,2.94,62.19,1.75,102.2-4.32,118.51,1.25.89.3,7.24,2.47,5,4.58-5.27,5-52,3.46-115,10.71-16.37,1.89-24.24,2.85-24.43,4.12-.64,4.26,58.29,9.22,181.23,9,61.14-.09,110.37-.12,148.26-.11v0l27.78,0,40.4,0v0c22.39,0,49.14,0,80.47.11,84.44.18,124.91-4.78,124.47-9-.13-1.27-5.53-2.23-16.78-4.12-43.31-7.25-75.39-5.73-79-10.71C878.85,1090.28,883.21,1088.11,883.82,1087.81Z"/><path class="cls-9" d="M51,795.45s288.25-62.72,406.62,55.64-6.92,72.9,158.73,93.13,75.25,88.76,202.45,98H51Z"/><path class="cls-9" d="M51,795.45s288.25-62.72,406.62,55.64-6.92,72.9,158.73,93.13,75.25,88.76,202.45,98H51Z"/><path class="cls-9" d="M51,795.45s288.25-62.72,406.62,55.64-6.92,72.9,158.73,93.13,75.25,88.76,202.45,98H51Z"/><path class="cls-10" d="M543,1015.09c-7.46,1.4-16.65,6.92-25.34,14.44-16.93,14.63-32,36.8-28.66,50.68,5,21,14,17,14,27s3,11-121,6c-35.06-1.41-62.61-13.14-84.08-29.23C243.41,1043.15,228,974.21,228,974.21s128.8-8,206.9,12.5,77.1,5.5,108.1,13.5S565,1011,543,1015.09Z"/><path class="cls-11" d="M489,1080.21c5,21,14,17,14,27s3,11-121,6c-35.06-1.41-62.61-13.14-84.08-29.23L277,1052.21l60-27s129.32,22.64,180.66,4.32C500.71,1044.16,485.68,1066.33,489,1080.21Z"/><polygon class="cls-12" points="368.97 1008.21 282.13 1008.21 286.97 965.21 364.97 965.21 368.97 1008.21"/><polygon class="cls-12" points="359.03 965.21 296.97 965.21 305.9 840.21 350.97 840.21 359.03 965.21"/><polygon class="cls-13" points="305.9 840.21 322.66 840.21 319.77 965.21 319.66 969.81 319.66 1008.21 282.13 1008.21 286.97 965.21 296.97 965.21 305.9 840.21"/><polygon class="cls-14" points="368.98 972.21 364.98 962.21 286.98 962.21 282.13 972.21 368.98 972.21"/><rect class="cls-15" x="307.98" y="823.21" width="41" height="10"/><rect class="cls-12" x="305.97" y="786.21" width="45" height="38"/><rect class="cls-15" x="326.98" y="744.21" width="4" height="18" rx="1.92"/><rect class="cls-13" x="305.97" y="786.21" width="16.69" height="38"/><path class="cls-15" d="M332.55,757.21h-7.22a3.13,3.13,0,0,0-2.28,1L301.85,781a3.11,3.11,0,0,0,2.28,5.23h48.05a3.11,3.11,0,0,0,2.36-5.14l-19.63-22.78A3.13,3.13,0,0,0,332.55,757.21Z"/><polygon class="cls-15" points="356.98 835.21 354.31 843.21 302.21 843.21 298.98 835.21 356.98 835.21"/><rect class="cls-16" x="298.98" y="827.77" width="58" height="7.44"/><path class="cls-17" d="M-203,664.76s175.62,4,239,54.4,182.13,55.29,216.27,250.42c0,0,104.07,35.77,130.09,91.06s73.18,71.55,113.83,91.06l40.65,19.51a653.61,653.61,0,0,0-123.87,0c-44.13,4.19-56.83,9.9-95,12-53,2.93-57.81-6.46-134-12-29.49-2.14-76-1.76-169-1-41.7.34-46.86.69-87,1-55.75.43-101.13.24-131,0Z"/><path class="cls-18" d="M-203,664.76s175.62,4,239,54.4,182.13,55.29,216.27,250.42c0,0,104.07,35.77,130.09,91.06s73.18,71.55,113.83,91.06l40.65,19.51a653.61,653.61,0,0,0-123.87,0c-44.13,4.19-56.83,9.9-95,12-53,2.93-57.81-6.46-134-12-29.49-2.14-76-1.76-169-1-41.7.34-46.86.69-87,1-55.75.43-101.13.24-131,0Z"/></g></svg>