<svg xmlns="http://www.w3.org/2000/svg" viewBox="0 0 65.89 79.76"><defs><style>.cls-1{fill:#fff;}</style></defs><g id="Layer_2" data-name="Layer 2"><g id="Layer_1-2" data-name="Layer 1"><path class="cls-1" d="M62.77,29.74l-2.6,19.54c-.93,6.9-1.91,13.81-2.77,20.72-.22,1.8-1.67,2.93-3.2,3.79a26,26,0,0,1-10.65,2.83,37.54,37.54,0,0,1-12.67-1c-2.54-.69-5.84-1.77-7.36-4.11a4.87,4.87,0,0,1-.59-2.25l-.49-3.63-1.7-12.77L18.86,38.76c-.38-2.85-.59-5.77-1.15-8.59,0-.14,0-.29-.05-.43l-2.95.39c.69,2.53,3.18,4.11,5.42,5.13a40,40,0,0,0,11.55,3,67.92,67.92,0,0,0,15.15.21A44.33,44.33,0,0,0,59,35.82c2.66-1.06,5.92-2.68,6.74-5.69a1.5,1.5,0,0,0-2.89-.79C62.37,31,60,32.19,58.32,32.87a39.16,39.16,0,0,1-10.63,2.47c-8,.89-16.74.66-24.41-2-1.94-.68-5.12-1.93-5.68-4-.43-1.57-3.17-1.33-2.94.4l2.75,20.65,1.86,14c.3,2.22.45,4.51.86,6.7.51,2.68,3,4.55,5.25,5.7a31,31,0,0,0,11.5,2.88,40.12,40.12,0,0,0,13.1-1c3-.77,6.4-2,8.59-4.37,1.91-2.06,1.91-4.83,2.26-7.46l1.68-12.58,2-14.89c.4-3,.91-6.06,1.21-9.09l.06-.46a1.5,1.5,0,0,0-1.5-1.5A1.54,1.54,0,0,0,62.77,29.74Z"/><path class="cls-1" d="M28.7,23.33A16.69,16.69,0,0,0,30.93,23c.93-.14,1.87-.25,2.81-.34,2-.19,4-.28,6-.3a62,62,0,0,1,11.38.9,30.76,30.76,0,0,1,8.34,2.5c1.28.64,3.32,1.78,3.43,3.23a2.51,2.51,0,0,0-.1.61c0-.09-.22.41-.39.63a6.67,6.67,0,0,1-1.91,1.58,25.18,25.18,0,0,1-7.77,2.74A61.55,61.55,0,0,1,30,35a30.42,30.42,0,0,1-9.51-2.86A7.51,7.51,0,0,1,18,30.21a2.81,2.81,0,0,1-.38-.72c.12.33-.08-.2-.08-.38A2.18,2.18,0,0,1,18,28c1-1.66-1.59-3.17-2.59-1.52-3.5,5.76,4.89,9.19,9,10.36A62.93,62.93,0,0,0,50,38.05,37.67,37.67,0,0,0,60.3,35.26c2.05-.93,4.28-2.31,5.19-4.48,2.16-5.18-5-8.16-8.75-9.29a54.32,54.32,0,0,0-13.29-2.08,72.19,72.19,0,0,0-7.92.08c-1.18.08-2.35.19-3.53.34a29.25,29.25,0,0,1-3.3.5,1.5,1.5,0,0,0,0,3Z"/><path class="cls-1" d="M47.64,45.45a127.39,127.39,0,0,0,.21-22.94c-.45-5.32-1.23-10.78-3.42-15.69-1.78-4-6-9.33-10.62-5.5C31.56,3.2,30.34,6.24,29.45,9a51.05,51.05,0,0,0-2.21,12.86c-.11,1.93,2.89,1.93,3,0a50.93,50.93,0,0,1,1.63-10.48,18.23,18.23,0,0,1,3.19-7c1-1.19,2.08-1.76,3.38-.86,1.79,1.25,2.92,3.62,3.69,5.6a49.69,49.69,0,0,1,2.79,14.4,131.55,131.55,0,0,1,.2,14.32c-.1,2.56-.23,5.13-.48,7.69-.19,1.92,2.81,1.9,3,0Z"/><path class="cls-1" d="M11.7,21.25a7.16,7.16,0,0,1,2,1.49,4.06,4.06,0,0,1,.74,1l.15.28s.17.37.12.24.05.16.06.18.08.24.12.36.11.38.15.57.05.24.07.36.05.32,0,.17,0,.19,0,.23,0,.18,0,.28,0,.42,0,.63c0,.4,0,.8-.07,1.2,0,.07-.06.38,0,0l0,.25c0,.19-.07.38-.11.57a1.5,1.5,0,0,0,2.9.8,12.23,12.23,0,0,0-.13-6,9.32,9.32,0,0,0-4.52-5.2,1.5,1.5,0,0,0-1.51,2.59Z"/><path class="cls-1" d="M12.58,18.73c6.09-.32,13.24.71,16.77,6.28a17.21,17.21,0,0,1,2.51,10c-.1,1.93,2.9,1.92,3,0a20.61,20.61,0,0,0-1.44-8.51,16.15,16.15,0,0,0-11.31-9.88,33.18,33.18,0,0,0-9.53-.85c-1.92.1-1.93,3.11,0,3Z"/><path class="cls-1" d="M14.73,18.39c-.2-2.18-2.38-3.42-4.31-3.85a18.72,18.72,0,0,0-7.53,0,4.24,4.24,0,0,0-2.3,1,2.21,2.21,0,0,0-.32,2.57,13.66,13.66,0,0,0,2.37,2.67c.29.34-.1-.18,0,0l.18.29c.23.35-.07-.3,0,0,0,.14,0,.31,0-.19a.67.67,0,0,1,0,.2c0-.52.06-.33,0-.2.17-.49.14-.27.06-.16a3.32,3.32,0,0,0-.23.37c-.17.29-.33.59-.47.89C1.6,23.46,1,25.22,1.51,26.71a2.52,2.52,0,0,0,2.28,1.68,5.76,5.76,0,0,0,2.93-.85,17.83,17.83,0,0,0,6.13-5.45,14.09,14.09,0,0,0,1.83-3.31,1.52,1.52,0,0,0-1-1.84,1.54,1.54,0,0,0-1.85,1l-.06.15c.29-.64,0,0-.06.12-.26.53-.55,1-.86,1.53-.21.33-.44.66-.67,1l-.1.13L9.92,21c-.16.2-.33.39-.5.59-.33.38-.69.74-1.06,1.09l-.55.49c-.24.21-.42.35-.54.44a17,17,0,0,1-1.5,1L5.08,25l-.38.18c.3-.14,0,0-.09,0l-.55.16c-.3.09.09-.07.1,0H3.93c-.37,0,.33.08,0,0s.36.19.15.06.29.27.13.11.22.34.1.14-.05-.2,0,0,0-.09,0-.16.06.21,0,.21,0-.19,0-.21.07-.38,0-.43-.07.38,0,.09a1.18,1.18,0,0,1,0-.2c0-.15.07-.3.11-.45.09-.31.2-.61.31-.92s-.15.33,0,0l.09-.2.21-.42c.13-.25.29-.49.43-.73a2.48,2.48,0,0,0,.19-2.11,8.29,8.29,0,0,0-2.27-2.83A3.63,3.63,0,0,0,3,16.88s.22.33.12.16L3,16.9l-.08-.13c-.13-.17.14.39.08.18s0,.32,0,.15a1.65,1.65,0,0,1-.11.45c0-.1.18-.18-.15.19.15-.17,0,.08-.15.1l.34-.2c-.05.14-.35.12-.05,0L3,17.62c.21-.06.43-.11.64-.15l.26,0s.47-.07.16,0c.33,0,.67-.08,1-.1a19.65,19.65,0,0,1,3.43,0l.37,0c.33,0-.27-.05.07,0s.43.07.64.12,1,.17,1.13.35c0,0-.36-.18-.14-.06l.27.13a3,3,0,0,1,.34.2l.16.1c.16.1,0,.18-.12-.09a2.2,2.2,0,0,0,.23.2l.19.21c.2.19-.23-.38,0,0l.11.18c.11.18,0,.27-.06-.17,0,.2.11.7,0-.05a1.54,1.54,0,0,0,1.5,1.5A1.52,1.52,0,0,0,14.73,18.39Z"/></g></g></svg>