<svg xmlns="http://www.w3.org/2000/svg" xmlns:xlink="http://www.w3.org/1999/xlink" viewBox="0 0 569.21 337.18"><defs><style>.cls-1{fill:none;}.cls-2{fill:#4f3935;}.cls-3{fill:#cf5905;}.cls-4{fill:#ff9736;}.cls-5{fill:#ff6c08;}.cls-6{fill:url(#linear-gradient);}.cls-7{fill:url(#linear-gradient-2);}.cls-8{fill:url(#linear-gradient-3);}.cls-9{fill:url(#linear-gradient-4);}.cls-10{fill:url(#linear-gradient-5);}.cls-11{fill:url(#linear-gradient-6);}.cls-12{fill:#e4e4e6;}.cls-13,.cls-56{opacity:0.1;}.cls-14{opacity:0.15;}.cls-15{fill:url(#linear-gradient-7);}.cls-16{fill:url(#linear-gradient-8);}.cls-17{fill:url(#linear-gradient-9);}.cls-18{fill:url(#linear-gradient-10);}.cls-19{fill:url(#linear-gradient-11);}.cls-20{fill:url(#linear-gradient-12);}.cls-21{fill:url(#linear-gradient-13);}.cls-22{fill:url(#linear-gradient-14);}.cls-23{fill:url(#linear-gradient-15);}.cls-24{fill:url(#linear-gradient-16);}.cls-25{fill:url(#linear-gradient-17);}.cls-26{fill:url(#linear-gradient-18);}.cls-27{fill:url(#linear-gradient-19);}.cls-28{fill:url(#linear-gradient-20);}.cls-29{fill:url(#linear-gradient-21);}.cls-30{fill:url(#linear-gradient-22);}.cls-31{fill:url(#linear-gradient-23);}.cls-32{fill:url(#linear-gradient-24);}.cls-33{fill:url(#linear-gradient-25);}.cls-34{fill:url(#linear-gradient-26);}.cls-35{fill:url(#linear-gradient-27);}.cls-36{fill:url(#linear-gradient-28);}.cls-37{fill:url(#linear-gradient-29);}.cls-38{fill:url(#linear-gradient-30);}.cls-39{fill:url(#linear-gradient-31);}.cls-40{fill:url(#linear-gradient-32);}.cls-41{fill:url(#linear-gradient-33);}.cls-42{fill:url(#linear-gradient-34);}.cls-43{fill:url(#linear-gradient-35);}.cls-44{fill:url(#linear-gradient-36);}.cls-45{fill:url(#linear-gradient-37);}.cls-46{fill:url(#linear-gradient-38);}.cls-47{fill:url(#linear-gradient-39);}.cls-48{fill:url(#linear-gradient-40);}.cls-49{fill:url(#linear-gradient-41);}.cls-50{fill:url(#linear-gradient-42);}.cls-51{fill:url(#linear-gradient-43);}.cls-52{fill:url(#linear-gradient-44);}.cls-53{fill:url(#linear-gradient-45);}.cls-54{fill:url(#linear-gradient-46);}.cls-55{fill:url(#linear-gradient-47);}.cls-56{fill:url(#linear-gradient-48);}.cls-57{fill:#230802;}.cls-58{clip-path:url(#clip-path);}.cls-59{fill:#fafafa;}.cls-60{fill:#ff6652;}.cls-61{fill:#de493d;}</style><linearGradient id="linear-gradient" x1="2.98" y1="91.87" x2="2.98" y2="469.05" gradientTransform="translate(289.91 -83.93) rotate(-4.24)" gradientUnits="userSpaceOnUse"><stop offset="0" stop-color="#ff9736"/><stop offset="1" stop-color="#cf5905"/></linearGradient><linearGradient id="linear-gradient-2" x1="423.65" y1="114.01" x2="438.42" y2="243.3" gradientUnits="userSpaceOnUse"><stop offset="0" stop-color="#ffb036"/><stop offset="1" stop-color="#f97700"/></linearGradient><linearGradient id="linear-gradient-3" x1="357.16" y1="107.47" x2="360.43" y2="312.98" gradientUnits="userSpaceOnUse"><stop offset="0" stop-color="#fff"/><stop offset="0.2" stop-color="#f8f8f8"/><stop offset="0.48" stop-color="#e4e4e4"/><stop offset="0.82" stop-color="#c4c4c4"/><stop offset="1" stop-color="#b0b0b0"/></linearGradient><linearGradient id="linear-gradient-4" x1="253.51" y1="89.54" x2="258.95" y2="296.14" xlink:href="#linear-gradient-3"/><linearGradient id="linear-gradient-5" x1="113.56" y1="172.03" x2="120.63" y2="225.31" xlink:href="#linear-gradient-3"/><linearGradient id="linear-gradient-6" x1="-253.51" y1="189.65" x2="-253.51" y2="328.13" gradientTransform="translate(289.91 -83.93) rotate(-4.24)" gradientUnits="userSpaceOnUse"><stop offset="0" stop-color="#ff9736"/><stop offset="1" stop-color="#ff6c08"/></linearGradient><linearGradient id="linear-gradient-7" x1="284" y1="308.51" x2="428.99" y2="308.51" gradientUnits="userSpaceOnUse"><stop offset="0" stop-color="#6347a6"/><stop offset="1" stop-color="#25336d"/></linearGradient><linearGradient id="linear-gradient-8" x1="312.91" y1="302.56" x2="428.99" y2="302.56" xlink:href="#linear-gradient-7"/><linearGradient id="linear-gradient-9" x1="138.66" y1="270.39" x2="260.38" y2="270.39" xlink:href="#linear-gradient-7"/><linearGradient id="linear-gradient-10" x1="150.07" y1="256.47" x2="279.94" y2="256.47" xlink:href="#linear-gradient-7"/><linearGradient id="linear-gradient-11" x1="133.73" y1="75.25" x2="432.59" y2="75.25" xlink:href="#linear-gradient-7"/><linearGradient id="linear-gradient-12" x1="134.31" y1="83.08" x2="445.02" y2="83.08" xlink:href="#linear-gradient-7"/><linearGradient id="linear-gradient-13" x1="459.66" y1="211.48" x2="569.21" y2="211.48" xlink:href="#linear-gradient-7"/><linearGradient id="linear-gradient-14" x1="489.84" y1="211.48" x2="569.21" y2="211.48" xlink:href="#linear-gradient-7"/><linearGradient id="linear-gradient-15" x1="484.34" y1="177.89" x2="537.28" y2="177.89" xlink:href="#linear-gradient-7"/><linearGradient id="linear-gradient-16" x1="482.09" y1="190.65" x2="543.08" y2="190.65" xlink:href="#linear-gradient-7"/><linearGradient id="linear-gradient-17" x1="462.6" y1="234.48" x2="495.22" y2="234.48" xlink:href="#linear-gradient-7"/><linearGradient id="linear-gradient-18" x1="469.65" y1="227.81" x2="512.5" y2="227.81" xlink:href="#linear-gradient-7"/><linearGradient id="linear-gradient-19" x1="475.54" y1="217.6" x2="527.32" y2="217.6" xlink:href="#linear-gradient-7"/><linearGradient id="linear-gradient-20" x1="479.59" y1="204.32" x2="539.54" y2="204.32" xlink:href="#linear-gradient-7"/><linearGradient id="linear-gradient-21" x1="211.03" y1="44.65" x2="313.2" y2="44.65" xlink:href="#linear-gradient-7"/><linearGradient id="linear-gradient-22" x1="2.98" y1="91.87" x2="2.98" y2="469.05" gradientTransform="translate(289.91 -83.93) rotate(-4.24)" xlink:href="#linear-gradient-7"/><linearGradient id="linear-gradient-23" x1="423.65" y1="114.01" x2="438.42" y2="243.3" xlink:href="#linear-gradient-7"/><linearGradient id="linear-gradient-24" x1="304.05" y1="177.82" x2="405.89" y2="177.82" xlink:href="#linear-gradient-7"/><linearGradient id="linear-gradient-25" x1="357.16" y1="107.47" x2="360.43" y2="312.98" xlink:href="#linear-gradient-7"/><linearGradient id="linear-gradient-26" x1="192.83" y1="177.12" x2="313.2" y2="177.12" xlink:href="#linear-gradient-7"/><linearGradient id="linear-gradient-27" x1="253.51" y1="89.54" x2="258.95" y2="296.14" xlink:href="#linear-gradient-7"/><linearGradient id="linear-gradient-28" x1="91.52" y1="186.44" x2="139.42" y2="186.44" gradientTransform="translate(14.11 -8.03) rotate(4.24)" xlink:href="#linear-gradient-7"/><linearGradient id="linear-gradient-29" x1="113.56" y1="172.03" x2="120.63" y2="225.31" xlink:href="#linear-gradient-7"/><linearGradient id="linear-gradient-30" x1="0" y1="194.36" x2="97.8" y2="194.36" xlink:href="#linear-gradient-7"/><linearGradient id="linear-gradient-31" x1="-253.51" y1="189.65" x2="-253.51" y2="328.13" gradientTransform="translate(289.91 -83.93) rotate(-4.24)" xlink:href="#linear-gradient-7"/><linearGradient id="linear-gradient-32" x1="18.6" y1="193.12" x2="90.49" y2="193.12" xlink:href="#linear-gradient-7"/><linearGradient id="linear-gradient-33" x1="17.02" y1="176.25" x2="89.55" y2="176.25" xlink:href="#linear-gradient-7"/><linearGradient id="linear-gradient-34" x1="24.76" y1="161.3" x2="88.91" y2="161.3" xlink:href="#linear-gradient-7"/><linearGradient id="linear-gradient-35" x1="38.95" y1="146.92" x2="88.15" y2="146.92" xlink:href="#linear-gradient-7"/><linearGradient id="linear-gradient-36" x1="20.19" y1="208.8" x2="91.2" y2="208.8" xlink:href="#linear-gradient-7"/><linearGradient id="linear-gradient-37" x1="28.07" y1="225.5" x2="92.08" y2="225.5" xlink:href="#linear-gradient-7"/><linearGradient id="linear-gradient-38" x1="39.83" y1="238.72" x2="92.76" y2="238.72" xlink:href="#linear-gradient-7"/><linearGradient id="linear-gradient-39" x1="221.02" y1="43.27" x2="302.34" y2="43.27" xlink:href="#linear-gradient-7"/><linearGradient id="linear-gradient-40" x1="253.07" y1="180.41" x2="347.85" y2="180.41" xlink:href="#linear-gradient-7"/><linearGradient id="linear-gradient-41" x1="253.07" y1="180.41" x2="322.36" y2="180.41" xlink:href="#linear-gradient-7"/><linearGradient id="linear-gradient-42" x1="292.03" y1="156.13" x2="340.06" y2="156.13" xlink:href="#linear-gradient-7"/><linearGradient id="linear-gradient-43" x1="280.41" y1="167.36" x2="338.92" y2="167.36" xlink:href="#linear-gradient-7"/><linearGradient id="linear-gradient-44" x1="304.01" y1="220.81" x2="345.15" y2="220.81" xlink:href="#linear-gradient-7"/><linearGradient id="linear-gradient-45" x1="289.6" y1="210.02" x2="341.97" y2="210.02" xlink:href="#linear-gradient-7"/><linearGradient id="linear-gradient-46" x1="279.9" y1="196.64" x2="340.1" y2="196.64" xlink:href="#linear-gradient-7"/><linearGradient id="linear-gradient-47" x1="275.99" y1="181.23" x2="338.8" y2="181.23" xlink:href="#linear-gradient-7"/><linearGradient id="linear-gradient-48" x1="139.42" y1="224.01" x2="527.83" y2="224.01" xlink:href="#linear-gradient-7"/><clipPath id="clip-path"><path class="cls-1" d="M428,196.89a44.34,44.34,0,0,0,7.95,17.32c.12.17.3.39.51.65,2.86,3.65,12.77,15.39,26.16,14.46a23.22,23.22,0,0,0,9-2.54l1.27-1.41.93-1a39.57,39.57,0,0,0,4.4-8.45,40.43,40.43,0,0,0,2.36-10.63l2-9s-19.41,8.1-55.5-7.86A38,38,0,0,0,428,196.89Z"/></clipPath></defs><g id="Layer_2" data-name="Layer 2"><g id="Layer_1-2" data-name="Layer 1"><path class="cls-2" d="M429,286.35l-70.56,49.74c-27.95,8.3-74.43-33.62-74.43-33.62l76.26-22.63Z"/><path class="cls-3" d="M312.91,293.89c10.12,8.42,38.41,30.25,60.82,31.4L429,286.35l-68.73-6.51Z"/><path class="cls-2" d="M260.38,292.26s-45.22,29.85-94.48,11.9-16.62-73.29-16.62-73.29l84.54,24.41Z"/><path class="cls-3" d="M279.94,285.11s-54.54,28-106.48,7.9-1.14-80.36-1.14-80.36l84.15,25.57Z"/><path class="cls-2" d="M432.59,86.34l-28.68-51C391.32,13,370-.28,347.39,0,235.3,1.41,159.74,82.57,133.73,150.5Z"/><path class="cls-4" d="M445,94.18,415.21,43.24C402.14,20.84,380,7.57,356.47,7.84,240,9.24,161.38,90.4,134.31,158.32Z"/><path class="cls-3" d="M479.06,171.42l72.62-10.16c7.69-1.08,14.92,4.43,16.48,12.58,7.21,37.81-23.23,97.69-68.43,86.65a18.35,18.35,0,0,1-10.1-6.59l-25.78-21.57a12,12,0,0,1-1.66-16.48C471.91,203.67,476.92,188.49,479.06,171.42Z"/><path class="cls-2" d="M543.9,179.75c-4.76-15.19-35.67-12.41-35.67-12.41l43.45-6.08c7.75-1.08,15,4.54,16.52,12.79,7,37.81-23.35,97.46-68.47,86.44a18.51,18.51,0,0,1-9.89-6.33C525.91,259,553.31,209.73,543.9,179.75Z"/><path class="cls-5" d="M486,177.72l49.29-3.53a2,2,0,0,1,.28,3.89l-49.3,3.51c-1.6-.62-1.92-1.16-2-1.81A1.89,1.89,0,0,1,486,177.72Z"/><path class="cls-5" d="M541.16,194.91l-57.38-4.64c-1.39-.71-1.72-1.36-1.69-2.09A1.82,1.82,0,0,1,484,186.4L541.39,191a1.91,1.91,0,0,1,1.69,2.08A1.84,1.84,0,0,1,541.16,194.91Z"/><path class="cls-5" d="M465.63,218.77l29,28.57a2,2,0,0,1,.12,2.75,1.72,1.72,0,0,1-2.33.32c-.25-.2-29.24-28.8-29.24-28.8a2.1,2.1,0,0,1-.11-2.75A1.71,1.71,0,0,1,465.63,218.77Z"/><path class="cls-5" d="M470.05,209.91a1.74,1.74,0,0,1,2.54-.3L511.79,243a2,2,0,0,1,.33,2.73,1.74,1.74,0,0,1-2.43.41c-.15-.1-39.34-33.47-39.34-33.47A2,2,0,0,1,470.05,209.91Z"/><path class="cls-5" d="M476.38,203.13a2,2,0,0,1-.58-2.65,1.76,1.76,0,0,1,2.5-.62L526.46,232a2,2,0,0,1,.59,2.68,1.74,1.74,0,0,1-2.51.64l-48.13-32.18Z"/><path class="cls-5" d="M537.2,215.56l-56.33-18.77a2.16,2.16,0,0,1-1.21-2.45,1.75,1.75,0,0,1,2.26-1.26l56.33,18.75a2,2,0,0,1,1.21,2.45A1.76,1.76,0,0,1,537.2,215.56Z"/><path class="cls-2" d="M222.08,78.34l91.12-33.5-5-33.88c-1.56.18-3.13.44-4.68.76A242.66,242.66,0,0,0,211,51.84Z"/><path class="cls-6" d="M133.14,142.61l6.28,84.65c93.27,90.68,202.7,110.08,332.86,38.22-14.07-53-9.76-120.12,12.05-148.92a221.26,221.26,0,0,0-50.41-43.74c-26.69-16.77-49.53-22.85-54.21-24C351,41.4,328.23,43.48,313.2,44.84c-44.05,4-75.43,19.91-93,29.06A302.58,302.58,0,0,0,133.14,142.61Z"/><path class="cls-7" d="M399.66,56.43c-7.75,6.13-62,50.57-64.08,126.73-1.84,67.15,38.17,111.11,46.17,119.55,13.22-4.59,52.24-18.29,77.57-29.47,2.15-.94,7.28-3.19,13.75-6.8,12.11-6.74,21.6-11.8,30.73-22.46a82.8,82.8,0,0,0,13.76-22.66c2.66-6.74,9.21-20.49,10.09-39.5a72.34,72.34,0,0,0-1.6-21.59,145.77,145.77,0,0,0-9.51-21.72C485.6,81.18,424.76,62.46,399.66,56.43Z"/><path class="cls-2" d="M372.57,192c.21-11.84,2-43.35,13.76-82.63A343.35,343.35,0,0,1,405.89,59c-1.79-1.12-4.28-2.64-7.29-4.34h0c-10-1.94-19.8-4.67-30.36-5.17-12.37-.59-25.17-1.72-37.35-3.05h0a268.46,268.46,0,0,0-13.72,34c-20.77,63.9-12.32,120.32-4.89,164.18a536.15,536.15,0,0,0,15.14,64.63c9.45-.92,19.58-2.14,30.29-3.74,7.13-1.06,13.91-2.22,20.39-3.42l.18,0a4,4,0,0,1,.76-.13c3.09-.58,6.13-1.17,9.06-1.76-3.18-10.29-10.11-34.19-13.26-60.59a355.4,355.4,0,0,1-2.29-36.28C372.44,198.12,372.53,194.23,372.57,192Z"/><path class="cls-8" d="M368.22,49.46c-8.53-.41-17.26-1.09-25.86-1.89A278,278,0,0,0,328,84.79c-19.68,64.47-10.87,120.2-4.5,157.62A448.86,448.86,0,0,0,339.84,308c5.75-.72,11.69-1.53,17.81-2.47q11-1.67,21-3.54a426.5,426.5,0,0,1-10.33-45.86,416.65,416.65,0,0,1-5.74-64.88s.37-35.11,7-64.27c2.68-11.77,6.22-22.93,6.22-22.93a163.88,163.88,0,0,1,10.58-27.94,188.5,188.5,0,0,1,12.22-21.45C388.55,52.69,378.78,50,368.22,49.46Z"/><path class="cls-2" d="M307,309.39A362.42,362.42,0,0,1,313.2,44.84a96.26,96.26,0,0,0-25.95,3.41C282,49.68,280.88,50.5,276,52.58c0,0-2,.9-7.54,3-11.55,4.38-24.19,4.77-37.76,11.7A66.52,66.52,0,0,0,220.18,74,143.11,143.11,0,0,0,206,99.52c-6.5,15.2-8.73,27.69-10.3,36.86a234.58,234.58,0,0,0-2.8,43.32c1.5,45.81,19.4,90.87,25.37,105.13A246.24,246.24,0,0,0,263,301.76,240.44,240.44,0,0,0,307,309.39Z"/><path class="cls-9" d="M274.42,169.65A395.39,395.39,0,0,1,281.47,116a385.27,385.27,0,0,1,20.87-68.85,212.55,212.55,0,0,0-33.86,8.45,216.27,216.27,0,0,0-36.06,16,249.37,249.37,0,0,0-2.14,218.56A248.59,248.59,0,0,0,263,301.76a243.74,243.74,0,0,0,33.8,6.83C285.75,277.72,271.32,226.45,274.42,169.65Z"/><rect class="cls-2" x="94.6" y="144.04" width="41.73" height="84.8" transform="translate(-13.48 9.05) rotate(-4.24)"/><path class="cls-10" d="M104.79,229.75l27.63-2.05-6.28-84.57-27.62,2.05A252.4,252.4,0,0,1,104.79,229.75Z"/><path class="cls-2" d="M91.52,145.7l6.28,84.57L48.06,267.51a17.28,17.28,0,0,1-24.89-3.05c-30.83-41.59-32.1-105.83,3.47-142a17.25,17.25,0,0,1,22-2.2Z"/><path class="cls-11" d="M91.77,149a168.57,168.57,0,0,1,5.83,78.62L54.67,259.7a14.55,14.55,0,0,1-21.49-2.85C6.49,219.34,5.18,161.46,35.8,129a14.45,14.45,0,0,1,19-1.91Z"/><path class="cls-3" d="M21.35,198.32l66.77-4.95a2.74,2.74,0,0,0-.4-5.45l-66.77,5a2.73,2.73,0,0,0,.4,5.44Z"/><path class="cls-3" d="M19.47,177.21l67.44,3.56a2.67,2.67,0,0,0,2.64-2.58,2.71,2.71,0,0,0-2.45-2.87l-67.42-3.59A2.59,2.59,0,0,0,17,174.32,2.73,2.73,0,0,0,19.47,177.21Z"/><path class="cls-3" d="M26.71,155.81l59,16.34c1.9,0,2.84-.79,3.11-1.94A2.78,2.78,0,0,0,87,166.88l-59-16.35a2.49,2.49,0,0,0-3.07,1.95A2.75,2.75,0,0,0,26.71,155.81Z"/><path class="cls-3" d="M40.35,137.05l44.09,24.57a2.32,2.32,0,0,0,1.35.29,2.5,2.5,0,0,0,2.09-1.43,2.88,2.88,0,0,0-1.12-3.69L42.67,132.23a2.49,2.49,0,0,0-3.44,1.15A2.82,2.82,0,0,0,40.35,137.05Z"/><path class="cls-3" d="M88,197.79,22.13,214.51a2.74,2.74,0,0,0-1.87,3.3A2.63,2.63,0,0,0,23,219.88c.4,0,66.33-16.79,66.33-16.79a2.73,2.73,0,0,0,1.84-3.29A2.52,2.52,0,0,0,88,197.79Z"/><path class="cls-3" d="M88.52,209.7,29.6,236.26a2.82,2.82,0,0,0-1.33,3.59,2.56,2.56,0,0,0,2.52,1.66c.82-.21,59.74-26.78,59.74-26.78a2.78,2.78,0,0,0,1.34-3.57A2.49,2.49,0,0,0,88.52,209.7Z"/><path class="cls-3" d="M88.79,219.19,41,253.69a2.86,2.86,0,0,0-.68,3.8,2.56,2.56,0,0,0,2.34,1.21c1.21-.45,49.05-35,49.05-35a2.81,2.81,0,0,0,.65-3.77A2.44,2.44,0,0,0,88.79,219.19Z"/><path class="cls-12" d="M221,45.12l11.26,27.35,70.06-25.35q-4.57-16.53-9.14-33A242.2,242.2,0,0,0,221,45.12Z"/><path class="cls-3" d="M347.85,162.17l-63.48-36.8c-6.71-3.89-15.46-1.5-19.92,5.48-20.72,32.41-14.76,99.5,31.2,106.27a18.15,18.15,0,0,0,11.79-2.32l31.89-10.32A12,12,0,0,0,347,209.8C342.5,194.82,343.49,178.83,347.85,162.17Z"/><path class="cls-2" d="M284.72,145.48c10-12.32,37.64,1.91,37.64,1.91l-38-22c-6.77-3.92-15.55-1.43-20,5.66-20.56,32.46-14.56,99.33,31.32,106.09a18.39,18.39,0,0,0,11.5-2.15C272,225.85,264.87,169.78,284.72,145.48Z"/><path class="cls-5" d="M339.05,165.39l-44.33-21.85a2,2,0,0,0-1.7,3.51l44.35,21.84c1.71,0,2.21-.36,2.48-.94A1.9,1.9,0,0,0,339.05,165.39Z"/><path class="cls-5" d="M281.63,160.6l54.86,17.3c1.54-.13,2.09-.62,2.33-1.3a1.85,1.85,0,0,0-1.12-2.39l-54.85-17.3a1.89,1.89,0,0,0-2.34,1.3A1.86,1.86,0,0,0,281.63,160.6Z"/><path class="cls-5" d="M342.71,211.21l-37.45,15.62a2,2,0,0,0-1.14,2.51,1.72,1.72,0,0,0,2.05,1.17c.3-.1,37.76-15.73,37.76-15.73a2.11,2.11,0,0,0,1.13-2.52A1.72,1.72,0,0,0,342.71,211.21Z"/><path class="cls-5" d="M341.91,201.32a1.75,1.75,0,0,0-2.25-1.24L291,216.3a2,2,0,0,0-1.32,2.41,1.74,1.74,0,0,0,2.1,1.3c.18,0,48.86-16.27,48.86-16.27A2,2,0,0,0,341.91,201.32Z"/><path class="cls-5" d="M338.56,192.63a2,2,0,0,0,1.52-2.24,1.77,1.77,0,0,0-2.09-1.52L281.46,200.6a2,2,0,0,0-1.54,2.26A1.75,1.75,0,0,0,282,204.4l56.51-11.76Z"/><path class="cls-5" d="M277.62,181.26l59.13,3.79c1.31-.24,1.94-.93,2-1.82a1.76,1.76,0,0,0-1.62-2L278,177.4a2,2,0,0,0-2,1.83A1.78,1.78,0,0,0,277.62,181.26Z"/><path class="cls-13" d="M526.05,160.23l-9.51-21.72c2.89,11.79,6.86,35.2-2.14,59.79-6,16.37-17.46,32.54-46.84,51.54-71.52,46.25-148.61,44.24-154.5,44-68.08-2.65-118.83-31.34-144-48.23-22.63-14.52-28.85-18.18-29.64-18.36h0c-.16.24,34,34.35,77.37,56.68,12.28,6.32,38.29,19.43,74.15,24,29,3.66,53.13.3,70.77-2.15,13.48-1.88,23.52-3.27,37.08-7.4,21.35-6.51,41.31-16.62,60.53-25.11,2-.89,7.2-3.15,13.75-6.8,12.11-6.74,21.6-11.8,30.73-22.46a82.8,82.8,0,0,0,13.76-22.66c2.66-6.74,9.21-20.49,10.09-39.5A72.34,72.34,0,0,0,526.05,160.23Z"/><g class="cls-14"><path class="cls-15" d="M429,286.35l-70.56,49.74c-27.95,8.3-74.43-33.62-74.43-33.62l76.26-22.63Z"/><path class="cls-16" d="M312.91,293.89c10.12,8.42,38.41,30.25,60.82,31.4L429,286.35l-68.73-6.51Z"/><path class="cls-17" d="M260.38,292.26s-45.22,29.85-94.48,11.9-16.62-73.29-16.62-73.29l84.54,24.41Z"/><path class="cls-18" d="M279.94,285.11s-54.54,28-106.48,7.9-1.14-80.36-1.14-80.36l84.15,25.57Z"/><path class="cls-19" d="M432.59,86.34l-28.68-51C391.32,13,370-.28,347.39,0,235.3,1.41,159.74,82.57,133.73,150.5Z"/><path class="cls-20" d="M445,94.18,415.21,43.24C402.14,20.84,380,7.57,356.47,7.84,240,9.24,161.38,90.4,134.31,158.32Z"/><path class="cls-21" d="M479.06,171.42l72.62-10.16c7.69-1.08,14.92,4.43,16.48,12.58,7.21,37.81-23.23,97.69-68.43,86.65a18.35,18.35,0,0,1-10.1-6.59l-25.78-21.57a12,12,0,0,1-1.66-16.48C471.91,203.67,476.92,188.49,479.06,171.42Z"/><path class="cls-22" d="M543.9,179.75c-4.76-15.19-35.67-12.41-35.67-12.41l43.45-6.08c7.75-1.08,15,4.54,16.52,12.79,7,37.81-23.35,97.46-68.47,86.44a18.51,18.51,0,0,1-9.89-6.33C525.91,259,553.31,209.73,543.9,179.75Z"/><path class="cls-23" d="M486,177.72l49.29-3.53a2,2,0,0,1,.28,3.89l-49.3,3.51c-1.6-.62-1.92-1.16-2-1.81A1.89,1.89,0,0,1,486,177.72Z"/><path class="cls-24" d="M541.16,194.91l-57.38-4.64c-1.39-.71-1.72-1.36-1.69-2.09A1.82,1.82,0,0,1,484,186.4L541.39,191a1.91,1.91,0,0,1,1.69,2.08A1.84,1.84,0,0,1,541.16,194.91Z"/><path class="cls-25" d="M465.63,218.77l29,28.57a2,2,0,0,1,.12,2.75,1.72,1.72,0,0,1-2.33.32c-.25-.2-29.24-28.8-29.24-28.8a2.1,2.1,0,0,1-.11-2.75A1.71,1.71,0,0,1,465.63,218.77Z"/><path class="cls-26" d="M470.05,209.91a1.74,1.74,0,0,1,2.54-.3L511.79,243a2,2,0,0,1,.33,2.73,1.74,1.74,0,0,1-2.43.41c-.15-.1-39.34-33.47-39.34-33.47A2,2,0,0,1,470.05,209.91Z"/><path class="cls-27" d="M476.38,203.13a2,2,0,0,1-.58-2.65,1.76,1.76,0,0,1,2.5-.62L526.46,232a2,2,0,0,1,.59,2.68,1.74,1.74,0,0,1-2.51.64l-48.13-32.18Z"/><path class="cls-28" d="M537.2,215.56l-56.33-18.77a2.16,2.16,0,0,1-1.21-2.45,1.75,1.75,0,0,1,2.26-1.26l56.33,18.75a2,2,0,0,1,1.21,2.45A1.76,1.76,0,0,1,537.2,215.56Z"/><path class="cls-29" d="M222.08,78.34l91.12-33.5-5-33.88c-1.56.18-3.13.44-4.68.76A242.66,242.66,0,0,0,211,51.84Z"/><path class="cls-30" d="M133.14,142.61l6.28,84.65c93.27,90.68,202.7,110.08,332.86,38.22-14.07-53-9.76-120.12,12.05-148.92a221.26,221.26,0,0,0-50.41-43.74c-26.69-16.77-49.53-22.85-54.21-24C351,41.4,328.23,43.48,313.2,44.84c-44.05,4-75.43,19.91-93,29.06A302.58,302.58,0,0,0,133.14,142.61Z"/><path class="cls-31" d="M399.66,56.43c-7.75,6.13-62,50.57-64.08,126.73-1.84,67.15,38.17,111.11,46.17,119.55,13.22-4.59,52.24-18.29,77.57-29.47,2.15-.94,7.28-3.19,13.75-6.8,12.11-6.74,21.6-11.8,30.73-22.46a82.8,82.8,0,0,0,13.76-22.66c2.66-6.74,9.21-20.49,10.09-39.5a72.34,72.34,0,0,0-1.6-21.59,145.77,145.77,0,0,0-9.51-21.72C485.6,81.18,424.76,62.46,399.66,56.43Z"/><path class="cls-32" d="M372.57,192c.21-11.84,2-43.35,13.76-82.63A343.35,343.35,0,0,1,405.89,59c-1.79-1.12-4.28-2.64-7.29-4.34h0c-10-1.94-19.8-4.67-30.36-5.17-12.37-.59-25.17-1.72-37.35-3.05h0a268.46,268.46,0,0,0-13.72,34c-20.77,63.9-12.32,120.32-4.89,164.18a536.15,536.15,0,0,0,15.14,64.63c9.45-.92,19.58-2.14,30.29-3.74,7.13-1.06,13.91-2.22,20.39-3.42l.18,0a4,4,0,0,1,.76-.13c3.09-.58,6.13-1.17,9.06-1.76-3.18-10.29-10.11-34.19-13.26-60.59a355.4,355.4,0,0,1-2.29-36.28C372.44,198.12,372.53,194.23,372.57,192Z"/><path class="cls-33" d="M368.22,49.46c-8.53-.41-17.26-1.09-25.86-1.89A278,278,0,0,0,328,84.79c-19.68,64.47-10.87,120.2-4.5,157.62A448.86,448.86,0,0,0,339.84,308c5.75-.72,11.69-1.53,17.81-2.47q11-1.67,21-3.54a426.5,426.5,0,0,1-10.33-45.86,416.65,416.65,0,0,1-5.74-64.88s.37-35.11,7-64.27c2.68-11.77,6.22-22.93,6.22-22.93a163.88,163.88,0,0,1,10.58-27.94,188.5,188.5,0,0,1,12.22-21.45C388.55,52.69,378.78,50,368.22,49.46Z"/><path class="cls-34" d="M307,309.39A362.42,362.42,0,0,1,313.2,44.84a96.26,96.26,0,0,0-25.95,3.41C282,49.68,280.88,50.5,276,52.58c0,0-2,.9-7.54,3-11.55,4.38-24.19,4.77-37.76,11.7A66.52,66.52,0,0,0,220.18,74,143.11,143.11,0,0,0,206,99.52c-6.5,15.2-8.73,27.69-10.3,36.86a234.58,234.58,0,0,0-2.8,43.32c1.5,45.81,19.4,90.87,25.37,105.13A246.24,246.24,0,0,0,263,301.76,240.44,240.44,0,0,0,307,309.39Z"/><path class="cls-35" d="M274.42,169.65A395.39,395.39,0,0,1,281.47,116a385.27,385.27,0,0,1,20.87-68.85,212.55,212.55,0,0,0-33.86,8.45,216.27,216.27,0,0,0-36.06,16,249.37,249.37,0,0,0-2.14,218.56A248.59,248.59,0,0,0,263,301.76a243.74,243.74,0,0,0,33.8,6.83C285.75,277.72,271.32,226.45,274.42,169.65Z"/><rect class="cls-36" x="94.6" y="144.04" width="41.73" height="84.8" transform="translate(-13.48 9.05) rotate(-4.24)"/><path class="cls-37" d="M104.79,229.75l27.63-2.05-6.28-84.57-27.62,2.05A252.4,252.4,0,0,1,104.79,229.75Z"/><path class="cls-38" d="M91.52,145.7l6.28,84.57L48.06,267.51a17.28,17.28,0,0,1-24.89-3.05c-30.83-41.59-32.1-105.83,3.47-142a17.25,17.25,0,0,1,22-2.2Z"/><path class="cls-39" d="M91.77,149a168.57,168.57,0,0,1,5.83,78.62L54.67,259.7a14.55,14.55,0,0,1-21.49-2.85C6.49,219.34,5.18,161.46,35.8,129a14.45,14.45,0,0,1,19-1.91Z"/><path class="cls-40" d="M21.35,198.32l66.77-4.95a2.74,2.74,0,0,0-.4-5.45l-66.77,5a2.73,2.73,0,0,0,.4,5.44Z"/><path class="cls-41" d="M19.47,177.21l67.44,3.56a2.67,2.67,0,0,0,2.64-2.58,2.71,2.71,0,0,0-2.45-2.87l-67.42-3.59A2.59,2.59,0,0,0,17,174.32,2.73,2.73,0,0,0,19.47,177.21Z"/><path class="cls-42" d="M26.71,155.81l59,16.34c1.9,0,2.84-.79,3.11-1.94A2.78,2.78,0,0,0,87,166.88l-59-16.35a2.49,2.49,0,0,0-3.07,1.95A2.75,2.75,0,0,0,26.71,155.81Z"/><path class="cls-43" d="M40.35,137.05l44.09,24.57a2.32,2.32,0,0,0,1.35.29,2.5,2.5,0,0,0,2.09-1.43,2.88,2.88,0,0,0-1.12-3.69L42.67,132.23a2.49,2.49,0,0,0-3.44,1.15A2.82,2.82,0,0,0,40.35,137.05Z"/><path class="cls-44" d="M88,197.79,22.13,214.51a2.74,2.74,0,0,0-1.87,3.3A2.63,2.63,0,0,0,23,219.88c.4,0,66.33-16.79,66.33-16.79a2.73,2.73,0,0,0,1.84-3.29A2.52,2.52,0,0,0,88,197.79Z"/><path class="cls-45" d="M88.52,209.7,29.6,236.26a2.82,2.82,0,0,0-1.33,3.59,2.56,2.56,0,0,0,2.52,1.66c.82-.21,59.74-26.78,59.74-26.78a2.78,2.78,0,0,0,1.34-3.57A2.49,2.49,0,0,0,88.52,209.7Z"/><path class="cls-46" d="M88.79,219.19,41,253.69a2.86,2.86,0,0,0-.68,3.8,2.56,2.56,0,0,0,2.34,1.21c1.21-.45,49.05-35,49.05-35a2.81,2.81,0,0,0,.65-3.77A2.44,2.44,0,0,0,88.79,219.19Z"/><path class="cls-47" d="M221,45.12l11.26,27.35,70.06-25.35q-4.57-16.53-9.14-33A242.2,242.2,0,0,0,221,45.12Z"/><path class="cls-48" d="M347.85,162.17l-63.48-36.8c-6.71-3.89-15.46-1.5-19.92,5.48-20.72,32.41-14.76,99.5,31.2,106.27a18.15,18.15,0,0,0,11.79-2.32l31.89-10.32A12,12,0,0,0,347,209.8C342.5,194.82,343.49,178.83,347.85,162.17Z"/><path class="cls-49" d="M284.72,145.48c10-12.32,37.64,1.91,37.64,1.91l-38-22c-6.77-3.92-15.55-1.43-20,5.66-20.56,32.46-14.56,99.33,31.32,106.09a18.39,18.39,0,0,0,11.5-2.15C272,225.85,264.87,169.78,284.72,145.48Z"/><path class="cls-50" d="M339.05,165.39l-44.33-21.85a2,2,0,0,0-1.7,3.51l44.35,21.84c1.71,0,2.21-.36,2.48-.94A1.9,1.9,0,0,0,339.05,165.39Z"/><path class="cls-51" d="M281.63,160.6l54.86,17.3c1.54-.13,2.09-.62,2.33-1.3a1.85,1.85,0,0,0-1.12-2.39l-54.85-17.3a1.89,1.89,0,0,0-2.34,1.3A1.86,1.86,0,0,0,281.63,160.6Z"/><path class="cls-52" d="M342.71,211.21l-37.45,15.62a2,2,0,0,0-1.14,2.51,1.72,1.72,0,0,0,2.05,1.17c.3-.1,37.76-15.73,37.76-15.73a2.11,2.11,0,0,0,1.13-2.52A1.72,1.72,0,0,0,342.71,211.21Z"/><path class="cls-53" d="M341.91,201.32a1.75,1.75,0,0,0-2.25-1.24L291,216.3a2,2,0,0,0-1.32,2.41,1.74,1.74,0,0,0,2.1,1.3c.18,0,48.86-16.27,48.86-16.27A2,2,0,0,0,341.91,201.32Z"/><path class="cls-54" d="M338.56,192.63a2,2,0,0,0,1.52-2.24,1.77,1.77,0,0,0-2.09-1.52L281.46,200.6a2,2,0,0,0-1.54,2.26A1.75,1.75,0,0,0,282,204.4l56.51-11.76Z"/><path class="cls-55" d="M277.62,181.26l59.13,3.79c1.31-.24,1.94-.93,2-1.82a1.76,1.76,0,0,0-1.62-2L278,177.4a2,2,0,0,0-2,1.83A1.78,1.78,0,0,0,277.62,181.26Z"/><path class="cls-56" d="M526.05,160.23l-9.51-21.72c2.89,11.79,6.86,35.2-2.14,59.79-6,16.37-17.46,32.54-46.84,51.54-71.52,46.25-148.61,44.24-154.5,44-68.08-2.65-118.83-31.34-144-48.23-22.63-14.52-28.85-18.18-29.64-18.36h0c-.16.24,34,34.35,77.37,56.68,12.28,6.32,38.29,19.43,74.15,24,29,3.66,53.13.3,70.77-2.15,13.48-1.88,23.52-3.27,37.08-7.4,21.35-6.51,41.31-16.62,60.53-25.11,2-.89,7.2-3.15,13.75-6.8,12.11-6.74,21.6-11.8,30.73-22.46a82.8,82.8,0,0,0,13.76-22.66c2.66-6.74,9.21-20.49,10.09-39.5A72.34,72.34,0,0,0,526.05,160.23Z"/></g><path class="cls-57" d="M482.63,138.21l27.86,13.44s0-9-11.41-14.41S482.63,138.21,482.63,138.21Z"/><path class="cls-57" d="M435.45,135.2l-42.52,15.86s.78-13.26,18.19-19.57S435.45,135.2,435.45,135.2Z"/><path class="cls-57" d="M444.64,168.56c-1.25,2-8.52-4.41-15-1.23-6.05,2.95-6.42,11.66-8.61,11.31-1.92-.3-3.92-7.65-1.39-13.4a13.51,13.51,0,0,1,15.52-7.4C441.52,159.62,445.74,166.79,444.64,168.56Z"/><path class="cls-57" d="M492.05,172.12c-1.67.69-3.69-7-9.31-8.14-5.21-1-9.16,4.39-10.45,3.09-1.13-1.13.7-6.85,4.81-9.31s10.13-1.15,13.3,2.8C493.83,164.84,493.53,171.52,492.05,172.12Z"/><path class="cls-57" d="M428,196.89a44.34,44.34,0,0,0,7.95,17.32c.12.17.3.39.51.65,2.86,3.65,12.77,15.39,26.16,14.46a23.22,23.22,0,0,0,9-2.54l1.27-1.41.93-1a39.57,39.57,0,0,0,4.4-8.45,40.43,40.43,0,0,0,2.36-10.63l2-9s-19.41,8.1-55.5-7.86A38,38,0,0,0,428,196.89Z"/><g class="cls-58"><path class="cls-59" d="M427.87,196.79a84.88,84.88,0,0,0,52.54,8.38l2-9.07s-19.42,8.11-55.5-7.84A38.18,38.18,0,0,0,427.87,196.79Z"/><path class="cls-60" d="M428.05,216.31c-2.6,4-2.57,6.66-2.29,8.18,1.87,10,23.48,15.45,40.5,12.93a53.69,53.69,0,0,0,13.08-3.7,1.33,1.33,0,0,1,.93-1,1.29,1.29,0,0,1,1.08.27h0c-.82-.46,1.57,1.35,2.49,1.28s2-2,2.87-11l-.07,0c-19.49-14-40.25-12.24-54.23-8.2C430.88,215.41,429.42,215.85,428.05,216.31Z"/><path class="cls-61" d="M483.84,234.23C480,230,472.5,223,461.37,220.05a43.8,43.8,0,0,0-16-1.1c-9.44,1.11-19.54,5.53-19.58,5.54h0A73.8,73.8,0,0,0,451.87,236a70.45,70.45,0,0,0,27.25.66"/></g></g></g></svg>