<svg xmlns="http://www.w3.org/2000/svg" xmlns:xlink="http://www.w3.org/1999/xlink" viewBox="0 0 493.92 390.94"><defs><style>.cls-1{fill:#d1c3ff;}.cls-2{fill:url(#linear-gradient);}.cls-3{fill:url(#linear-gradient-2);}.cls-4{fill:#9d8bec;}.cls-5{fill:url(#linear-gradient-3);}.cls-6{fill:url(#linear-gradient-4);}.cls-7{fill:url(#linear-gradient-5);}.cls-8{fill:url(#linear-gradient-6);}.cls-9{fill:url(#linear-gradient-7);}.cls-10{fill:url(#linear-gradient-8);}.cls-11{fill:url(#linear-gradient-9);}.cls-12{fill:url(#linear-gradient-10);}.cls-13{fill:url(#linear-gradient-11);}.cls-14{fill:url(#linear-gradient-12);}.cls-15{fill:url(#linear-gradient-13);}.cls-16{fill:url(#linear-gradient-14);}.cls-17{fill:#c9b7ff;}.cls-18{fill:#3b2b0a;opacity:0.1;}.cls-19{fill:url(#linear-gradient-15);}.cls-20{fill:url(#linear-gradient-16);}.cls-21{fill:#1a2939;}</style><linearGradient id="linear-gradient" x1="454.62" y1="200.69" x2="484.94" y2="200.69" gradientUnits="userSpaceOnUse"><stop offset="0" stop-color="#9d8bec"/><stop offset="1" stop-color="#c9b6ff"/></linearGradient><linearGradient id="linear-gradient-2" x1="450.89" y1="211.97" x2="490.22" y2="211.97" xlink:href="#linear-gradient"/><linearGradient id="linear-gradient-3" x1="236.59" y1="266.63" x2="311.99" y2="266.63" xlink:href="#linear-gradient"/><linearGradient id="linear-gradient-4" x1="205.62" y1="282.78" x2="316.02" y2="282.78" xlink:href="#linear-gradient"/><linearGradient id="linear-gradient-5" x1="255.2" y1="113.33" x2="295.9" y2="113.33" xlink:href="#linear-gradient"/><linearGradient id="linear-gradient-6" x1="269.72" y1="105.38" x2="324.46" y2="105.38" xlink:href="#linear-gradient"/><linearGradient id="linear-gradient-7" x1="316.62" y1="87.69" x2="396.78" y2="87.69" xlink:href="#linear-gradient"/><linearGradient id="linear-gradient-8" x1="285.15" y1="99.43" x2="361.99" y2="99.43" xlink:href="#linear-gradient"/><linearGradient id="linear-gradient-9" x1="333.61" y1="76.82" x2="419.8" y2="76.82" xlink:href="#linear-gradient"/><linearGradient id="linear-gradient-10" x1="301.28" y1="93.94" x2="378.15" y2="93.94" xlink:href="#linear-gradient"/><linearGradient id="linear-gradient-11" x1="295.45" y1="166.89" x2="34" y2="179.34" xlink:href="#linear-gradient"/><linearGradient id="linear-gradient-12" x1="300.03" y1="262.9" x2="38.57" y2="275.35" xlink:href="#linear-gradient"/><linearGradient id="linear-gradient-13" x1="291.12" y1="75.84" x2="29.67" y2="88.29" xlink:href="#linear-gradient"/><linearGradient id="linear-gradient-14" x1="342.2" y1="104.82" x2="340.42" y2="286.4" xlink:href="#linear-gradient"/><linearGradient id="linear-gradient-15" x1="312.68" y1="203.85" x2="359.56" y2="203.85" xlink:href="#linear-gradient"/><linearGradient id="linear-gradient-16" x1="293.45" y1="213.9" x2="362.07" y2="213.9" xlink:href="#linear-gradient"/></defs><g id="Layer_2" data-name="Layer 2"><g id="Layer_1-2" data-name="Layer 1"><path class="cls-1" d="M454.68,179.61c8.61,8.87,18,14.78,28.7,16.57a6.32,6.32,0,0,1,4.93,8c-3.48,12.26-1.23,25.72,5.35,40.21a2.86,2.86,0,0,1-3.83,3.75C464,236,446.24,217.66,451.05,182.63Z"/><path class="cls-2" d="M482.09,219.9C463,208.62,454,196,454.64,181.33c8.76,8.79,18.41,15.81,29.41,19.12a1.24,1.24,0,0,1,.83,1.53,1.28,1.28,0,0,1-1.54.83,54.39,54.39,0,0,1-22.42-13.47c5.4,9.24,13.75,16.74,21.84,19.18a1.26,1.26,0,0,1,.81,1.56,1.31,1.31,0,0,1-1.51.85,33,33,0,0,1-6.41-2.94c-7-4.15-13.68-11.34-18-19.55,2.79,14.15,15.66,23.36,25.74,29.3a1.27,1.27,0,0,1,.42,1.7A1.25,1.25,0,0,1,482.09,219.9Z"/><path class="cls-3" d="M453.6,181.6c1.11,20.53,12,36.54,32.4,47.53a1.33,1.33,0,0,1,.51,1.68,1.23,1.23,0,0,1-1.69.45c-15.8-8.47-26.11-19.91-30.8-34,2.83,19,14.57,33.07,35.5,42.83a1.35,1.35,0,0,1,.62,1.62,1.24,1.24,0,0,1-1.64.6,82,82,0,0,1-8.16-4.21c-21.67-12.77-31.18-31.37-29.19-56.48Z"/><path class="cls-4" d="M317.3,254.67c-18.5,7.06-36.3,9.34-53,4.78a10.13,10.13,0,0,0-12.65,8.23c-3.25,20.24-15.66,38.44-35,55.15a4.6,4.6,0,0,0,3,8.06c46-.27,84.21-15,101-69.31Z"/><path class="cls-1" d="M313.71,257.58c-19.71,1.92-37.45-.66-52.4-9.45a10.14,10.14,0,0,0-14.37,4.66c-8.5,18.63-25.34,32.84-48.36,43.81a4.62,4.62,0,0,0,.78,8.62c44.43,11.94,85.16,7.87,115.7-40.11Z"/><path class="cls-5" d="M238.24,278.54c35.13,6,59.26-.15,73.75-18.75-19.9,1.6-39,.2-56-7.14a2,2,0,0,0-2.6,1,2,2,0,0,0,1,2.6,84.13,84.13,0,0,0,19.65,5.83A86.65,86.65,0,0,0,296,263c-16.27,5.68-34.35,6.32-46.82.95a1.91,1.91,0,0,0-2.6,1,1.94,1.94,0,0,0,1,2.6,48.43,48.43,0,0,0,10.85,3.13c13,2.22,28.61.24,42.49-5.35-18.12,14.52-43.54,12.5-62.06,9.33a1.93,1.93,0,0,0-2.28,1.62A2,2,0,0,0,238.24,278.54Z"/><path class="cls-6" d="M313,261.17c-22.72,24.09-52.76,32.41-89.21,24.73a1.94,1.94,0,0,0-2.34,1.47,2,2,0,0,0,1.51,2.34c28.25,6,52.78,2.72,73.24-9.78-23.15,20.39-52.17,25.46-88.07,15.7a2,2,0,1,0-1,3.84q7.38,1.95,14.36,3.16c39.89,6.82,70.87-6,94.55-39Z"/><path class="cls-1" d="M422.47,112.37c-11.22-32.68-22.71-55.08-57.17-75.31C343.15,24,278,55.22,243.15,124.34l1.38,8.66,140.14,5.11Z"/><path class="cls-7" d="M283.88,128.28l12,1.21a286.63,286.63,0,0,0-36.26-32.31c-1.52,2.06-3,4.24-4.44,6.39A284.42,284.42,0,0,1,283.88,128.28Z"/><path class="cls-8" d="M274.92,78.51c-1.71,1.92-3.45,3.85-5.2,5.87a161.57,161.57,0,0,1,45.14,46.94l9.6.94A169,169,0,0,0,274.92,78.51Z"/><path class="cls-9" d="M324.68,41.38c-2.64,1.21-5.34,2.55-8.06,4,33.88,19.43,54.65,55.44,73.55,88.55.19.28,6.61-4.08,6.61-4.08C377.85,96.81,357.18,62.09,324.68,41.38Z"/><path class="cls-10" d="M297.34,66.27c-1.95-1.14-4-2.26-6-3.38-2.09,1.69-4.13,3.52-6.22,5.42a165,165,0,0,1,59.63,53.54,151.54,151.54,0,0,1,8,13.17L362,136A173.19,173.19,0,0,0,297.34,66.27Z"/><path class="cls-11" d="M358,45.15c-4.66-3.47-9.36-6.88-14.28-10.08a70.21,70.21,0,0,0-10.15,2.73,243,243,0,0,1,71.45,67.82c2.94,4.21,5.69,8.55,8.32,12.95l6.42-4.36A252.42,252.42,0,0,0,358,45.15Z"/><path class="cls-12" d="M377.88,136.6a170.88,170.88,0,0,0-62.17-81.31c-2.42-1.69-4.93-3.35-7.44-4.91-2.33,1.47-4.66,3.12-7,4.8a163.55,163.55,0,0,1,57.86,59.15,165.77,165.77,0,0,1,10.56,22.32l8.45.84C378.09,137.2,378,136.93,377.88,136.6Z"/><path class="cls-1" d="M31.37,0c-9.82,7.73-7.63,23.15-2.92,34.81s10.92,24.27,6.39,35.94C31.2,79.92,21.15,86.52,20.62,96.47c-.56,10.23,9.55,19.11,7.86,29.18C27.43,132,22,136.6,17.42,141.1s-9.11,10.63-7.49,16.82c1.85,7.33,11.14,11.28,11.8,18.76.48,5.44-4,10-8.41,13.11s-9.64,5.9-12,10.82c-5.87,12.07,9.2,24.9,8.39,38.29-.56,9.66-9.44,18.33-7,27.76,2.85,11,19.75,15.39,19.56,26.81-.16,6.46-6.16,11.28-8,17.45-2.73,9.33,4.23,18.31,10.3,25.87s12,17.76,7.32,26.23c-4,7.35-15.17,11.67-13.56,20,1.25,6.52,9.79,8.26,16.47,7.93,25-1.3,66.89-31.59,83.27-54.23l95.34-138.59,9.89-72.44Z"/><path class="cls-13" d="M28.48,125.65a13,13,0,0,1-1.1,3.58l177.4,30.34-195-6.29a10.84,10.84,0,0,0,.16,4.64c1.85,7.33,11.14,11.28,11.8,18.76a9.62,9.62,0,0,1-.5,4l182.39-11L192.79,173l-13.93,4.18-13.92,4.13-14,3.95-14,3.81-14,3.73-14,3.59-14.09,3.47-14.1,3.34-14.13,3.29L52.4,209.59l-14.2,2.88L24,215.3,9.77,218l-6.18,1.1c3,6.42,6.59,13,6.16,19.83C9.76,239,14,238,14,238l14.23-3.49,14.27-3.69,14.1-3.75,14.13-3.93,14.08-4,14-4.19,14-4.27,14-4.4,13.89-4.57L154.59,197l13.86-4.79,13.73-4.87,13.71-5,13.69-5.06,7.06-2.74,2.83-20.65-191-32.66A14.57,14.57,0,0,1,28.48,125.65Z"/><path class="cls-14" d="M216.54,175.32l-11.32,7.26-14.16,8.82L176.8,200l-14.36,8.39c-4.8,2.74-9.63,5.4-14.46,8.1s-9.72,5.35-14.57,7.94-9.83,5.12-14.74,7.7-9.87,5-14.82,7.51-9.94,4.78-14.85,7.14-10,4.63-15,7-10.06,4.42-15.1,6.69l-15.23,6.45C38.54,269,33.44,271,28.33,273.05L13,278.92c4.58,4.34,9.37,8.44,9.28,14.55-.14,5.54-4.54,9.87-6.95,14.88l8.37-3.85L39,297.1c5.05-2.51,10.13-5,15.15-7.59s10-5.23,15-7.89S79,276.15,84,273.44s9.82-5.51,14.67-8.31,9.72-5.7,14.52-8.65,9.62-5.79,14.39-8.78,9.53-6,14.23-9,9.4-6.14,14.05-9.22,9.33-6.3,13.92-9.5l13.81-9.65,13.63-9.83,10.41-7.76c-.52.61-1.11,1.18-1.65,1.83-3.75,4-7.58,8.07-11.39,12s-7.64,8-11.48,11.88c-2,2-3.88,4-5.84,5.91s-3.91,3.91-5.85,5.83c-3.95,3.88-7.88,7.75-11.88,11.54s-8,7.62-12,11.34Q135.37,264.33,122.88,275c-8.38,7.2-16.83,14.17-25.43,21s-17.36,13.35-26.32,19.75c-2.16,1.53-4.41,3.12-6.68,4.67S60,323.5,57.71,325l-3.38,2.27-3.46,2.27c-2.26,1.51-4.55,2.92-6.84,4.39-4.63,2.95-9.27,5.78-14,8.57,3,7,5.32,14.2,1.85,20.51a20.32,20.32,0,0,1-3.32,4.36l5.06-3.18c2.37-1.5,4.74-3,7.15-4.56,4.69-3.11,9.36-6.29,13.94-9.56,2.35-1.61,4.64-3.26,6.93-4.88l3.42-2.51,3.35-2.49c2.3-1.69,4.52-3.35,6.75-5.08s4.45-3.51,6.63-5.18q13.26-10.47,26-21.5c8.49-7.39,16.74-14.86,24.9-22.59s16.08-15.54,23.85-23.47q5.9-6,11.64-12c3.83-4.06,7.67-8.13,11.39-12.21,2-2.1,3.81-4.14,5.69-6.25s3.69-4.09,5.57-6.2c3.69-4.09,7.37-8.29,11-12.53,2.07-2.43,4.18-4.85,6.22-7.29l5.38-7.78Z"/><path class="cls-15" d="M34.65,71.07c-2.9,7-9.41,12.59-12.42,19.26l197.69,60.06,2.37-17.18L24.45,17.38a53,53,0,0,0,4,17.43c.24.64.49,1.24.76,1.89l189.29,104Z"/><path class="cls-16" d="M473.71,189.83c-.83,15.61-3.59,25.64-14.72,37.07a124.54,124.54,0,0,1-14.58,12.45,24.5,24.5,0,0,0-3,2.6h0c-2.88,1.65-5.75,3.26-8.6,4.8-.81.45-1.62.88-2.43,1.31q-2.08,1.13-4.17,2.2l-2.76,1.42c-2.66,1.35-5.32,2.65-7.95,3.9-.79.38-1.6.76-2.39,1.12l-2.49,1.15-2.42,1.08L405.77,260c-5,2.17-10,4.16-14.88,5.93-1.4.5-2.79,1-4.18,1.46l-1.09.37-1,.32q-2.46.82-4.9,1.55c-.57.18-1.12.35-1.68.51-2.52.74-5,1.42-7.5,2l-2.26.55c-1.51.36-3,.69-4.5,1-.75.16-1.48.31-2.23.45l-2.22.42c-1.35.25-2.69.48-4,.66l-.84.14-1.52.21-.52.07q-3.1.42-6.14.68a112.55,112.55,0,0,1-22.29-.18c-1.92-.21-3.82-.49-5.69-.82,0,0,0,0,0,0a83.88,83.88,0,0,1-19.66-5.91c-1.12-.51-2.25-1-3.35-1.59a73.28,73.28,0,0,1-6.5-3.66c-.53-.33-1.06-.67-1.58-1q-2-1.32-4-2.81c-.44-.32-.88-.66-1.32-1L280.27,258c-.71-.59-1.43-1.21-2.13-1.84-1-.85-1.92-1.74-2.87-2.65a94.85,94.85,0,0,1-10.68-12.44c-1.49-2.09-3-4.28-4.37-6.57-.94-1.51-1.85-3.05-2.73-4.65a161.47,161.47,0,0,1-14.11-35.45s0,0,0,0h0L211,197.67c-4.24-26.66-1.58-51.12,10.5-72.34l23,7.67c65.17-48.64,103.37-67.29,147-44.14,15.24,8.07,31.14,21.24,49.06,40q3.83,4,7.75,8.31,7.61,8.34,15.71,17.94C468.5,163.15,474.41,176.56,473.71,189.83Z"/><path class="cls-1" d="M473.71,189.83c-.83,15.61-3.59,25.64-14.72,37.07a124.54,124.54,0,0,1-14.58,12.45,24.5,24.5,0,0,0-3,2.6h0c-2.88,1.65-5.75,3.26-8.6,4.8-.81.45-1.62.88-2.43,1.31q-2.08,1.13-4.17,2.2l-2.76,1.42c-2.66,1.35-5.32,2.65-7.95,3.9-.79.38-1.6.76-2.39,1.12l-2.49,1.15-2.42,1.08L405.77,260c-5,2.17-10,4.16-14.88,5.93-1.4.5-2.79,1-4.18,1.46l-1.09.37h0A145.07,145.07,0,0,1,374,256.09a142.53,142.53,0,0,1-22.33-33.68c-6.34-13.38-17-35.86-13-62.81,5.82-39.41,39.1-62.63,52.88-70.74,15.24,8.07,31.14,21.24,49.06,40q3.83,4,7.75,8.31,7.61,8.34,15.71,17.94C468.5,163.15,474.41,176.56,473.71,189.83Z"/><path class="cls-17" d="M473.71,189.83c-.83,15.61-3.59,25.64-14.72,37.07a124.54,124.54,0,0,1-14.58,12.45,24.5,24.5,0,0,0-3,2.6h0c-2.88,1.65-5.75,3.26-8.6,4.8-.81.45-1.62.88-2.43,1.31q-2.08,1.13-4.17,2.2l-2.76,1.42c-2.66,1.35-5.32,2.65-7.95,3.9-.79.38-1.6.76-2.39,1.12l-2.49,1.15-2.42,1.08L405.77,260c-5,2.17-10,4.16-14.88,5.93-1.4.5-2.79,1-4.18,1.46l-1.09.37h0A145.07,145.07,0,0,1,374,256.09a142.53,142.53,0,0,1-22.33-33.68c-6.34-13.38-17-35.86-13-62.81,5.82-39.41,39.1-62.63,52.88-70.74,15.24,8.07,31.14,21.24,49.06,40q3.83,4,7.75,8.31,7.61,8.34,15.71,17.94C468.5,163.15,474.41,176.56,473.71,189.83Z"/><path class="cls-18" d="M444.41,239.35a24.5,24.5,0,0,0-3,2.6h0c-2.88,1.65-5.75,3.26-8.6,4.8-.81.45-1.62.88-2.43,1.31q-2.08,1.13-4.17,2.2l-2.76,1.42c-2.66,1.35-5.32,2.65-7.95,3.9-.79.38-1.6.76-2.39,1.12l-2.49,1.15-2.42,1.08L405.77,260c-5,2.17-10,4.16-14.88,5.93-1.4.5-2.79,1-4.18,1.46-.36.13-.73.25-1.1.36s-.65.23-1,.33q-2.46.82-4.9,1.55c-.57.18-1.12.35-1.68.51-2.52.74-5,1.42-7.5,2l-2.26.55c-1.51.36-3,.69-4.5,1-.75.16-1.48.31-2.23.45l-2.22.42c-1.34.25-2.69.47-4,.66l-.84.14-1.52.21-.52.07q-3.1.4-6.14.68a112.55,112.55,0,0,1-22.29-.18c-1.92-.22-3.82-.5-5.69-.82,0,0,0,0,0,0a84.84,84.84,0,0,1-19.66-5.91c-1.12-.51-2.25-1-3.35-1.59-2.21-1.11-4.38-2.34-6.5-3.66-.53-.33-1.06-.67-1.58-1q-2-1.32-4-2.81c-.44-.32-.88-.66-1.32-1L280.27,258c-.71-.59-1.43-1.21-2.13-1.84-1-.85-1.92-1.74-2.87-2.65a94.85,94.85,0,0,1-10.68-12.44c-1.5-2.1-3-4.28-4.37-6.57-.94-1.51-1.85-3.05-2.73-4.65a161.05,161.05,0,0,1-14.13-35.48l0,0c26.39,39.77,53.38,54.31,74,60,18,4.93,37.52,4.77,56.65,1.71,32.1-5.1,63.24-18.33,85-29.19A124.54,124.54,0,0,1,444.41,239.35Z"/><path class="cls-1" d="M360.63,198.22c-12.29,1.21-23.3-.35-32.6-5.89a6.31,6.31,0,0,0-8.92,2.91c-5.27,11.61-15.69,20.44-30.07,27.24a2.87,2.87,0,0,0,.5,5.34c27.62,7.43,53,4.9,71.92-24.95Z"/><path class="cls-19" d="M313.69,211.27c21.88,3.74,36.84-.12,45.87-11.72-12.37,1.06-24.27.19-34.8-4.4a1.24,1.24,0,0,0-1.62.64,1.29,1.29,0,0,0,.63,1.63,54.43,54.43,0,0,0,25.82,4.2c-10.09,3.56-21.32,3.89-29.06.53a1.26,1.26,0,0,0-1.63.67,1.29,1.29,0,0,0,.61,1.62,32.5,32.5,0,0,0,6.79,1.9c8.05,1.38,17.76.18,26.39-3.27-11.26,9-27,7.7-38.58,5.73a1.26,1.26,0,0,0-1.41,1A1.25,1.25,0,0,0,313.69,211.27Z"/><path class="cls-20" d="M360.18,200.44c-14.11,14.95-32.76,20.15-55.44,15.36a1.31,1.31,0,0,0-1.47.94,1.22,1.22,0,0,0,1,1.44c17.54,3.74,32.8,1.66,45.51-6.1-14.43,12.68-32.48,15.83-54.77,9.77a1.33,1.33,0,0,0-1.51.83,1.25,1.25,0,0,0,.86,1.52,83.54,83.54,0,0,0,8.95,2.06c24.79,4.24,44.07-3.81,58.77-24.27Z"/><path class="cls-21" d="M427.35,136.94l33.11-1.18s-4.5-8.56-18-8S427.35,136.94,427.35,136.94Z"/><path class="cls-21" d="M403.55,138.31l-48.46-3.6s6.68-12.55,26.45-10.9S403.55,138.31,403.55,138.31Z"/><path class="cls-21" d="M401.26,162.4c-2.23-.61-5.69,4.23-13.45,4.43-7.19.2-12.07-3.74-13.94-3-1.64.63.32,4.54,5.68,6.55s13.69,1.72,18.37-.57C403,167.33,403.21,162.93,401.26,162.4Z"/><path class="cls-21" d="M451.07,162.73c-1.65-.51-5.18,3.32-11.32,3.4-5.69.08-8.87-3.11-10.46-2.55-1.4.49-.51,3.63,3.37,5.29s10.49,1.51,14.55-.26C451.61,166.69,452.51,163.17,451.07,162.73Z"/><path class="cls-21" d="M401.14,179.45c.06,4.41,4.08,7.69,7.88,9.05a26.4,26.4,0,0,0,14.37.63,14.7,14.7,0,0,0,8.25-4.85,9.94,9.94,0,0,0,2.2-4.44c.29-1.88-2.6-2.7-2.89-.79a5.27,5.27,0,0,1-1,2.51,10.65,10.65,0,0,1-5.61,4.19,23.4,23.4,0,0,1-12.8.36c-2.43-.6-5.05-1.87-6.33-3.89a5.44,5.44,0,0,1-.92-2.11c-.07-.28-.14-.86-.09-.38a2.64,2.64,0,0,1,0-.28,1.5,1.5,0,0,0-3,0Z"/></g></g></svg>