<svg id="Layer_1" data-name="Layer 1" xmlns="http://www.w3.org/2000/svg" xmlns:xlink="http://www.w3.org/1999/xlink" viewBox="0 0 1125 1626"><defs><style>.cls-1{fill:none;}.cls-2{clip-path:url(#clip-path);}.cls-3{fill:url(#linear-gradient);}.cls-4{opacity:0.25;fill:url(#linear-gradient-2);}.cls-5{clip-path:url(#clip-path-2);}.cls-6{fill:url(#linear-gradient-3);}.cls-7{opacity:0.35;fill:url(#linear-gradient-4);}.cls-12,.cls-8{fill:#f2f2f2;}.cls-17,.cls-8{opacity:0.15;}.cls-9{fill:url(#linear-gradient-5);}.cls-10{fill:url(#linear-gradient-8);}.cls-11{fill:#121e44;}.cls-13{fill:#b40f15;}.cls-14{fill:#02102b;}.cls-15{fill:#a50d14;}.cls-16{fill:url(#linear-gradient-9);}.cls-17{fill:#009245;}</style><clipPath id="clip-path"><rect class="cls-1" y="-1637" width="1125" height="1617"/></clipPath><linearGradient id="linear-gradient" x1="562.38" y1="102.03" x2="562.38" y2="-613.65" gradientUnits="userSpaceOnUse"><stop offset="0" stop-color="#4835a8"/><stop offset="1" stop-color="#6161aa"/></linearGradient><linearGradient id="linear-gradient-2" x1="10589.82" y1="-8225.94" x2="10589.82" y2="-8941.63" gradientTransform="translate(11152.2 -8829.95) rotate(180)" gradientUnits="userSpaceOnUse"><stop offset="0" stop-color="#4b1e73"/><stop offset="1" stop-color="#140037"/></linearGradient><clipPath id="clip-path-2"><rect class="cls-1" y="19" width="1125" height="1617"/></clipPath><linearGradient id="linear-gradient-3" x1="562.76" y1="1757.59" x2="562.76" y2="1041.9" xlink:href="#linear-gradient"/><linearGradient id="linear-gradient-4" x1="562.76" y1="1757.59" x2="562.76" y2="1041.9" gradientUnits="userSpaceOnUse"><stop offset="0" stop-color="#54c8f3"/><stop offset="1" stop-color="#37c2ec"/></linearGradient><linearGradient id="linear-gradient-5" x1="401.71" y1="974.13" x2="449.3" y2="895.95" gradientUnits="userSpaceOnUse"><stop offset="0" stop-color="#0b1628"/><stop offset="1" stop-color="#0f1d38"/></linearGradient><linearGradient id="linear-gradient-8" x1="396.39" y1="982.63" x2="392.53" y2="1039.12" gradientUnits="userSpaceOnUse"><stop offset="0" stop-color="#25336d"/><stop offset="1" stop-color="#0f1d38"/></linearGradient><linearGradient id="linear-gradient-9" x1="182.69" y1="845.21" x2="134.72" y2="1071.57" xlink:href="#linear-gradient-8"/></defs><g class="cls-2"><rect class="cls-3" x="-0.12" y="-643.99" width="1125" height="786"/><rect class="cls-4" x="-0.12" y="-643.99" width="1125" height="786"/></g><g class="cls-5"><rect class="cls-6" x="0.26" y="1011.57" width="1125" height="786"/><rect class="cls-7" x="0.26" y="1011.57" width="1125" height="786"/><path class="cls-8" d="M884.1,1088.16c11.2-5.57,38.68.5,81.39-1.24,8.83-.37,26-1.37,35.15-3v-5c-16.59-4.24-64.37-9.62-114.93-9.53-53.37.09-98.4,6.26-109.17-1.07-2.94-2-1.85-3.54-1.85-3.54,1.06-1.41,4.52-2.19,6.61-2.6,15.88-3.15,47.59-4.12,58.93-4.48,13.24-.41,14.58-.46,18.5-.52,16.52-.23,19.93.33,30.82,0,12.45-.37,29.5-1.75,29.52-3.24s-16.59-2.6-19.38-2.79c-18.28-1.24-24.17.24-42.28.21-23,0-22.74-2.45-55.24-3.23-13.14-.31-21.63-.12-22-1-.85-1.77,27.85-5.13,27.85-5.13l4.69-1.45H612.34l6.83,1.45s41.8,3.36,40.56,5.13c-.62.89-13,.7-32.12,1-47.31.78-46.86,3.19-80.42,3.23-26.38,0-35-1.45-61.56-.21-4.07.19-28.26,1.32-28.22,2.79s24.85,2.87,43,3.24c15.84.33,20.81-.23,44.87,0,5.7.06,7.66.11,26.93.52,16.52.36,62.69,1.33,85.81,4.48,3,.41,8.07,1.19,9.62,2.6,0,0,1.59,1.53-2.7,3.54-15.68,7.33-81.23,1.16-158.95,1.07-73.62-.09-143.17,5.29-167.34,9.53v5c13.38,1.58,38.33,2.58,51.18,3,62.19,1.74,102.2-4.33,118.51,1.24.88.31,7.23,2.47,5,4.58-5.27,5-52,3.47-115.05,10.72-16.37,1.88-24.24,2.85-24.43,4.11-.64,4.27,58.29,9.23,181.23,9,61.14-.09,110.36-.11,148.26-.11v.06q10.89,0,27.78,0c16.39,0,29.83,0,40.4,0v-.06c22.38,0,49.14,0,80.47.11,84.44.19,124.91-4.77,124.47-9-.13-1.26-5.54-2.23-16.78-4.11-43.32-7.25-75.4-5.73-79-10.72C879.13,1090.63,883.49,1088.47,884.1,1088.16Z"/><path class="cls-9" d="M51.26,795.8s288.25-62.72,406.62,55.64S451,924.35,616.61,944.57s75.24,88.76,202.45,98H51.26Z"/><path class="cls-9" d="M51.26,795.8s288.25-62.72,406.62,55.64S451,924.35,616.61,944.57s75.24,88.76,202.45,98H51.26Z"/><path class="cls-9" d="M51.26,795.8s288.25-62.72,406.62,55.64S451,924.35,616.61,944.57s75.24,88.76,202.45,98H51.26Z"/><path class="cls-10" d="M543.26,1015.45c-7.46,1.4-16.65,6.92-25.34,14.44-16.93,14.63-32,36.8-28.66,50.68,5,21,14,17,14,27s3,11-121,6c-35.06-1.41-62.61-13.14-84.08-29.23-54.49-40.83-69.92-109.77-69.92-109.77s128.8-8,206.9,12.5,77.1,5.5,108.1,13.5S565.26,1011.33,543.26,1015.45Z"/><path class="cls-11" d="M489.26,1080.57c5,21,14,17,14,27s3,11-121,6c-35.06-1.41-62.61-13.14-84.08-29.23l-20.92-31.77,60-27s129.32,22.64,180.66,4.32C501,1044.52,486,1066.69,489.26,1080.57Z"/><polygon class="cls-12" points="369.25 1008.57 365.25 965.57 287.25 965.57 282.41 1008.57 369.25 1008.57"/><polygon class="cls-12" points="297.25 965.57 359.31 965.57 351.25 840.57 306.18 840.57 297.25 965.57"/><polygon class="cls-13" points="369.25 972.57 365.25 962.57 287.25 962.57 282.41 972.57 369.25 972.57"/><rect class="cls-14" x="308.26" y="823.57" width="41" height="10"/><rect class="cls-12" x="306.26" y="786.57" width="45" height="38"/><rect class="cls-14" x="327.26" y="744.57" width="4" height="18" rx="1.92"/><path class="cls-14" d="M332.83,757.57h-7.22a3.13,3.13,0,0,0-2.28,1l-21.2,22.77a3.12,3.12,0,0,0,2.28,5.24h48a3.11,3.11,0,0,0,2.36-5.15l-19.63-22.77A3.11,3.11,0,0,0,332.83,757.57Z"/><polygon class="cls-14" points="357.25 835.57 354.58 843.57 302.49 843.57 299.25 835.57 357.25 835.57"/><rect class="cls-15" x="299.26" y="828.13" width="58" height="7.44"/><path class="cls-16" d="M-202.74,665.11s175.61,4,239,54.4S218.41,774.8,252.56,969.93c0,0,104.07,35.78,130.09,91.06s73.17,71.55,113.83,91.06l40.65,19.52a652.76,652.76,0,0,0-123.87,0c-44.13,4.18-56.84,9.89-95,12-53,2.92-57.81-6.47-134-12-29.5-2.14-76-1.76-169-1-41.7.34-46.87.69-87,1-55.75.43-101.13.23-131,0Z"/><path class="cls-17" d="M-202.74,665.11s175.61,4,239,54.4S218.41,774.8,252.56,969.93c0,0,104.07,35.78,130.09,91.06s73.17,71.55,113.83,91.06l40.65,19.52a652.76,652.76,0,0,0-123.87,0c-44.13,4.18-56.84,9.89-95,12-53,2.92-57.81-6.47-134-12-29.5-2.14-76-1.76-169-1-41.7.34-46.87.69-87,1-55.75.43-101.13.23-131,0Z"/></g></svg>