<svg xmlns="http://www.w3.org/2000/svg" xmlns:xlink="http://www.w3.org/1999/xlink" viewBox="0 0 1125 1626"><defs><style>.cls-1,.cls-23,.cls-27{fill:none;}.cls-2{isolation:isolate;}.cls-19,.cls-3{opacity:0.2;}.cls-3{fill:url(#linear-gradient);}.cls-4{fill:#af5d20;}.cls-5{fill:#edeef1;}.cls-12,.cls-6{fill:#1b1f6b;}.cls-7{fill:#d1d5db;}.cls-8{fill:#141750;}.cls-9{fill:#dd7957;}.cls-10{fill:#dd890e;}.cls-11{fill:#2f6c7f;}.cls-11,.cls-12{opacity:0.5;mix-blend-mode:multiply;}.cls-13{fill:#eda024;}.cls-14{fill:#f08d63;}.cls-15{fill:#5d291b;}.cls-16{fill:#fefefe;}.cls-17{fill:#441a11;}.cls-18{fill:#5c3f2d;}.cls-20{fill:url(#linear-gradient-2);}.cls-21{fill:#9da0a4;}.cls-22{fill:#c4c6c8;}.cls-23{stroke:#f2f2f2;}.cls-23,.cls-27{stroke-miterlimit:10;}.cls-24{fill:url(#linear-gradient-3);}.cls-25{fill:url(#linear-gradient-4);}.cls-26{fill:#452f22;}.cls-27{stroke:#452f22;stroke-width:6px;}.cls-28{clip-path:url(#clip-path);}.cls-29{fill:url(#linear-gradient-5);}</style><linearGradient id="linear-gradient" x1="109" y1="1340.38" x2="1128" y2="1340.38" gradientUnits="userSpaceOnUse"><stop offset="0" stop-color="#0f1d38"/><stop offset="0.03" stop-color="#0b1628"/><stop offset="1" stop-color="#0f1d38"/></linearGradient><linearGradient id="linear-gradient-2" x1="96.44" y1="1257.46" x2="236.9" y2="1257.46" xlink:href="#linear-gradient"/><linearGradient id="linear-gradient-3" x1="135.88" y1="1269.25" x2="224.08" y2="1269.25" xlink:href="#linear-gradient"/><linearGradient id="linear-gradient-4" x1="62.88" y1="1281.08" x2="275.25" y2="1281.08" xlink:href="#linear-gradient"/><clipPath id="clip-path"><rect class="cls-1" x="1227" y="19" width="1125" height="1617"/></clipPath><linearGradient id="linear-gradient-5" x1="1748.94" y1="924.05" x2="1025.95" y2="924.05" gradientUnits="userSpaceOnUse"><stop offset="0" stop-color="#25336d"/><stop offset="1" stop-color="#0f1d38"/></linearGradient></defs><g class="cls-2"><g id="Layer_1" data-name="Layer 1"><path class="cls-3" d="M1128,1256.56v32.27c-44.91,1.18-75-1.93-90.58,4.3-6.61,2.64-12.51,7.73-6.34,11.35,9.68,5.7,42.65,4,96.92,3V1378c-134.61,1-290.17-20.76-308-7.68-4.37,3.21,1.8,6.87,5.43,9,24.63,14.62,114.78,12.89,302.53,17.4v49.84c-86.15-.15-253.47-.29-509.5.16-289.41.52-428.13-13.36-426.62-25.3.44-3.54,19-6.25,57.52-11.52,148.46-20.3,258.41-16.05,270.82-30,5.26-5.9-9.69-12-11.77-12.81-38.41-15.6-132.59,1.4-279-3.5-30.24-1-89-3.84-120.47-8.24v-13.91c56.88-11.88,220.62-26.94,393.92-26.69,182.94.26,337.25,17.52,374.18-3,10.09-5.61,6.34-9.91,6.34-9.91-3.64-3.95-15.48-6.12-22.64-7.28-54.44-8.81-163.12-11.54-202-12.52-45.37-1.15-50-1.3-63.41-1.46-56.63-.66-68.33.91-105.63,0-42.69-1-101.11-4.91-101.19-9.08s56.85-7.28,66.43-7.81c62.65-3.47,82.82.67,144.92.58,79-.11,77.94-6.86,189.31-9,45-.88,74.14-.33,75.6-2.82,2.92-5-95.47-14.36-95.47-14.36L753.29,1234H1128v.68c-30.2,1.06-79.55,2.45-150.72,3.4C846.48,1239.83,985.79,1254.68,1128,1256.56Z"/><path class="cls-4" d="M536.92,1230.92c-1.06-.26-69.12,4-60.88,10.37s47.85,4.79,84.81,4.79h71.77c37.49,0,73.64-10.9,73.38-12s-5.32-4.25-44.66-4-41.74,1.06-63.28,1.06S536.92,1230.92,536.92,1230.92Z"/><path class="cls-5" d="M586,818.55c-.37,10.1-17.6,98.14-22.48,116.5s-16.87,32.21-20.59,36.7a26.73,26.73,0,0,0-2.54,4.4h0c-3,6-7.69,15.79-15.34,20.29a17,17,0,0,1-11,2.28c-.54-.07-1.06-.15-1.57-.26a14.5,14.5,0,0,1-1.81-.44,16.39,16.39,0,0,1-11.41-11.71,23.72,23.72,0,0,1-.82-8.25c.29-3.92,1.49-7.48,3.26-9.68,1.4-1.77,3.46-4.79,5.75-8.32,6.9-10.59,16-25.78,16-25.78s3-3.75,3.36-7.11,6.37-7.86,6.37-7.86,10.49-43.83,19.86-70.43c5.88-16.74,14.17-24.87,19.48-28.6a21.39,21.39,0,0,1,5.25-2.87Z"/><path class="cls-6" d="M540.43,976.15h0c-3,6-7.69,15.79-15.34,20.29a18.86,18.86,0,0,1-1.55,4.69l-11-2.67-1.81-.44L492,993.49a68.31,68.31,0,0,1,7.32-7.17,23.72,23.72,0,0,1-.82-8.25c.29-3.92,1.49-7.48,3.26-9.68,1.4-1.77,3.46-4.79,5.75-8.32,0,0,14.57-3.85,24.42,2.22C536.07,964.83,539.37,969.11,540.43,976.15Z"/><path class="cls-7" d="M586,818.55c-.37,10.1-17.6,98.14-22.48,116.5s-16.87,32.21-20.59,36.7a26.73,26.73,0,0,0-2.54,4.4h0c-3,6-7.69,15.79-15.34,20.29a17,17,0,0,1-11,2.28c-.54-.07-1.06-.15-1.57-.26a14.5,14.5,0,0,1-1.81-.44,16.39,16.39,0,0,1-11.41-11.71,23.72,23.72,0,0,1-.82-8.25c21.2-17.5,29,4.31,32.35-7.67a33.42,33.42,0,0,0,1.08-8.11c.28-10.7-2.8-22.12.83-25.15,4.59-3.83,9.56,4.58,8.41-4.61s-6.89-7.65-4.19-9.93,7.25,3.06,11.84-14.93,22.18-78,22.18-78a89.12,89.12,0,0,1,1.54-9.36,21.39,21.39,0,0,1,5.25-2.87Z"/><path class="cls-8" d="M540.43,976.15h0c-3,6-7.69,15.79-15.34,20.29a18.86,18.86,0,0,1-1.55,4.69l-11-2.67-1.81-.44L492,993.49a68.31,68.31,0,0,1,7.32-7.17,23.72,23.72,0,0,1-.82-8.25c21.2-17.5,29,4.31,32.35-7.67a33.42,33.42,0,0,0,1.08-8.11C536.07,964.83,539.37,969.11,540.43,976.15Z"/><path class="cls-9" d="M525.09,996.45a18.86,18.86,0,0,1-1.55,4.69c-2.95,6.14-8.5,9.91-10,13.53-2.34,5.45-12.46,7.79-16.74,3.89s-14.79-13.23-6.23-23.35c.49-.58,1-1.15,1.49-1.72a68.31,68.31,0,0,1,7.32-7.17c6.12-5.09,12.3-7.73,17.27-5.12a10,10,0,0,1,8.56,8.56A20.12,20.12,0,0,1,525.09,996.45Z"/><path class="cls-10" d="M585.66,1128.34s-4.49-8.24-28.46-8.24-29.6,3.37-29.6,3.37-.37,16.11,26.22,17.23S585.66,1128.34,585.66,1128.34Z"/><path class="cls-6" d="M578.93,1083c-1.89,17.63,1.12,63.32,1.12,63.32h-42s-1.08-3.85-2.5-10.23c-3-13.53-7.62-38.5-6.86-62.45,1.13-35.2,24.73-99.64,24.73-99.64l4.49-3.75,51.32,4.88-3.16,10.12C598.63,1009.32,580.4,1069,578.93,1083Z"/><path class="cls-6" d="M559.44,977.75s4.12,23.22,16.86,43.45c0,0,33.34,7.5,56.56,4.5,0,0,17.61-25.47,21-51.32S556.07,950.78,559.44,977.75Z"/><path class="cls-11" d="M580.05,1146.32h-42s-1.08-3.85-2.5-10.23c22.65-1.2,32.43-7.81,29.83-28.09-2.92-22.74-23.38-19.16-13-35.73s35.74-52.65,19.17-61.43-19.49-16.23,3.9-17.87a90.74,90.74,0,0,0,30.61-7.72c-7.48,24.07-25.71,83.78-27.18,97.75C577,1100.63,580.05,1146.32,580.05,1146.32Z"/><path class="cls-6" d="M636.24,1120.1s20.6-1.13,31.84,4.12c0,0-26.6,24.72-59.56,3.74C608.52,1128,617.13,1121.22,636.24,1120.1Z"/><path class="cls-6" d="M665.82,1145.58c0,1.5-39.32,0-39.32,0s-5.58-12.5-11.57-28.33a330.05,330.05,0,0,1-11.3-35c-6.74-27.36-13-96.28-12.72-98.15,2.58-19.46,55.94-37.5,65.4-12.77a12,12,0,0,1,.54,1.52c7.84,27,1.1,47.21,1.1,47.21s-8.6,38.95-6.74,60.69S665.82,1144.06,665.82,1145.58Z"/><path class="cls-12" d="M665.82,1145.58c0,1.5-39.32,0-39.32,0s-5.58-12.5-11.57-28.33c10.67-6.18,7.75-11.11,25-47.78,20.88-44.34,13.89-95.1,13.89-95.1.84-1.08,1.67-2.09,2.48-3a12,12,0,0,1,.54,1.52c7.84,27,1.1,47.21,1.1,47.21s-8.6,38.95-6.74,60.69S665.82,1144.06,665.82,1145.58Z"/><path class="cls-6" d="M682.68,1231.74s-40.83,7.84-52.82,8.23-29.58.37-29.58.37a8.57,8.57,0,0,1,.88-7.82c1.59-2.42,4.83-4.85,11.1-6.42,10.84-2.72,20.22-13.19,25.4-20,2.64-3.58,4.19-6.15,4.19-6.15l-.37-.81L608.54,1128c1,.27,20.59,6.15,41.15,2.53a60.19,60.19,0,0,0,18.39-6.3s10.85,82,11.25,84.66S682.68,1231.74,682.68,1231.74Z"/><path class="cls-6" d="M682.68,1231.74s-40.83,7.84-52.82,8.23-29.58.37-29.58.37a8.57,8.57,0,0,1,.88-7.82c15-4.19,53.92-6.44,55.79-14.66,1.79-7.91-15.89-11.25-19.29-11.81,2.64-3.58,4.19-6.15,4.19-6.15l-.37-.81c5.39-1.3,18.31-5.42,21.45-15.39,2.84-9.15-7.18-37.48-13.24-53.19a60.19,60.19,0,0,0,18.39-6.3s10.85,82,11.25,84.66S682.68,1231.74,682.68,1231.74Z"/><path class="cls-13" d="M580.42,1240.34c-.37,1.13-86.92,0-86.92,0a10.28,10.28,0,0,1-.36-6.4c.88-3,3.62-6.25,10.86-7.84,9.68-2.11,21.3-10.2,28.55-15.88,4-3.12,6.69-5.52,7-5.81l0,0-12-80.91s6.86,8.9,24.81,11c.83.1,1.66.17,2.55.25,19.85,1.49,30.71-6.35,30.71-6.35s-6,70-6.38,75.67S580.79,1239.21,580.42,1240.34Z"/><path class="cls-10" d="M580.42,1240.34c-.37,1.13-86.92,0-86.92,0a10.28,10.28,0,0,1-.36-6.4c19.36-.58,59.36-2.77,56.94-10.9-2.16-7.31-11.67-11.11-17.53-12.82,4-3.12,6.69-5.52,7-5.81l0,0s20,11.89,19.63-19.09c-.27-20.54-4.19-40-6.81-50.84.83.1,1.66.17,2.55.25,19.85,1.49,30.71-6.35,30.71-6.35s-6,70-6.38,75.67S580.79,1239.21,580.42,1240.34Z"/><path class="cls-5" d="M656.84,972.88c-47.58,14.61-98.9-.75-98.9-.75.38-25.1-2-137.21,16.38-151.44,1.11-.86,2.21-1.67,3.3-2.44,16.93-12,30.6-13.89,30.6-13.89,19.61-.63,47.58,7.65,57.08,21.68a19.58,19.58,0,0,1,2.17,4.08C673.83,846.61,656.84,972.88,656.84,972.88Z"/><path class="cls-6" d="M659,815c-2.91,4.8-15.23,23.93-39.07,29.65a59.53,59.53,0,0,1-24.6.58s-3.33-.23-11.87-9.1a20.4,20.4,0,0,1-5.84-17.88c16.93-12,30.6-13.89,30.6-13.89A52.21,52.21,0,0,1,640,804,51,51,0,0,1,659,815Z"/><path class="cls-6" d="M595.72,843.41s-9.93,6.47-9.83,20.73,7.11,11,7,3.86.87-16.82,4.76-23.62S595.72,843.41,595.72,843.41Z"/><path class="cls-6" d="M600.41,843.55a18.14,18.14,0,0,1,3,17.35c-3.52,10-8.44,5.73-6.65.76s3.34-12.09,1.81-18S600.41,843.55,600.41,843.55Z"/><path class="cls-5" d="M692.42,948.9c-3.17,8-31.72,32.38-46.23,46h0c-2.59,2.42-4.73,4.5-6.2,6.08-6.74,7.24-14.71,12.52-22.69,12.88a18.6,18.6,0,0,1-10.65-2.75c-6-3.57-7.72-10.41-7.54-16.66a27.74,27.74,0,0,1,2.56-11.24,8.17,8.17,0,0,1,.86-1.32c1.39-1.7,8.17-8.67,15.64-16.24,10.58-10.74,22.55-22.71,22.55-22.71s6.74-5.25,5.25-9,2.62-8.62,2.62-8.62,1.13-26.21-1.86-49.81-2.31-48.83,13.48-49.44c13.9-.56,22.84,27.18,27.87,56.52C693.25,912.55,694.3,944.17,692.42,948.9Z"/><path class="cls-6" d="M646.19,994.87h0c-2.59,2.42-4.73,4.5-6.2,6.08-6.74,7.24-14.71,12.52-22.69,12.88l-18.19-19.41a27.74,27.74,0,0,1,2.56-11.24,8.17,8.17,0,0,1,.86-1.32c1.39-1.7,8.17-8.67,15.64-16.24C618.17,965.63,655.39,967.73,646.19,994.87Z"/><path class="cls-7" d="M692.42,948.9c-3.17,8-31.72,32.38-46.23,46h0c-1.79,1.67-3.36,3.17-4.64,4.47l-1,1-.58.62a56.57,56.57,0,0,1-6.64,6.12l-.7.53-.7.51-.7.49c-.85.58-1.7,1.12-2.56,1.61l-.75.42c-.64.35-1.27.67-1.91,1l-.55.24a23.09,23.09,0,0,1-8.18,2,18.6,18.6,0,0,1-10.65-2.75c-6-3.57-7.72-10.41-7.54-16.66v-.07c0-.55,0-1.09.1-1.62,0-.28,0-.56.08-.83s.06-.55.1-.82c.07-.51.15-1,.24-1.51,0-.14,0-.28.08-.41s.11-.53.17-.79a25.34,25.34,0,0,1,.73-2.63c0-.14.09-.28.14-.41a16.51,16.51,0,0,1,.92-2.15c24.17-12.08,30.74,7.85,30.74,7.85a132.07,132.07,0,0,0,14.44-9.49c8-6.08,16.38-14.2,16.74-21.69.66-14.42-19.78-19.78-7.72-19.1s23.8,13.07,21.13,1.67-28.51-18.78-10.08-14.07,16.11,24.14,22.14,6.37c3-8.94,1.39-31.64-1-52.16C693.25,912.55,694.3,944.17,692.42,948.9Z"/><path class="cls-8" d="M646.19,994.87h0c-1.79,1.67-3.36,3.17-4.64,4.47l-1,1-.58.62a56.57,56.57,0,0,1-6.64,6.12l-.7.53-.7.51-.7.49c-.85.58-1.7,1.12-2.56,1.61l-.75.42c-.64.35-1.27.67-1.91,1l-.55.24a23.09,23.09,0,0,1-8.18,2l-18.19-19.41v-.07c0-.55,0-1.09.1-1.62,0-.28,0-.56.08-.83s.06-.55.1-.82c.07-.51.15-1,.24-1.51,0-.14,0-.28.08-.41s.11-.53.17-.79a25.34,25.34,0,0,1,.73-2.63c0-.14.09-.28.14-.41a16.51,16.51,0,0,1,.92-2.15c24.17-12.08,30.74,7.85,30.74,7.85a132.07,132.07,0,0,0,14.44-9.49C648,985.13,648,989.51,646.19,994.87Z"/><path class="cls-14" d="M616.47,1013.59a37.73,37.73,0,0,1-6,1.08h-.11c-.38,0-.76.06-1.17.09a26.76,26.76,0,0,1-10.71-1.22c-2.67-1-3.71-2.38-3.93-3.83a13,13,0,0,1-4-3.65c-1.62-2.65-1.09-3.19-1.09-3.19a15.25,15.25,0,0,1-5.68-4,5.88,5.88,0,0,1-1.1-5.16s-4.63-4-4.1-7.74,11.4-11.39,13.57-12.49A9.47,9.47,0,0,1,595,973c5.21-.33,15.52.49,18.19,3.27,3.38,3.46,11.55,18.82,11.55,18.82C629.62,1003,626.15,1009.92,616.47,1013.59Z"/><path class="cls-9" d="M608.27,1014.34a25.53,25.53,0,0,1-10.33-1.26c-2.59-1-3.59-2.37-3.82-3.79a12.89,12.89,0,0,1-3.88-3.61c-1.58-2.62-1.07-3.14-1.07-3.14a15,15,0,0,1-5.51-4,5.92,5.92,0,0,1-1.09-5.08s-4.5-4-4-7.62,10.91-11.1,13-12.17a8.62,8.62,0,0,1,2.69-.46,4.83,4.83,0,0,0-1.1,1.77c-1.75,5,4.25.73,7.6,5.25s-3.73,9.77-7.39,10-8.15-4.29-9.69-2.73,1.74,5.08,3.18,5.49,9.07-.37,10.23-.46c-1.12.25-8.66,2-9.28,3.6s2.26,5.13,9.31,4.66,2.92.66-1.57,2.19-2,5,5.12,4.82,3.35.77-1.76,2C594.48,1010.91,601.34,1013.61,608.27,1014.34Z"/><path class="cls-14" d="M627.14,998a18.87,18.87,0,0,1-1,6.76A42.42,42.42,0,0,0,627.14,998Z"/><path class="cls-14" d="M617.52,986.88s10.78-2.2,9.63,13.46"/><path class="cls-14" d="M627.48,811.07s-14.65,19.24-26.79,17.58-4.8-12.58-4.8-12.58-.91-4.85-1.84-10c-1-5.73-2.16-11.84-2.16-12.18l32.65-22.18.69,9.14Z"/><path class="cls-9" d="M625.23,780.85c-3.43,7.7-12.53,23-31.18,25.22-1-5.73-2.16-11.84-2.16-12.18l32.65-22.18Z"/><path class="cls-14" d="M582.52,720.66s-7.42,8.29-8.29,26.61-2.62,38,7.42,46.69,31.41-.44,39.7-16.15c0,0,5.67-23.56,5.24-44.94S588.19,700.59,582.52,720.66Z"/><path class="cls-15" d="M590.69,748.17a5.4,5.4,0,0,1,2-4.47c2.35-2.12,13.3-.67,15.2,4.92C607.9,748.62,598.18,745.27,590.69,748.17Z"/><path class="cls-15" d="M582.09,748.17a4.57,4.57,0,0,0-.45-3.57c-1-2.13-6.41-1.57-7.26,4C574.38,748.62,578.74,745.27,582.09,748.17Z"/><path class="cls-15" d="M599.52,755.94c0,2.5-1.5,4.52-3.35,4.52s-3.36-2-3.36-4.52,1.5-4.53,3.36-4.53S599.52,753.44,599.52,755.94Z"/><path class="cls-16" d="M597.86,754.39a1.13,1.13,0,1,1-1.11-1.35A1.24,1.24,0,0,1,597.86,754.39Z"/><path class="cls-15" d="M583.46,755.94c0,2.5-1.51,4.52-3.36,4.52s-3.35-2-3.35-4.52,1.5-4.53,3.35-4.53S583.46,753.44,583.46,755.94Z"/><path class="cls-16" d="M581.8,754.39a1.13,1.13,0,1,1-1.11-1.35A1.24,1.24,0,0,1,581.8,754.39Z"/><path class="cls-15" d="M585.68,761.22A40.64,40.64,0,0,0,579,771.71c-2.16,5.49,6.57,5.83,10.24,2.75,0,0-7.76,1.85-8.33-2.08C580.52,769.46,585.68,761.22,585.68,761.22Z"/><path class="cls-15" d="M588.1,783.59c5.28,1.08,11.33-.6,14.79-4.81.6-.74-.45-1.81-1.06-1.06a12.87,12.87,0,0,1-8.6,4.53,18.82,18.82,0,0,1-3.44.06,9.47,9.47,0,0,1-1.29-.16c-.94-.2-1.34,1.25-.4,1.44Z"/><path class="cls-15" d="M644.54,743.69a55.41,55.41,0,0,1-2,9.73c-5.59,18.51-17.62,22.85-17.62,22.85l-.2-16.57-7,3.5-.36-15a10,10,0,0,1-4.73-4.76c-2.87-5.64-1.92-13.43-1.92-13.43l-.07,0c-1.72.62-34.61,12.14-38.7-4.56a22.5,22.5,0,0,1-.69-4.77c-.66-13.85,11.86-20.4,11.86-20.4,1.06,5.59,5.59,4.19,26.21,4.56S632,717.41,632,717.41C641.16,718.84,646.11,729.65,644.54,743.69Z"/><path class="cls-17" d="M625.45,721.36A66.69,66.69,0,0,1,610.69,730l-.07,0c-1.72.62-34.61,12.14-38.7-4.56a22.5,22.5,0,0,1-.69-4.77,12.29,12.29,0,0,0,5.86,6.29c10.49,5.86,36.32-4.65,36.32-4.65s-5.14.86-15.14-1-13.44-5.86-13.44-5.86a52.32,52.32,0,0,0,20,1.89c10.66-1.2,15.73,2.08,15.73,2.08s-1.89-6.08-10.88-7.11-13.31-5.15-13.31-5.15a47.28,47.28,0,0,0,17,2.92c10.2,0,16.16,3.31,18.61,7.35,0,0-3.73,3-12.7,4.05A52.27,52.27,0,0,0,625.45,721.36Z"/><path class="cls-17" d="M644.54,743.69a55.41,55.41,0,0,1-2,9.73c-5.59,18.51-17.62,22.85-17.62,22.85l-.2-16.57-7,3.5-.36-15a10,10,0,0,1-4.73-4.76,31.76,31.76,0,0,0,17.23,4.41s-3.09-.78-7.09-7c.4.37,3.9,3.38,11.21,4.41A53.91,53.91,0,0,1,629.3,740c.64.61,3.53,3.21,9.46,4.28A10.51,10.51,0,0,0,644.54,743.69Z"/><path class="cls-14" d="M619.32,765l2.3-8.16s6.28-5.86,11.93-1.25-2.72,19.46-13.61,21.76Z"/><path class="cls-9" d="M623.58,763.89s2.85-6.36,6.5-6.26,3.29,4.27,3.29,4.27-5.75,9.64-10.52,7.94c0,0,2.83-1.9,2.48-3.9S623.58,763.89,623.58,763.89Z"/><path class="cls-15" d="M622.85,769.84s2.58-1.63,2.54-3.3-2.3-2.25-2.3-2.25,2.15-7.41,6.88-7.41,3.4,5,3.4,5,.09-3.87-3.16-4-5.21,5.79-5.21,5.79S629.88,766.92,622.85,769.84Z"/><path class="cls-14" d="M595.89,816.07s-6.11,2.9,0,15.92l2.11,5s28-14.85,29.48-25.93S595.89,816.07,595.89,816.07Z"/><path class="cls-7" d="M663.12,722.38c-6.88,3.39-18.31,17.59-18.31,17.59-21.19-4-38-35.17-38-35.17,6.79-4.19,16.06-23.32,16.06-23.32S626,682,643,694,663.12,722.38,663.12,722.38Z"/><path class="cls-5" d="M663.12,722.38c-6.88,3.39-18.31,17.59-18.31,17.59-21.19-4-38-35.17-38-35.17,6.79-4.19,16.06-23.32,16.06-23.32S620.24,713.77,663.12,722.38Z"/><path class="cls-6" d="M617.87,687.79a20,20,0,0,0,.59,10c2.39,8.38,8.81,14.88,15.94,19.53s15.15,7.74,23.26,10.11c1.86.55,2.65-2.35.8-2.89-11.63-3.4-24-8.45-32-18a26.83,26.83,0,0,1-4.85-8.56,24.6,24.6,0,0,1-.91-3.79,2.49,2.49,0,0,1-.07-.51c0-.28-.06-.57-.08-.85,0-.47-.05-.93-.05-1.39s0-.88,0-1.31c0-.18,0-.35,0-.53s.08-.63,0-.29.05-.28.08-.43a1.43,1.43,0,0,1,0-.22c.47-1.88-2.42-2.68-2.89-.8Z"/><path class="cls-18" d="M1133,1075v197H525a166,166,0,0,1-165.19-149.52q-.81-8.13-.81-16.48v-31Z"/><g class="cls-19"><path class="cls-20" d="M97.5,1263.86c.61-.41,1.25-.78,1.89-1.15l2-1c1.34-.61,2.67-1.27,4.05-1.82s2.75-1.1,4.16-1.57l4.23-1.37c1.42-.44,2.86-.76,4.3-1.15s2.87-.76,4.33-1l4.36-.87c1.45-.31,2.92-.51,4.39-.72,5.86-1,11.78-1.38,17.69-1.79,3-.12,5.92-.17,8.88-.26s5.92.07,8.88.09l4.44.12c1.48,0,2.95.19,4.43.28l8.84.64c1.48.1,2.94.3,4.41.48l4.4.54c2.93.36,5.86.72,8.78,1.16,5.81,1,11.63,2,17.4,3.19,5.75,1.35,11.49,2.68,17.18,4.19-5.87-.64-11.69-1.45-17.5-2.26l-17.48-2c-5.84-.44-11.66-1.1-17.5-1.49l-8.75-.51c-1.46-.08-2.91-.21-4.37-.24l-4.38-.07c-2.92-.06-5.84-.22-8.76-.19s-5.83.12-8.75.13c-5.82.19-11.65.52-17.45,1.11a174.08,174.08,0,0,0-17.29,2.57l-4.27,1c-1.43.33-2.81.77-4.24,1.13A58.16,58.16,0,0,0,97.5,1263.86Z"/></g><path class="cls-18" d="M603.12,983a9.64,9.64,0,0,1-6.21,5.35c-3.71,1.07-6.51-.73-8.47-3q-9.36-23.12-18.65-46.26c-1.93-4.82-3.52-9.76-5.15-14.67a3.75,3.75,0,0,1,1.21-4.34,1.89,1.89,0,0,0,.73-1,2.15,2.15,0,0,0-.2-1.25c-13.23-32.8-28.15-64.93-46.86-95.53-11.62-19-24.56-37.21-40.41-53.62-11.77-12.19-24.79-23.08-40.71-30.9-12.09-5.93-24.95-9.53-38.94-9.32a221.23,221.23,0,0,0-38.69,4q-52.9,10.23-85.75,48.93c-4.7,5.54-8.88,11.45-13.3,17.18.18-.35.35-.71.56-1a149.79,149.79,0,0,1,51.64-49.3c18.39-10.76,38.56-17.2,60.12-20.24,17.53-2.47,34.78-1.75,51.68,3.09,18,5.18,33.28,14.38,46.86,26C487.69,769.85,500,784.76,511,800.54c16.69,23.89,30.51,49.13,42.9,75,6.42,13.4,12.16,27.06,18.25,40.59a4.08,4.08,0,0,0,.92,1.29,1.82,1.82,0,0,0,.65.41,7.6,7.6,0,0,1,5,4.65q10.28,25.63,20.64,51.26Z"/><path class="cls-21" d="M566,933.15c.1.58.19,1.16.31,1.73.67,3.18.57,6.2-1.84,8.92a2.32,2.32,0,0,1-2.75.78c-8.51-2.22-17.53,2.44-19.84,10.15s2.89,15.35,11.42,17.22c7,1.54,13.39-1,17.91-7.1a9.58,9.58,0,0,1,6.7,2.83c.84.86,1.48,1.88,2.28,2.78a23.79,23.79,0,0,0,1.81,1.65,9.54,9.54,0,0,0-.36-2.21q-7.07-17.62-14.21-35.23c-.23-.58-.53-1.13-.81-1.69Zm-10,17.58a2.54,2.54,0,0,1,2.55-2.57,2.51,2.51,0,0,1,2.88,2.19,2.56,2.56,0,0,1-2.6,2.71A2.7,2.7,0,0,1,556,950.73Zm9.28,2.36a2.55,2.55,0,0,1,2.78,2.31,2.76,2.76,0,0,1-2.8,2.58,2.56,2.56,0,0,1-2.61-2.47A2.42,2.42,0,0,1,565.3,953.09Zm-9.65,10.26a2.66,2.66,0,0,1,2.8,2.34,2.61,2.61,0,0,1-2.77,2.58,2.49,2.49,0,0,1-2.66-2.42A2.54,2.54,0,0,1,555.65,963.35Zm-9.25-2.43a2.7,2.7,0,0,1,2.72-2.47,2.55,2.55,0,0,1,2.7,2.41,2.73,2.73,0,0,1-5.42.06Zm4.23-5.25a2.53,2.53,0,0,1-2.7-2.4,2.67,2.67,0,0,1,2.74-2.45,2.61,2.61,0,0,1,2.69,2.44A2.57,2.57,0,0,1,550.63,955.67Zm10.5,7.55a2.55,2.55,0,0,1,2.61-2.53,2.43,2.43,0,1,1,.17,4.83A2.5,2.5,0,0,1,561.13,963.22Zm-6.22-5.57a6.55,6.55,0,0,1,2.3-1.37,1.86,1.86,0,0,1,2.24,1.84c.07,1.2-.71,2-2.07,2S555.19,959.45,554.91,957.65Z"/><path class="cls-22" d="M566.58,919.06a2.15,2.15,0,0,0-.2-1.25c-13.23-32.8-28.15-64.93-46.86-95.53-11.62-19-24.56-37.21-40.41-53.62-21.54-22.3-35.65-28.73-40.71-30.9-18-7.7-34.37-8.46-42.4-8.76a138.77,138.77,0,0,0-35.23,3.41c-12,2.48-35.26,7.69-59.07,24.45A143.37,143.37,0,0,0,275,781.34c-4.7,5.54-8.88,11.45-13.3,17.18.18-.35.35-.71.56-1a149.79,149.79,0,0,1,51.64-49.3A156.4,156.4,0,0,1,374,727.94c12.75-1.52,31-3.5,53,3.06,21.2,6.32,34.95,17.31,45.58,26C489.17,770.5,498.76,783,511,800.54c16.69,23.89,30.51,49.13,42.9,75,6.42,13.4,12.16,27.06,18.25,40.59a4.08,4.08,0,0,0,.92,1.29A14.19,14.19,0,0,1,566.58,919.06Z"/><path class="cls-23" d="M262.28,797.48q-43.39,232.51-86.78,465"/><g class="cls-19"><path class="cls-24" d="M138.51,1263a3.25,3.25,0,0,0,.75,2.5,6.15,6.15,0,0,0,2,1.67,17.74,17.74,0,0,0,5,1.79,60.62,60.62,0,0,0,10.82,1.32c7.32.4,14.68.15,22.18.14s14.93.16,22.31.15l2.76,0,2.74-.11c.9,0,1.8-.14,2.71-.21s1.79-.22,2.65-.42a22.56,22.56,0,0,0,5.16-1.56l1.25-.57c.42-.2.82-.44,1.23-.65.84-.41,1.61-.94,2.45-1.39a28.65,28.65,0,0,1-4.24,3.82,22.63,22.63,0,0,1-5.18,2.72,48.68,48.68,0,0,1-11.3,2.34c-7.55.76-15.05.91-22.53.93a149.91,149.91,0,0,1-22.61-1.24,48.8,48.8,0,0,1-11.16-2.9,17.9,17.9,0,0,1-5.07-3,7.12,7.12,0,0,1-1.81-2.4A3.51,3.51,0,0,1,138.51,1263Z"/></g><g class="cls-19"><path class="cls-25" d="M69.68,1265.17a8.85,8.85,0,0,0,1.68,6.12,15.55,15.55,0,0,0,4.56,4.21,41.18,41.18,0,0,0,11.82,4.68c8.37,2.09,17.14,2.94,25.92,3.49s17.65.65,26.53.59l13.4-.17,13.51-.1c18-.07,36,.42,53.77.39,2.21-.06,4.42-.08,6.63-.11l6.58-.29c2.16-.16,4.33-.37,6.49-.58l3.2-.46,1.6-.23,1.57-.35c1-.22,2.1-.43,3.15-.68l3.08-.93a27.73,27.73,0,0,0,3.05-1.1c1-.42,2-.75,3-1.27l3-1.44c1-.52,1.94-1.09,2.92-1.63,2-1,3.85-2.35,5.85-3.48-.75.86-1.5,1.72-2.28,2.56l-1.16,1.27-1.22,1.21c-.83.8-1.65,1.61-2.51,2.39l-2.7,2.21a49.76,49.76,0,0,1-12.32,7l-1.66.68-1.68.55-3.39,1.09c-2.27.61-4.56,1.13-6.85,1.65s-4.57.85-6.86,1.23-4.57.63-6.86.91c-4.55.48-9.12,1-13.66,1.2s-9.08.51-13.61.72-9,.24-13.57.37l-13.55.12-13.53-.08c-4.48-.08-9.08-.15-13.65-.35l-6.86-.39c-2.29-.16-4.58-.38-6.87-.58s-4.58-.49-6.86-.77-4.57-.65-6.85-1c-9.11-1.59-18.25-3.72-26.91-7.62a40.12,40.12,0,0,1-12-7.9,16.87,16.87,0,0,1-4-6.11,10.81,10.81,0,0,1-.64-3.58A7.57,7.57,0,0,1,69.68,1265.17Z"/></g><path class="cls-26" d="M818.8,1219.58c145,0,245.18-1,314.2-2.55v55H525a166,166,0,0,1-165.19-149.52l3.05-11.77C364.7,1148.86,421.62,1219.64,818.8,1219.58Z"/><line class="cls-27" x1="359" y1="1106" x2="1133" y2="1106"/><g class="cls-28"><path class="cls-29" d="M1024,664.55s175.62,4,239,54.4,182.12,55.28,216.27,250.41c0,0,104.07,35.78,130.08,91.07s73.18,71.54,113.83,91.06l40.65,19.51a652.76,652.76,0,0,0-123.87,0c-44.12,4.18-56.83,9.89-95,12-53,2.93-57.8-6.47-134-12-29.49-2.14-76-1.76-169-1-41.69.34-46.86.69-87,1-55.75.43-101.13.24-131,0Z"/></g></g></g></svg>