<svg xmlns="http://www.w3.org/2000/svg" viewBox="0 0 131.07 936.53"><defs><style>.cls-1{fill:#b3b3b3;}.cls-2{fill:#3e64af;}.cls-3{fill:#ccc;}</style></defs><g id="Layer_2" data-name="Layer 2"><g id="Layer_1-2" data-name="Layer 1"><path class="cls-1" d="M120.54,672.6c-3.3-2.18-7.31-3.3-11.36-5.07v-6.67q0-25.51,0-51,0-19.49.09-39h-3.92c.05.65.14,1.3.14,1.95v93.38c0,.71-.1,1.42-.15,2.12l-1.14.18c-11.28,1.79-19.69,10.1-20.9,20.65C82,700.57,87.81,710.39,98.71,714.8c1.68.68,1.63,1.7,1.63,3q0,25.74,0,51.47,0,54,0,108.09,0,2.94-.27,5.87a42.9,42.9,0,0,1-83.39,9.58,34.87,34.87,0,0,1-2-13.58l21.31,6.22c-12-19.67-23.66-38.8-35.34-57.94a.62.62,0,0,1,0,.09v0C.06,836.44,0,845,.06,853.49c0,1.61,0,3.21,0,4.82,0,8.69-.24,17.4.38,26a55.79,55.79,0,0,0,22.15,40.32,56.64,56.64,0,0,0,45.7,10.73c24.94-5.12,42.81-24.68,45.89-49.25a61.14,61.14,0,0,0,.47-7.59q0-80.4-.05-160.79a3.3,3.3,0,0,1,2.33-3.57c8.36-3.9,13.23-10.53,14-19.76S128.25,677.7,120.54,672.6Zm.38,21.94A14,14,0,1,1,103.13,679c1.13-.33,2.08-.62,3,.67a2.56,2.56,0,0,0,2.42,0c.94-1.37,1.92-.87,3-.51A14,14,0,0,1,120.92,694.54Z"/><path class="cls-2" d="M107.54,0a2,2,0,0,1,1.73,2.15q0,146.32-.09,292.66,0,192,0,383.91a2,2,0,0,1-1.73,2.14h-.22a2,2,0,0,1-1.74-2.14v-664c0-4.19-.06-8.38-.11-12.57A2,2,0,0,1,107.11,0Z"/><path class="cls-3" d="M114.18,886.15c-3.08,24.57-21,44.13-45.89,49.25a56.64,56.64,0,0,1-45.7-10.73c-1.55-1.18-3.05-2.45-4.48-3.78-.29-.27-.58-.54-.86-.83a55.61,55.61,0,0,1-4.68-5.14c-.28-.34-.55-.68-.81-1q-1.63-2.11-3.06-4.39c-.22-.34-.43-.7-.64-1q-1.17-2-2.17-4c-.17-.34-.34-.68-.49-1-.37-.78-.71-1.57-1-2.37-.12-.29-.24-.59-.35-.88s-.32-.83-.47-1.25c-.36-1-.68-2-1-3-.11-.36-.21-.73-.31-1.09s-.26-1-.38-1.46-.23-1-.34-1.46h0c-.11-.5-.21-1-.3-1.49s-.18-1-.26-1.5-.14-.89-.19-1.33c0-.27-.07-.53-.1-.8s-.09-.72-.12-1.08-.09-.93-.12-1.39c-.62-8.64-.42-17.35-.38-26,0-1.61,0-3.21,0-4.82,0-8.52,0-17,.52-25.82,0,2.06.17,64.46,21.22,86.14l.07.07c8.57,7.94,20.33,13.13,36.41,13.29C90.49,927.48,106.41,907.78,114.18,886.15Z"/></g></g></svg>