<svg id="Layer_1" data-name="Layer 1" xmlns="http://www.w3.org/2000/svg" xmlns:xlink="http://www.w3.org/1999/xlink" viewBox="0 0 1125 1626"><defs><style>.cls-1{fill:url(#linear-gradient);}.cls-2{opacity:0.15;fill:url(#linear-gradient-2);}.cls-3{opacity:0.5;}.cls-4,.cls-5,.cls-6,.cls-7{fill:#fff;}.cls-5{opacity:0.8;}.cls-6{opacity:0.2;}.cls-7{opacity:0.6;}</style><linearGradient id="linear-gradient" x1="2004.7" y1="-7386.94" x2="2004.7" y2="-8457.52" gradientTransform="translate(2566.2 -7387.95) rotate(180)" gradientUnits="userSpaceOnUse"><stop offset="0" stop-color="#4b1e73"/><stop offset="1" stop-color="#140037"/></linearGradient><linearGradient id="linear-gradient-2" x1="2010.34" y1="-7382.1" x2="2010.34" y2="-8452.67" gradientTransform="translate(2566.2 -7387.95) rotate(180)" gradientUnits="userSpaceOnUse"><stop offset="0" stop-color="#54c8f3"/><stop offset="1" stop-color="#37c2ec"/></linearGradient></defs><rect class="cls-1" x="-1" y="-2.34" width="1125" height="1147.34"/><rect class="cls-2" x="-6.64" y="-7.19" width="1125" height="1147.34"/><g id="_334HGu" data-name="334HGu" class="cls-3"><path class="cls-4" d="M836.72,356.94a4.89,4.89,0,0,1,4.73,4.93,5.89,5.89,0,0,1-6,5.56c-2.79-.07-4.74-1.87-4.73-4.35A6.35,6.35,0,0,1,836.72,356.94Z"/><path class="cls-4" d="M907.22,236.44c0,2.89-2.63,5.45-5.79,5.54-2.94.08-4.92-1.63-4.94-4.26a6.18,6.18,0,0,1,6-6.16A4.86,4.86,0,0,1,907.22,236.44Z"/><path class="cls-5" d="M225.61,484.67a5.7,5.7,0,0,1-5.86,5.4c-2.95,0-4.85-1.69-4.81-4.35a6.18,6.18,0,0,1,6.05-6A4.76,4.76,0,0,1,225.61,484.67Z"/><path class="cls-6" d="M907.28,591.52c2.7,0,4.52,2.33,4.41,5.57a5.23,5.23,0,0,1-5,5,5.3,5.3,0,1,1,.6-10.56Z"/><path class="cls-4" d="M1032,327.24a5.42,5.42,0,0,1,5.76-5.38c2.63,0,4.4,2.15,4.43,5.33a5.12,5.12,0,0,1-4.94,5.22A5.23,5.23,0,0,1,1032,327.24Z"/><path class="cls-4" d="M444.75,187.35a5,5,0,0,1-5,5.1,5.19,5.19,0,0,1-5.19-5.21,5.57,5.57,0,0,1,5.65-5.35C442.81,181.82,444.74,184.13,444.75,187.35Z"/><path class="cls-6" d="M230,653c0,3-1.53,4.82-4.1,4.81s-5.42-2-5.48-3.76c-.09-2.47,3.27-5.65,5.94-5.62C228.48,648.44,229.94,650.28,230,653Z"/><path class="cls-7" d="M762.09,543.58c0,3.11-1.38,4.87-3.91,4.89s-5.53-1.93-5.59-3.77c-.09-2.54,3.12-5.6,5.85-5.58C760.7,539.14,762.06,540.8,762.09,543.58Z"/><path class="cls-4" d="M639,154.79c0,3.09-1.5,4.74-4.14,4.68s-5.43-2-5.38-3.94c.07-2.41,3.3-5.43,5.84-5.46C637.54,150.05,639,152,639,154.79Z"/><path class="cls-4" d="M409.6,322.14c0,3.07-1.38,4.93-3.86,5s-5.66-2.07-5.65-3.92c0-2.44,3.17-5.44,5.77-5.51C408,317.66,409.56,319.5,409.6,322.14Z"/><path class="cls-7" d="M613.53,588.6c-2.22-.06-4.37-2.07-4.32-4.06s2.32-3.83,4.56-3.82a3,3,0,0,1,3.22,3.34C616.61,587.06,616.18,588.6,613.53,588.6Z"/><path class="cls-7" d="M713.29,523.33c0,2.55-1.36,4.6-3.2,4.68-2.15.09-4.59-2-4.62-4s2.14-3.84,4.46-3.87A3.14,3.14,0,0,1,713.29,523.33Z"/><path class="cls-5" d="M792.08,501.3c-2.26-.06-4.4-2-4.38-4s2.39-3.83,4.59-3.79a3.28,3.28,0,0,1,3.25,3.4C795.41,499.67,794.1,501.35,792.08,501.3Z"/><path class="cls-4" d="M257.86,137.85a4.58,4.58,0,0,1-4.08,4.09,4,4,0,0,1-3.91-3.85c0-1.9,2.49-4,4.71-4C256.11,134.11,257.85,136.09,257.86,137.85Z"/><path class="cls-5" d="M352.56,504.36c-.08,2.84-1.34,4.43-3.46,4.35s-4.39-2.15-4.34-4.07,2.41-3.79,4.63-3.76A3.33,3.33,0,0,1,352.56,504.36Z"/><path class="cls-4" d="M625.49,314.29a4.68,4.68,0,0,1-4.07,4.12,4.38,4.38,0,0,1-4-3.68c-.08-1.89,2.52-4.16,4.78-4.18C623.74,310.53,625.47,312.52,625.49,314.29Z"/><path class="cls-5" d="M683.4,426.51c1.63,0,3.24,1.77,3.32,3.69a4.61,4.61,0,0,1-4.07,4.14,4.14,4.14,0,0,1-3.9-3.74C678.71,428.68,681.13,426.55,683.4,426.51Z"/><path class="cls-5" d="M82.06,501.91c.06,2-1.08,3.54-2.73,3.59s-4.48-2.28-4.58-4a4,4,0,0,1,4-4.06C81.08,497.33,82,498.49,82.06,501.91Z"/><path class="cls-4" d="M108.44,221.17c0,2.14-1.18,3.67-2.92,3.64s-4.38-2.46-4.41-4.17a4.05,4.05,0,0,1,4.12-3.92C107.47,216.7,108.38,218,108.44,221.17Z"/><path class="cls-6" d="M381.47,599.22c.08,2-1.05,3.56-2.66,3.67-1.84.13-4.66-2.32-4.71-4.09a4,4,0,0,1,4.09-3.93C380.47,594.82,381.35,596,381.47,599.22Z"/><path class="cls-4" d="M944,397.86c2.46,0,3.3,1.15,3.33,4.51,0,1.8-1.47,3.49-3,3.44-1.79-.05-4.4-2.59-4.37-4.25A3.84,3.84,0,0,1,944,397.86Z"/><path class="cls-5" d="M581.74,477.53a4,4,0,0,1,4,4.07c.08,1.74-1.26,3-3.27,3.06-2.28.08-4.83-1.81-4.83-3.56S579.71,477.59,581.74,477.53Z"/><path class="cls-6" d="M833.93,658.51c0,1.58-1.65,2.8-3.6,2.75s-4.61-2-4.61-3.56c0-1.75,2.18-3.55,4.3-3.51A4.09,4.09,0,0,1,833.93,658.51Z"/><path class="cls-4" d="M55.15,314.52c2.31,0,3.84,1.6,3.85,4.07a3.05,3.05,0,0,1-3.31,3c-2.25,0-4.75-2-4.7-3.7S53,314.53,55.15,314.52Z"/><path class="cls-5" d="M480.64,431.78c-.07,1.73-1.53,2.87-3.55,2.77-2.25-.11-4.55-2-4.47-3.67.09-1.91,2.18-3.54,4.37-3.4A3.92,3.92,0,0,1,480.64,431.78Z"/><path class="cls-6" d="M525.3,598.42a3.59,3.59,0,0,1-3.58,3.18,3,3,0,0,1-2.89-3c.13-2.74,1.4-4.4,3.31-4.32C523.68,594.33,525.36,596.54,525.3,598.42Z"/><path class="cls-6" d="M555.54,716.65c.16-2.7,1.34-4.28,3.15-4.22,1.53.06,3.37,2.56,3.22,4.38a3.64,3.64,0,0,1-3.76,3A2.65,2.65,0,0,1,555.54,716.65Z"/><path class="cls-4" d="M93.59,64A3.46,3.46,0,0,1,90,67.14a2.91,2.91,0,0,1-2.91-2.76c0-2.73,1.32-4.58,3.32-4.53C91.9,59.89,93.61,62.13,93.59,64Z"/><path class="cls-4" d="M1011.87,439.3a2.89,2.89,0,0,1-3-2.8c0-2.69,1.23-4.47,3.07-4.47,1.51,0,3.27,2.11,3.32,4A3.38,3.38,0,0,1,1011.87,439.3Z"/><path class="cls-6" d="M765.45,629.67c-1,.08-2,.24-3,.22-1.59,0-2.78-.74-2.73-2.49a2.64,2.64,0,0,1,2.85-2.74,12.13,12.13,0,0,1,4.69,2.2c.36.23.23,1.59,0,2.28-.18.43-1.05.59-1.61.87Z"/><path class="cls-7" d="M281.35,551.24a12.11,12.11,0,0,1-3.41-.07c-.92-.29-2.26-1.18-2.3-1.87a3.94,3.94,0,0,1,1.57-2.82c1.67-1.21,5.09,0,6,1.87C284,550,283.11,551.25,281.35,551.24Z"/><path class="cls-6" d="M723,743.11c-1,.06-2,.19-3.07.19-1.56,0-2.68-.83-2.68-2.37a2.69,2.69,0,0,1,2.86-2.78,7.25,7.25,0,0,1,3.92,1.18c.68.48.89,1.91.9,2.92,0,.41-1.07.83-1.65,1.25Z"/><path class="cls-7" d="M441.94,596.42c-1.07.05-2.14.13-3.21.15-1.45,0-2.75-.73-2.53-2.12.16-1.07,1.4-2.75,2.19-2.76a11.46,11.46,0,0,1,5,1.47c.45.22.55,1.65.38,2.44-.09.47-1,.77-1.56,1.14Z"/><path class="cls-6" d="M403.41,776.14a17.9,17.9,0,0,1,1.91,3c.09.2-1.52,1.52-1.77,1.37a5.89,5.89,0,0,1-2.19-2.35c-.18-.39.75-1.29,1.17-2Z"/><path class="cls-7" d="M761,592.73a17.72,17.72,0,0,1-2.26-3.22c-.11-.28,1.47-1.64,1.58-1.56a11.07,11.07,0,0,1,2.56,2.55C763,590.67,761.93,591.65,761,592.73Z"/><path class="cls-6" d="M451.62,780.65c-.69.4-1.69,1.31-2,1.11a8.22,8.22,0,0,1-2.37-2.5c-.07-.1,1.3-1.61,1.6-1.49a14.65,14.65,0,0,1,2.92,2Z"/><path class="cls-4" d="M167.63,156.52c-.74.31-1.76,1.07-2.16.83a11.74,11.74,0,0,1-2.31-2.49c.58-.48,1.39-1.47,1.69-1.34a16.58,16.58,0,0,1,2.93,2.07Z"/><path class="cls-5" d="M771.75,429.18c-.71.62-1.38,1.48-1.64,1.37a12.58,12.58,0,0,1-2.33-1.66l2.21-2.42Z"/><path class="cls-6" d="M685,737.42c-.8.61-1.47,1.42-1.79,1.3a10.8,10.8,0,0,1-2.34-1.6l2.22-2.46Z"/><path class="cls-4" d="M514.12,283.43c-1.16.92-1.87,1.91-2.59,1.92s-1.38-1-2.08-1.57c.69-.54,1.32-1.37,2.1-1.53C512.14,282.12,512.91,282.84,514.12,283.43Z"/><path class="cls-5" d="M691.6,477.83l1.89,1.73c-.65.65-1.27,1.78-2,1.82s-1.43-1-2.15-1.57Z"/><path class="cls-7" d="M453.7,536.79a12.23,12.23,0,0,1-3,1.44c-.41.08-1.09-.86-1.47-1.45-.09-.14.47-.85.85-1.11C451.34,534.77,452.37,535.24,453.7,536.79Z"/><path class="cls-5" d="M93.43,646.25a30,30,0,0,1,2.17,3.52c.1.21-.8,1.24-1.23,1.23-1.75,0-1.66-1.58-1.83-2.75C92.48,647.79,93,647.26,93.43,646.25Z"/><path class="cls-7" d="M612,538.39l1.75,2c-.67.59-1.31,1.62-2,1.65s-1.28-1-1.93-1.63C610.47,539.78,611.12,539.19,612,538.39Z"/><path class="cls-4" d="M728.36,319.13a20.48,20.48,0,0,1,1.91,2.42A1.53,1.53,0,0,1,730,323a2,2,0,0,1-1.69.1C727.19,322.5,727.21,320.24,728.36,319.13Z"/><path class="cls-4" d="M202.93,192.79a27.55,27.55,0,0,1,2.32,3.53c.12.25-.7,1.34-1.12,1.36-1.64.07-1.72-1.36-1.85-2.5A8.58,8.58,0,0,1,202.93,192.79Z"/><path class="cls-5" d="M528.56,449.12a13.56,13.56,0,0,1,2,2.49c.12.24-.71.92-1.1,1.41a31.12,31.12,0,0,1-2.34-2.09A17.68,17.68,0,0,1,528.56,449.12Z"/><path class="cls-7" d="M320,593.56l1.32-1.58c.75,1,1.53,2,2.18,3a6.5,6.5,0,0,1-1.32,1.08A30,30,0,0,1,320,593.56Z"/><path class="cls-4" d="M521.7,327.19l-2.51-2c.47-.44,1.16-1.34,1.37-1.24a19.16,19.16,0,0,1,2.77,1.86Z"/><path class="cls-6" d="M476.69,620.69a12.85,12.85,0,0,1,1.82,2c.09.15-.83.92-1.28,1.4a14.46,14.46,0,0,1-2.16-2.2c-.22-.32.26-1.11.43-1.69Z"/><path class="cls-6" d="M920.34,702.57l-2.7-2.06c.54-.42,1.29-1.3,1.57-1.17a14,14,0,0,1,2.5,1.89Z"/><path class="cls-7" d="M483,572l-2.68-1.79c.43-.46,1.11-1.39,1.26-1.31a11.54,11.54,0,0,1,2.83,2c.22.21-.17,1.05-.29,1.61Z"/><path class="cls-4" d="M456.89,256c1.37-.06,3-.89,3.38,1.21.1.48-.7,1.62-1,1.6A2.29,2.29,0,0,1,456.89,256Z"/><path class="cls-5" d="M920.22,513.62c-1,.83-1.71,1.63-1.88,1.53a18.69,18.69,0,0,1-2.41-2c.54-.34,1.13-1,1.61-.94A11,11,0,0,1,920.22,513.62Z"/><path class="cls-6" d="M655.25,596.78c-1.07.66-1.76,1.41-2.23,1.3a2.8,2.8,0,0,1-1.59-1.56c-.11-.26.93-1.43,1.26-1.35A9.62,9.62,0,0,1,655.25,596.78Z"/><path class="cls-6" d="M668.49,627.8l1.72-2c.55.65,1.11,1.29,1.67,1.94a24.62,24.62,0,0,1-2.28,1.54A13.09,13.09,0,0,1,668.49,627.8Z"/><path class="cls-7" d="M946.67,581.21a11,11,0,0,1-1.54-2.31c-.09-.27.91-1.22,1-1.18a8.64,8.64,0,0,1,2,1.7A13.89,13.89,0,0,1,946.67,581.21Z"/><path class="cls-6" d="M953.26,696.21a15.28,15.28,0,0,1,2.06,2.43c.09.17-1,1.35-1.37,1.27a2.49,2.49,0,0,1-1.66-1.39C952.13,698.06,952.76,697.31,953.26,696.21Z"/><path class="cls-5" d="M606.82,447.82l-3.2,2.14a16.83,16.83,0,0,1,0-2.84c.08-.44.56-.8.87-1.2Z"/><path class="cls-4" d="M762.39,348.29c-1.15.61-1.84,1.28-2.3,1.15a2.64,2.64,0,0,1-1.5-1.52c-.11-.29.91-1.41,1.2-1.33A10.83,10.83,0,0,1,762.39,348.29Z"/><path class="cls-5" d="M650.31,460c-.7.4-1.29.92-1.49.8a14.19,14.19,0,0,1-2.05-1.68l1.48-1.42Z"/><path class="cls-7" d="M377.94,549.51l1.26,2.58-2.44,1.06v-3.34Z"/><path class="cls-4" d="M752.56,246.45c.89,1.12,1.92,2,1.77,2.31-.33.75-1.24,1.25-1.92,1.85-.32-.39-1-.82-.91-1.16A19.15,19.15,0,0,1,752.56,246.45Z"/><path class="cls-6" d="M623.53,627.91c-.74.43-1.33,1-1.51.84a16.23,16.23,0,0,1-2-1.74l1.32-1.32Z"/><path class="cls-4" d="M578.49,253.25c-1,.7-1.7,1.5-2.09,1.37A2.45,2.45,0,0,1,575,253c-.07-.39.9-1.43,1.28-1.37C576.9,251.74,577.47,252.47,578.49,253.25Z"/><path class="cls-5" d="M397.4,468.73c-.58.43-1.14,1-1.24.9a24.75,24.75,0,0,1-2.12-1.86l1.4-1.26Z"/><path class="cls-4" d="M398.77,269.84c-.76.37-1.35.87-1.59.74a12.12,12.12,0,0,1-1.95-1.59l1.41-1.47Z"/><path class="cls-7" d="M646.66,550.09a12.25,12.25,0,0,1,1.75,2.35c.11.26-.62.86-1,1.31a16.2,16.2,0,0,1-1.73-2C645.59,551.57,646.14,551,646.66,550.09Z"/><path class="cls-4" d="M855.35,318.52c.67.94,1.39,1.54,1.29,1.9-.17.61-.87,1.08-1.34,1.61-.48-.52-1.25-1-1.35-1.56S854.65,319.44,855.35,318.52Z"/><path class="cls-6" d="M916.25,657.38a21.58,21.58,0,0,1-1.75-2.67c-.08-.18.59-.7.92-1.06a12.23,12.23,0,0,1,1.87,1.79C917.42,655.63,916.83,656.34,916.25,657.38Z"/><path class="cls-7" d="M534.13,526.15c.75.89,1.51,1.42,1.43,1.78-.13.61-.78,1.12-1.22,1.66-.51-.46-1.31-.85-1.44-1.4S533.51,527.11,534.13,526.15Z"/><path class="cls-4" d="M686,335.71l-1.72-1.95c.47-.39,1.12-1.19,1.39-1.08a4.28,4.28,0,0,1,1.64,1.53C687.38,334.3,686.66,335,686,335.71Z"/><path class="cls-5" d="M839.67,451.55a10.07,10.07,0,0,1-1.54,1.34,9.59,9.59,0,0,1-1.82-1.89c0-.06.84-1.08,1-1A14,14,0,0,1,839.67,451.55Z"/><path class="cls-5" d="M1060.82,579.23a12.58,12.58,0,0,1,1.52,2.45c.08.26-.71.79-1.1,1.19a17.55,17.55,0,0,1-1.61-2.16C1059.55,580.57,1060.16,580,1060.82,579.23Z"/><path class="cls-6" d="M363.58,742.93c-1,.71-1.58,1.48-2.06,1.41s-1-.92-1.48-1.43c.53-.42,1-1.07,1.62-1.18C362.08,741.65,362.64,742.31,363.58,742.93Z"/><path class="cls-4" d="M580.18,325.45c-.89.79-1.4,1.61-1.89,1.59s-1-.83-1.51-1.29c.46-.46.86-1.15,1.41-1.29S579.21,324.93,580.18,325.45Z"/><path class="cls-6" d="M945.19,634a8.33,8.33,0,0,1-1.53-2c-.08-.22,1-1.2,1.2-1.1a4.41,4.41,0,0,1,1.63,1.5C946.57,632.52,945.87,633.18,945.19,634Z"/><path class="cls-4" d="M304.43,209.81c-1.18.46-1.82,1-2.27.82s-1-.86-1.47-1.33c.46-.38,1-1.15,1.36-1.08C302.73,208.38,303.3,209,304.43,209.81Z"/><path class="cls-5" d="M663.32,516.17c-.38-.54-1-1.06-1.06-1.63,0-.34,1-1.17,1.28-1.07a2.65,2.65,0,0,1,1.52,1.43c.16.51-.36,1.23-.57,1.86Z"/><path class="cls-4" d="M933,325.22a20.12,20.12,0,0,1-1.78-2.38c0-.07,1.11-1.06,1.23-1a5,5,0,0,1,1.52,1.72C934,323.81,933.47,324.39,933,325.22Z"/><path class="cls-5" d="M902.88,750.39c-.71.55-1.29,1.18-1.45,1.09a14.42,14.42,0,0,1-1.95-1.57c.41-.4,1-1.2,1.2-1.11A11.07,11.07,0,0,1,902.88,750.39Z"/><path class="cls-5" d="M817,417.5a11.27,11.27,0,0,1-1.65-2.16c-.07-.17.86-.78,1.34-1.18a11,11,0,0,1,1.38,1.9C818.17,416.26,817.55,416.8,817,417.5Z"/><path class="cls-4" d="M899.36,440.88a18.81,18.81,0,0,1-1.71-2.42c-.06-.11.91-1,1.05-.93a5.14,5.14,0,0,1,1.7,1.54C900.53,439.28,899.9,440,899.36,440.88Z"/><path class="cls-6" d="M359.14,669.64c-.4-.5-.95-1-.89-1.13a5.82,5.82,0,0,1,1.6-1.53c.16-.09.79.63,1.21,1Z"/><path class="cls-4" d="M731.79,405.51a18.88,18.88,0,0,1-2.5,1.57c-.15.06-.62-.64-.95-1a7.56,7.56,0,0,1,1.63-1.24C730.28,404.71,730.81,405.13,731.79,405.51Z"/><path class="cls-6" d="M459,670.72a6.29,6.29,0,0,1,1-1.89c.22-.2,1.06.26,1.62.43l-1.62,2Z"/></g><path class="cls-4" d="M150.11,735.11A107.4,107.4,0,1,1,87.57,540.39h1.49a107.41,107.41,0,0,0,61.05,194.71Z"/></svg>