<svg xmlns="http://www.w3.org/2000/svg" xmlns:xlink="http://www.w3.org/1999/xlink" viewBox="0 0 545.86 405.66"><defs><style>.cls-1{fill:none;}.cls-2{fill:url(#linear-gradient);}.cls-3{fill:url(#linear-gradient-2);}.cls-4{fill:#d43133;}.cls-5{fill:#ba272d;}.cls-6{opacity:0.1;}.cls-7{fill:#2f150e;}.cls-8{fill:#5d291b;}.cls-9{clip-path:url(#clip-path);}.cls-10{fill:#fdfdfd;}.cls-11{fill:#ff6652;}.cls-12{fill:#e1493d;}</style><linearGradient id="linear-gradient" x1="94.4" y1="100.21" x2="94.4" y2="156.85" gradientTransform="translate(178.01 37.49) rotate(-2.54)" gradientUnits="userSpaceOnUse"><stop offset="0" stop-color="#d43133"/><stop offset="1" stop-color="#ba272d"/></linearGradient><linearGradient id="linear-gradient-2" x1="94.4" y1="161.94" x2="94.4" y2="316.27" gradientTransform="translate(178.01 37.49) rotate(-2.54)" gradientUnits="userSpaceOnUse"><stop offset="0" stop-color="#ea7e7d"/><stop offset="0.48" stop-color="#e45958"/><stop offset="1" stop-color="#e34f4f"/></linearGradient><clipPath id="clip-path"><path class="cls-1" d="M236.77,186.52a69.74,69.74,0,0,1,17-26.47c.25-.25.59-.58,1-1,5.65-5.32,25-22.29,48.16-17.9a43.26,43.26,0,0,1,15.1,6l2,2.58,1.42,1.86a63,63,0,0,1,4,8.37,60,60,0,0,1,2.1,6.32,62.71,62.71,0,0,1,2.15,17.8c.59,5.05,1.19,10.11,1.78,15.15,0,0-32.26-17.34-97.94.88A57.51,57.51,0,0,1,236.77,186.52Z"/></clipPath></defs><g id="Layer_2" data-name="Layer 2"><g id="Layer_1-2" data-name="Layer 1"><path class="cls-2" d="M449.36,213.59c2.65,59.6-69.86,131.55-163,135.68S114.54,288.14,111.9,228.54s71.67-91,164.85-95.12S446.72,154,449.36,213.59Z"/><path class="cls-3" d="M279.48,195.09c-78.81,3.49-141.81,26.35-139.92,68.92s67.95,88.75,146.76,85.26S426.85,293.93,425,251.36,358.3,191.6,279.48,195.09Z"/><path class="cls-4" d="M353.07,162.75s12.44-34.19,11.7-51S370,95.22,377.16,94.9s7.79,16.95,3.53,29.16-18.85,32.24-23.39,38.32C352.92,168.24,350.62,170,353.07,162.75Z"/><path class="cls-4" d="M421.21,213.58s46.13-44.56,57.93-71.73,21-22.22,32.68-17.17-.76,32.86-16.94,48.91-54.81,36.56-66.69,42.67C416.7,222.18,411.73,223.17,421.21,213.58Z"/><path class="cls-4" d="M214.17,168.91s-15.41-33-16.15-49.74-6.64-16-13.84-15.72-6.26,17.57-.94,29.35,21.64,30.46,26.69,36.11C214.82,174.36,217.25,175.9,214.17,168.91Z"/><path class="cls-4" d="M493.24,134.25s-26-12.85-25.95-63.94,17-62.47,21.2-65.76,3.21,13.17,2.6,26.25c-.44,9.27-1.16,63,9.5,71S514.68,135.26,493.24,134.25Z"/><path class="cls-4" d="M135.94,226.22s-49.89-40.3-64-66.32S49,139.63,37.82,145.68,41.48,178.35,59,192.9s57.83,31.57,70.2,36.61C141.19,234.39,146.23,234.93,135.94,226.22Z"/><path class="cls-5" d="M126,265.54s-30.58.61-61.11,8.78c-21.27,5.69-23.47,4.87-28.44-3.16S53.17,254,69.86,251.05s45.8,5.42,55.65,6.73C135,259,135.79,263.71,126,265.54Z"/><path class="cls-5" d="M90.57,391.34s-10.35-59.1-2.3-85.13,3.49-27.82-7.67-31.27-18.42,26.53-16.73,47.43,11.46,49.7,21.78,66.52C91.86,399,95.35,405.56,90.57,391.34Z"/><path class="cls-5" d="M134.49,285.44s-11.54-.88-37.22,2c-10.29,1.17-19.21,4-23.57-4.68s14.35-10.45,28.43-10.31,23.48,2.33,31.84,5.36C142.06,280.76,142.81,285.42,134.49,285.44Z"/><path class="cls-5" d="M114.54,381.47s-8.66-44.36-3-64.1,2.22-21-6.24-23.45-13.48,20.25-11.9,36,9.36,37.28,17.38,49.81C115.63,387.24,118.35,392.13,114.54,381.47Z"/><path class="cls-5" d="M150.48,303.26s-8.95-.91-30.48.21c-8.63.45-16.52,3.47-19.71-4s12.48-8,24.2-7.13,19.44,3.14,26.24,6.09C157.32,301.31,157.4,303.67,150.48,303.26Z"/><path class="cls-5" d="M132.13,380s-6.14-36.64-1-52.74,2.29-17.22-4.61-19.42S115,324.16,115.9,337.12s6.88,30.83,13.19,41.3C132.89,384.73,135,388.81,132.13,380Z"/><path class="cls-5" d="M160.7,310.87s-6.91.17-23.23,3.06c-6.53,1.17-12.27,4.22-15.41-1.14s8.76-7.26,17.78-7.74a58.15,58.15,0,0,1,20.59,2.15C165.73,308.74,166,310.52,160.7,310.87Z"/><path class="cls-4" d="M36.47,161.2S-3.24,149,.21,93.62s30.64-68.87,37.45-72.7S41.79,35,40,49.2c-1.3,10.08-6,68.32,10.11,76.35S69.84,160.87,36.47,161.2Z"/><path class="cls-5" d="M65.54,396.63s-8.84-69-6.2-98.49c2.86-31.83-4.16-35.49-18-34.72-12.69.72-14,28.57-12.07,54.5,1.72,22.73,18,58.66,29,77C64.92,406,72.38,411.45,65.54,396.63Z"/><path class="cls-5" d="M438.4,251.69S468.91,249.6,500,255c21.69,3.8,23.81,2.78,28.05-5.65S509.87,233.74,493,232.3s-45.15,9.45-54.85,11.62C428.78,246,428.43,250.74,438.4,251.69Z"/><path class="cls-5" d="M484.76,373.87s5.08-59.78-5.23-85-5.94-27.4,4.88-31.83,20.68,24.8,20.85,45.77-7,50.52-15.8,68.18C484.16,381.63,481.26,388.46,484.76,373.87Z"/><path class="cls-5" d="M431.66,272.27s11.4-1.9,37.24-1.27c10.36.26,19.49,2.26,23.07-6.75s-15.22-9.13-29.24-7.75-23.17,4.4-31.24,8.16C423.69,268.28,423.37,273,431.66,272.27Z"/><path class="cls-5" d="M460,366.16s4.7-45-2.7-64.11-4.08-20.74,4.14-23.92,15.22,19,15,34.79-6,37.95-12.9,51.14C459.45,372,457.16,377.12,460,366.16Z"/><path class="cls-5" d="M417.3,291.44s8.84-1.7,30.38-2.49c8.64-.32,16.76,2,19.29-5.68s-13.14-6.83-24.75-5-19.08,4.84-25.59,8.38C410.31,290.1,410.44,292.46,417.3,291.44Z"/><path class="cls-5" d="M442.36,366.21s2.88-37-3.63-52.62-3.81-17,2.88-19.75,12.93,15.27,13.13,28.26-4.13,31.33-9.48,42.31C442,371,440.26,375.28,442.36,366.21Z"/><path class="cls-5" d="M407.8,299.92s6.89-.44,23.4,1c6.61.59,12.6,3.12,15.25-2.5s-9.37-6.45-18.39-6.13a58.11,58.11,0,0,0-20.33,4C402.59,298.24,402.46,300,407.8,299.92Z"/><path class="cls-5" d="M510.17,376.93s2.7-69.5-2.55-98.65c-5.65-31.46,1-35.73,14.87-36.18,12.69-.41,16.52,27.22,16.84,53.22.28,22.79-12.74,60-22.07,79.23C511.62,386.17,504.66,392.3,510.17,376.93Z"/><path class="cls-4" d="M376.29,71.72a20.83,20.83,0,0,0-16,33.43,21.09,21.09,0,0,0,20.27,7.76c6.13-1.18,11.78-5.54,13.61-11.51,1.75-5.71-.05-11.86-2.26-17.4-1.5-3.76-3.34-7.63-6.67-9.93A14.83,14.83,0,0,0,376.29,71.72Z"/><path class="cls-4" d="M180.34,121.1a20.83,20.83,0,0,0,25-27.38,21.1,21.1,0,0,0-17.16-13.28c-6.22-.65-12.89,1.9-16.37,7.09-3.32,5-3.37,11.36-2.86,17.31.35,4,1,8.26,3.52,11.43A15,15,0,0,0,180.34,121.1Z"/><path class="cls-4" d="M57.17,153.58s24.76-15.1,20.2-66S54.92,26.86,50.43,24s-2,13.41-.26,26.38C51.42,59.53,56.89,113,47,121.91S35.91,156.47,57.17,153.58Z"/><path class="cls-4" d="M514.53,140S553,124.34,544.67,69.49,508.06,3.61,501,.39s-2.88,14.37.2,28.37c2.19,9.93,12,67.53-3.32,76.95S481.27,142.64,514.53,140Z"/><path class="cls-6" d="M144.81,284.17a120.36,120.36,0,0,0,15.4,21c43.26,47.24,111.54,44.63,126.11,44.08a187.11,187.11,0,0,0,74-18.57c14.5-7.09,35.2-17.51,50.68-40.24a101.52,101.52,0,0,0,8.39-14.84,341.23,341.23,0,0,1-137.82,33.24A341.23,341.23,0,0,1,144.81,284.17Z"/><path class="cls-7" d="M385.4,97c-.27,1.53-2.13,10.83-9.1,11.85-5.92.87-12.17-4.74-11.85-9.09.15-2,2-3.49,5.55-6.38,5.54-4.43,10.31-8.26,13.3-6.64C386.79,88.65,385.46,96.68,385.4,97Z"/><path class="cls-7" d="M353.11,97.74l42.32-36.18s-13.79-6.66-30.94,8.26S353.11,97.74,353.11,97.74Z"/><path class="cls-7" d="M213.72,109.42,160.46,71.59s15.42-9.24,37,6.39S213.72,109.42,213.72,109.42Z"/><path class="cls-7" d="M173.71,107.8c.88,1.92,6.47,13.47,14.1,12.19,6.49-1.1,10.78-10.85,8.73-16.46-.94-2.59-3.4-3.86-8.27-6.31-7.49-3.76-13.94-7-16.41-3.74C169,97.28,173.51,107.36,173.71,107.8Z"/><path class="cls-8" d="M236.77,186.52a69.74,69.74,0,0,1,17-26.47c.25-.25.59-.58,1-1,5.65-5.32,25-22.29,48.16-17.9a43.26,43.26,0,0,1,15.1,6l2,2.58,1.42,1.86a63,63,0,0,1,4,8.37,60,60,0,0,1,2.1,6.32,62.71,62.71,0,0,1,2.15,17.8c.59,5.05,1.19,10.11,1.78,15.15,0,0-32.26-17.34-97.94.88A57.51,57.51,0,0,1,236.77,186.52Z"/><g class="cls-9"><path class="cls-10" d="M244.27,147.51c41.24-14.31,78.55-6.54,92.9-2.37L339,160.31S306.69,143,241,161.18A58,58,0,0,1,244.27,147.51Z"/><path class="cls-11" d="M332.83,185.49c3.79,7,3.24,11.38,2.47,13.8-5.07,15.83-43.65,20.1-72.79,12.34a99.29,99.29,0,0,1-22.06-8.82,2.26,2.26,0,0,0-1.43-1.88,2.29,2.29,0,0,0-1.92.2h0c1.5-.58-3,1.86-4.57,1.55s-3-3.71-3-18.51a.75.75,0,0,1,.12-.07c36.48-18.66,72.26-11.29,95.81-1.71Q329.38,183.94,332.83,185.49Z"/><path class="cls-12" d="M232.53,202.68c7.43-6.08,21.79-15.89,41.67-18.26a81.94,81.94,0,0,1,28.08,1.66c16.22,3.82,33,13.18,33,13.21h0a132.11,132.11,0,0,1-95,8.34"/></g></g></g></svg>