<svg id="Layer_1" data-name="Layer 1" xmlns="http://www.w3.org/2000/svg" xmlns:xlink="http://www.w3.org/1999/xlink" viewBox="0 0 1125 1626"><defs><style>.cls-1{fill:url(#linear-gradient);}.cls-2,.cls-4{opacity:0.5;}.cls-2{fill:url(#linear-gradient-2);}.cls-3{fill:#fff;}.cls-4{fill:url(#linear-gradient-3);}</style><linearGradient id="linear-gradient" x1="565.69" y1="943.07" x2="565.69" y2="90.11" gradientUnits="userSpaceOnUse"><stop offset="0" stop-color="#ffdeb3"/><stop offset="1" stop-color="#37c2ec"/></linearGradient><linearGradient id="linear-gradient-2" x1="11119.46" y1="587.8" x2="11121.2" y2="744.83" gradientTransform="matrix(-0.79, 0, 0, 1, 9713.85, 0)" gradientUnits="userSpaceOnUse"><stop offset="0" stop-color="#fff"/><stop offset="1" stop-color="#fff" stop-opacity="0"/></linearGradient><linearGradient id="linear-gradient-3" x1="12071.41" y1="205.4" x2="12072.63" y2="315.14" gradientTransform="matrix(-0.79, 0, 0, 1, 9713.85, 0)" gradientUnits="userSpaceOnUse"><stop offset="0" stop-color="#fff"/><stop offset="1" stop-color="#fff" stop-opacity="0"/></linearGradient></defs><rect class="cls-1" x="3.19" y="1.89" width="1125" height="1179.11"/><path class="cls-2" d="M830.69,710.89s6.54,68,109,57,102.31-57,102.31-57,50.23-9,50.23-54-42.5-49-68.65-39l-37,16s36-59.1-25.06-84.55-124.21,25.55-124.21,25.55-.43-22.72-17.75-38.47c-17.84-16.21-41-15.11-50.89-14.53-47.48,2.74-92.06,44.7-105.4,93-3.83,13.84-15.36,55.58,10,82,16.61,17.3,40.25,18.86,49,19A145.35,145.35,0,0,0,766.11,724,147.14,147.14,0,0,0,830.69,710.89Z"/><circle class="cls-3" cx="112.87" cy="666.48" r="189"/><path class="cls-4" d="M87.45,291.42s4.57,47.52,76.14,39.83,71.5-39.83,71.5-39.83,35.1-6.29,35.1-37.74-29.7-34.24-48-27.25l-25.89,11.18s25.13-41.3-17.51-59.09S92,196.38,92,196.38s-.3-15.88-12.41-26.88C67.15,158.17,51,158.94,44.05,159.34c-33.18,1.92-64.33,31.24-73.66,65-2.67,9.67-10.73,38.85,7,57.3,11.61,12.1,28.14,13.19,34.24,13.28a101.63,101.63,0,0,0,30.7,5.67A102.91,102.91,0,0,0,87.45,291.42Z"/></svg>