<svg xmlns="http://www.w3.org/2000/svg" viewBox="0 0 61.04 67.58"><defs><style>.cls-1{fill:#fff;stroke:#fff;stroke-miterlimit:10;stroke-width:1.5px;}</style></defs><g id="Layer_2" data-name="Layer 2"><g id="Layer_1-2" data-name="Layer 1"><path class="cls-1" d="M56.73,40.05,46,50l5.77,2-.49.61C46.41,58.74,40.5,62.13,33.14,63l-.61.08V30.89h2.8c1.7,0,3.36,0,5,0a3.88,3.88,0,0,0,1.95-.35A1.41,1.41,0,0,0,43,29.17a1.62,1.62,0,0,0-.41-1.25,3,3,0,0,0-2.16-.6H32.64l0-.5C32,20.29,32,20.1,36.32,16.7a8.74,8.74,0,0,0,3.29-6.94,9,9,0,0,0-3.49-7.08,9.11,9.11,0,0,0-7-1.83,8.94,8.94,0,0,0-6,3.75,8.94,8.94,0,0,0-1.51,7A9.35,9.35,0,0,0,26,17.6c1,.62,2.36,1.56,2.55,2.69a21.79,21.79,0,0,1,.16,4.52c0,.64,0,1.3,0,2v.56h-.55c-.85,0-1.67,0-2.46,0a30.1,30.1,0,0,0-5.07.15c-.91.12-2.32,1.13-2.42,1.72a1.28,1.28,0,0,0,.2,1.11,3,3,0,0,0,2.2.63c1.73,0,3.45,0,5.19,0h2.78V63.06L27.94,63A25.68,25.68,0,0,1,9.87,52.61L9.4,52l5.71-2L4.33,40,1.09,54.45A5.89,5.89,0,0,1,3.8,53.7c2.13,0,3.57,1.61,5,3.19l.27.3a28.69,28.69,0,0,0,43.21-.34c2.3-2.66,4.4-4,7.71-2.62ZM30.52,15.17H30.4a5.38,5.38,0,0,1-3.63-9.26,5.55,5.55,0,0,1,3.91-1.57,5.43,5.43,0,0,1,5.25,5.42,5.34,5.34,0,0,1-1.56,3.89A5.44,5.44,0,0,1,30.52,15.17Z"/></g></g></svg>